<!-- <svg width="536" height="297" viewBox="0 0 536 297" fill="none" xmlns="http://www.w3.org/2000/svg"> -->
<svg viewBox="20 45 470 220" fill="none"
  xmlns="http://www.w3.org/2000/svg">
  <rect x="57" y="164" width="399" height="80" fill="url(#paint0_linear)"/>
  <rect width="4.97072" height="5.13412" rx="2.48536" transform="matrix(0.995938 -0.0900414 0.0843612 0.996435 60 79.4476)" fill="#FFBE46" fill-opacity="0.2"/>
  <rect width="4.97072" height="5.13413" rx="2.48536" transform="matrix(0.995938 -0.0900426 0.0843601 0.996435 69.9389 79.4476)" fill="#FFBE46" fill-opacity="0.2"/>
  <rect width="4.97072" height="5.13413" rx="2.48536" transform="matrix(0.995938 -0.0900426 0.0843601 0.996435 79.8778 79.4476)" fill="#FFBE46" fill-opacity="0.2"/>
  <rect width="4.97072" height="5.13413" rx="2.48536" transform="matrix(0.995938 -0.0900426 0.0843601 0.996435 89.8166 79.4476)" fill="#FFBE46" fill-opacity="0.2"/>
  <rect width="4.97072" height="5.13413" rx="2.48536" transform="matrix(0.995938 -0.0900426 0.0843601 0.996435 99.7555 79.4476)" fill="#FFBE46" fill-opacity="0.2"/>
  <rect width="4.97072" height="5.13413" rx="2.48536" transform="matrix(0.995938 -0.0900426 0.0843601 0.996435 109.694 79.4476)" fill="#FFBE46" fill-opacity="0.2"/>
  <rect width="4.97072" height="5.13413" rx="2.48536" transform="matrix(0.995938 -0.0900426 0.0843601 0.996435 119.633 79.4476)" fill="#FFBE46" fill-opacity="0.2"/>
  <rect width="4.97072" height="5.13413" rx="2.48536" transform="matrix(0.995938 -0.0900426 0.0843601 0.996435 129.572 79.4476)" fill="#FFBE46" fill-opacity="0.2"/>
  <rect width="4.97072" height="5.13413" rx="2.48536" transform="matrix(0.995938 -0.0900426 0.0843601 0.996435 139.511 79.4476)" fill="#FFBE46" fill-opacity="0.2"/>
  <rect width="4.97072" height="5.13413" rx="2.48536" transform="matrix(0.995938 -0.0900426 0.0843601 0.996435 149.45 79.4476)" fill="#FFBE46" fill-opacity="0.2"/>
  <rect width="4.97072" height="5.13413" rx="2.48536" transform="matrix(0.995938 -0.0900426 0.0843601 0.996435 159.389 79.4476)" fill="#FFBE46" fill-opacity="0.2"/>
  <rect width="4.97072" height="5.13413" rx="2.48536" transform="matrix(0.995938 -0.0900426 0.0843601 0.996435 169.328 79.4476)" fill="#FFBE46" fill-opacity="0.2"/>
  <rect width="4.97072" height="5.13413" rx="2.48536" transform="matrix(0.995938 -0.0900426 0.0843601 0.996435 179.267 79.4476)" fill="#FFBE46" fill-opacity="0.2"/>
  <rect width="4.97072" height="5.13413" rx="2.48536" transform="matrix(0.995938 -0.0900426 0.0843601 0.996435 189.205 79.4476)" fill="#FFBE46" fill-opacity="0.2"/>
  <rect width="4.97072" height="5.13413" rx="2.48536" transform="matrix(0.995938 -0.0900426 0.0843601 0.996435 199.144 79.4476)" fill="#FFBE46" fill-opacity="0.2"/>
  <rect width="4.97072" height="5.13413" rx="2.48536" transform="matrix(0.995938 -0.0900426 0.0843601 0.996435 209.083 79.4476)" fill="#FFBE46" fill-opacity="0.2"/>
  <rect width="4.97072" height="5.13413" rx="2.48536" transform="matrix(0.995938 -0.0900426 0.0843601 0.996435 219.022 79.4476)" fill="#FFBE46" fill-opacity="0.2"/>
  <rect width="4.97072" height="5.13413" rx="2.48536" transform="matrix(0.995938 -0.0900426 0.0843601 0.996435 228.961 79.4476)" fill="#FFBE46" fill-opacity="0.2"/>
  <rect width="4.97072" height="5.13413" rx="2.48536" transform="matrix(0.995938 -0.0900426 0.0843601 0.996435 238.9 79.4476)" fill="#FFBE46" fill-opacity="0.2"/>
  <rect width="4.97072" height="5.13413" rx="2.48536" transform="matrix(0.995938 -0.0900426 0.0843601 0.996435 248.839 79.4476)" fill="#FFBE46" fill-opacity="0.2"/>
  <rect width="4.97072" height="5.13413" rx="2.48536" transform="matrix(0.995938 -0.0900426 0.0843601 0.996435 258.778 79.4476)" fill="#FFBE46" fill-opacity="0.2"/>
  <rect width="4.97072" height="5.13413" rx="2.48536" transform="matrix(0.995938 -0.0900426 0.0843601 0.996435 268.716 79.4476)" fill="#FFBE46" fill-opacity="0.2"/>
  <rect width="4.97072" height="5.13413" rx="2.48536" transform="matrix(0.995938 -0.0900426 0.0843601 0.996435 278.655 79.4476)" fill="#FFBE46" fill-opacity="0.2"/>
  <rect width="4.97072" height="5.13413" rx="2.48536" transform="matrix(0.995938 -0.0900426 0.0843601 0.996435 288.594 79.4476)" fill="#FFBE46" fill-opacity="0.2"/>
  <rect width="4.97072" height="5.13413" rx="2.48536" transform="matrix(0.995938 -0.0900426 0.0843601 0.996435 298.533 79.4476)" fill="#FFBE46" fill-opacity="0.2"/>
  <rect width="4.97072" height="5.13413" rx="2.48536" transform="matrix(0.995938 -0.0900426 0.0843601 0.996435 308.472 79.4476)" fill="#FFBE46" fill-opacity="0.2"/>
  <rect width="4.97072" height="5.13413" rx="2.48536" transform="matrix(0.995938 -0.0900426 0.0843601 0.996435 318.411 79.4476)" fill="#FFBE46" fill-opacity="0.2"/>
  <rect width="4.97072" height="5.13413" rx="2.48536" transform="matrix(0.995938 -0.0900426 0.0843601 0.996435 328.35 79.4476)" fill="#FFBE46" fill-opacity="0.2"/>
  <rect width="4.97072" height="5.13413" rx="2.48536" transform="matrix(0.995938 -0.0900426 0.0843601 0.996435 338.289 79.4476)" fill="#FFBE46" fill-opacity="0.2"/>
  <rect width="4.97072" height="5.13413" rx="2.48536" transform="matrix(0.995938 -0.0900426 0.0843601 0.996435 348.228 79.4476)" fill="#FFBE46" fill-opacity="0.2"/>
  <rect width="4.97072" height="5.13413" rx="2.48536" transform="matrix(0.995938 -0.0900426 0.0843601 0.996435 358.166 79.4476)" fill="#FFBE46" fill-opacity="0.2"/>
  <rect width="4.97072" height="5.13413" rx="2.48536" transform="matrix(0.995938 -0.0900426 0.0843601 0.996435 368.105 79.4476)" fill="#FFBE46" fill-opacity="0.2"/>
  <rect width="4.97072" height="5.13413" rx="2.48536" transform="matrix(0.995938 -0.0900426 0.0843601 0.996435 378.044 79.4476)" fill="#FFBE46" fill-opacity="0.2"/>
  <rect width="4.97072" height="5.13413" rx="2.48536" transform="matrix(0.995938 -0.0900426 0.0843601 0.996435 387.983 79.4476)" fill="#FFBE46" fill-opacity="0.2"/>
  <rect width="4.97072" height="5.13413" rx="2.48536" transform="matrix(0.995938 -0.0900426 0.0843601 0.996435 397.922 79.4476)" fill="#FFBE46" fill-opacity="0.2"/>
  <rect width="4.97072" height="5.13413" rx="2.48536" transform="matrix(0.995938 -0.0900426 0.0843601 0.996435 407.861 79.4476)" fill="#FFBE46" fill-opacity="0.2"/>
  <rect width="4.97072" height="5.13413" rx="2.48536" transform="matrix(0.995938 -0.0900426 0.0843601 0.996435 417.8 79.4476)" fill="#FFBE46" fill-opacity="0.2"/>
  <rect width="4.97072" height="5.13413" rx="2.48536" transform="matrix(0.995938 -0.0900426 0.0843601 0.996435 427.739 79.4476)" fill="#FFBE46" fill-opacity="0.2"/>
  <rect width="4.97072" height="5.13413" rx="2.48536" transform="matrix(0.995938 -0.0900426 0.0843601 0.996435 437.677 79.4476)" fill="#FFBE46" fill-opacity="0.2"/>
  <rect width="4.97072" height="5.13413" rx="2.48536" transform="matrix(0.995938 -0.0900426 0.0843601 0.996435 447.616 79.4476)" fill="#FFBE46" fill-opacity="0.2"/>
  <rect width="4.97072" height="5.13412" rx="2.48536" transform="matrix(0.995938 -0.0900414 0.0843612 0.996435 60 89.7183)" fill="#FFBE46" fill-opacity="0.3"/>
  <rect width="4.97072" height="5.13413" rx="2.48536" transform="matrix(0.995938 -0.0900426 0.0843601 0.996435 69.9389 89.7183)" fill="#FFBE46" fill-opacity="0.3"/>
  <rect width="4.97072" height="5.13413" rx="2.48536" transform="matrix(0.995938 -0.0900426 0.0843601 0.996435 79.8778 89.7183)" fill="#FFBE46" fill-opacity="0.3"/>
  <rect width="4.97072" height="5.13413" rx="2.48536" transform="matrix(0.995938 -0.0900426 0.0843601 0.996435 89.8166 89.7183)" fill="#FFBE46" fill-opacity="0.3"/>
  <rect width="4.97072" height="5.13413" rx="2.48536" transform="matrix(0.995938 -0.0900426 0.0843601 0.996435 99.7555 89.7183)" fill="#FFBE46" fill-opacity="0.3"/>
  <rect width="4.97072" height="5.13413" rx="2.48536" transform="matrix(0.995938 -0.0900426 0.0843601 0.996435 109.694 89.7183)" fill="#FFBE46" fill-opacity="0.3"/>
  <rect width="4.97072" height="5.13413" rx="2.48536" transform="matrix(0.995938 -0.0900426 0.0843601 0.996435 119.633 89.7183)" fill="#FFBE46" fill-opacity="0.3"/>
  <rect width="4.97072" height="5.13413" rx="2.48536" transform="matrix(0.995938 -0.0900426 0.0843601 0.996435 129.572 89.7183)" fill="#FFBE46" fill-opacity="0.3"/>
  <rect width="4.97072" height="5.13413" rx="2.48536" transform="matrix(0.995938 -0.0900426 0.0843601 0.996435 139.511 89.7183)" fill="#FFBE46" fill-opacity="0.3"/>
  <rect width="4.97072" height="5.13413" rx="2.48536" transform="matrix(0.995938 -0.0900426 0.0843601 0.996435 149.45 89.7183)" fill="#FFBE46" fill-opacity="0.3"/>
  <rect width="4.97072" height="5.13413" rx="2.48536" transform="matrix(0.995938 -0.0900426 0.0843601 0.996435 159.389 89.7183)" fill="#FFBE46" fill-opacity="0.3"/>
  <rect width="4.97072" height="5.13413" rx="2.48536" transform="matrix(0.995938 -0.0900426 0.0843601 0.996435 169.328 89.7183)" fill="#FFBE46" fill-opacity="0.3"/>
  <rect width="4.97072" height="5.13413" rx="2.48536" transform="matrix(0.995938 -0.0900426 0.0843601 0.996435 179.267 89.7183)" fill="#FFBE46" fill-opacity="0.3"/>
  <rect width="4.97072" height="5.13413" rx="2.48536" transform="matrix(0.995938 -0.0900426 0.0843601 0.996435 189.205 89.7183)" fill="#FFBE46" fill-opacity="0.3"/>
  <rect width="4.97072" height="5.13413" rx="2.48536" transform="matrix(0.995938 -0.0900426 0.0843601 0.996435 199.144 89.7183)" fill="#FFBE46" fill-opacity="0.3"/>
  <rect width="4.97072" height="5.13413" rx="2.48536" transform="matrix(0.995938 -0.0900426 0.0843601 0.996435 209.083 89.7183)" fill="#FFBE46" fill-opacity="0.3"/>
  <rect width="4.97072" height="5.13413" rx="2.48536" transform="matrix(0.995938 -0.0900426 0.0843601 0.996435 219.022 89.7183)" fill="#FFBE46" fill-opacity="0.3"/>
  <rect width="4.97072" height="5.13413" rx="2.48536" transform="matrix(0.995938 -0.0900426 0.0843601 0.996435 228.961 89.7183)" fill="#FFBE46" fill-opacity="0.3"/>
  <rect width="4.97072" height="5.13413" rx="2.48536" transform="matrix(0.995938 -0.0900426 0.0843601 0.996435 238.9 89.7183)" fill="#FFBE46" fill-opacity="0.3"/>
  <rect width="4.97072" height="5.13413" rx="2.48536" transform="matrix(0.995938 -0.0900426 0.0843601 0.996435 248.839 89.7183)" fill="#FFBE46" fill-opacity="0.3"/>
  <rect width="4.97072" height="5.13413" rx="2.48536" transform="matrix(0.995938 -0.0900426 0.0843601 0.996435 258.778 89.7183)" fill="#FFBE46" fill-opacity="0.3"/>
  <rect width="4.97072" height="5.13413" rx="2.48536" transform="matrix(0.995938 -0.0900426 0.0843601 0.996435 268.716 89.7183)" fill="#FFBE46" fill-opacity="0.3"/>
  <rect width="4.97072" height="5.13413" rx="2.48536" transform="matrix(0.995938 -0.0900426 0.0843601 0.996435 278.655 89.7183)" fill="#FFBE46" fill-opacity="0.3"/>
  <rect width="4.97072" height="5.13413" rx="2.48536" transform="matrix(0.995938 -0.0900426 0.0843601 0.996435 288.594 89.7183)" fill="#FFBE46" fill-opacity="0.3"/>
  <rect width="4.97072" height="5.13413" rx="2.48536" transform="matrix(0.995938 -0.0900426 0.0843601 0.996435 298.533 89.7183)" fill="#FFBE46" fill-opacity="0.3"/>
  <rect width="4.97072" height="5.13413" rx="2.48536" transform="matrix(0.995938 -0.0900426 0.0843601 0.996435 308.472 89.7183)" fill="#FFBE46" fill-opacity="0.3"/>
  <rect width="4.97072" height="5.13413" rx="2.48536" transform="matrix(0.995938 -0.0900426 0.0843601 0.996435 318.411 89.7183)" fill="#FFBE46" fill-opacity="0.3"/>
  <rect width="4.97072" height="5.13413" rx="2.48536" transform="matrix(0.995938 -0.0900426 0.0843601 0.996435 328.35 89.7183)" fill="#FFBE46" fill-opacity="0.3"/>
  <rect width="4.97072" height="5.13413" rx="2.48536" transform="matrix(0.995938 -0.0900426 0.0843601 0.996435 338.289 89.7183)" fill="#FFBE46" fill-opacity="0.3"/>
  <rect width="4.97072" height="5.13413" rx="2.48536" transform="matrix(0.995938 -0.0900426 0.0843601 0.996435 348.228 89.7183)" fill="#FFBE46" fill-opacity="0.3"/>
  <rect width="4.97072" height="5.13413" rx="2.48536" transform="matrix(0.995938 -0.0900426 0.0843601 0.996435 358.166 89.7183)" fill="#FFBE46" fill-opacity="0.3"/>
  <rect width="4.97072" height="5.13413" rx="2.48536" transform="matrix(0.995938 -0.0900426 0.0843601 0.996435 368.105 89.7183)" fill="#FFBE46" fill-opacity="0.3"/>
  <rect width="4.97072" height="5.13413" rx="2.48536" transform="matrix(0.995938 -0.0900426 0.0843601 0.996435 378.044 89.7183)" fill="#FFBE46" fill-opacity="0.3"/>
  <rect width="4.97072" height="5.13413" rx="2.48536" transform="matrix(0.995938 -0.0900426 0.0843601 0.996435 387.983 89.7183)" fill="#FFBE46" fill-opacity="0.3"/>
  <rect width="4.97072" height="5.13413" rx="2.48536" transform="matrix(0.995938 -0.0900426 0.0843601 0.996435 397.922 89.7183)" fill="#FFBE46" fill-opacity="0.3"/>
  <rect width="4.97072" height="5.13413" rx="2.48536" transform="matrix(0.995938 -0.0900426 0.0843601 0.996435 407.861 89.7183)" fill="#FFBE46" fill-opacity="0.3"/>
  <rect width="4.97072" height="5.13413" rx="2.48536" transform="matrix(0.995938 -0.0900426 0.0843601 0.996435 417.8 89.7183)" fill="#FFBE46" fill-opacity="0.3"/>
  <rect width="4.97072" height="5.13413" rx="2.48536" transform="matrix(0.995938 -0.0900426 0.0843601 0.996435 427.739 89.7183)" fill="#FFBE46" fill-opacity="0.3"/>
  <rect width="4.97072" height="5.13413" rx="2.48536" transform="matrix(0.995938 -0.0900426 0.0843601 0.996435 437.677 89.7183)" fill="#FFBE46" fill-opacity="0.3"/>
  <rect width="4.97072" height="5.13413" rx="2.48536" transform="matrix(0.995938 -0.0900426 0.0843601 0.996435 447.616 89.7183)" fill="#FFBE46" fill-opacity="0.3"/>
  <rect width="4.97072" height="5.13412" rx="2.48536" transform="matrix(0.995938 -0.0900414 0.0843612 0.996435 60 99.989)" fill="#FFBE46" fill-opacity="0.4"/>
  <rect width="4.97072" height="5.13413" rx="2.48536" transform="matrix(0.995938 -0.0900426 0.0843601 0.996435 69.9389 99.989)" fill="#FFBE46" fill-opacity="0.4"/>
  <rect width="4.97072" height="5.13413" rx="2.48536" transform="matrix(0.995938 -0.0900426 0.0843601 0.996435 79.8778 99.989)" fill="#FFBE46" fill-opacity="0.4"/>
  <rect width="4.97072" height="5.13413" rx="2.48536" transform="matrix(0.995938 -0.0900426 0.0843601 0.996435 89.8166 99.989)" fill="#FFBE46" fill-opacity="0.4"/>
  <rect width="4.97072" height="5.13413" rx="2.48536" transform="matrix(0.995938 -0.0900426 0.0843601 0.996435 99.7555 99.989)" fill="#FFBE46" fill-opacity="0.4"/>
  <rect width="4.97072" height="5.13413" rx="2.48536" transform="matrix(0.995938 -0.0900426 0.0843601 0.996435 109.694 99.989)" fill="#FFBE46" fill-opacity="0.4"/>
  <rect width="4.97072" height="5.13413" rx="2.48536" transform="matrix(0.995938 -0.0900426 0.0843601 0.996435 119.633 99.989)" fill="#FFBE46" fill-opacity="0.4"/>
  <rect width="4.97072" height="5.13413" rx="2.48536" transform="matrix(0.995938 -0.0900426 0.0843601 0.996435 129.572 99.989)" fill="#FFBE46" fill-opacity="0.4"/>
  <rect width="4.97072" height="5.13413" rx="2.48536" transform="matrix(0.995938 -0.0900426 0.0843601 0.996435 139.511 99.989)" fill="#FFBE46" fill-opacity="0.4"/>
  <rect width="4.97072" height="5.13413" rx="2.48536" transform="matrix(0.995938 -0.0900426 0.0843601 0.996435 149.45 99.989)" fill="#FFBE46" fill-opacity="0.4"/>
  <rect width="4.97072" height="5.13413" rx="2.48536" transform="matrix(0.995938 -0.0900426 0.0843601 0.996435 159.389 99.989)" fill="#FFBE46" fill-opacity="0.4"/>
  <rect width="4.97072" height="5.13413" rx="2.48536" transform="matrix(0.995938 -0.0900426 0.0843601 0.996435 169.328 99.989)" fill="#FFBE46" fill-opacity="0.4"/>
  <rect width="4.97072" height="5.13413" rx="2.48536" transform="matrix(0.995938 -0.0900426 0.0843601 0.996435 179.267 99.989)" fill="#FFBE46" fill-opacity="0.4"/>
  <rect width="4.97072" height="5.13413" rx="2.48536" transform="matrix(0.995938 -0.0900426 0.0843601 0.996435 189.205 99.989)" fill="#FFBE46" fill-opacity="0.4"/>
  <rect width="4.97072" height="5.13413" rx="2.48536" transform="matrix(0.995938 -0.0900426 0.0843601 0.996435 199.144 99.989)" fill="#FFBE46" fill-opacity="0.4"/>
  <rect width="4.97072" height="5.13413" rx="2.48536" transform="matrix(0.995938 -0.0900426 0.0843601 0.996435 209.083 99.989)" fill="#FFBE46" fill-opacity="0.4"/>
  <rect width="4.97072" height="5.13413" rx="2.48536" transform="matrix(0.995938 -0.0900426 0.0843601 0.996435 219.022 99.989)" fill="#FFBE46" fill-opacity="0.4"/>
  <rect width="4.97072" height="5.13413" rx="2.48536" transform="matrix(0.995938 -0.0900426 0.0843601 0.996435 228.961 99.989)" fill="#FFBE46" fill-opacity="0.4"/>
  <rect width="4.97072" height="5.13413" rx="2.48536" transform="matrix(0.995938 -0.0900426 0.0843601 0.996435 238.9 99.989)" fill="#FFBE46" fill-opacity="0.4"/>
  <rect width="4.97072" height="5.13413" rx="2.48536" transform="matrix(0.995938 -0.0900426 0.0843601 0.996435 248.839 99.989)" fill="#FFBE46" fill-opacity="0.4"/>
  <rect width="4.97072" height="5.13413" rx="2.48536" transform="matrix(0.995938 -0.0900426 0.0843601 0.996435 258.778 99.989)" fill="#FFBE46" fill-opacity="0.4"/>
  <rect width="4.97072" height="5.13413" rx="2.48536" transform="matrix(0.995938 -0.0900426 0.0843601 0.996435 268.716 99.989)" fill="#FFBE46" fill-opacity="0.4"/>
  <rect width="4.97072" height="5.13413" rx="2.48536" transform="matrix(0.995938 -0.0900426 0.0843601 0.996435 278.655 99.989)" fill="#FFBE46" fill-opacity="0.4"/>
  <rect width="4.97072" height="5.13413" rx="2.48536" transform="matrix(0.995938 -0.0900426 0.0843601 0.996435 288.594 99.989)" fill="#FFBE46" fill-opacity="0.4"/>
  <rect width="4.97072" height="5.13413" rx="2.48536" transform="matrix(0.995938 -0.0900426 0.0843601 0.996435 298.533 99.989)" fill="#FFBE46" fill-opacity="0.4"/>
  <rect width="4.97072" height="5.13413" rx="2.48536" transform="matrix(0.995938 -0.0900426 0.0843601 0.996435 308.472 99.989)" fill="#FFBE46" fill-opacity="0.4"/>
  <rect width="4.97072" height="5.13413" rx="2.48536" transform="matrix(0.995938 -0.0900426 0.0843601 0.996435 318.411 99.989)" fill="#FFBE46" fill-opacity="0.4"/>
  <rect width="4.97072" height="5.13413" rx="2.48536" transform="matrix(0.995938 -0.0900426 0.0843601 0.996435 328.35 99.989)" fill="#FFBE46" fill-opacity="0.4"/>
  <rect width="4.97072" height="5.13413" rx="2.48536" transform="matrix(0.995938 -0.0900426 0.0843601 0.996435 338.289 99.989)" fill="#FFBE46" fill-opacity="0.4"/>
  <rect width="4.97072" height="5.13413" rx="2.48536" transform="matrix(0.995938 -0.0900426 0.0843601 0.996435 348.228 99.989)" fill="#FFBE46" fill-opacity="0.4"/>
  <rect width="4.97072" height="5.13413" rx="2.48536" transform="matrix(0.995938 -0.0900426 0.0843601 0.996435 358.166 99.989)" fill="#FFBE46" fill-opacity="0.4"/>
  <rect width="4.97072" height="5.13413" rx="2.48536" transform="matrix(0.995938 -0.0900426 0.0843601 0.996435 368.105 99.989)" fill="#FFBE46" fill-opacity="0.4"/>
  <rect width="4.97072" height="5.13413" rx="2.48536" transform="matrix(0.995938 -0.0900426 0.0843601 0.996435 378.044 99.989)" fill="#FFBE46" fill-opacity="0.4"/>
  <rect width="4.97072" height="5.13413" rx="2.48536" transform="matrix(0.995938 -0.0900426 0.0843601 0.996435 387.983 99.989)" fill="#FFBE46" fill-opacity="0.4"/>
  <rect width="4.97072" height="5.13413" rx="2.48536" transform="matrix(0.995938 -0.0900426 0.0843601 0.996435 397.922 99.989)" fill="#FFBE46" fill-opacity="0.4"/>
  <rect width="4.97072" height="5.13413" rx="2.48536" transform="matrix(0.995938 -0.0900426 0.0843601 0.996435 407.861 99.989)" fill="#FFBE46" fill-opacity="0.4"/>
  <rect width="4.97072" height="5.13413" rx="2.48536" transform="matrix(0.995938 -0.0900426 0.0843601 0.996435 417.8 99.989)" fill="#FFBE46" fill-opacity="0.4"/>
  <rect width="4.97072" height="5.13413" rx="2.48536" transform="matrix(0.995938 -0.0900426 0.0843601 0.996435 427.739 99.989)" fill="#FFBE46" fill-opacity="0.4"/>
  <rect width="4.97072" height="5.13413" rx="2.48536" transform="matrix(0.995938 -0.0900426 0.0843601 0.996435 437.677 99.989)" fill="#FFBE46" fill-opacity="0.4"/>
  <rect width="4.97072" height="5.13413" rx="2.48536" transform="matrix(0.995938 -0.0900426 0.0843601 0.996435 447.616 99.989)" fill="#FFBE46" fill-opacity="0.4"/>
  <rect width="4.97072" height="5.13412" rx="2.48536" transform="matrix(0.995938 -0.0900414 0.0843612 0.996435 60 110.26)" fill="#FFBE46" fill-opacity="0.5"/>
  <rect width="4.97072" height="5.13413" rx="2.48536" transform="matrix(0.995938 -0.0900426 0.0843601 0.996435 69.9389 110.26)" fill="#FFBE46" fill-opacity="0.5"/>
  <rect width="4.97072" height="5.13413" rx="2.48536" transform="matrix(0.995938 -0.0900426 0.0843601 0.996435 79.8778 110.26)" fill="#FFBE46" fill-opacity="0.5"/>
  <rect width="4.97072" height="5.13413" rx="2.48536" transform="matrix(0.995938 -0.0900426 0.0843601 0.996435 89.8166 110.26)" fill="#FFBE46" fill-opacity="0.5"/>
  <rect width="4.97072" height="5.13413" rx="2.48536" transform="matrix(0.995938 -0.0900426 0.0843601 0.996435 99.7555 110.26)" fill="#FFBE46" fill-opacity="0.5"/>
  <rect width="4.97072" height="5.13413" rx="2.48536" transform="matrix(0.995938 -0.0900426 0.0843601 0.996435 109.694 110.26)" fill="#FFBE46" fill-opacity="0.5"/>
  <rect width="4.97072" height="5.13413" rx="2.48536" transform="matrix(0.995938 -0.0900426 0.0843601 0.996435 119.633 110.26)" fill="#FFBE46" fill-opacity="0.5"/>
  <rect width="4.97072" height="5.13413" rx="2.48536" transform="matrix(0.995938 -0.0900426 0.0843601 0.996435 129.572 110.26)" fill="#FFBE46" fill-opacity="0.5"/>
  <rect width="4.97072" height="5.13413" rx="2.48536" transform="matrix(0.995938 -0.0900426 0.0843601 0.996435 139.511 110.26)" fill="#FFBE46" fill-opacity="0.5"/>
  <rect width="4.97072" height="5.13413" rx="2.48536" transform="matrix(0.995938 -0.0900426 0.0843601 0.996435 149.45 110.26)" fill="#FFBE46" fill-opacity="0.5"/>
  <rect width="4.97072" height="5.13413" rx="2.48536" transform="matrix(0.995938 -0.0900426 0.0843601 0.996435 159.389 110.26)" fill="#FFBE46" fill-opacity="0.5"/>
  <rect width="4.97072" height="5.13413" rx="2.48536" transform="matrix(0.995938 -0.0900426 0.0843601 0.996435 169.328 110.26)" fill="#FFBE46" fill-opacity="0.5"/>
  <rect width="4.97072" height="5.13413" rx="2.48536" transform="matrix(0.995938 -0.0900426 0.0843601 0.996435 179.267 110.26)" fill="#FFBE46" fill-opacity="0.5"/>
  <rect width="4.97072" height="5.13413" rx="2.48536" transform="matrix(0.995938 -0.0900426 0.0843601 0.996435 189.205 110.26)" fill="#FFBE46" fill-opacity="0.5"/>
  <rect width="4.97072" height="5.13413" rx="2.48536" transform="matrix(0.995938 -0.0900426 0.0843601 0.996435 199.144 110.26)" fill="#FFBE46" fill-opacity="0.5"/>
  <rect width="4.97072" height="5.13413" rx="2.48536" transform="matrix(0.995938 -0.0900426 0.0843601 0.996435 209.083 110.26)" fill="#FFBE46" fill-opacity="0.5"/>
  <rect width="4.97072" height="5.13413" rx="2.48536" transform="matrix(0.995938 -0.0900426 0.0843601 0.996435 219.022 110.26)" fill="#FFBE46" fill-opacity="0.5"/>
  <rect width="4.97072" height="5.13413" rx="2.48536" transform="matrix(0.995938 -0.0900426 0.0843601 0.996435 228.961 110.26)" fill="#FFBE46" fill-opacity="0.5"/>
  <rect width="4.97072" height="5.13413" rx="2.48536" transform="matrix(0.995938 -0.0900426 0.0843601 0.996435 238.9 110.26)" fill="#FFBE46" fill-opacity="0.5"/>
  <rect width="4.97072" height="5.13413" rx="2.48536" transform="matrix(0.995938 -0.0900426 0.0843601 0.996435 248.839 110.26)" fill="#FFBE46" fill-opacity="0.5"/>
  <rect width="4.97072" height="5.13413" rx="2.48536" transform="matrix(0.995938 -0.0900426 0.0843601 0.996435 258.778 110.26)" fill="#FFBE46" fill-opacity="0.5"/>
  <rect width="4.97072" height="5.13413" rx="2.48536" transform="matrix(0.995938 -0.0900426 0.0843601 0.996435 268.716 110.26)" fill="#FFBE46" fill-opacity="0.5"/>
  <rect width="4.97072" height="5.13413" rx="2.48536" transform="matrix(0.995938 -0.0900426 0.0843601 0.996435 278.655 110.26)" fill="#FFBE46" fill-opacity="0.5"/>
  <rect width="4.97072" height="5.13413" rx="2.48536" transform="matrix(0.995938 -0.0900426 0.0843601 0.996435 288.594 110.26)" fill="#FFBE46" fill-opacity="0.5"/>
  <rect width="4.97072" height="5.13413" rx="2.48536" transform="matrix(0.995938 -0.0900426 0.0843601 0.996435 298.533 110.26)" fill="#FFBE46" fill-opacity="0.5"/>
  <rect width="4.97072" height="5.13413" rx="2.48536" transform="matrix(0.995938 -0.0900426 0.0843601 0.996435 308.472 110.26)" fill="#FFBE46" fill-opacity="0.5"/>
  <rect width="4.97072" height="5.13413" rx="2.48536" transform="matrix(0.995938 -0.0900426 0.0843601 0.996435 318.411 110.26)" fill="#FFBE46" fill-opacity="0.5"/>
  <rect width="4.97072" height="5.13413" rx="2.48536" transform="matrix(0.995938 -0.0900426 0.0843601 0.996435 328.35 110.26)" fill="#FFBE46" fill-opacity="0.5"/>
  <rect width="4.97072" height="5.13413" rx="2.48536" transform="matrix(0.995938 -0.0900426 0.0843601 0.996435 338.289 110.26)" fill="#FFBE46" fill-opacity="0.5"/>
  <rect width="4.97072" height="5.13413" rx="2.48536" transform="matrix(0.995938 -0.0900426 0.0843601 0.996435 348.228 110.26)" fill="#FFBE46" fill-opacity="0.5"/>
  <rect width="4.97072" height="5.13413" rx="2.48536" transform="matrix(0.995938 -0.0900426 0.0843601 0.996435 358.166 110.26)" fill="#FFBE46" fill-opacity="0.5"/>
  <rect width="4.97072" height="5.13413" rx="2.48536" transform="matrix(0.995938 -0.0900426 0.0843601 0.996435 368.105 110.26)" fill="#FFBE46" fill-opacity="0.5"/>
  <rect width="4.97072" height="5.13413" rx="2.48536" transform="matrix(0.995938 -0.0900426 0.0843601 0.996435 378.044 110.26)" fill="#FFBE46" fill-opacity="0.5"/>
  <rect width="4.97072" height="5.13413" rx="2.48536" transform="matrix(0.995938 -0.0900426 0.0843601 0.996435 387.983 110.26)" fill="#FFBE46" fill-opacity="0.5"/>
  <rect width="4.97072" height="5.13413" rx="2.48536" transform="matrix(0.995938 -0.0900426 0.0843601 0.996435 397.922 110.26)" fill="#FFBE46" fill-opacity="0.5"/>
  <rect width="4.97072" height="5.13413" rx="2.48536" transform="matrix(0.995938 -0.0900426 0.0843601 0.996435 407.861 110.26)" fill="#FFBE46" fill-opacity="0.5"/>
  <rect width="4.97072" height="5.13413" rx="2.48536" transform="matrix(0.995938 -0.0900426 0.0843601 0.996435 417.8 110.26)" fill="#FFBE46" fill-opacity="0.5"/>
  <rect width="4.97072" height="5.13413" rx="2.48536" transform="matrix(0.995938 -0.0900426 0.0843601 0.996435 427.739 110.26)" fill="#FFBE46" fill-opacity="0.5"/>
  <rect width="4.97072" height="5.13413" rx="2.48536" transform="matrix(0.995938 -0.0900426 0.0843601 0.996435 437.677 110.26)" fill="#FFBE46" fill-opacity="0.5"/>
  <rect width="4.97072" height="5.13413" rx="2.48536" transform="matrix(0.995938 -0.0900426 0.0843601 0.996435 447.616 110.26)" fill="#FFBE46" fill-opacity="0.5"/>
  <rect width="4.97072" height="5.13412" rx="2.48536" transform="matrix(0.995938 -0.0900414 0.0843612 0.996435 60 120.531)" fill="#FFBE46" fill-opacity="0.6"/>
  <rect width="4.97072" height="5.13413" rx="2.48536" transform="matrix(0.995938 -0.0900426 0.0843601 0.996435 69.9389 120.531)" fill="#FFBE46" fill-opacity="0.6"/>
  <rect width="4.97072" height="5.13413" rx="2.48536" transform="matrix(0.995938 -0.0900426 0.0843601 0.996435 79.8778 120.531)" fill="#FFBE46" fill-opacity="0.6"/>
  <rect width="4.97072" height="5.13413" rx="2.48536" transform="matrix(0.995938 -0.0900426 0.0843601 0.996435 89.8166 120.531)" fill="#FFBE46" fill-opacity="0.6"/>
  <rect width="4.97072" height="5.13413" rx="2.48536" transform="matrix(0.995938 -0.0900426 0.0843601 0.996435 99.7555 120.531)" fill="#FFBE46" fill-opacity="0.6"/>
  <rect width="4.97072" height="5.13413" rx="2.48536" transform="matrix(0.995938 -0.0900426 0.0843601 0.996435 109.694 120.531)" fill="#FFBE46" fill-opacity="0.6"/>
  <rect width="4.97072" height="5.13413" rx="2.48536" transform="matrix(0.995938 -0.0900426 0.0843601 0.996435 119.633 120.531)" fill="#FFBE46" fill-opacity="0.6"/>
  <rect width="4.97072" height="5.13413" rx="2.48536" transform="matrix(0.995938 -0.0900426 0.0843601 0.996435 129.572 120.531)" fill="#FFBE46" fill-opacity="0.6"/>
  <rect width="4.97072" height="5.13413" rx="2.48536" transform="matrix(0.995938 -0.0900426 0.0843601 0.996435 139.511 120.531)" fill="#FFBE46" fill-opacity="0.6"/>
  <rect width="4.97072" height="5.13413" rx="2.48536" transform="matrix(0.995938 -0.0900426 0.0843601 0.996435 149.45 120.531)" fill="#FFBE46" fill-opacity="0.6"/>
  <rect width="4.97072" height="5.13413" rx="2.48536" transform="matrix(0.995938 -0.0900426 0.0843601 0.996435 159.389 120.531)" fill="#FFBE46" fill-opacity="0.6"/>
  <rect width="4.97072" height="5.13413" rx="2.48536" transform="matrix(0.995938 -0.0900426 0.0843601 0.996435 169.328 120.531)" fill="#FFBE46" fill-opacity="0.6"/>
  <rect width="4.97072" height="5.13413" rx="2.48536" transform="matrix(0.995938 -0.0900426 0.0843601 0.996435 179.267 120.531)" fill="#FFBE46" fill-opacity="0.6"/>
  <rect width="4.97072" height="5.13413" rx="2.48536" transform="matrix(0.995938 -0.0900426 0.0843601 0.996435 189.205 120.531)" fill="#FFBE46" fill-opacity="0.6"/>
  <rect width="4.97072" height="5.13413" rx="2.48536" transform="matrix(0.995938 -0.0900426 0.0843601 0.996435 199.144 120.531)" fill="#FFBE46" fill-opacity="0.6"/>
  <rect width="4.97072" height="5.13413" rx="2.48536" transform="matrix(0.995938 -0.0900426 0.0843601 0.996435 209.083 120.531)" fill="#FFBE46" fill-opacity="0.6"/>
  <rect width="4.97072" height="5.13413" rx="2.48536" transform="matrix(0.995938 -0.0900426 0.0843601 0.996435 219.022 120.531)" fill="#FFBE46" fill-opacity="0.6"/>
  <rect width="4.97072" height="5.13413" rx="2.48536" transform="matrix(0.995938 -0.0900426 0.0843601 0.996435 228.961 120.531)" fill="#FFBE46" fill-opacity="0.6"/>
  <rect width="4.97072" height="5.13413" rx="2.48536" transform="matrix(0.995938 -0.0900426 0.0843601 0.996435 238.9 120.531)" fill="#FFBE46" fill-opacity="0.6"/>
  <rect width="4.97072" height="5.13413" rx="2.48536" transform="matrix(0.995938 -0.0900426 0.0843601 0.996435 248.839 120.531)" fill="#FFBE46" fill-opacity="0.6"/>
  <rect width="4.97072" height="5.13413" rx="2.48536" transform="matrix(0.995938 -0.0900426 0.0843601 0.996435 258.778 120.531)" fill="#FFBE46" fill-opacity="0.6"/>
  <rect width="4.97072" height="5.13413" rx="2.48536" transform="matrix(0.995938 -0.0900426 0.0843601 0.996435 268.716 120.531)" fill="#FFBE46" fill-opacity="0.6"/>
  <rect width="4.97072" height="5.13413" rx="2.48536" transform="matrix(0.995938 -0.0900426 0.0843601 0.996435 278.655 120.531)" fill="#FFBE46" fill-opacity="0.6"/>
  <rect width="4.97072" height="5.13413" rx="2.48536" transform="matrix(0.995938 -0.0900426 0.0843601 0.996435 288.594 120.531)" fill="#FFBE46" fill-opacity="0.6"/>
  <rect width="4.97072" height="5.13413" rx="2.48536" transform="matrix(0.995938 -0.0900426 0.0843601 0.996435 298.533 120.531)" fill="#FFBE46" fill-opacity="0.6"/>
  <rect width="4.97072" height="5.13413" rx="2.48536" transform="matrix(0.995938 -0.0900426 0.0843601 0.996435 308.472 120.531)" fill="#FFBE46" fill-opacity="0.6"/>
  <rect width="4.97072" height="5.13413" rx="2.48536" transform="matrix(0.995938 -0.0900426 0.0843601 0.996435 318.411 120.531)" fill="#FFBE46" fill-opacity="0.6"/>
  <rect width="4.97072" height="5.13413" rx="2.48536" transform="matrix(0.995938 -0.0900426 0.0843601 0.996435 328.35 120.531)" fill="#FFBE46" fill-opacity="0.6"/>
  <rect width="4.97072" height="5.13413" rx="2.48536" transform="matrix(0.995938 -0.0900426 0.0843601 0.996435 338.289 120.531)" fill="#FFBE46" fill-opacity="0.6"/>
  <rect width="4.97072" height="5.13413" rx="2.48536" transform="matrix(0.995938 -0.0900426 0.0843601 0.996435 348.228 120.531)" fill="#FFBE46" fill-opacity="0.6"/>
  <rect width="4.97072" height="5.13413" rx="2.48536" transform="matrix(0.995938 -0.0900426 0.0843601 0.996435 358.166 120.531)" fill="#FFBE46" fill-opacity="0.6"/>
  <rect width="4.97072" height="5.13413" rx="2.48536" transform="matrix(0.995938 -0.0900426 0.0843601 0.996435 368.105 120.531)" fill="#FFBE46" fill-opacity="0.6"/>
  <rect width="4.97072" height="5.13413" rx="2.48536" transform="matrix(0.995938 -0.0900426 0.0843601 0.996435 378.044 120.531)" fill="#FFBE46" fill-opacity="0.6"/>
  <rect width="4.97072" height="5.13413" rx="2.48536" transform="matrix(0.995938 -0.0900426 0.0843601 0.996435 387.983 120.531)" fill="#FFBE46" fill-opacity="0.6"/>
  <rect width="4.97072" height="5.13413" rx="2.48536" transform="matrix(0.995938 -0.0900426 0.0843601 0.996435 397.922 120.531)" fill="#FFBE46" fill-opacity="0.6"/>
  <rect width="4.97072" height="5.13413" rx="2.48536" transform="matrix(0.995938 -0.0900426 0.0843601 0.996435 407.861 120.531)" fill="#FFBE46" fill-opacity="0.6"/>
  <rect width="4.97072" height="5.13413" rx="2.48536" transform="matrix(0.995938 -0.0900426 0.0843601 0.996435 417.8 120.531)" fill="#FFBE46" fill-opacity="0.6"/>
  <rect width="4.97072" height="5.13413" rx="2.48536" transform="matrix(0.995938 -0.0900426 0.0843601 0.996435 427.739 120.531)" fill="#FFBE46" fill-opacity="0.6"/>
  <rect width="4.97072" height="5.13413" rx="2.48536" transform="matrix(0.995938 -0.0900426 0.0843601 0.996435 437.677 120.531)" fill="#FFBE46" fill-opacity="0.6"/>
  <rect width="4.97072" height="5.13413" rx="2.48536" transform="matrix(0.995938 -0.0900426 0.0843601 0.996435 447.616 120.531)" fill="#FFBE46" fill-opacity="0.6"/>
  <rect width="4.97072" height="5.13412" rx="2.48536" transform="matrix(0.995938 -0.0900414 0.0843612 0.996435 60 130.801)" fill="#FFBE46" fill-opacity="0.7"/>
  <rect width="4.97072" height="5.13413" rx="2.48536" transform="matrix(0.995938 -0.0900426 0.0843601 0.996435 69.9389 130.801)" fill="#FFBE46" fill-opacity="0.7"/>
  <rect width="4.97072" height="5.13413" rx="2.48536" transform="matrix(0.995938 -0.0900426 0.0843601 0.996435 79.8778 130.801)" fill="#FFBE46" fill-opacity="0.7"/>
  <rect width="4.97072" height="5.13413" rx="2.48536" transform="matrix(0.995938 -0.0900426 0.0843601 0.996435 89.8166 130.801)" fill="#FFBE46" fill-opacity="0.7"/>
  <rect width="4.97072" height="5.13413" rx="2.48536" transform="matrix(0.995938 -0.0900426 0.0843601 0.996435 99.7555 130.801)" fill="#FFBE46" fill-opacity="0.7"/>
  <rect width="4.97072" height="5.13413" rx="2.48536" transform="matrix(0.995938 -0.0900426 0.0843601 0.996435 109.694 130.801)" fill="#FFBE46" fill-opacity="0.7"/>
  <rect width="4.97072" height="5.13413" rx="2.48536" transform="matrix(0.995938 -0.0900426 0.0843601 0.996435 119.633 130.801)" fill="#FFBE46" fill-opacity="0.7"/>
  <rect width="4.97072" height="5.13413" rx="2.48536" transform="matrix(0.995938 -0.0900426 0.0843601 0.996435 129.572 130.801)" fill="#FFBE46" fill-opacity="0.7"/>
  <rect width="4.97072" height="5.13413" rx="2.48536" transform="matrix(0.995938 -0.0900426 0.0843601 0.996435 139.511 130.801)" fill="#FFBE46" fill-opacity="0.7"/>
  <rect width="4.97072" height="5.13413" rx="2.48536" transform="matrix(0.995938 -0.0900426 0.0843601 0.996435 149.45 130.801)" fill="#FFBE46" fill-opacity="0.7"/>
  <rect width="4.97072" height="5.13413" rx="2.48536" transform="matrix(0.995938 -0.0900426 0.0843601 0.996435 159.389 130.801)" fill="#FFBE46" fill-opacity="0.7"/>
  <rect width="4.97072" height="5.13413" rx="2.48536" transform="matrix(0.995938 -0.0900426 0.0843601 0.996435 169.328 130.801)" fill="#FFBE46" fill-opacity="0.7"/>
  <rect width="4.97072" height="5.13413" rx="2.48536" transform="matrix(0.995938 -0.0900426 0.0843601 0.996435 179.267 130.801)" fill="#FFBE46" fill-opacity="0.7"/>
  <rect width="4.97072" height="5.13413" rx="2.48536" transform="matrix(0.995938 -0.0900426 0.0843601 0.996435 189.205 130.801)" fill="#FFBE46" fill-opacity="0.7"/>
  <rect width="4.97072" height="5.13413" rx="2.48536" transform="matrix(0.995938 -0.0900426 0.0843601 0.996435 199.144 130.801)" fill="#FFBE46" fill-opacity="0.7"/>
  <rect width="4.97072" height="5.13413" rx="2.48536" transform="matrix(0.995938 -0.0900426 0.0843601 0.996435 209.083 130.801)" fill="#FFBE46" fill-opacity="0.7"/>
  <rect width="4.97072" height="5.13413" rx="2.48536" transform="matrix(0.995938 -0.0900426 0.0843601 0.996435 219.022 130.801)" fill="#FFBE46" fill-opacity="0.7"/>
  <rect width="4.97072" height="5.13413" rx="2.48536" transform="matrix(0.995938 -0.0900426 0.0843601 0.996435 228.961 130.801)" fill="#FFBE46" fill-opacity="0.7"/>
  <rect width="4.97072" height="5.13413" rx="2.48536" transform="matrix(0.995938 -0.0900426 0.0843601 0.996435 238.9 130.801)" fill="#FFBE46" fill-opacity="0.7"/>
  <rect width="4.97072" height="5.13413" rx="2.48536" transform="matrix(0.995938 -0.0900426 0.0843601 0.996435 248.839 130.801)" fill="#FFBE46" fill-opacity="0.7"/>
  <rect width="4.97072" height="5.13413" rx="2.48536" transform="matrix(0.995938 -0.0900426 0.0843601 0.996435 258.778 130.801)" fill="#FFBE46" fill-opacity="0.7"/>
  <rect width="4.97072" height="5.13413" rx="2.48536" transform="matrix(0.995938 -0.0900426 0.0843601 0.996435 268.716 130.801)" fill="#FFBE46" fill-opacity="0.7"/>
  <rect width="4.97072" height="5.13413" rx="2.48536" transform="matrix(0.995938 -0.0900426 0.0843601 0.996435 278.655 130.801)" fill="#FFBE46" fill-opacity="0.7"/>
  <rect width="4.97072" height="5.13413" rx="2.48536" transform="matrix(0.995938 -0.0900426 0.0843601 0.996435 288.594 130.801)" fill="#FFBE46" fill-opacity="0.7"/>
  <rect width="4.97072" height="5.13413" rx="2.48536" transform="matrix(0.995938 -0.0900426 0.0843601 0.996435 298.533 130.801)" fill="#FFBE46" fill-opacity="0.7"/>
  <rect width="4.97072" height="5.13413" rx="2.48536" transform="matrix(0.995938 -0.0900426 0.0843601 0.996435 308.472 130.801)" fill="#FFBE46" fill-opacity="0.7"/>
  <rect width="4.97072" height="5.13413" rx="2.48536" transform="matrix(0.995938 -0.0900426 0.0843601 0.996435 318.411 130.801)" fill="#FFBE46" fill-opacity="0.7"/>
  <rect width="4.97072" height="5.13413" rx="2.48536" transform="matrix(0.995938 -0.0900426 0.0843601 0.996435 328.35 130.801)" fill="#FFBE46" fill-opacity="0.7"/>
  <rect width="4.97072" height="5.13413" rx="2.48536" transform="matrix(0.995938 -0.0900426 0.0843601 0.996435 338.289 130.801)" fill="#FFBE46" fill-opacity="0.7"/>
  <rect width="4.97072" height="5.13413" rx="2.48536" transform="matrix(0.995938 -0.0900426 0.0843601 0.996435 348.228 130.801)" fill="#FFBE46" fill-opacity="0.7"/>
  <rect width="4.97072" height="5.13413" rx="2.48536" transform="matrix(0.995938 -0.0900426 0.0843601 0.996435 358.166 130.801)" fill="#FFBE46" fill-opacity="0.7"/>
  <rect width="4.97072" height="5.13413" rx="2.48536" transform="matrix(0.995938 -0.0900426 0.0843601 0.996435 368.105 130.801)" fill="#FFBE46" fill-opacity="0.7"/>
  <rect width="4.97072" height="5.13413" rx="2.48536" transform="matrix(0.995938 -0.0900426 0.0843601 0.996435 378.044 130.801)" fill="#FFBE46" fill-opacity="0.7"/>
  <rect width="4.97072" height="5.13413" rx="2.48536" transform="matrix(0.995938 -0.0900426 0.0843601 0.996435 387.983 130.801)" fill="#FFBE46" fill-opacity="0.7"/>
  <rect width="4.97072" height="5.13413" rx="2.48536" transform="matrix(0.995938 -0.0900426 0.0843601 0.996435 397.922 130.801)" fill="#FFBE46" fill-opacity="0.7"/>
  <rect width="4.97072" height="5.13413" rx="2.48536" transform="matrix(0.995938 -0.0900426 0.0843601 0.996435 407.861 130.801)" fill="#FFBE46" fill-opacity="0.7"/>
  <rect width="4.97072" height="5.13413" rx="2.48536" transform="matrix(0.995938 -0.0900426 0.0843601 0.996435 417.8 130.801)" fill="#FFBE46" fill-opacity="0.7"/>
  <rect width="4.97072" height="5.13413" rx="2.48536" transform="matrix(0.995938 -0.0900426 0.0843601 0.996435 427.739 130.801)" fill="#FFBE46" fill-opacity="0.7"/>
  <rect width="4.97072" height="5.13413" rx="2.48536" transform="matrix(0.995938 -0.0900426 0.0843601 0.996435 437.677 130.801)" fill="#FFBE46" fill-opacity="0.7"/>
  <rect width="4.97072" height="5.13413" rx="2.48536" transform="matrix(0.995938 -0.0900426 0.0843601 0.996435 447.616 130.801)" fill="#FFBE46" fill-opacity="0.7"/>
  <rect width="4.97072" height="5.13412" rx="2.48536" transform="matrix(0.995938 -0.0900414 0.0843612 0.996435 60 141.072)" fill="#FFBE46" fill-opacity="0.8"/>
  <rect width="4.97072" height="5.13413" rx="2.48536" transform="matrix(0.995938 -0.0900426 0.0843601 0.996435 69.9389 141.072)" fill="#FFBE46" fill-opacity="0.8"/>
  <rect width="4.97072" height="5.13413" rx="2.48536" transform="matrix(0.995938 -0.0900426 0.0843601 0.996435 79.8778 141.072)" fill="#FFBE46" fill-opacity="0.8"/>
  <rect width="4.97072" height="5.13413" rx="2.48536" transform="matrix(0.995938 -0.0900426 0.0843601 0.996435 89.8166 141.072)" fill="#FFBE46" fill-opacity="0.8"/>
  <rect width="4.97072" height="5.13413" rx="2.48536" transform="matrix(0.995938 -0.0900426 0.0843601 0.996435 99.7555 141.072)" fill="#FFBE46" fill-opacity="0.8"/>
  <rect width="4.97072" height="5.13413" rx="2.48536" transform="matrix(0.995938 -0.0900426 0.0843601 0.996435 109.694 141.072)" fill="#FFBE46" fill-opacity="0.8"/>
  <rect width="4.97072" height="5.13413" rx="2.48536" transform="matrix(0.995938 -0.0900426 0.0843601 0.996435 119.633 141.072)" fill="#FFBE46" fill-opacity="0.8"/>
  <rect width="4.97072" height="5.13413" rx="2.48536" transform="matrix(0.995938 -0.0900426 0.0843601 0.996435 129.572 141.072)" fill="#FFBE46" fill-opacity="0.8"/>
  <rect width="4.97072" height="5.13413" rx="2.48536" transform="matrix(0.995938 -0.0900426 0.0843601 0.996435 139.511 141.072)" fill="#FFBE46" fill-opacity="0.8"/>
  <rect width="4.97072" height="5.13413" rx="2.48536" transform="matrix(0.995938 -0.0900426 0.0843601 0.996435 149.45 141.072)" fill="#FFBE46" fill-opacity="0.8"/>
  <rect width="4.97072" height="5.13413" rx="2.48536" transform="matrix(0.995938 -0.0900426 0.0843601 0.996435 159.389 141.072)" fill="#FFBE46" fill-opacity="0.8"/>
  <rect width="4.97072" height="5.13413" rx="2.48536" transform="matrix(0.995938 -0.0900426 0.0843601 0.996435 169.328 141.072)" fill="#FFBE46" fill-opacity="0.8"/>
  <rect width="4.97072" height="5.13413" rx="2.48536" transform="matrix(0.995938 -0.0900426 0.0843601 0.996435 179.267 141.072)" fill="#FFBE46" fill-opacity="0.8"/>
  <rect width="4.97072" height="5.13413" rx="2.48536" transform="matrix(0.995938 -0.0900426 0.0843601 0.996435 189.205 141.072)" fill="#FFBE46" fill-opacity="0.8"/>
  <rect width="4.97072" height="5.13413" rx="2.48536" transform="matrix(0.995938 -0.0900426 0.0843601 0.996435 199.144 141.072)" fill="#FFBE46" fill-opacity="0.8"/>
  <rect width="4.97072" height="5.13413" rx="2.48536" transform="matrix(0.995938 -0.0900426 0.0843601 0.996435 209.083 141.072)" fill="#FFBE46" fill-opacity="0.8"/>
  <rect width="4.97072" height="5.13413" rx="2.48536" transform="matrix(0.995938 -0.0900426 0.0843601 0.996435 219.022 141.072)" fill="#FFBE46" fill-opacity="0.8"/>
  <rect width="4.97072" height="5.13413" rx="2.48536" transform="matrix(0.995938 -0.0900426 0.0843601 0.996435 228.961 141.072)" fill="#FFBE46" fill-opacity="0.8"/>
  <rect width="4.97072" height="5.13413" rx="2.48536" transform="matrix(0.995938 -0.0900426 0.0843601 0.996435 238.9 141.072)" fill="#FFBE46" fill-opacity="0.8"/>
  <rect width="4.97072" height="5.13413" rx="2.48536" transform="matrix(0.995938 -0.0900426 0.0843601 0.996435 248.839 141.072)" fill="#FFBE46" fill-opacity="0.8"/>
  <rect width="4.97072" height="5.13413" rx="2.48536" transform="matrix(0.995938 -0.0900426 0.0843601 0.996435 258.778 141.072)" fill="#FFBE46" fill-opacity="0.8"/>
  <rect width="4.97072" height="5.13413" rx="2.48536" transform="matrix(0.995938 -0.0900426 0.0843601 0.996435 268.716 141.072)" fill="#FFBE46" fill-opacity="0.8"/>
  <rect width="4.97072" height="5.13413" rx="2.48536" transform="matrix(0.995938 -0.0900426 0.0843601 0.996435 278.655 141.072)" fill="#FFBE46" fill-opacity="0.8"/>
  <rect width="4.97072" height="5.13413" rx="2.48536" transform="matrix(0.995938 -0.0900426 0.0843601 0.996435 288.594 141.072)" fill="#FFBE46" fill-opacity="0.8"/>
  <rect width="4.97072" height="5.13413" rx="2.48536" transform="matrix(0.995938 -0.0900426 0.0843601 0.996435 298.533 141.072)" fill="#FFBE46" fill-opacity="0.8"/>
  <rect width="4.97072" height="5.13413" rx="2.48536" transform="matrix(0.995938 -0.0900426 0.0843601 0.996435 308.472 141.072)" fill="#FFBE46" fill-opacity="0.8"/>
  <rect width="4.97072" height="5.13413" rx="2.48536" transform="matrix(0.995938 -0.0900426 0.0843601 0.996435 318.411 141.072)" fill="#FFBE46" fill-opacity="0.8"/>
  <rect width="4.97072" height="5.13413" rx="2.48536" transform="matrix(0.995938 -0.0900426 0.0843601 0.996435 328.35 141.072)" fill="#FFBE46" fill-opacity="0.8"/>
  <rect width="4.97072" height="5.13413" rx="2.48536" transform="matrix(0.995938 -0.0900426 0.0843601 0.996435 338.289 141.072)" fill="#FFBE46" fill-opacity="0.8"/>
  <rect width="4.97072" height="5.13413" rx="2.48536" transform="matrix(0.995938 -0.0900426 0.0843601 0.996435 348.228 141.072)" fill="#FFBE46" fill-opacity="0.8"/>
  <rect width="4.97072" height="5.13413" rx="2.48536" transform="matrix(0.995938 -0.0900426 0.0843601 0.996435 358.166 141.072)" fill="#FFBE46" fill-opacity="0.8"/>
  <rect width="4.97072" height="5.13413" rx="2.48536" transform="matrix(0.995938 -0.0900426 0.0843601 0.996435 368.105 141.072)" fill="#FFBE46" fill-opacity="0.8"/>
  <rect width="4.97072" height="5.13413" rx="2.48536" transform="matrix(0.995938 -0.0900426 0.0843601 0.996435 378.044 141.072)" fill="#FFBE46" fill-opacity="0.8"/>
  <rect width="4.97072" height="5.13413" rx="2.48536" transform="matrix(0.995938 -0.0900426 0.0843601 0.996435 387.983 141.072)" fill="#FFBE46" fill-opacity="0.8"/>
  <rect width="4.97072" height="5.13413" rx="2.48536" transform="matrix(0.995938 -0.0900426 0.0843601 0.996435 397.922 141.072)" fill="#FFBE46" fill-opacity="0.8"/>
  <rect width="4.97072" height="5.13413" rx="2.48536" transform="matrix(0.995938 -0.0900426 0.0843601 0.996435 407.861 141.072)" fill="#FFBE46" fill-opacity="0.8"/>
  <rect width="4.97072" height="5.13413" rx="2.48536" transform="matrix(0.995938 -0.0900426 0.0843601 0.996435 417.8 141.072)" fill="#FFBE46" fill-opacity="0.8"/>
  <rect width="4.97072" height="5.13413" rx="2.48536" transform="matrix(0.995938 -0.0900426 0.0843601 0.996435 427.739 141.072)" fill="#FFBE46" fill-opacity="0.8"/>
  <rect width="4.97072" height="5.13413" rx="2.48536" transform="matrix(0.995938 -0.0900426 0.0843601 0.996435 437.677 141.072)" fill="#FFBE46" fill-opacity="0.8"/>
  <rect width="4.97072" height="5.13413" rx="2.48536" transform="matrix(0.995938 -0.0900426 0.0843601 0.996435 447.616 141.072)" fill="#FFBE46" fill-opacity="0.8"/>
  <path d="M102.334 76.9336H58.6523V227.461H102.334V245.508H38.1445V58.8867H102.334V76.9336ZM475.896 58.8867V245.508H411.707V227.461H454.158V76.9336H411.707V58.8867H475.896Z" fill="url(#paint1_linear)"/>
  <path d="M52.0407 116.902L462.455 81.6139L461.828 166.375L51.4082 202.282L52.0407 116.902Z" fill="#272C34"/>
  <g filter="url(#filter0_d)">
    <path d="M184.924 181.15L338.086 167.414L338.372 242.676L185.208 255.804L184.924 181.15Z" fill="white"/>
    <path d="M186.701 254.17L186.429 182.521L336.592 169.054L336.866 241.299L186.701 254.17Z" stroke="#272C34" stroke-width="3"/>
  </g>
  <path d="M70.2541 136.694L78.2236 135.997L73.5706 175.336L96.5229 173.328L95.7227 180.336L64.8008 183.042L70.2541 136.694ZM123.823 132.007L132.239 131.271L144.128 176.101L136.031 176.81L133.128 164.922L115.021 166.506L109.062 179.169L100.518 179.917L123.823 132.007ZM127.268 139.801L127.14 139.812L117.87 160.153L131.769 158.937L127.268 139.801ZM156.694 129.131L165.429 128.367L182.365 161.128L182.492 161.117L186.469 126.526L194.438 125.829L188.985 172.177L180.25 172.941L163.268 140.377L163.14 140.388L159.211 174.782L151.241 175.479L156.694 129.131ZM205.894 124.827L213.864 124.13L211.399 145.161L211.538 145.277L232.927 122.462L243.574 121.53L223.351 142.252L239.97 167.716L230.916 168.508L217.602 147.766L210.171 155.354L208.41 170.477L200.441 171.175L205.894 124.827ZM260.168 147.768L246.543 121.271L254.895 120.54L264.545 140.511L278.676 118.459L288.112 117.634L268.066 147.719L266.019 165.437L258.049 166.135L260.168 147.768ZM320.357 154.13L330.303 153.26C332.598 153.059 334.562 152.502 336.196 151.588C337.868 150.628 339.268 149.499 340.396 148.201C341.521 146.861 342.421 145.39 343.094 143.789C343.81 142.185 344.339 140.64 344.68 139.153C345.06 137.621 345.279 136.21 345.338 134.92C345.435 133.584 345.45 132.533 345.383 131.768C345.034 127.773 343.893 124.767 341.96 122.752C340.028 120.737 337.468 119.869 334.28 120.148L324.334 121.018L320.357 154.13ZM317.135 115.095L333.839 113.633C339.704 113.12 344.285 114.325 347.582 117.249C350.875 120.13 352.801 124.759 353.358 131.135C353.477 132.495 353.462 134.038 353.314 135.764C353.161 137.448 352.864 139.187 352.421 140.982C351.975 142.734 351.376 144.457 350.625 146.15C349.87 147.801 348.928 149.275 347.799 150.573C346.555 152.01 345.337 153.273 344.148 154.362C342.954 155.408 341.599 156.319 340.082 157.094C338.565 157.87 336.8 158.495 334.786 158.971C332.814 159.444 330.404 159.804 327.557 160.053L311.554 161.453L317.135 115.095ZM380.169 109.58L388.585 108.844L400.474 153.674L392.376 154.382L389.473 142.494L371.366 144.078L365.407 156.742L356.864 157.489L380.169 109.58ZM383.614 117.373L383.486 117.384L374.216 137.726L388.115 136.51L383.614 117.373ZM413.04 106.704L421.775 105.94L438.711 138.7L438.838 138.689L442.814 104.099L450.784 103.402L445.331 149.75L436.596 150.514L419.613 117.95L419.486 117.961L415.556 152.354L407.587 153.052L413.04 106.704Z" fill="white"/>
  <path d="M70.2541 136.694L70.1669 135.698L69.356 135.769L69.2609 136.577L70.2541 136.694ZM78.2236 135.997L79.2167 136.114L79.3611 134.893L78.1365 135L78.2236 135.997ZM73.5706 175.336L72.5775 175.218L72.4331 176.439L73.6577 176.332L73.5706 175.336ZM96.5229 173.328L97.5164 173.441L97.6553 172.225L96.4357 172.332L96.5229 173.328ZM95.7227 180.336L95.8098 181.332L96.6235 181.261L96.7162 180.45L95.7227 180.336ZM64.8008 183.042L63.8076 182.925L63.6641 184.145L64.8879 184.038L64.8008 183.042ZM70.3412 137.69L78.3108 136.993L78.1365 135L70.1669 135.698L70.3412 137.69ZM77.2306 135.879L72.5775 175.218L74.5636 175.453L79.2167 136.114L77.2306 135.879ZM73.6577 176.332L96.61 174.324L96.4357 172.332L73.4834 174.34L73.6577 176.332ZM95.5293 173.214L94.7291 180.223L96.7162 180.45L97.5164 173.441L95.5293 173.214ZM95.6355 179.34L64.7136 182.045L64.8879 184.038L95.8098 181.332L95.6355 179.34ZM65.7939 183.158L71.2472 136.811L69.2609 136.577L63.8076 182.925L65.7939 183.158ZM123.823 132.007L123.736 131.011L123.172 131.06L122.924 131.57L123.823 132.007ZM132.239 131.271L133.206 131.015L132.99 130.201L132.152 130.275L132.239 131.271ZM144.128 176.101L144.215 177.098L145.399 176.994L145.094 175.845L144.128 176.101ZM136.031 176.81L135.059 177.047L135.263 177.881L136.118 177.806L136.031 176.81ZM133.128 164.922L134.099 164.684L133.895 163.851L133.04 163.925L133.128 164.922ZM115.021 166.506L114.934 165.509L114.361 165.56L114.116 166.08L115.021 166.506ZM109.062 179.169L109.149 180.165L109.722 180.115L109.967 179.595L109.062 179.169ZM100.518 179.917L99.6191 179.479L98.8469 181.067L100.606 180.913L100.518 179.917ZM127.268 139.801L128.241 139.572L128.043 138.729L127.181 138.804L127.268 139.801ZM127.14 139.812L127.053 138.816L126.472 138.866L126.23 139.397L127.14 139.812ZM117.87 160.153L116.96 159.738L116.249 161.299L117.957 161.149L117.87 160.153ZM131.769 158.937L131.856 159.933L133.007 159.833L132.742 158.708L131.769 158.937ZM123.911 133.003L132.326 132.267L132.152 130.275L123.736 131.011L123.911 133.003ZM131.273 131.527L143.161 176.358L145.094 175.845L133.206 131.015L131.273 131.527ZM144.041 175.105L135.944 175.814L136.118 177.806L144.215 177.098L144.041 175.105ZM137.002 176.573L134.099 164.684L132.156 165.159L135.059 177.047L137.002 176.573ZM133.04 163.925L114.934 165.509L115.108 167.502L133.215 165.918L133.04 163.925ZM114.116 166.08L108.157 178.743L109.967 179.595L115.926 166.931L114.116 166.08ZM108.975 178.173L100.431 178.92L100.606 180.913L109.149 180.165L108.975 178.173ZM101.418 180.354L124.723 132.445L122.924 131.57L99.6191 179.479L101.418 180.354ZM127.181 138.804L127.053 138.816L127.227 140.808L127.355 140.797L127.181 138.804ZM126.23 139.397L116.96 159.738L118.78 160.568L128.05 140.227L126.23 139.397ZM117.957 161.149L131.856 159.933L131.682 157.941L117.783 159.157L117.957 161.149ZM132.742 158.708L128.241 139.572L126.294 140.03L130.795 159.166L132.742 158.708ZM156.694 129.131L156.607 128.135L155.796 128.206L155.701 129.015L156.694 129.131ZM165.429 128.367L166.317 127.908L166.01 127.313L165.342 127.371L165.429 128.367ZM182.365 161.128L181.476 161.587L181.784 162.182L182.452 162.124L182.365 161.128ZM182.492 161.117L182.579 162.113L183.393 162.042L183.486 161.231L182.492 161.117ZM186.469 126.526L186.382 125.53L185.568 125.601L185.475 126.412L186.469 126.526ZM194.438 125.829L195.431 125.946L195.575 124.726L194.351 124.833L194.438 125.829ZM188.985 172.177L189.072 173.173L189.883 173.102L189.978 172.294L188.985 172.177ZM180.25 172.941L179.364 173.403L179.672 173.995L180.337 173.937L180.25 172.941ZM163.268 140.377L164.154 139.915L163.845 139.323L163.18 139.381L163.268 140.377ZM163.14 140.388L163.053 139.392L162.239 139.463L162.146 140.275L163.14 140.388ZM159.211 174.782L159.298 175.778L160.111 175.707L160.204 174.895L159.211 174.782ZM151.241 175.479L150.248 175.362L150.104 176.582L151.328 176.475L151.241 175.479ZM156.782 130.128L165.516 129.363L165.342 127.371L156.607 128.135L156.782 130.128ZM164.541 128.826L181.476 161.587L183.253 160.669L166.317 127.908L164.541 128.826ZM182.452 162.124L182.579 162.113L182.405 160.12L182.278 160.132L182.452 162.124ZM183.486 161.231L187.462 126.641L185.475 126.412L181.499 161.002L183.486 161.231ZM186.556 127.523L194.525 126.825L194.351 124.833L186.382 125.53L186.556 127.523ZM193.445 125.712L187.992 172.06L189.978 172.294L195.431 125.946L193.445 125.712ZM188.898 171.181L180.163 171.945L180.337 173.937L189.072 173.173L188.898 171.181ZM181.137 172.479L164.154 139.915L162.381 140.84L179.364 173.403L181.137 172.479ZM163.18 139.381L163.053 139.392L163.227 141.385L163.355 141.373L163.18 139.381ZM162.146 140.275L158.217 174.668L160.204 174.895L164.134 140.502L162.146 140.275ZM159.123 173.786L151.154 174.483L151.328 176.475L159.298 175.778L159.123 173.786ZM152.234 175.596L157.688 129.248L155.701 129.015L150.248 175.362L152.234 175.596ZM205.894 124.827L205.807 123.831L204.996 123.902L204.901 124.71L205.894 124.827ZM213.864 124.13L214.857 124.246L215 123.026L213.776 123.134L213.864 124.13ZM211.399 145.161L210.406 145.044L210.343 145.58L210.756 145.927L211.399 145.161ZM211.538 145.277L210.895 146.043L211.62 146.651L212.267 145.961L211.538 145.277ZM232.927 122.462L232.84 121.466L232.459 121.499L232.197 121.778L232.927 122.462ZM243.574 121.53L244.29 122.229L246.173 120.299L243.487 120.534L243.574 121.53ZM223.351 142.252L222.635 141.553L222.076 142.127L222.514 142.798L223.351 142.252ZM239.97 167.716L240.057 168.712L241.719 168.567L240.807 167.17L239.97 167.716ZM230.916 168.508L230.075 169.049L230.401 169.557L231.003 169.505L230.916 168.508ZM217.602 147.766L218.443 147.226L217.765 146.169L216.887 147.066L217.602 147.766ZM210.171 155.354L209.456 154.655L209.217 154.899L209.178 155.239L210.171 155.354ZM208.41 170.477L208.497 171.474L209.309 171.403L209.404 170.593L208.41 170.477ZM200.441 171.175L199.448 171.058L199.304 172.278L200.528 172.171L200.441 171.175ZM205.981 125.823L213.951 125.126L213.776 123.134L205.807 123.831L205.981 125.823ZM212.87 124.013L210.406 145.044L212.392 145.277L214.857 124.246L212.87 124.013ZM210.756 145.927L210.895 146.043L212.181 144.511L212.042 144.394L210.756 145.927ZM212.267 145.961L233.656 123.146L232.197 121.778L210.808 144.593L212.267 145.961ZM233.014 123.458L243.661 122.527L243.487 120.534L232.84 121.466L233.014 123.458ZM242.858 120.832L222.635 141.553L224.067 142.95L244.29 122.229L242.858 120.832ZM222.514 142.798L239.132 168.263L240.807 167.17L224.189 141.705L222.514 142.798ZM239.883 166.72L230.829 167.512L231.003 169.505L240.057 168.712L239.883 166.72ZM231.758 167.968L218.443 147.226L216.76 148.306L230.075 169.049L231.758 167.968ZM216.887 147.066L209.456 154.655L210.885 156.054L218.316 148.465L216.887 147.066ZM209.178 155.239L207.417 170.362L209.404 170.593L211.164 155.47L209.178 155.239ZM208.323 169.481L200.354 170.178L200.528 172.171L208.497 171.474L208.323 169.481ZM201.434 171.291L206.887 124.944L204.901 124.71L199.448 171.058L201.434 171.291ZM260.168 147.768L261.162 147.883L261.197 147.581L261.058 147.311L260.168 147.768ZM246.543 121.271L246.456 120.274L244.973 120.404L245.654 121.728L246.543 121.271ZM254.895 120.54L255.796 120.105L255.496 119.484L254.808 119.544L254.895 120.54ZM264.545 140.511L263.644 140.946L264.422 142.556L265.387 141.05L264.545 140.511ZM278.676 118.459L278.589 117.463L278.1 117.506L277.834 117.92L278.676 118.459ZM288.112 117.634L288.945 118.188L290.099 116.456L288.025 116.638L288.112 117.634ZM268.066 147.719L267.234 147.165L267.101 147.365L267.073 147.605L268.066 147.719ZM266.019 165.437L266.106 166.433L266.918 166.362L267.012 165.552L266.019 165.437ZM258.049 166.135L257.056 166.02L256.915 167.238L258.136 167.131L258.049 166.135ZM261.058 147.311L247.432 120.813L245.654 121.728L259.279 148.225L261.058 147.311ZM246.63 122.267L254.982 121.536L254.808 119.544L246.456 120.274L246.63 122.267ZM253.995 120.975L263.644 140.946L265.445 140.076L255.796 120.105L253.995 120.975ZM265.387 141.05L279.518 118.999L277.834 117.92L263.703 139.971L265.387 141.05ZM278.764 119.456L288.2 118.63L288.025 116.638L278.589 117.463L278.764 119.456ZM287.28 117.079L267.234 147.165L268.898 148.274L288.945 118.188L287.28 117.079ZM267.073 147.605L265.025 165.322L267.012 165.552L269.06 147.834L267.073 147.605ZM265.932 164.441L257.962 165.138L258.136 167.131L266.106 166.433L265.932 164.441ZM259.043 166.249L261.162 147.883L259.175 147.653L257.056 166.02L259.043 166.249ZM320.357 154.13L319.364 154.011L319.217 155.234L320.444 155.127L320.357 154.13ZM336.196 151.588L336.684 152.461L336.694 152.455L336.196 151.588ZM340.396 148.201L341.151 148.857L341.157 148.851L341.163 148.844L340.396 148.201ZM343.094 143.789L342.181 143.382L342.177 143.392L342.173 143.401L343.094 143.789ZM344.68 139.153L343.71 138.913L343.708 138.921L343.706 138.93L344.68 139.153ZM345.338 134.92L344.34 134.847L344.339 134.861L344.339 134.875L345.338 134.92ZM341.96 122.752L341.239 123.444L341.239 123.444L341.96 122.752ZM324.334 121.018L324.247 120.022L323.438 120.092L323.341 120.898L324.334 121.018ZM317.135 115.095L317.047 114.098L316.239 114.169L316.142 114.975L317.135 115.095ZM347.582 117.249L346.919 117.997L346.924 118.002L347.582 117.249ZM353.314 135.764L354.31 135.854L354.31 135.85L353.314 135.764ZM352.421 140.982L353.39 141.229L353.392 141.221L352.421 140.982ZM350.625 146.15L351.534 146.566L351.539 146.556L350.625 146.15ZM347.799 150.573L347.045 149.917L347.044 149.918L347.799 150.573ZM344.148 154.362L344.807 155.114L344.815 155.107L344.823 155.099L344.148 154.362ZM340.082 157.094L340.537 157.985L340.537 157.985L340.082 157.094ZM334.786 158.971L334.556 157.998L334.553 157.999L334.786 158.971ZM311.554 161.453L310.561 161.334L310.414 162.557L311.641 162.45L311.554 161.453ZM320.444 155.127L330.39 154.256L330.216 152.264L320.27 153.134L320.444 155.127ZM330.39 154.256C332.795 154.046 334.902 153.458 336.684 152.461L335.707 150.716C334.223 151.546 332.402 152.073 330.216 152.264L330.39 154.256ZM336.694 152.455C338.451 151.447 339.941 150.249 341.151 148.857L339.642 147.545C338.595 148.749 337.285 149.81 335.698 150.721L336.694 152.455ZM341.163 148.844C342.351 147.427 343.303 145.871 344.016 144.177L342.173 143.401C341.538 144.909 340.691 146.294 339.63 147.558L341.163 148.844ZM344.007 144.197C344.746 142.542 345.297 140.935 345.655 139.377L343.706 138.93C343.381 140.344 342.875 141.828 342.181 143.382L344.007 144.197ZM345.651 139.394C346.043 137.811 346.275 136.334 346.337 134.965L344.339 134.875C344.284 136.086 344.077 137.431 343.71 138.913L345.651 139.394ZM346.335 134.993C346.434 133.636 346.453 132.524 346.379 131.681L344.387 131.855C344.447 132.542 344.436 133.532 344.34 134.847L346.335 134.993ZM346.379 131.681C346.018 127.555 344.828 124.298 342.682 122.06L341.239 123.444C342.957 125.236 344.049 127.99 344.387 131.855L346.379 131.681ZM342.682 122.06C340.508 119.792 337.633 118.85 334.193 119.151L334.367 121.144C337.303 120.887 339.548 121.681 341.239 123.444L342.682 122.06ZM334.193 119.151L324.247 120.022L324.421 122.014L334.367 121.144L334.193 119.151ZM323.341 120.898L319.364 154.011L321.35 154.25L325.327 121.137L323.341 120.898ZM317.222 116.091L333.926 114.629L333.752 112.637L317.047 114.098L317.222 116.091ZM333.926 114.629C339.614 114.132 343.89 115.311 346.919 117.997L348.246 116.501C344.681 113.34 339.795 112.108 333.752 112.637L333.926 114.629ZM346.924 118.002C349.949 120.649 351.817 124.985 352.362 131.222L354.355 131.047C353.785 124.533 351.802 119.612 348.241 116.497L346.924 118.002ZM352.362 131.222C352.475 132.511 352.462 133.995 352.317 135.678L354.31 135.85C354.462 134.081 354.48 132.478 354.355 131.047L352.362 131.222ZM352.318 135.674C352.17 137.303 351.882 138.992 351.45 140.742L353.392 141.221C353.846 139.382 354.152 137.593 354.31 135.854L352.318 135.674ZM351.452 140.735C351.02 142.431 350.44 144.101 349.711 145.744L351.539 146.556C352.312 144.812 352.93 143.036 353.39 141.229L351.452 140.735ZM349.715 145.734C348.998 147.303 348.107 148.695 347.045 149.917L348.554 151.229C349.749 149.855 350.741 148.299 351.534 146.566L349.715 145.734ZM347.044 149.918C345.82 151.331 344.629 152.565 343.472 153.624L344.823 155.099C346.045 153.98 347.289 152.689 348.555 151.228L347.044 149.918ZM343.488 153.61C342.361 154.598 341.076 155.464 339.627 156.204L340.537 157.985C342.123 157.175 343.547 156.219 344.807 155.114L343.488 153.61ZM339.627 156.204C338.195 156.936 336.508 157.537 334.556 157.998L335.016 159.944C337.092 159.454 338.936 158.803 340.537 157.985L339.627 156.204ZM334.553 157.999C332.644 158.456 330.286 158.811 327.469 159.057L327.644 161.05C330.522 160.798 332.984 160.431 335.019 159.944L334.553 157.999ZM327.469 159.057L311.467 160.457L311.641 162.45L327.644 161.05L327.469 159.057ZM312.547 161.573L318.127 115.214L316.142 114.975L310.561 161.334L312.547 161.573ZM380.169 109.58L380.082 108.584L379.518 108.633L379.27 109.142L380.169 109.58ZM388.585 108.844L389.552 108.587L389.336 107.774L388.498 107.847L388.585 108.844ZM400.474 153.674L400.561 154.67L401.745 154.567L401.44 153.418L400.474 153.674ZM392.376 154.382L391.405 154.62L391.609 155.453L392.464 155.379L392.376 154.382ZM389.473 142.494L390.445 142.257L390.241 141.423L389.386 141.498L389.473 142.494ZM371.366 144.078L371.279 143.082L370.706 143.132L370.462 143.653L371.366 144.078ZM365.407 156.742L365.495 157.738L366.067 157.688L366.312 157.168L365.407 156.742ZM356.864 157.489L355.965 157.052L355.193 158.639L356.951 158.486L356.864 157.489ZM383.614 117.373L384.587 117.144L384.389 116.302L383.526 116.377L383.614 117.373ZM383.486 117.384L383.399 116.388L382.818 116.439L382.576 116.97L383.486 117.384ZM374.216 137.726L373.306 137.311L372.595 138.871L374.303 138.722L374.216 137.726ZM388.115 136.51L388.202 137.506L389.352 137.405L389.088 136.281L388.115 136.51ZM380.256 110.576L388.672 109.84L388.498 107.847L380.082 108.584L380.256 110.576ZM387.618 109.1L399.507 153.93L401.44 153.418L389.552 108.587L387.618 109.1ZM400.386 152.678L392.289 153.386L392.464 155.379L400.561 154.67L400.386 152.678ZM393.348 154.145L390.445 142.257L388.502 142.731L391.405 154.62L393.348 154.145ZM389.386 141.498L371.279 143.082L371.454 145.075L389.56 143.49L389.386 141.498ZM370.462 143.653L364.503 156.316L366.312 157.168L372.271 144.504L370.462 143.653ZM365.32 155.746L356.777 156.493L356.951 158.486L365.495 157.738L365.32 155.746ZM357.763 157.927L381.068 110.017L379.27 109.142L355.965 157.052L357.763 157.927ZM383.526 116.377L383.399 116.388L383.573 118.381L383.701 118.37L383.526 116.377ZM382.576 116.97L373.306 137.311L375.126 138.141L384.396 117.799L382.576 116.97ZM374.303 138.722L388.202 137.506L388.027 135.514L374.129 136.73L374.303 138.722ZM389.088 136.281L384.587 117.144L382.64 117.602L387.141 136.739L389.088 136.281ZM413.04 106.704L412.953 105.708L412.142 105.779L412.047 106.587L413.04 106.704ZM421.775 105.94L422.663 105.481L422.355 104.885L421.688 104.944L421.775 105.94ZM438.711 138.7L437.822 139.16L438.13 139.755L438.798 139.697L438.711 138.7ZM438.838 138.689L438.925 139.685L439.738 139.614L439.832 138.804L438.838 138.689ZM442.814 104.099L442.727 103.103L441.914 103.174L441.821 103.985L442.814 104.099ZM450.784 103.402L451.777 103.519L451.921 102.299L450.697 102.406L450.784 103.402ZM445.331 149.75L445.418 150.746L446.229 150.675L446.324 149.866L445.331 149.75ZM436.596 150.514L435.709 150.976L436.018 151.568L436.683 151.51L436.596 150.514ZM419.613 117.95L420.5 117.488L420.191 116.896L419.526 116.954L419.613 117.95ZM419.486 117.961L419.399 116.965L418.585 117.036L418.492 117.848L419.486 117.961ZM415.556 152.354L415.644 153.351L416.457 153.279L416.55 152.468L415.556 152.354ZM407.587 153.052L406.594 152.935L406.45 154.155L407.674 154.048L407.587 153.052ZM413.127 107.7L421.862 106.936L421.688 104.944L412.953 105.708L413.127 107.7ZM420.886 106.399L437.822 139.16L439.599 138.241L422.663 105.481L420.886 106.399ZM438.798 139.697L438.925 139.685L438.751 137.693L438.623 137.704L438.798 139.697ZM439.832 138.804L443.808 104.213L441.821 103.985L437.845 138.575L439.832 138.804ZM442.902 105.095L450.871 104.398L450.697 102.406L442.727 103.103L442.902 105.095ZM449.791 103.285L444.338 149.633L446.324 149.866L451.777 103.519L449.791 103.285ZM445.244 148.753L436.509 149.517L436.683 151.51L445.418 150.746L445.244 148.753ZM437.483 150.051L420.5 117.488L418.727 118.412L435.709 150.976L437.483 150.051ZM419.526 116.954L419.399 116.965L419.573 118.957L419.7 118.946L419.526 116.954ZM418.492 117.848L414.563 152.241L416.55 152.468L420.479 118.075L418.492 117.848ZM415.469 151.358L407.5 152.055L407.674 154.048L415.644 153.351L415.469 151.358ZM408.58 153.169L414.033 106.821L412.047 106.587L406.594 152.935L408.58 153.169Z" fill="white"/>
  <path d="M206.022 237.372L219.156 236.223C221.791 235.993 224.119 235.425 226.138 234.52C228.2 233.612 229.985 232.471 231.492 231.097C232.996 229.68 234.249 228.093 235.252 226.335C236.297 224.573 237.101 222.747 237.663 220.856C238.268 218.961 238.659 217.064 238.836 215.164C239.051 213.218 239.08 211.352 238.924 209.567C238.697 206.974 238.241 204.701 237.557 202.748C236.872 200.795 235.898 199.21 234.635 197.993C233.368 196.733 231.77 195.845 229.841 195.329C227.911 194.812 225.586 194.673 222.866 194.911L211.071 195.943L206.022 237.372ZM208.563 193.721L223.291 192.432C226.352 192.165 228.98 192.342 231.176 192.963C233.371 193.585 235.197 194.624 236.652 196.082C238.15 197.535 239.297 199.384 240.093 201.627C240.927 203.824 241.473 206.389 241.729 209.322C242.016 212.594 241.769 215.892 240.989 219.216C240.209 222.539 238.891 225.588 237.035 228.363C235.179 231.138 232.813 233.465 229.937 235.344C227.056 237.181 223.64 238.272 219.687 238.618L202.919 240.085L208.563 193.721ZM255.333 189.629L285.044 187.03L284.682 189.503L257.841 191.851L255.61 210.42L280.603 208.233L280.369 210.695L255.312 212.887L252.856 233.275L280.526 230.854L280.228 233.322L249.753 235.988L255.333 189.629ZM289.039 186.68L291.844 186.435L302.276 228.566L302.404 228.555L323.786 183.64L326.592 183.395L303.924 231.248L300.609 231.538L289.039 186.68Z" fill="#272C34"/>
  <rect x="177" y="223.743" width="20" height="20" rx="10" transform="rotate(-5 177 223.743)" fill="#D271E3"/>
  <defs>
    <filter id="filter0_d" x="178.695" y="167.414" width="173.928" height="96.6595" filterUnits="userSpaceOnUse" color-interpolation-filters="sRGB">
      <feFlood flood-opacity="0" result="BackgroundImageFix"/>
      <feColorMatrix in="SourceAlpha" type="matrix" values="0 0 0 0 0 0 0 0 0 0 0 0 0 0 0 0 0 0 127 0"/>
      <feOffset dx="4" dy="4"/>
      <feGaussianBlur stdDeviation="2"/>
      <feColorMatrix type="matrix" values="0 0 0 0 0 0 0 0 0 0 0 0 0 0 0 0 0 0 0.35 0"/>
      <feBlend mode="normal" in2="BackgroundImageFix" result="effect1_dropShadow"/>
      <feBlend mode="normal" in="SourceGraphic" in2="effect1_dropShadow" result="shape"/>
    </filter>
    <linearGradient id="paint0_linear" x1="256.5" y1="164" x2="256.5" y2="244" gradientUnits="userSpaceOnUse">
      <stop stop-color="#B2CCD6"/>
      <stop offset="1" stop-color="#B0CBDC" stop-opacity="0"/>
    </linearGradient>
    <linearGradient id="paint1_linear" x1="268" y1="0" x2="268" y2="297" gradientUnits="userSpaceOnUse">
      <stop offset="0.046875" stop-color="#D271E3"/>
      <stop offset="0.802083" stop-color="#82AAFF"/>
      <stop offset="1" stop-color="#82AAFF"/>
    </linearGradient>
  </defs>
</svg>
