<svg viewBox="22 24 470 220" fill="none"
  xmlns="http://www.w3.org/2000/svg">
  <rect x="57" y="142" width="399" height="80" fill="url(#paint0_linear)"/>
  <rect width="4.97072" height="5.13412" rx="2.48536" transform="matrix(0.995938 -0.0900414 0.0843612 0.996435 60 57.4476)" fill="#FFBE46" fill-opacity="0.2"/>
  <rect width="4.97072" height="5.13413" rx="2.48536" transform="matrix(0.995938 -0.0900426 0.0843601 0.996435 69.9388 57.4476)" fill="#FFBE46" fill-opacity="0.2"/>
  <rect width="4.97072" height="5.13413" rx="2.48536" transform="matrix(0.995938 -0.0900426 0.0843601 0.996435 79.8778 57.4476)" fill="#FFBE46" fill-opacity="0.2"/>
  <rect width="4.97072" height="5.13413" rx="2.48536" transform="matrix(0.995938 -0.0900426 0.0843601 0.996435 89.8167 57.4476)" fill="#FFBE46" fill-opacity="0.2"/>
  <rect width="4.97072" height="5.13413" rx="2.48536" transform="matrix(0.995938 -0.0900426 0.0843601 0.996435 99.7555 57.4476)" fill="#FFBE46" fill-opacity="0.2"/>
  <rect width="4.97072" height="5.13413" rx="2.48536" transform="matrix(0.995938 -0.0900426 0.0843601 0.996435 109.694 57.4476)" fill="#FFBE46" fill-opacity="0.2"/>
  <rect width="4.97072" height="5.13413" rx="2.48536" transform="matrix(0.995938 -0.0900426 0.0843601 0.996435 119.633 57.4476)" fill="#FFBE46" fill-opacity="0.2"/>
  <rect width="4.97072" height="5.13413" rx="2.48536" transform="matrix(0.995938 -0.0900426 0.0843601 0.996435 129.572 57.4476)" fill="#FFBE46" fill-opacity="0.2"/>
  <rect width="4.97072" height="5.13413" rx="2.48536" transform="matrix(0.995938 -0.0900426 0.0843601 0.996435 139.511 57.4476)" fill="#FFBE46" fill-opacity="0.2"/>
  <rect width="4.97072" height="5.13413" rx="2.48536" transform="matrix(0.995938 -0.0900426 0.0843601 0.996435 149.45 57.4476)" fill="#FFBE46" fill-opacity="0.2"/>
  <rect width="4.97072" height="5.13413" rx="2.48536" transform="matrix(0.995938 -0.0900426 0.0843601 0.996435 159.389 57.4476)" fill="#FFBE46" fill-opacity="0.2"/>
  <rect width="4.97072" height="5.13413" rx="2.48536" transform="matrix(0.995938 -0.0900426 0.0843601 0.996435 169.328 57.4476)" fill="#FFBE46" fill-opacity="0.2"/>
  <rect width="4.97072" height="5.13413" rx="2.48536" transform="matrix(0.995938 -0.0900426 0.0843601 0.996435 179.267 57.4476)" fill="#FFBE46" fill-opacity="0.2"/>
  <rect width="4.97072" height="5.13413" rx="2.48536" transform="matrix(0.995938 -0.0900426 0.0843601 0.996435 189.205 57.4476)" fill="#FFBE46" fill-opacity="0.2"/>
  <rect width="4.97072" height="5.13413" rx="2.48536" transform="matrix(0.995938 -0.0900426 0.0843601 0.996435 199.144 57.4476)" fill="#FFBE46" fill-opacity="0.2"/>
  <rect width="4.97072" height="5.13413" rx="2.48536" transform="matrix(0.995938 -0.0900426 0.0843601 0.996435 209.083 57.4476)" fill="#FFBE46" fill-opacity="0.2"/>
  <rect width="4.97072" height="5.13413" rx="2.48536" transform="matrix(0.995938 -0.0900426 0.0843601 0.996435 219.022 57.4476)" fill="#FFBE46" fill-opacity="0.2"/>
  <rect width="4.97072" height="5.13413" rx="2.48536" transform="matrix(0.995938 -0.0900426 0.0843601 0.996435 228.961 57.4476)" fill="#FFBE46" fill-opacity="0.2"/>
  <rect width="4.97072" height="5.13413" rx="2.48536" transform="matrix(0.995938 -0.0900426 0.0843601 0.996435 238.9 57.4476)" fill="#FFBE46" fill-opacity="0.2"/>
  <rect width="4.97072" height="5.13413" rx="2.48536" transform="matrix(0.995938 -0.0900426 0.0843601 0.996435 248.839 57.4476)" fill="#FFBE46" fill-opacity="0.2"/>
  <rect width="4.97072" height="5.13413" rx="2.48536" transform="matrix(0.995938 -0.0900426 0.0843601 0.996435 258.778 57.4476)" fill="#FFBE46" fill-opacity="0.2"/>
  <rect width="4.97072" height="5.13413" rx="2.48536" transform="matrix(0.995938 -0.0900426 0.0843601 0.996435 268.716 57.4476)" fill="#FFBE46" fill-opacity="0.2"/>
  <rect width="4.97072" height="5.13413" rx="2.48536" transform="matrix(0.995938 -0.0900426 0.0843601 0.996435 278.655 57.4476)" fill="#FFBE46" fill-opacity="0.2"/>
  <rect width="4.97072" height="5.13413" rx="2.48536" transform="matrix(0.995938 -0.0900426 0.0843601 0.996435 288.594 57.4476)" fill="#FFBE46" fill-opacity="0.2"/>
  <rect width="4.97072" height="5.13413" rx="2.48536" transform="matrix(0.995938 -0.0900426 0.0843601 0.996435 298.533 57.4476)" fill="#FFBE46" fill-opacity="0.2"/>
  <rect width="4.97072" height="5.13413" rx="2.48536" transform="matrix(0.995938 -0.0900426 0.0843601 0.996435 308.472 57.4476)" fill="#FFBE46" fill-opacity="0.2"/>
  <rect width="4.97072" height="5.13413" rx="2.48536" transform="matrix(0.995938 -0.0900426 0.0843601 0.996435 318.411 57.4476)" fill="#FFBE46" fill-opacity="0.2"/>
  <rect width="4.97072" height="5.13413" rx="2.48536" transform="matrix(0.995938 -0.0900426 0.0843601 0.996435 328.35 57.4476)" fill="#FFBE46" fill-opacity="0.2"/>
  <rect width="4.97072" height="5.13413" rx="2.48536" transform="matrix(0.995938 -0.0900426 0.0843601 0.996435 338.289 57.4476)" fill="#FFBE46" fill-opacity="0.2"/>
  <rect width="4.97072" height="5.13413" rx="2.48536" transform="matrix(0.995938 -0.0900426 0.0843601 0.996435 348.228 57.4476)" fill="#FFBE46" fill-opacity="0.2"/>
  <rect width="4.97072" height="5.13413" rx="2.48536" transform="matrix(0.995938 -0.0900426 0.0843601 0.996435 358.166 57.4476)" fill="#FFBE46" fill-opacity="0.2"/>
  <rect width="4.97072" height="5.13413" rx="2.48536" transform="matrix(0.995938 -0.0900426 0.0843601 0.996435 368.105 57.4476)" fill="#FFBE46" fill-opacity="0.2"/>
  <rect width="4.97072" height="5.13413" rx="2.48536" transform="matrix(0.995938 -0.0900426 0.0843601 0.996435 378.044 57.4476)" fill="#FFBE46" fill-opacity="0.2"/>
  <rect width="4.97072" height="5.13413" rx="2.48536" transform="matrix(0.995938 -0.0900426 0.0843601 0.996435 387.983 57.4476)" fill="#FFBE46" fill-opacity="0.2"/>
  <rect width="4.97072" height="5.13413" rx="2.48536" transform="matrix(0.995938 -0.0900426 0.0843601 0.996435 397.922 57.4476)" fill="#FFBE46" fill-opacity="0.2"/>
  <rect width="4.97072" height="5.13413" rx="2.48536" transform="matrix(0.995938 -0.0900426 0.0843601 0.996435 407.861 57.4476)" fill="#FFBE46" fill-opacity="0.2"/>
  <rect width="4.97072" height="5.13413" rx="2.48536" transform="matrix(0.995938 -0.0900426 0.0843601 0.996435 417.8 57.4476)" fill="#FFBE46" fill-opacity="0.2"/>
  <rect width="4.97072" height="5.13413" rx="2.48536" transform="matrix(0.995938 -0.0900426 0.0843601 0.996435 427.739 57.4476)" fill="#FFBE46" fill-opacity="0.2"/>
  <rect width="4.97072" height="5.13413" rx="2.48536" transform="matrix(0.995938 -0.0900426 0.0843601 0.996435 437.677 57.4476)" fill="#FFBE46" fill-opacity="0.2"/>
  <rect width="4.97072" height="5.13413" rx="2.48536" transform="matrix(0.995938 -0.0900426 0.0843601 0.996435 447.616 57.4476)" fill="#FFBE46" fill-opacity="0.2"/>
  <rect width="4.97072" height="5.13412" rx="2.48536" transform="matrix(0.995938 -0.0900414 0.0843612 0.996435 60 67.7183)" fill="#FFBE46" fill-opacity="0.3"/>
  <rect width="4.97072" height="5.13413" rx="2.48536" transform="matrix(0.995938 -0.0900426 0.0843601 0.996435 69.9388 67.7183)" fill="#FFBE46" fill-opacity="0.3"/>
  <rect width="4.97072" height="5.13413" rx="2.48536" transform="matrix(0.995938 -0.0900426 0.0843601 0.996435 79.8778 67.7183)" fill="#FFBE46" fill-opacity="0.3"/>
  <rect width="4.97072" height="5.13413" rx="2.48536" transform="matrix(0.995938 -0.0900426 0.0843601 0.996435 89.8167 67.7183)" fill="#FFBE46" fill-opacity="0.3"/>
  <rect width="4.97072" height="5.13413" rx="2.48536" transform="matrix(0.995938 -0.0900426 0.0843601 0.996435 99.7555 67.7183)" fill="#FFBE46" fill-opacity="0.3"/>
  <rect width="4.97072" height="5.13413" rx="2.48536" transform="matrix(0.995938 -0.0900426 0.0843601 0.996435 109.694 67.7183)" fill="#FFBE46" fill-opacity="0.3"/>
  <rect width="4.97072" height="5.13413" rx="2.48536" transform="matrix(0.995938 -0.0900426 0.0843601 0.996435 119.633 67.7183)" fill="#FFBE46" fill-opacity="0.3"/>
  <rect width="4.97072" height="5.13413" rx="2.48536" transform="matrix(0.995938 -0.0900426 0.0843601 0.996435 129.572 67.7183)" fill="#FFBE46" fill-opacity="0.3"/>
  <rect width="4.97072" height="5.13413" rx="2.48536" transform="matrix(0.995938 -0.0900426 0.0843601 0.996435 139.511 67.7183)" fill="#FFBE46" fill-opacity="0.3"/>
  <rect width="4.97072" height="5.13413" rx="2.48536" transform="matrix(0.995938 -0.0900426 0.0843601 0.996435 149.45 67.7183)" fill="#FFBE46" fill-opacity="0.3"/>
  <rect width="4.97072" height="5.13413" rx="2.48536" transform="matrix(0.995938 -0.0900426 0.0843601 0.996435 159.389 67.7183)" fill="#FFBE46" fill-opacity="0.3"/>
  <rect width="4.97072" height="5.13413" rx="2.48536" transform="matrix(0.995938 -0.0900426 0.0843601 0.996435 169.328 67.7183)" fill="#FFBE46" fill-opacity="0.3"/>
  <rect width="4.97072" height="5.13413" rx="2.48536" transform="matrix(0.995938 -0.0900426 0.0843601 0.996435 179.267 67.7183)" fill="#FFBE46" fill-opacity="0.3"/>
  <rect width="4.97072" height="5.13413" rx="2.48536" transform="matrix(0.995938 -0.0900426 0.0843601 0.996435 189.205 67.7183)" fill="#FFBE46" fill-opacity="0.3"/>
  <rect width="4.97072" height="5.13413" rx="2.48536" transform="matrix(0.995938 -0.0900426 0.0843601 0.996435 199.144 67.7183)" fill="#FFBE46" fill-opacity="0.3"/>
  <rect width="4.97072" height="5.13413" rx="2.48536" transform="matrix(0.995938 -0.0900426 0.0843601 0.996435 209.083 67.7183)" fill="#FFBE46" fill-opacity="0.3"/>
  <rect width="4.97072" height="5.13413" rx="2.48536" transform="matrix(0.995938 -0.0900426 0.0843601 0.996435 219.022 67.7183)" fill="#FFBE46" fill-opacity="0.3"/>
  <rect width="4.97072" height="5.13413" rx="2.48536" transform="matrix(0.995938 -0.0900426 0.0843601 0.996435 228.961 67.7183)" fill="#FFBE46" fill-opacity="0.3"/>
  <rect width="4.97072" height="5.13413" rx="2.48536" transform="matrix(0.995938 -0.0900426 0.0843601 0.996435 238.9 67.7183)" fill="#FFBE46" fill-opacity="0.3"/>
  <rect width="4.97072" height="5.13413" rx="2.48536" transform="matrix(0.995938 -0.0900426 0.0843601 0.996435 248.839 67.7183)" fill="#FFBE46" fill-opacity="0.3"/>
  <rect width="4.97072" height="5.13413" rx="2.48536" transform="matrix(0.995938 -0.0900426 0.0843601 0.996435 258.778 67.7183)" fill="#FFBE46" fill-opacity="0.3"/>
  <rect width="4.97072" height="5.13413" rx="2.48536" transform="matrix(0.995938 -0.0900426 0.0843601 0.996435 268.716 67.7183)" fill="#FFBE46" fill-opacity="0.3"/>
  <rect width="4.97072" height="5.13413" rx="2.48536" transform="matrix(0.995938 -0.0900426 0.0843601 0.996435 278.655 67.7183)" fill="#FFBE46" fill-opacity="0.3"/>
  <rect width="4.97072" height="5.13413" rx="2.48536" transform="matrix(0.995938 -0.0900426 0.0843601 0.996435 288.594 67.7183)" fill="#FFBE46" fill-opacity="0.3"/>
  <rect width="4.97072" height="5.13413" rx="2.48536" transform="matrix(0.995938 -0.0900426 0.0843601 0.996435 298.533 67.7183)" fill="#FFBE46" fill-opacity="0.3"/>
  <rect width="4.97072" height="5.13413" rx="2.48536" transform="matrix(0.995938 -0.0900426 0.0843601 0.996435 308.472 67.7183)" fill="#FFBE46" fill-opacity="0.3"/>
  <rect width="4.97072" height="5.13413" rx="2.48536" transform="matrix(0.995938 -0.0900426 0.0843601 0.996435 318.411 67.7183)" fill="#FFBE46" fill-opacity="0.3"/>
  <rect width="4.97072" height="5.13413" rx="2.48536" transform="matrix(0.995938 -0.0900426 0.0843601 0.996435 328.35 67.7183)" fill="#FFBE46" fill-opacity="0.3"/>
  <rect width="4.97072" height="5.13413" rx="2.48536" transform="matrix(0.995938 -0.0900426 0.0843601 0.996435 338.289 67.7183)" fill="#FFBE46" fill-opacity="0.3"/>
  <rect width="4.97072" height="5.13413" rx="2.48536" transform="matrix(0.995938 -0.0900426 0.0843601 0.996435 348.228 67.7183)" fill="#FFBE46" fill-opacity="0.3"/>
  <rect width="4.97072" height="5.13413" rx="2.48536" transform="matrix(0.995938 -0.0900426 0.0843601 0.996435 358.166 67.7183)" fill="#FFBE46" fill-opacity="0.3"/>
  <rect width="4.97072" height="5.13413" rx="2.48536" transform="matrix(0.995938 -0.0900426 0.0843601 0.996435 368.105 67.7183)" fill="#FFBE46" fill-opacity="0.3"/>
  <rect width="4.97072" height="5.13413" rx="2.48536" transform="matrix(0.995938 -0.0900426 0.0843601 0.996435 378.044 67.7183)" fill="#FFBE46" fill-opacity="0.3"/>
  <rect width="4.97072" height="5.13413" rx="2.48536" transform="matrix(0.995938 -0.0900426 0.0843601 0.996435 387.983 67.7183)" fill="#FFBE46" fill-opacity="0.3"/>
  <rect width="4.97072" height="5.13413" rx="2.48536" transform="matrix(0.995938 -0.0900426 0.0843601 0.996435 397.922 67.7183)" fill="#FFBE46" fill-opacity="0.3"/>
  <rect width="4.97072" height="5.13413" rx="2.48536" transform="matrix(0.995938 -0.0900426 0.0843601 0.996435 407.861 67.7183)" fill="#FFBE46" fill-opacity="0.3"/>
  <rect width="4.97072" height="5.13413" rx="2.48536" transform="matrix(0.995938 -0.0900426 0.0843601 0.996435 417.8 67.7183)" fill="#FFBE46" fill-opacity="0.3"/>
  <rect width="4.97072" height="5.13413" rx="2.48536" transform="matrix(0.995938 -0.0900426 0.0843601 0.996435 427.739 67.7183)" fill="#FFBE46" fill-opacity="0.3"/>
  <rect width="4.97072" height="5.13413" rx="2.48536" transform="matrix(0.995938 -0.0900426 0.0843601 0.996435 437.677 67.7183)" fill="#FFBE46" fill-opacity="0.3"/>
  <rect width="4.97072" height="5.13413" rx="2.48536" transform="matrix(0.995938 -0.0900426 0.0843601 0.996435 447.616 67.7183)" fill="#FFBE46" fill-opacity="0.3"/>
  <rect width="4.97072" height="5.13412" rx="2.48536" transform="matrix(0.995938 -0.0900414 0.0843612 0.996435 60 77.989)" fill="#FFBE46" fill-opacity="0.4"/>
  <rect width="4.97072" height="5.13413" rx="2.48536" transform="matrix(0.995938 -0.0900426 0.0843601 0.996435 69.9388 77.989)" fill="#FFBE46" fill-opacity="0.4"/>
  <rect width="4.97072" height="5.13413" rx="2.48536" transform="matrix(0.995938 -0.0900426 0.0843601 0.996435 79.8778 77.989)" fill="#FFBE46" fill-opacity="0.4"/>
  <rect width="4.97072" height="5.13413" rx="2.48536" transform="matrix(0.995938 -0.0900426 0.0843601 0.996435 89.8167 77.989)" fill="#FFBE46" fill-opacity="0.4"/>
  <rect width="4.97072" height="5.13413" rx="2.48536" transform="matrix(0.995938 -0.0900426 0.0843601 0.996435 99.7555 77.989)" fill="#FFBE46" fill-opacity="0.4"/>
  <rect width="4.97072" height="5.13413" rx="2.48536" transform="matrix(0.995938 -0.0900426 0.0843601 0.996435 109.694 77.989)" fill="#FFBE46" fill-opacity="0.4"/>
  <rect width="4.97072" height="5.13413" rx="2.48536" transform="matrix(0.995938 -0.0900426 0.0843601 0.996435 119.633 77.989)" fill="#FFBE46" fill-opacity="0.4"/>
  <rect width="4.97072" height="5.13413" rx="2.48536" transform="matrix(0.995938 -0.0900426 0.0843601 0.996435 129.572 77.989)" fill="#FFBE46" fill-opacity="0.4"/>
  <rect width="4.97072" height="5.13413" rx="2.48536" transform="matrix(0.995938 -0.0900426 0.0843601 0.996435 139.511 77.989)" fill="#FFBE46" fill-opacity="0.4"/>
  <rect width="4.97072" height="5.13413" rx="2.48536" transform="matrix(0.995938 -0.0900426 0.0843601 0.996435 149.45 77.989)" fill="#FFBE46" fill-opacity="0.4"/>
  <rect width="4.97072" height="5.13413" rx="2.48536" transform="matrix(0.995938 -0.0900426 0.0843601 0.996435 159.389 77.989)" fill="#FFBE46" fill-opacity="0.4"/>
  <rect width="4.97072" height="5.13413" rx="2.48536" transform="matrix(0.995938 -0.0900426 0.0843601 0.996435 169.328 77.989)" fill="#FFBE46" fill-opacity="0.4"/>
  <rect width="4.97072" height="5.13413" rx="2.48536" transform="matrix(0.995938 -0.0900426 0.0843601 0.996435 179.267 77.989)" fill="#FFBE46" fill-opacity="0.4"/>
  <rect width="4.97072" height="5.13413" rx="2.48536" transform="matrix(0.995938 -0.0900426 0.0843601 0.996435 189.205 77.989)" fill="#FFBE46" fill-opacity="0.4"/>
  <rect width="4.97072" height="5.13413" rx="2.48536" transform="matrix(0.995938 -0.0900426 0.0843601 0.996435 199.144 77.989)" fill="#FFBE46" fill-opacity="0.4"/>
  <rect width="4.97072" height="5.13413" rx="2.48536" transform="matrix(0.995938 -0.0900426 0.0843601 0.996435 209.083 77.989)" fill="#FFBE46" fill-opacity="0.4"/>
  <rect width="4.97072" height="5.13413" rx="2.48536" transform="matrix(0.995938 -0.0900426 0.0843601 0.996435 219.022 77.989)" fill="#FFBE46" fill-opacity="0.4"/>
  <rect width="4.97072" height="5.13413" rx="2.48536" transform="matrix(0.995938 -0.0900426 0.0843601 0.996435 228.961 77.989)" fill="#FFBE46" fill-opacity="0.4"/>
  <rect width="4.97072" height="5.13413" rx="2.48536" transform="matrix(0.995938 -0.0900426 0.0843601 0.996435 238.9 77.989)" fill="#FFBE46" fill-opacity="0.4"/>
  <rect width="4.97072" height="5.13413" rx="2.48536" transform="matrix(0.995938 -0.0900426 0.0843601 0.996435 248.839 77.989)" fill="#FFBE46" fill-opacity="0.4"/>
  <rect width="4.97072" height="5.13413" rx="2.48536" transform="matrix(0.995938 -0.0900426 0.0843601 0.996435 258.778 77.989)" fill="#FFBE46" fill-opacity="0.4"/>
  <rect width="4.97072" height="5.13413" rx="2.48536" transform="matrix(0.995938 -0.0900426 0.0843601 0.996435 268.716 77.989)" fill="#FFBE46" fill-opacity="0.4"/>
  <rect width="4.97072" height="5.13413" rx="2.48536" transform="matrix(0.995938 -0.0900426 0.0843601 0.996435 278.655 77.989)" fill="#FFBE46" fill-opacity="0.4"/>
  <rect width="4.97072" height="5.13413" rx="2.48536" transform="matrix(0.995938 -0.0900426 0.0843601 0.996435 288.594 77.989)" fill="#FFBE46" fill-opacity="0.4"/>
  <rect width="4.97072" height="5.13413" rx="2.48536" transform="matrix(0.995938 -0.0900426 0.0843601 0.996435 298.533 77.989)" fill="#FFBE46" fill-opacity="0.4"/>
  <rect width="4.97072" height="5.13413" rx="2.48536" transform="matrix(0.995938 -0.0900426 0.0843601 0.996435 308.472 77.989)" fill="#FFBE46" fill-opacity="0.4"/>
  <rect width="4.97072" height="5.13413" rx="2.48536" transform="matrix(0.995938 -0.0900426 0.0843601 0.996435 318.411 77.989)" fill="#FFBE46" fill-opacity="0.4"/>
  <rect width="4.97072" height="5.13413" rx="2.48536" transform="matrix(0.995938 -0.0900426 0.0843601 0.996435 328.35 77.989)" fill="#FFBE46" fill-opacity="0.4"/>
  <rect width="4.97072" height="5.13413" rx="2.48536" transform="matrix(0.995938 -0.0900426 0.0843601 0.996435 338.289 77.989)" fill="#FFBE46" fill-opacity="0.4"/>
  <rect width="4.97072" height="5.13413" rx="2.48536" transform="matrix(0.995938 -0.0900426 0.0843601 0.996435 348.228 77.989)" fill="#FFBE46" fill-opacity="0.4"/>
  <rect width="4.97072" height="5.13413" rx="2.48536" transform="matrix(0.995938 -0.0900426 0.0843601 0.996435 358.166 77.989)" fill="#FFBE46" fill-opacity="0.4"/>
  <rect width="4.97072" height="5.13413" rx="2.48536" transform="matrix(0.995938 -0.0900426 0.0843601 0.996435 368.105 77.989)" fill="#FFBE46" fill-opacity="0.4"/>
  <rect width="4.97072" height="5.13413" rx="2.48536" transform="matrix(0.995938 -0.0900426 0.0843601 0.996435 378.044 77.989)" fill="#FFBE46" fill-opacity="0.4"/>
  <rect width="4.97072" height="5.13413" rx="2.48536" transform="matrix(0.995938 -0.0900426 0.0843601 0.996435 387.983 77.989)" fill="#FFBE46" fill-opacity="0.4"/>
  <rect width="4.97072" height="5.13413" rx="2.48536" transform="matrix(0.995938 -0.0900426 0.0843601 0.996435 397.922 77.989)" fill="#FFBE46" fill-opacity="0.4"/>
  <rect width="4.97072" height="5.13413" rx="2.48536" transform="matrix(0.995938 -0.0900426 0.0843601 0.996435 407.861 77.989)" fill="#FFBE46" fill-opacity="0.4"/>
  <rect width="4.97072" height="5.13413" rx="2.48536" transform="matrix(0.995938 -0.0900426 0.0843601 0.996435 417.8 77.989)" fill="#FFBE46" fill-opacity="0.4"/>
  <rect width="4.97072" height="5.13413" rx="2.48536" transform="matrix(0.995938 -0.0900426 0.0843601 0.996435 427.739 77.989)" fill="#FFBE46" fill-opacity="0.4"/>
  <rect width="4.97072" height="5.13413" rx="2.48536" transform="matrix(0.995938 -0.0900426 0.0843601 0.996435 437.677 77.989)" fill="#FFBE46" fill-opacity="0.4"/>
  <rect width="4.97072" height="5.13413" rx="2.48536" transform="matrix(0.995938 -0.0900426 0.0843601 0.996435 447.616 77.989)" fill="#FFBE46" fill-opacity="0.4"/>
  <rect width="4.97072" height="5.13412" rx="2.48536" transform="matrix(0.995938 -0.0900414 0.0843612 0.996435 60 88.2598)" fill="#FFBE46" fill-opacity="0.5"/>
  <rect width="4.97072" height="5.13413" rx="2.48536" transform="matrix(0.995938 -0.0900426 0.0843601 0.996435 69.9388 88.2598)" fill="#FFBE46" fill-opacity="0.5"/>
  <rect width="4.97072" height="5.13413" rx="2.48536" transform="matrix(0.995938 -0.0900426 0.0843601 0.996435 79.8778 88.2598)" fill="#FFBE46" fill-opacity="0.5"/>
  <rect width="4.97072" height="5.13413" rx="2.48536" transform="matrix(0.995938 -0.0900426 0.0843601 0.996435 89.8167 88.2598)" fill="#FFBE46" fill-opacity="0.5"/>
  <rect width="4.97072" height="5.13413" rx="2.48536" transform="matrix(0.995938 -0.0900426 0.0843601 0.996435 99.7555 88.2598)" fill="#FFBE46" fill-opacity="0.5"/>
  <rect width="4.97072" height="5.13413" rx="2.48536" transform="matrix(0.995938 -0.0900426 0.0843601 0.996435 109.694 88.2598)" fill="#FFBE46" fill-opacity="0.5"/>
  <rect width="4.97072" height="5.13413" rx="2.48536" transform="matrix(0.995938 -0.0900426 0.0843601 0.996435 119.633 88.2598)" fill="#FFBE46" fill-opacity="0.5"/>
  <rect width="4.97072" height="5.13413" rx="2.48536" transform="matrix(0.995938 -0.0900426 0.0843601 0.996435 129.572 88.2598)" fill="#FFBE46" fill-opacity="0.5"/>
  <rect width="4.97072" height="5.13413" rx="2.48536" transform="matrix(0.995938 -0.0900426 0.0843601 0.996435 139.511 88.2598)" fill="#FFBE46" fill-opacity="0.5"/>
  <rect width="4.97072" height="5.13413" rx="2.48536" transform="matrix(0.995938 -0.0900426 0.0843601 0.996435 149.45 88.2598)" fill="#FFBE46" fill-opacity="0.5"/>
  <rect width="4.97072" height="5.13413" rx="2.48536" transform="matrix(0.995938 -0.0900426 0.0843601 0.996435 159.389 88.2598)" fill="#FFBE46" fill-opacity="0.5"/>
  <rect width="4.97072" height="5.13413" rx="2.48536" transform="matrix(0.995938 -0.0900426 0.0843601 0.996435 169.328 88.2598)" fill="#FFBE46" fill-opacity="0.5"/>
  <rect width="4.97072" height="5.13413" rx="2.48536" transform="matrix(0.995938 -0.0900426 0.0843601 0.996435 179.267 88.2598)" fill="#FFBE46" fill-opacity="0.5"/>
  <rect width="4.97072" height="5.13413" rx="2.48536" transform="matrix(0.995938 -0.0900426 0.0843601 0.996435 189.205 88.2598)" fill="#FFBE46" fill-opacity="0.5"/>
  <rect width="4.97072" height="5.13413" rx="2.48536" transform="matrix(0.995938 -0.0900426 0.0843601 0.996435 199.144 88.2598)" fill="#FFBE46" fill-opacity="0.5"/>
  <rect width="4.97072" height="5.13413" rx="2.48536" transform="matrix(0.995938 -0.0900426 0.0843601 0.996435 209.083 88.2598)" fill="#FFBE46" fill-opacity="0.5"/>
  <rect width="4.97072" height="5.13413" rx="2.48536" transform="matrix(0.995938 -0.0900426 0.0843601 0.996435 219.022 88.2598)" fill="#FFBE46" fill-opacity="0.5"/>
  <rect width="4.97072" height="5.13413" rx="2.48536" transform="matrix(0.995938 -0.0900426 0.0843601 0.996435 228.961 88.2598)" fill="#FFBE46" fill-opacity="0.5"/>
  <rect width="4.97072" height="5.13413" rx="2.48536" transform="matrix(0.995938 -0.0900426 0.0843601 0.996435 238.9 88.2598)" fill="#FFBE46" fill-opacity="0.5"/>
  <rect width="4.97072" height="5.13413" rx="2.48536" transform="matrix(0.995938 -0.0900426 0.0843601 0.996435 248.839 88.2598)" fill="#FFBE46" fill-opacity="0.5"/>
  <rect width="4.97072" height="5.13413" rx="2.48536" transform="matrix(0.995938 -0.0900426 0.0843601 0.996435 258.778 88.2598)" fill="#FFBE46" fill-opacity="0.5"/>
  <rect width="4.97072" height="5.13413" rx="2.48536" transform="matrix(0.995938 -0.0900426 0.0843601 0.996435 268.716 88.2598)" fill="#FFBE46" fill-opacity="0.5"/>
  <rect width="4.97072" height="5.13413" rx="2.48536" transform="matrix(0.995938 -0.0900426 0.0843601 0.996435 278.655 88.2598)" fill="#FFBE46" fill-opacity="0.5"/>
  <rect width="4.97072" height="5.13413" rx="2.48536" transform="matrix(0.995938 -0.0900426 0.0843601 0.996435 288.594 88.2598)" fill="#FFBE46" fill-opacity="0.5"/>
  <rect width="4.97072" height="5.13413" rx="2.48536" transform="matrix(0.995938 -0.0900426 0.0843601 0.996435 298.533 88.2598)" fill="#FFBE46" fill-opacity="0.5"/>
  <rect width="4.97072" height="5.13413" rx="2.48536" transform="matrix(0.995938 -0.0900426 0.0843601 0.996435 308.472 88.2598)" fill="#FFBE46" fill-opacity="0.5"/>
  <rect width="4.97072" height="5.13413" rx="2.48536" transform="matrix(0.995938 -0.0900426 0.0843601 0.996435 318.411 88.2598)" fill="#FFBE46" fill-opacity="0.5"/>
  <rect width="4.97072" height="5.13413" rx="2.48536" transform="matrix(0.995938 -0.0900426 0.0843601 0.996435 328.35 88.2598)" fill="#FFBE46" fill-opacity="0.5"/>
  <rect width="4.97072" height="5.13413" rx="2.48536" transform="matrix(0.995938 -0.0900426 0.0843601 0.996435 338.289 88.2598)" fill="#FFBE46" fill-opacity="0.5"/>
  <rect width="4.97072" height="5.13413" rx="2.48536" transform="matrix(0.995938 -0.0900426 0.0843601 0.996435 348.228 88.2598)" fill="#FFBE46" fill-opacity="0.5"/>
  <rect width="4.97072" height="5.13413" rx="2.48536" transform="matrix(0.995938 -0.0900426 0.0843601 0.996435 358.166 88.2598)" fill="#FFBE46" fill-opacity="0.5"/>
  <rect width="4.97072" height="5.13413" rx="2.48536" transform="matrix(0.995938 -0.0900426 0.0843601 0.996435 368.105 88.2598)" fill="#FFBE46" fill-opacity="0.5"/>
  <rect width="4.97072" height="5.13413" rx="2.48536" transform="matrix(0.995938 -0.0900426 0.0843601 0.996435 378.044 88.2598)" fill="#FFBE46" fill-opacity="0.5"/>
  <rect width="4.97072" height="5.13413" rx="2.48536" transform="matrix(0.995938 -0.0900426 0.0843601 0.996435 387.983 88.2598)" fill="#FFBE46" fill-opacity="0.5"/>
  <rect width="4.97072" height="5.13413" rx="2.48536" transform="matrix(0.995938 -0.0900426 0.0843601 0.996435 397.922 88.2598)" fill="#FFBE46" fill-opacity="0.5"/>
  <rect width="4.97072" height="5.13413" rx="2.48536" transform="matrix(0.995938 -0.0900426 0.0843601 0.996435 407.861 88.2598)" fill="#FFBE46" fill-opacity="0.5"/>
  <rect width="4.97072" height="5.13413" rx="2.48536" transform="matrix(0.995938 -0.0900426 0.0843601 0.996435 417.8 88.2598)" fill="#FFBE46" fill-opacity="0.5"/>
  <rect width="4.97072" height="5.13413" rx="2.48536" transform="matrix(0.995938 -0.0900426 0.0843601 0.996435 427.739 88.2598)" fill="#FFBE46" fill-opacity="0.5"/>
  <rect width="4.97072" height="5.13413" rx="2.48536" transform="matrix(0.995938 -0.0900426 0.0843601 0.996435 437.677 88.2598)" fill="#FFBE46" fill-opacity="0.5"/>
  <rect width="4.97072" height="5.13413" rx="2.48536" transform="matrix(0.995938 -0.0900426 0.0843601 0.996435 447.616 88.2598)" fill="#FFBE46" fill-opacity="0.5"/>
  <rect width="4.97072" height="5.13412" rx="2.48536" transform="matrix(0.995938 -0.0900414 0.0843612 0.996435 60 98.5305)" fill="#FFBE46" fill-opacity="0.6"/>
  <rect width="4.97072" height="5.13413" rx="2.48536" transform="matrix(0.995938 -0.0900426 0.0843601 0.996435 69.9388 98.5305)" fill="#FFBE46" fill-opacity="0.6"/>
  <rect width="4.97072" height="5.13413" rx="2.48536" transform="matrix(0.995938 -0.0900426 0.0843601 0.996435 79.8778 98.5305)" fill="#FFBE46" fill-opacity="0.6"/>
  <rect width="4.97072" height="5.13413" rx="2.48536" transform="matrix(0.995938 -0.0900426 0.0843601 0.996435 89.8167 98.5305)" fill="#FFBE46" fill-opacity="0.6"/>
  <rect width="4.97072" height="5.13413" rx="2.48536" transform="matrix(0.995938 -0.0900426 0.0843601 0.996435 99.7555 98.5305)" fill="#FFBE46" fill-opacity="0.6"/>
  <rect width="4.97072" height="5.13413" rx="2.48536" transform="matrix(0.995938 -0.0900426 0.0843601 0.996435 109.694 98.5305)" fill="#FFBE46" fill-opacity="0.6"/>
  <rect width="4.97072" height="5.13413" rx="2.48536" transform="matrix(0.995938 -0.0900426 0.0843601 0.996435 119.633 98.5305)" fill="#FFBE46" fill-opacity="0.6"/>
  <rect width="4.97072" height="5.13413" rx="2.48536" transform="matrix(0.995938 -0.0900426 0.0843601 0.996435 129.572 98.5305)" fill="#FFBE46" fill-opacity="0.6"/>
  <rect width="4.97072" height="5.13413" rx="2.48536" transform="matrix(0.995938 -0.0900426 0.0843601 0.996435 139.511 98.5305)" fill="#FFBE46" fill-opacity="0.6"/>
  <rect width="4.97072" height="5.13413" rx="2.48536" transform="matrix(0.995938 -0.0900426 0.0843601 0.996435 149.45 98.5305)" fill="#FFBE46" fill-opacity="0.6"/>
  <rect width="4.97072" height="5.13413" rx="2.48536" transform="matrix(0.995938 -0.0900426 0.0843601 0.996435 159.389 98.5305)" fill="#FFBE46" fill-opacity="0.6"/>
  <rect width="4.97072" height="5.13413" rx="2.48536" transform="matrix(0.995938 -0.0900426 0.0843601 0.996435 169.328 98.5305)" fill="#FFBE46" fill-opacity="0.6"/>
  <rect width="4.97072" height="5.13413" rx="2.48536" transform="matrix(0.995938 -0.0900426 0.0843601 0.996435 179.267 98.5305)" fill="#FFBE46" fill-opacity="0.6"/>
  <rect width="4.97072" height="5.13413" rx="2.48536" transform="matrix(0.995938 -0.0900426 0.0843601 0.996435 189.205 98.5305)" fill="#FFBE46" fill-opacity="0.6"/>
  <rect width="4.97072" height="5.13413" rx="2.48536" transform="matrix(0.995938 -0.0900426 0.0843601 0.996435 199.144 98.5305)" fill="#FFBE46" fill-opacity="0.6"/>
  <rect width="4.97072" height="5.13413" rx="2.48536" transform="matrix(0.995938 -0.0900426 0.0843601 0.996435 209.083 98.5305)" fill="#FFBE46" fill-opacity="0.6"/>
  <rect width="4.97072" height="5.13413" rx="2.48536" transform="matrix(0.995938 -0.0900426 0.0843601 0.996435 219.022 98.5305)" fill="#FFBE46" fill-opacity="0.6"/>
  <rect width="4.97072" height="5.13413" rx="2.48536" transform="matrix(0.995938 -0.0900426 0.0843601 0.996435 228.961 98.5305)" fill="#FFBE46" fill-opacity="0.6"/>
  <rect width="4.97072" height="5.13413" rx="2.48536" transform="matrix(0.995938 -0.0900426 0.0843601 0.996435 238.9 98.5305)" fill="#FFBE46" fill-opacity="0.6"/>
  <rect width="4.97072" height="5.13413" rx="2.48536" transform="matrix(0.995938 -0.0900426 0.0843601 0.996435 248.839 98.5305)" fill="#FFBE46" fill-opacity="0.6"/>
  <rect width="4.97072" height="5.13413" rx="2.48536" transform="matrix(0.995938 -0.0900426 0.0843601 0.996435 258.778 98.5305)" fill="#FFBE46" fill-opacity="0.6"/>
  <rect width="4.97072" height="5.13413" rx="2.48536" transform="matrix(0.995938 -0.0900426 0.0843601 0.996435 268.716 98.5305)" fill="#FFBE46" fill-opacity="0.6"/>
  <rect width="4.97072" height="5.13413" rx="2.48536" transform="matrix(0.995938 -0.0900426 0.0843601 0.996435 278.655 98.5305)" fill="#FFBE46" fill-opacity="0.6"/>
  <rect width="4.97072" height="5.13413" rx="2.48536" transform="matrix(0.995938 -0.0900426 0.0843601 0.996435 288.594 98.5305)" fill="#FFBE46" fill-opacity="0.6"/>
  <rect width="4.97072" height="5.13413" rx="2.48536" transform="matrix(0.995938 -0.0900426 0.0843601 0.996435 298.533 98.5305)" fill="#FFBE46" fill-opacity="0.6"/>
  <rect width="4.97072" height="5.13413" rx="2.48536" transform="matrix(0.995938 -0.0900426 0.0843601 0.996435 308.472 98.5305)" fill="#FFBE46" fill-opacity="0.6"/>
  <rect width="4.97072" height="5.13413" rx="2.48536" transform="matrix(0.995938 -0.0900426 0.0843601 0.996435 318.411 98.5305)" fill="#FFBE46" fill-opacity="0.6"/>
  <rect width="4.97072" height="5.13413" rx="2.48536" transform="matrix(0.995938 -0.0900426 0.0843601 0.996435 328.35 98.5305)" fill="#FFBE46" fill-opacity="0.6"/>
  <rect width="4.97072" height="5.13413" rx="2.48536" transform="matrix(0.995938 -0.0900426 0.0843601 0.996435 338.289 98.5305)" fill="#FFBE46" fill-opacity="0.6"/>
  <rect width="4.97072" height="5.13413" rx="2.48536" transform="matrix(0.995938 -0.0900426 0.0843601 0.996435 348.228 98.5305)" fill="#FFBE46" fill-opacity="0.6"/>
  <rect width="4.97072" height="5.13413" rx="2.48536" transform="matrix(0.995938 -0.0900426 0.0843601 0.996435 358.166 98.5305)" fill="#FFBE46" fill-opacity="0.6"/>
  <rect width="4.97072" height="5.13413" rx="2.48536" transform="matrix(0.995938 -0.0900426 0.0843601 0.996435 368.105 98.5305)" fill="#FFBE46" fill-opacity="0.6"/>
  <rect width="4.97072" height="5.13413" rx="2.48536" transform="matrix(0.995938 -0.0900426 0.0843601 0.996435 378.044 98.5305)" fill="#FFBE46" fill-opacity="0.6"/>
  <rect width="4.97072" height="5.13413" rx="2.48536" transform="matrix(0.995938 -0.0900426 0.0843601 0.996435 387.983 98.5305)" fill="#FFBE46" fill-opacity="0.6"/>
  <rect width="4.97072" height="5.13413" rx="2.48536" transform="matrix(0.995938 -0.0900426 0.0843601 0.996435 397.922 98.5305)" fill="#FFBE46" fill-opacity="0.6"/>
  <rect width="4.97072" height="5.13413" rx="2.48536" transform="matrix(0.995938 -0.0900426 0.0843601 0.996435 407.861 98.5305)" fill="#FFBE46" fill-opacity="0.6"/>
  <rect width="4.97072" height="5.13413" rx="2.48536" transform="matrix(0.995938 -0.0900426 0.0843601 0.996435 417.8 98.5305)" fill="#FFBE46" fill-opacity="0.6"/>
  <rect width="4.97072" height="5.13413" rx="2.48536" transform="matrix(0.995938 -0.0900426 0.0843601 0.996435 427.739 98.5305)" fill="#FFBE46" fill-opacity="0.6"/>
  <rect width="4.97072" height="5.13413" rx="2.48536" transform="matrix(0.995938 -0.0900426 0.0843601 0.996435 437.677 98.5305)" fill="#FFBE46" fill-opacity="0.6"/>
  <rect width="4.97072" height="5.13413" rx="2.48536" transform="matrix(0.995938 -0.0900426 0.0843601 0.996435 447.616 98.5305)" fill="#FFBE46" fill-opacity="0.6"/>
  <rect width="4.97072" height="5.13412" rx="2.48536" transform="matrix(0.995938 -0.0900414 0.0843612 0.996435 60 108.801)" fill="#FFBE46" fill-opacity="0.7"/>
  <rect width="4.97072" height="5.13413" rx="2.48536" transform="matrix(0.995938 -0.0900426 0.0843601 0.996435 69.9388 108.801)" fill="#FFBE46" fill-opacity="0.7"/>
  <rect width="4.97072" height="5.13413" rx="2.48536" transform="matrix(0.995938 -0.0900426 0.0843601 0.996435 79.8778 108.801)" fill="#FFBE46" fill-opacity="0.7"/>
  <rect width="4.97072" height="5.13413" rx="2.48536" transform="matrix(0.995938 -0.0900426 0.0843601 0.996435 89.8167 108.801)" fill="#FFBE46" fill-opacity="0.7"/>
  <rect width="4.97072" height="5.13413" rx="2.48536" transform="matrix(0.995938 -0.0900426 0.0843601 0.996435 99.7555 108.801)" fill="#FFBE46" fill-opacity="0.7"/>
  <rect width="4.97072" height="5.13413" rx="2.48536" transform="matrix(0.995938 -0.0900426 0.0843601 0.996435 109.694 108.801)" fill="#FFBE46" fill-opacity="0.7"/>
  <rect width="4.97072" height="5.13413" rx="2.48536" transform="matrix(0.995938 -0.0900426 0.0843601 0.996435 119.633 108.801)" fill="#FFBE46" fill-opacity="0.7"/>
  <rect width="4.97072" height="5.13413" rx="2.48536" transform="matrix(0.995938 -0.0900426 0.0843601 0.996435 129.572 108.801)" fill="#FFBE46" fill-opacity="0.7"/>
  <rect width="4.97072" height="5.13413" rx="2.48536" transform="matrix(0.995938 -0.0900426 0.0843601 0.996435 139.511 108.801)" fill="#FFBE46" fill-opacity="0.7"/>
  <rect width="4.97072" height="5.13413" rx="2.48536" transform="matrix(0.995938 -0.0900426 0.0843601 0.996435 149.45 108.801)" fill="#FFBE46" fill-opacity="0.7"/>
  <rect width="4.97072" height="5.13413" rx="2.48536" transform="matrix(0.995938 -0.0900426 0.0843601 0.996435 159.389 108.801)" fill="#FFBE46" fill-opacity="0.7"/>
  <rect width="4.97072" height="5.13413" rx="2.48536" transform="matrix(0.995938 -0.0900426 0.0843601 0.996435 169.328 108.801)" fill="#FFBE46" fill-opacity="0.7"/>
  <rect width="4.97072" height="5.13413" rx="2.48536" transform="matrix(0.995938 -0.0900426 0.0843601 0.996435 179.267 108.801)" fill="#FFBE46" fill-opacity="0.7"/>
  <rect width="4.97072" height="5.13413" rx="2.48536" transform="matrix(0.995938 -0.0900426 0.0843601 0.996435 189.205 108.801)" fill="#FFBE46" fill-opacity="0.7"/>
  <rect width="4.97072" height="5.13413" rx="2.48536" transform="matrix(0.995938 -0.0900426 0.0843601 0.996435 199.144 108.801)" fill="#FFBE46" fill-opacity="0.7"/>
  <rect width="4.97072" height="5.13413" rx="2.48536" transform="matrix(0.995938 -0.0900426 0.0843601 0.996435 209.083 108.801)" fill="#FFBE46" fill-opacity="0.7"/>
  <rect width="4.97072" height="5.13413" rx="2.48536" transform="matrix(0.995938 -0.0900426 0.0843601 0.996435 219.022 108.801)" fill="#FFBE46" fill-opacity="0.7"/>
  <rect width="4.97072" height="5.13413" rx="2.48536" transform="matrix(0.995938 -0.0900426 0.0843601 0.996435 228.961 108.801)" fill="#FFBE46" fill-opacity="0.7"/>
  <rect width="4.97072" height="5.13413" rx="2.48536" transform="matrix(0.995938 -0.0900426 0.0843601 0.996435 238.9 108.801)" fill="#FFBE46" fill-opacity="0.7"/>
  <rect width="4.97072" height="5.13413" rx="2.48536" transform="matrix(0.995938 -0.0900426 0.0843601 0.996435 248.839 108.801)" fill="#FFBE46" fill-opacity="0.7"/>
  <rect width="4.97072" height="5.13413" rx="2.48536" transform="matrix(0.995938 -0.0900426 0.0843601 0.996435 258.778 108.801)" fill="#FFBE46" fill-opacity="0.7"/>
  <rect width="4.97072" height="5.13413" rx="2.48536" transform="matrix(0.995938 -0.0900426 0.0843601 0.996435 268.716 108.801)" fill="#FFBE46" fill-opacity="0.7"/>
  <rect width="4.97072" height="5.13413" rx="2.48536" transform="matrix(0.995938 -0.0900426 0.0843601 0.996435 278.655 108.801)" fill="#FFBE46" fill-opacity="0.7"/>
  <rect width="4.97072" height="5.13413" rx="2.48536" transform="matrix(0.995938 -0.0900426 0.0843601 0.996435 288.594 108.801)" fill="#FFBE46" fill-opacity="0.7"/>
  <rect width="4.97072" height="5.13413" rx="2.48536" transform="matrix(0.995938 -0.0900426 0.0843601 0.996435 298.533 108.801)" fill="#FFBE46" fill-opacity="0.7"/>
  <rect width="4.97072" height="5.13413" rx="2.48536" transform="matrix(0.995938 -0.0900426 0.0843601 0.996435 308.472 108.801)" fill="#FFBE46" fill-opacity="0.7"/>
  <rect width="4.97072" height="5.13413" rx="2.48536" transform="matrix(0.995938 -0.0900426 0.0843601 0.996435 318.411 108.801)" fill="#FFBE46" fill-opacity="0.7"/>
  <rect width="4.97072" height="5.13413" rx="2.48536" transform="matrix(0.995938 -0.0900426 0.0843601 0.996435 328.35 108.801)" fill="#FFBE46" fill-opacity="0.7"/>
  <rect width="4.97072" height="5.13413" rx="2.48536" transform="matrix(0.995938 -0.0900426 0.0843601 0.996435 338.289 108.801)" fill="#FFBE46" fill-opacity="0.7"/>
  <rect width="4.97072" height="5.13413" rx="2.48536" transform="matrix(0.995938 -0.0900426 0.0843601 0.996435 348.228 108.801)" fill="#FFBE46" fill-opacity="0.7"/>
  <rect width="4.97072" height="5.13413" rx="2.48536" transform="matrix(0.995938 -0.0900426 0.0843601 0.996435 358.166 108.801)" fill="#FFBE46" fill-opacity="0.7"/>
  <rect width="4.97072" height="5.13413" rx="2.48536" transform="matrix(0.995938 -0.0900426 0.0843601 0.996435 368.105 108.801)" fill="#FFBE46" fill-opacity="0.7"/>
  <rect width="4.97072" height="5.13413" rx="2.48536" transform="matrix(0.995938 -0.0900426 0.0843601 0.996435 378.044 108.801)" fill="#FFBE46" fill-opacity="0.7"/>
  <rect width="4.97072" height="5.13413" rx="2.48536" transform="matrix(0.995938 -0.0900426 0.0843601 0.996435 387.983 108.801)" fill="#FFBE46" fill-opacity="0.7"/>
  <rect width="4.97072" height="5.13413" rx="2.48536" transform="matrix(0.995938 -0.0900426 0.0843601 0.996435 397.922 108.801)" fill="#FFBE46" fill-opacity="0.7"/>
  <rect width="4.97072" height="5.13413" rx="2.48536" transform="matrix(0.995938 -0.0900426 0.0843601 0.996435 407.861 108.801)" fill="#FFBE46" fill-opacity="0.7"/>
  <rect width="4.97072" height="5.13413" rx="2.48536" transform="matrix(0.995938 -0.0900426 0.0843601 0.996435 417.8 108.801)" fill="#FFBE46" fill-opacity="0.7"/>
  <rect width="4.97072" height="5.13413" rx="2.48536" transform="matrix(0.995938 -0.0900426 0.0843601 0.996435 427.739 108.801)" fill="#FFBE46" fill-opacity="0.7"/>
  <rect width="4.97072" height="5.13413" rx="2.48536" transform="matrix(0.995938 -0.0900426 0.0843601 0.996435 437.677 108.801)" fill="#FFBE46" fill-opacity="0.7"/>
  <rect width="4.97072" height="5.13413" rx="2.48536" transform="matrix(0.995938 -0.0900426 0.0843601 0.996435 447.616 108.801)" fill="#FFBE46" fill-opacity="0.7"/>
  <rect width="4.97072" height="5.13412" rx="2.48536" transform="matrix(0.995938 -0.0900414 0.0843612 0.996435 60 119.072)" fill="#FFBE46" fill-opacity="0.8"/>
  <rect width="4.97072" height="5.13413" rx="2.48536" transform="matrix(0.995938 -0.0900426 0.0843601 0.996435 69.9388 119.072)" fill="#FFBE46" fill-opacity="0.8"/>
  <rect width="4.97072" height="5.13413" rx="2.48536" transform="matrix(0.995938 -0.0900426 0.0843601 0.996435 79.8778 119.072)" fill="#FFBE46" fill-opacity="0.8"/>
  <rect width="4.97072" height="5.13413" rx="2.48536" transform="matrix(0.995938 -0.0900426 0.0843601 0.996435 89.8167 119.072)" fill="#FFBE46" fill-opacity="0.8"/>
  <rect width="4.97072" height="5.13413" rx="2.48536" transform="matrix(0.995938 -0.0900426 0.0843601 0.996435 99.7555 119.072)" fill="#FFBE46" fill-opacity="0.8"/>
  <rect width="4.97072" height="5.13413" rx="2.48536" transform="matrix(0.995938 -0.0900426 0.0843601 0.996435 109.694 119.072)" fill="#FFBE46" fill-opacity="0.8"/>
  <rect width="4.97072" height="5.13413" rx="2.48536" transform="matrix(0.995938 -0.0900426 0.0843601 0.996435 119.633 119.072)" fill="#FFBE46" fill-opacity="0.8"/>
  <rect width="4.97072" height="5.13413" rx="2.48536" transform="matrix(0.995938 -0.0900426 0.0843601 0.996435 129.572 119.072)" fill="#FFBE46" fill-opacity="0.8"/>
  <rect width="4.97072" height="5.13413" rx="2.48536" transform="matrix(0.995938 -0.0900426 0.0843601 0.996435 139.511 119.072)" fill="#FFBE46" fill-opacity="0.8"/>
  <rect width="4.97072" height="5.13413" rx="2.48536" transform="matrix(0.995938 -0.0900426 0.0843601 0.996435 149.45 119.072)" fill="#FFBE46" fill-opacity="0.8"/>
  <rect width="4.97072" height="5.13413" rx="2.48536" transform="matrix(0.995938 -0.0900426 0.0843601 0.996435 159.389 119.072)" fill="#FFBE46" fill-opacity="0.8"/>
  <rect width="4.97072" height="5.13413" rx="2.48536" transform="matrix(0.995938 -0.0900426 0.0843601 0.996435 169.328 119.072)" fill="#FFBE46" fill-opacity="0.8"/>
  <rect width="4.97072" height="5.13413" rx="2.48536" transform="matrix(0.995938 -0.0900426 0.0843601 0.996435 179.267 119.072)" fill="#FFBE46" fill-opacity="0.8"/>
  <rect width="4.97072" height="5.13413" rx="2.48536" transform="matrix(0.995938 -0.0900426 0.0843601 0.996435 189.205 119.072)" fill="#FFBE46" fill-opacity="0.8"/>
  <rect width="4.97072" height="5.13413" rx="2.48536" transform="matrix(0.995938 -0.0900426 0.0843601 0.996435 199.144 119.072)" fill="#FFBE46" fill-opacity="0.8"/>
  <rect width="4.97072" height="5.13413" rx="2.48536" transform="matrix(0.995938 -0.0900426 0.0843601 0.996435 209.083 119.072)" fill="#FFBE46" fill-opacity="0.8"/>
  <rect width="4.97072" height="5.13413" rx="2.48536" transform="matrix(0.995938 -0.0900426 0.0843601 0.996435 219.022 119.072)" fill="#FFBE46" fill-opacity="0.8"/>
  <rect width="4.97072" height="5.13413" rx="2.48536" transform="matrix(0.995938 -0.0900426 0.0843601 0.996435 228.961 119.072)" fill="#FFBE46" fill-opacity="0.8"/>
  <rect width="4.97072" height="5.13413" rx="2.48536" transform="matrix(0.995938 -0.0900426 0.0843601 0.996435 238.9 119.072)" fill="#FFBE46" fill-opacity="0.8"/>
  <rect width="4.97072" height="5.13413" rx="2.48536" transform="matrix(0.995938 -0.0900426 0.0843601 0.996435 248.839 119.072)" fill="#FFBE46" fill-opacity="0.8"/>
  <rect width="4.97072" height="5.13413" rx="2.48536" transform="matrix(0.995938 -0.0900426 0.0843601 0.996435 258.778 119.072)" fill="#FFBE46" fill-opacity="0.8"/>
  <rect width="4.97072" height="5.13413" rx="2.48536" transform="matrix(0.995938 -0.0900426 0.0843601 0.996435 268.716 119.072)" fill="#FFBE46" fill-opacity="0.8"/>
  <rect width="4.97072" height="5.13413" rx="2.48536" transform="matrix(0.995938 -0.0900426 0.0843601 0.996435 278.655 119.072)" fill="#FFBE46" fill-opacity="0.8"/>
  <rect width="4.97072" height="5.13413" rx="2.48536" transform="matrix(0.995938 -0.0900426 0.0843601 0.996435 288.594 119.072)" fill="#FFBE46" fill-opacity="0.8"/>
  <rect width="4.97072" height="5.13413" rx="2.48536" transform="matrix(0.995938 -0.0900426 0.0843601 0.996435 298.533 119.072)" fill="#FFBE46" fill-opacity="0.8"/>
  <rect width="4.97072" height="5.13413" rx="2.48536" transform="matrix(0.995938 -0.0900426 0.0843601 0.996435 308.472 119.072)" fill="#FFBE46" fill-opacity="0.8"/>
  <rect width="4.97072" height="5.13413" rx="2.48536" transform="matrix(0.995938 -0.0900426 0.0843601 0.996435 318.411 119.072)" fill="#FFBE46" fill-opacity="0.8"/>
  <rect width="4.97072" height="5.13413" rx="2.48536" transform="matrix(0.995938 -0.0900426 0.0843601 0.996435 328.35 119.072)" fill="#FFBE46" fill-opacity="0.8"/>
  <rect width="4.97072" height="5.13413" rx="2.48536" transform="matrix(0.995938 -0.0900426 0.0843601 0.996435 338.289 119.072)" fill="#FFBE46" fill-opacity="0.8"/>
  <rect width="4.97072" height="5.13413" rx="2.48536" transform="matrix(0.995938 -0.0900426 0.0843601 0.996435 348.228 119.072)" fill="#FFBE46" fill-opacity="0.8"/>
  <rect width="4.97072" height="5.13413" rx="2.48536" transform="matrix(0.995938 -0.0900426 0.0843601 0.996435 358.166 119.072)" fill="#FFBE46" fill-opacity="0.8"/>
  <rect width="4.97072" height="5.13413" rx="2.48536" transform="matrix(0.995938 -0.0900426 0.0843601 0.996435 368.105 119.072)" fill="#FFBE46" fill-opacity="0.8"/>
  <rect width="4.97072" height="5.13413" rx="2.48536" transform="matrix(0.995938 -0.0900426 0.0843601 0.996435 378.044 119.072)" fill="#FFBE46" fill-opacity="0.8"/>
  <rect width="4.97072" height="5.13413" rx="2.48536" transform="matrix(0.995938 -0.0900426 0.0843601 0.996435 387.983 119.072)" fill="#FFBE46" fill-opacity="0.8"/>
  <rect width="4.97072" height="5.13413" rx="2.48536" transform="matrix(0.995938 -0.0900426 0.0843601 0.996435 397.922 119.072)" fill="#FFBE46" fill-opacity="0.8"/>
  <rect width="4.97072" height="5.13413" rx="2.48536" transform="matrix(0.995938 -0.0900426 0.0843601 0.996435 407.861 119.072)" fill="#FFBE46" fill-opacity="0.8"/>
  <rect width="4.97072" height="5.13413" rx="2.48536" transform="matrix(0.995938 -0.0900426 0.0843601 0.996435 417.8 119.072)" fill="#FFBE46" fill-opacity="0.8"/>
  <rect width="4.97072" height="5.13413" rx="2.48536" transform="matrix(0.995938 -0.0900426 0.0843601 0.996435 427.739 119.072)" fill="#FFBE46" fill-opacity="0.8"/>
  <rect width="4.97072" height="5.13413" rx="2.48536" transform="matrix(0.995938 -0.0900426 0.0843601 0.996435 437.677 119.072)" fill="#FFBE46" fill-opacity="0.8"/>
  <rect width="4.97072" height="5.13413" rx="2.48536" transform="matrix(0.995938 -0.0900426 0.0843601 0.996435 447.616 119.072)" fill="#FFBE46" fill-opacity="0.8"/>
  <path d="M102.334 54.9336H58.6523V205.461H102.334V223.508H38.1445V36.8867H102.334V54.9336ZM475.896 36.8867V223.508H411.707V205.461H454.158V54.9336H411.707V36.8867H475.896Z" fill="url(#paint1_linear)"/>
  <path d="M52.0407 94.902L462.455 59.6139L461.828 144.375L51.4082 180.282L52.0407 94.902Z" fill="#272C34"/>
  <g filter="url(#filter0_d)">
    <path d="M184.924 159.15L338.086 145.414L338.372 220.676L185.208 233.804L184.924 159.15Z" fill="white"/>
    <path d="M186.701 232.17L186.429 160.521L336.592 147.054L336.866 219.299L186.701 232.17Z" stroke="#272C34" stroke-width="3"/>
  </g>
  <path d="M75.4011 152.378L96.6364 150.52L96.0302 157.306L66.658 159.875L70.813 110.983L78.983 110.269L75.4011 152.378ZM133.895 142.694L115.868 144.271L111.093 155.988L102.295 156.757L124.08 106.323L131.423 105.681L144.964 153.024L136.761 153.742L133.895 142.694ZM118.717 137.222L132.213 136.042L127.196 116.416L118.717 137.222ZM191.185 148.981L183.28 149.672L165.212 116.49L162.243 151.513L154.073 152.227L158.228 103.335L166.134 102.644L184.213 135.959L187.204 100.8L195.34 100.089L191.185 148.981ZM219.947 125.566L213.861 132.198L212.599 147.107L204.429 147.822L208.584 98.9299L216.754 98.2151L214.82 120.682L219.421 114.98L234.55 96.6582L245.002 95.7438L225.469 119.35L241.31 144.595L232.181 145.394L219.947 125.566ZM266.786 116.769L279.481 92.7272L288.941 91.8996L270.406 124.618L268.909 142.181L260.706 142.898L262.293 124.461L249.381 95.3606L258.014 94.6053L266.786 116.769ZM313.49 138.28L317.612 89.3912L330.647 88.2841C334.661 87.933 338.199 88.6344 341.264 90.3883C344.348 92.1183 346.695 94.6904 348.305 98.1048C349.912 101.497 350.648 105.332 350.511 109.611L350.376 112.255C350.102 116.746 348.98 120.81 347.01 124.449C345.06 128.063 342.381 130.975 338.975 133.184C335.569 135.393 331.726 136.685 327.449 137.059L313.49 138.28ZM325.215 95.5254L322.233 130.783L327.065 130.393C331.431 130.011 334.927 128.317 337.553 125.309C340.198 122.278 341.716 118.29 342.106 113.346C342.386 109.944 342.339 107.004 341.967 104.525C341.489 101.345 340.333 98.9245 338.499 97.2629C336.687 95.5994 334.299 94.8528 331.337 95.0231L325.215 95.5254ZM386.68 120.578L368.654 122.155L363.879 133.872L355.081 134.642L376.866 84.2072L384.209 83.5647L397.75 130.908L389.547 131.626L386.68 120.578ZM371.503 115.107L384.999 113.926L379.982 94.3002L371.503 115.107ZM443.971 126.865L436.066 127.556L417.998 94.3739L415.029 129.397L406.859 130.112L411.014 81.2196L418.92 80.5279L436.999 113.843L439.99 78.6846L448.126 77.9727L443.971 126.865Z" fill="white"/>
  <path d="M75.4011 152.378L74.4047 152.293L74.3039 153.477L75.4883 153.374L75.4011 152.378ZM96.6364 150.52L97.6324 150.609L97.7387 149.42L96.5492 149.524L96.6364 150.52ZM96.0302 157.306L96.1173 158.302L96.9517 158.229L97.0262 157.395L96.0302 157.306ZM66.658 159.875L65.6616 159.791L65.5609 160.975L66.7452 160.871L66.658 159.875ZM70.813 110.983L70.7258 109.987L69.8878 110.06L69.8166 110.899L70.813 110.983ZM78.983 110.269L79.9794 110.353L80.0801 109.169L78.8958 109.272L78.983 110.269ZM75.4883 153.374L96.7236 151.516L96.5492 149.524L75.3139 151.381L75.4883 153.374ZM95.6404 150.431L95.0342 157.217L97.0262 157.395L97.6324 150.609L95.6404 150.431ZM95.943 156.309L66.5709 158.879L66.7452 160.871L96.1173 158.302L95.943 156.309ZM67.6544 159.96L71.8094 111.068L69.8166 110.899L65.6616 159.791L67.6544 159.96ZM70.9002 111.98L79.0701 111.265L78.8958 109.272L70.7258 109.987L70.9002 111.98ZM77.9866 110.184L74.4047 152.293L76.3975 152.462L79.9794 110.353L77.9866 110.184ZM133.895 142.694L134.863 142.443L134.65 141.624L133.807 141.698L133.895 142.694ZM115.868 144.271L115.781 143.275L115.172 143.328L114.942 143.894L115.868 144.271ZM111.093 155.988L111.181 156.984L111.789 156.931L112.019 156.365L111.093 155.988ZM102.295 156.757L101.377 156.361L100.712 157.9L102.382 157.754L102.295 156.757ZM124.08 106.323L123.993 105.327L123.398 105.379L123.162 105.927L124.08 106.323ZM131.423 105.681L132.384 105.406L132.157 104.613L131.336 104.684L131.423 105.681ZM144.964 153.024L145.051 154.021L146.259 153.915L145.925 152.749L144.964 153.024ZM136.761 153.742L135.793 153.993L136.005 154.812L136.848 154.738L136.761 153.742ZM118.717 137.222L117.791 136.845L117.173 138.361L118.804 138.219L118.717 137.222ZM132.213 136.042L132.3 137.038L133.473 136.935L133.182 135.794L132.213 136.042ZM127.196 116.416L128.165 116.168L127.414 113.231L126.27 116.039L127.196 116.416ZM133.807 141.698L115.781 143.275L115.955 145.267L133.982 143.69L133.807 141.698ZM114.942 143.894L110.167 155.61L112.019 156.365L116.794 144.648L114.942 143.894ZM111.006 154.991L102.208 155.761L102.382 157.754L111.181 156.984L111.006 154.991ZM103.213 157.154L124.998 106.72L123.162 105.927L101.377 156.361L103.213 157.154ZM124.167 107.319L131.51 106.677L131.336 104.684L123.993 105.327L124.167 107.319ZM130.461 105.956L144.003 153.299L145.925 152.749L132.384 105.406L130.461 105.956ZM144.877 152.028L136.674 152.746L136.848 154.738L145.051 154.021L144.877 152.028ZM137.729 153.491L134.863 142.443L132.927 142.945L135.793 153.993L137.729 153.491ZM118.804 138.219L132.3 137.038L132.126 135.046L118.63 136.226L118.804 138.219ZM133.182 135.794L128.165 116.168L126.227 116.664L131.244 136.289L133.182 135.794ZM126.27 116.039L117.791 136.845L119.643 137.6L128.122 116.793L126.27 116.039ZM191.185 148.981L191.273 149.977L192.111 149.903L192.182 149.065L191.185 148.981ZM183.28 149.672L182.402 150.15L182.715 150.725L183.367 150.668L183.28 149.672ZM165.212 116.49L166.09 116.012L164.497 113.085L164.215 116.405L165.212 116.49ZM162.243 151.513L162.33 152.509L163.169 152.435L163.24 151.597L162.243 151.513ZM154.073 152.227L153.077 152.143L152.976 153.327L154.16 153.224L154.073 152.227ZM158.228 103.335L158.141 102.339L157.303 102.413L157.232 103.251L158.228 103.335ZM166.134 102.644L167.013 102.167L166.7 101.591L166.047 101.648L166.134 102.644ZM184.213 135.959L183.335 136.436L184.927 139.37L185.21 136.043L184.213 135.959ZM187.204 100.8L187.116 99.8043L186.278 99.8776L186.207 100.716L187.204 100.8ZM195.34 100.089L196.337 100.173L196.438 98.9888L195.253 99.0924L195.34 100.089ZM191.098 147.984L183.193 148.676L183.367 150.668L191.273 149.977L191.098 147.984ZM184.158 149.194L166.09 116.012L164.334 116.968L182.402 150.15L184.158 149.194ZM164.215 116.405L161.247 151.428L163.24 151.597L166.208 116.574L164.215 116.405ZM162.156 150.516L153.986 151.231L154.16 153.224L162.33 152.509L162.156 150.516ZM155.07 152.312L159.225 103.42L157.232 103.251L153.077 152.143L155.07 152.312ZM158.315 104.332L166.221 103.64L166.047 101.648L158.141 102.339L158.315 104.332ZM165.255 103.121L183.335 136.436L185.092 135.482L167.013 102.167L165.255 103.121ZM185.21 136.043L188.2 100.885L186.207 100.716L183.217 135.874L185.21 136.043ZM187.291 101.797L195.428 101.085L195.253 99.0924L187.116 99.8043L187.291 101.797ZM194.344 100.004L190.189 148.896L192.182 149.065L196.337 100.173L194.344 100.004ZM219.947 125.566L220.798 125.041L220.104 123.916L219.21 124.89L219.947 125.566ZM213.861 132.198L213.125 131.522L212.894 131.774L212.865 132.114L213.861 132.198ZM212.599 147.107L212.687 148.103L213.525 148.03L213.596 147.191L212.599 147.107ZM204.429 147.822L203.433 147.737L203.332 148.922L204.517 148.818L204.429 147.822ZM208.584 98.9299L208.497 97.9337L207.659 98.007L207.588 98.8452L208.584 98.9299ZM216.754 98.2151L217.751 98.3009L217.853 97.1152L216.667 97.2189L216.754 98.2151ZM214.82 120.682L213.824 120.596L213.543 123.857L215.599 121.31L214.82 120.682ZM219.421 114.98L218.65 114.343L218.643 114.352L219.421 114.98ZM234.55 96.6582L234.463 95.662L234.045 95.6985L233.779 96.0215L234.55 96.6582ZM245.002 95.7438L245.772 96.3813L247.297 94.5392L244.915 94.7476L245.002 95.7438ZM225.469 119.35L224.699 118.713L224.238 119.27L224.622 119.882L225.469 119.35ZM241.31 144.595L241.397 145.591L243.026 145.449L242.157 144.064L241.31 144.595ZM232.181 145.394L231.33 145.919L231.654 146.444L232.268 146.39L232.181 145.394ZM219.21 124.89L213.125 131.522L214.598 132.874L220.684 126.242L219.21 124.89ZM212.865 132.114L211.603 147.023L213.596 147.191L214.858 132.282L212.865 132.114ZM212.512 146.111L204.342 146.826L204.517 148.818L212.687 148.103L212.512 146.111ZM205.426 147.907L209.581 99.0146L207.588 98.8452L203.433 147.737L205.426 147.907ZM208.672 99.9261L216.842 99.2113L216.667 97.2189L208.497 97.9337L208.672 99.9261ZM215.758 98.1294L213.824 120.596L215.817 120.768L217.751 98.3009L215.758 98.1294ZM215.599 121.31L220.199 115.608L218.643 114.352L214.042 120.054L215.599 121.31ZM220.192 115.617L235.321 97.2949L233.779 96.0215L218.65 114.343L220.192 115.617ZM234.637 97.6544L245.089 96.74L244.915 94.7476L234.463 95.662L234.637 97.6544ZM244.231 95.1063L224.699 118.713L226.24 119.988L245.772 96.3813L244.231 95.1063ZM224.622 119.882L240.463 145.127L242.157 144.064L226.316 118.819L224.622 119.882ZM241.223 143.599L232.094 144.398L232.268 146.39L241.397 145.591L241.223 143.599ZM233.032 144.869L220.798 125.041L219.096 126.091L231.33 145.919L233.032 144.869ZM266.786 116.769L265.856 117.137L266.656 119.157L267.67 117.236L266.786 116.769ZM279.481 92.7272L279.394 91.731L278.851 91.7785L278.597 92.2603L279.481 92.7272ZM288.941 91.8996L289.811 92.3925L290.749 90.7376L288.854 90.9034L288.941 91.8996ZM270.406 124.618L269.536 124.125L269.428 124.315L269.409 124.533L270.406 124.618ZM268.909 142.181L268.996 143.177L269.834 143.103L269.906 142.265L268.909 142.181ZM260.706 142.898L259.71 142.812L259.608 143.998L260.793 143.894L260.706 142.898ZM262.293 124.461L263.289 124.547L263.311 124.291L263.207 124.056L262.293 124.461ZM249.381 95.3606L249.294 94.3644L247.899 94.4865L248.467 95.7662L249.381 95.3606ZM258.014 94.6053L258.944 94.2373L258.67 93.5442L257.927 93.6091L258.014 94.6053ZM267.67 117.236L280.365 93.1942L278.597 92.2603L265.902 116.302L267.67 117.236ZM279.568 93.7234L289.028 92.8958L288.854 90.9034L279.394 91.731L279.568 93.7234ZM288.071 91.4067L269.536 124.125L271.276 125.111L289.811 92.3925L288.071 91.4067ZM269.409 124.533L267.913 142.096L269.906 142.265L271.402 124.703L269.409 124.533ZM268.822 141.184L260.619 141.902L260.793 143.894L268.996 143.177L268.822 141.184ZM261.703 142.984L263.289 124.547L261.297 124.376L259.71 142.812L261.703 142.984ZM263.207 124.056L250.295 94.9551L248.467 95.7662L261.379 124.867L263.207 124.056ZM249.468 96.3568L258.101 95.6015L257.927 93.6091L249.294 94.3644L249.468 96.3568ZM257.085 94.9733L265.856 117.137L267.716 116.401L258.944 94.2373L257.085 94.9733ZM313.49 138.28L312.494 138.196L312.394 139.38L313.577 139.276L313.49 138.28ZM317.612 89.3912L317.527 88.3948L316.686 88.4662L316.616 89.3072L317.612 89.3912ZM330.647 88.2841L330.732 89.2805L330.734 89.2803L330.647 88.2841ZM341.264 90.3883L340.767 91.2562L340.774 91.2605L341.264 90.3883ZM348.305 98.1048L347.4 98.5312L347.401 98.5331L348.305 98.1048ZM350.511 109.611L351.51 109.662L351.51 109.652L351.511 109.643L350.511 109.611ZM350.376 112.255L351.374 112.316L351.375 112.307L350.376 112.255ZM347.01 124.449L346.131 123.973L346.13 123.974L347.01 124.449ZM325.215 95.5254L325.133 94.5287L324.29 94.5979L324.218 95.4411L325.215 95.5254ZM322.233 130.783L321.237 130.698L321.137 131.874L322.314 131.779L322.233 130.783ZM327.065 130.393L327.146 131.39L327.153 131.389L327.065 130.393ZM337.553 125.309L338.306 125.967L338.306 125.967L337.553 125.309ZM342.106 113.346L341.109 113.264L341.109 113.267L342.106 113.346ZM341.967 104.525L342.956 104.377L342.956 104.377L341.967 104.525ZM338.499 97.2629L337.822 97.9996L337.827 98.004L338.499 97.2629ZM331.337 95.0231L331.279 94.0247L331.267 94.0254L331.255 94.0264L331.337 95.0231ZM314.487 138.364L318.609 89.4752L316.616 89.3072L312.494 138.196L314.487 138.364ZM317.697 90.3876L330.732 89.2805L330.563 87.2877L317.527 88.3948L317.697 90.3876ZM330.734 89.2803C334.574 88.9444 337.904 89.6174 340.767 91.2562L341.76 89.5204C338.495 87.6514 334.747 86.9216 330.56 87.2879L330.734 89.2803ZM340.774 91.2605C343.665 92.8817 345.873 95.2916 347.4 98.5312L349.209 97.6784C347.517 94.0893 345.031 91.3549 341.753 89.5161L340.774 91.2605ZM347.401 98.5331C348.932 101.763 349.644 105.437 349.512 109.579L351.511 109.643C351.652 105.228 350.893 101.231 349.208 97.6765L347.401 98.5331ZM349.513 109.56L349.377 112.204L351.375 112.307L351.51 109.662L349.513 109.56ZM349.378 112.195C349.112 116.552 348.026 120.473 346.131 123.973L347.889 124.925C349.935 121.147 351.092 116.939 351.374 112.316L349.378 112.195ZM346.13 123.974C344.258 127.443 341.695 130.229 338.431 132.345L339.519 134.023C343.068 131.722 345.861 128.684 347.89 124.924L346.13 123.974ZM338.431 132.345C335.17 134.46 331.486 135.702 327.361 136.063L327.536 138.055C331.967 137.668 335.968 136.326 339.519 134.023L338.431 132.345ZM327.361 136.063L313.403 137.284L313.577 139.276L327.536 138.055L327.361 136.063ZM324.218 95.4411L321.237 130.698L323.23 130.867L326.211 95.6096L324.218 95.4411ZM322.314 131.779L327.146 131.39L326.985 129.396L322.153 129.786L322.314 131.779ZM327.153 131.389C331.749 130.987 335.493 129.189 338.306 125.967L336.799 124.652C334.361 127.444 331.114 129.035 326.978 129.397L327.153 131.389ZM338.306 125.967C341.123 122.739 342.7 118.532 343.102 113.424L341.109 113.267C340.732 118.048 339.274 121.817 336.799 124.652L338.306 125.967ZM343.102 113.428C343.386 109.974 343.343 106.953 342.956 104.377L340.978 104.674C341.336 107.054 341.385 109.913 341.109 113.264L343.102 113.428ZM342.956 104.377C342.454 101.038 341.221 98.3795 339.17 96.5218L337.827 98.004C339.445 99.4694 340.524 101.653 340.978 104.674L342.956 104.377ZM339.175 96.5262C337.124 94.643 334.452 93.8424 331.279 94.0247L331.394 96.0214C334.147 95.8632 336.25 96.5557 337.822 97.9995L339.175 96.5262ZM331.255 94.0264L325.133 94.5287L325.296 96.522L331.419 96.0197L331.255 94.0264ZM386.68 120.578L387.648 120.327L387.436 119.508L386.593 119.582L386.68 120.578ZM368.654 122.155L368.566 121.159L367.958 121.212L367.728 121.778L368.654 122.155ZM363.879 133.872L363.966 134.868L364.575 134.815L364.805 134.249L363.879 133.872ZM355.081 134.642L354.163 134.245L353.498 135.784L355.168 135.638L355.081 134.642ZM376.866 84.2072L376.779 83.211L376.184 83.263L375.948 83.8106L376.866 84.2072ZM384.209 83.5647L385.17 83.2898L384.943 82.4967L384.122 82.5686L384.209 83.5647ZM397.75 130.908L397.837 131.905L399.045 131.799L398.711 130.633L397.75 130.908ZM389.547 131.626L388.579 131.877L388.791 132.696L389.634 132.622L389.547 131.626ZM371.503 115.107L370.577 114.729L369.959 116.245L371.59 116.103L371.503 115.107ZM384.999 113.926L385.086 114.922L386.259 114.819L385.967 113.678L384.999 113.926ZM379.982 94.3002L380.951 94.0525L380.2 91.1152L379.056 93.9228L379.982 94.3002ZM386.593 119.582L368.566 121.159L368.741 123.151L386.768 121.574L386.593 119.582ZM367.728 121.778L362.953 133.494L364.805 134.249L369.58 122.533L367.728 121.778ZM363.792 132.876L354.994 133.645L355.168 135.638L363.966 134.868L363.792 132.876ZM355.999 135.038L377.784 84.6037L375.948 83.8106L354.163 134.245L355.999 135.038ZM376.953 85.2034L384.296 84.5609L384.122 82.5686L376.779 83.211L376.953 85.2034ZM383.247 83.8397L396.788 131.183L398.711 130.633L385.17 83.2898L383.247 83.8397ZM397.663 129.912L389.46 130.63L389.634 132.622L397.837 131.905L397.663 129.912ZM390.515 131.375L387.648 120.327L385.713 120.829L388.579 131.877L390.515 131.375ZM371.59 116.103L385.086 114.922L384.911 112.93L371.416 114.11L371.59 116.103ZM385.967 113.678L380.951 94.0525L379.013 94.5478L384.03 114.174L385.967 113.678ZM379.056 93.9228L370.577 114.729L372.429 115.484L380.908 94.6775L379.056 93.9228ZM443.971 126.865L444.059 127.861L444.897 127.787L444.968 126.949L443.971 126.865ZM436.066 127.556L435.188 128.034L435.501 128.61L436.153 128.552L436.066 127.556ZM417.998 94.3739L418.876 93.8956L417.283 90.9696L417.001 94.2894L417.998 94.3739ZM415.029 129.397L415.116 130.393L415.955 130.32L416.026 129.481L415.029 129.397ZM406.859 130.112L405.863 130.027L405.762 131.211L406.946 131.108L406.859 130.112ZM411.014 81.2196L410.927 80.2234L410.089 80.2967L410.018 81.1349L411.014 81.2196ZM418.92 80.5279L419.799 80.051L419.486 79.4746L418.832 79.5318L418.92 80.5279ZM436.999 113.843L436.121 114.32L437.713 117.254L437.996 113.927L436.999 113.843ZM439.99 78.6846L439.902 77.6884L439.064 77.7617L438.993 78.5998L439.99 78.6846ZM448.126 77.9727L449.123 78.0574L449.224 76.8729L448.039 76.9765L448.126 77.9727ZM443.884 125.868L435.979 126.56L436.153 128.552L444.059 127.861L443.884 125.868ZM436.944 127.078L418.876 93.8956L417.12 94.8521L435.188 128.034L436.944 127.078ZM417.001 94.2894L414.033 129.312L416.026 129.481L418.994 94.4583L417.001 94.2894ZM414.942 128.401L406.772 129.115L406.946 131.108L415.116 130.393L414.942 128.401ZM407.856 130.196L412.011 81.3043L410.018 81.1349L405.863 130.027L407.856 130.196ZM411.101 82.2158L419.007 81.5241L418.832 79.5318L410.927 80.2234L411.101 82.2158ZM418.041 81.0049L436.121 114.32L437.878 113.366L419.799 80.051L418.041 81.0049ZM437.996 113.927L440.986 78.7693L438.993 78.5998L436.003 113.758L437.996 113.927ZM440.077 79.6808L448.214 78.9689L448.039 76.9765L439.902 77.6884L440.077 79.6808ZM447.13 77.888L442.975 126.78L444.968 126.949L449.123 78.0574L447.13 77.888Z" fill="white"/>
  <path d="M201.785 218.173L205.94 169.281L218.479 168.217C222.205 167.891 225.52 168.568 228.422 170.247C231.322 171.904 233.526 174.367 235.034 177.634C236.562 180.878 237.249 184.54 237.095 188.62L236.85 192.674C236.42 199.444 234.223 205.058 230.258 209.516C226.292 213.973 221.168 216.477 214.883 217.027L201.785 218.173ZM209.683 172.453L206.114 214.328L214.717 213.609C218.091 213.313 221.1 212.272 223.743 210.486C226.386 208.699 228.49 206.326 230.053 203.368C231.636 200.385 232.549 197.106 232.792 193.529C233.055 189.929 233.138 187.455 233.042 186.108C232.969 184.759 232.789 183.464 232.503 182.222C231.687 178.738 230.097 176.056 227.732 174.174C225.368 172.292 222.451 171.458 218.981 171.673L209.683 172.453ZM276.45 188.376L254.619 190.286L252.898 210.235L278.037 208.035L277.742 211.528L248.568 214.08L252.723 165.188L281.732 162.65L281.407 166.178L256.467 168.36L254.881 186.797L276.744 184.884L276.45 188.376ZM304.457 203.191L304.612 204.211L304.986 203.145L322.595 159.075L327.159 158.676L306.433 209.017L302.563 209.356L288.526 162.056L292.594 161.7L304.457 203.191Z" fill="#272C34"/>
  <rect x="177" y="200.743" width="20" height="20" rx="10" transform="rotate(-5 177 200.743)" fill="#D271E3"/>
  <defs>
    <filter id="filter0_d" x="178.695" y="145.414" width="173.928" height="96.6595" filterUnits="userSpaceOnUse" color-interpolation-filters="sRGB">
      <feFlood flood-opacity="0" result="BackgroundImageFix"/>
      <feColorMatrix in="SourceAlpha" type="matrix" values="0 0 0 0 0 0 0 0 0 0 0 0 0 0 0 0 0 0 127 0"/>
      <feOffset dx="4" dy="4"/>
      <feGaussianBlur stdDeviation="2"/>
      <feColorMatrix type="matrix" values="0 0 0 0 0 0 0 0 0 0 0 0 0 0 0 0 0 0 0.35 0"/>
      <feBlend mode="normal" in2="BackgroundImageFix" result="effect1_dropShadow"/>
      <feBlend mode="normal" in="SourceGraphic" in2="effect1_dropShadow" result="shape"/>
    </filter>
    <linearGradient id="paint0_linear" x1="256.5" y1="142" x2="256.5" y2="222" gradientUnits="userSpaceOnUse">
      <stop stop-color="#B2CCD6"/>
      <stop offset="1" stop-color="#B0CBDC" stop-opacity="0"/>
    </linearGradient>
    <linearGradient id="paint1_linear" x1="257.5" y1="0" x2="257.5" y2="252" gradientUnits="userSpaceOnUse">
      <stop offset="0.046875" stop-color="#D271E3"/>
      <stop offset="0.802083" stop-color="#82AAFF"/>
      <stop offset="1" stop-color="#82AAFF"/>
    </linearGradient>
  </defs>
</svg>
