<!-- <svg width="426" height="184" viewBox="0 0 426 184" fill="none" xmlns="http://www.w3.org/2000/svg"> -->
<svg viewBox="0 0 426 184" fill="none" xmlns="http://www.w3.org/2000/svg">
<path d="M8.04069 35.902L418.455 0.613906L417.828 85.375L7.40824 121.282L8.04069 35.902Z" fill="#272C34"/>
<g filter="url(#filter0_d)">
<path d="M140.924 100.15L294.086 86.4145L294.372 161.676L141.208 174.804L140.924 100.15Z" fill="white"/>
<path d="M142.701 173.17L142.429 101.521L292.592 88.0544L292.866 160.299L142.701 173.17Z" stroke="#272C34" stroke-width="3"/>
</g>
<path d="M26.2541 55.6939L34.2236 54.9967L29.5706 94.3359L52.5229 92.3278L51.7227 99.3363L20.8008 102.042L26.2541 55.6939ZM79.8234 51.0072L88.2393 50.2709L100.128 95.1014L92.0307 95.8098L89.1275 83.9215L71.0207 85.5057L65.0617 98.1692L56.5183 98.9167L79.8234 51.0072ZM83.2678 58.8007L83.1403 58.8118L73.8699 79.1532L87.7688 77.9372L83.2678 58.8007ZM112.694 48.1314L121.429 47.3672L138.365 80.1278L138.492 80.1166L142.469 45.5265L150.438 44.8292L144.985 91.1769L136.25 91.941L119.268 59.3773L119.14 59.3884L115.211 93.7818L107.241 94.479L112.694 48.1314ZM161.894 43.827L169.864 43.1297L167.399 64.1605L167.538 64.2769L188.927 41.4619L199.574 40.5304L179.351 61.2518L195.97 86.7163L186.916 87.5083L173.602 66.7658L166.171 74.3544L164.41 89.4774L156.441 90.1746L161.894 43.827ZM216.168 66.7679L202.543 40.2706L210.895 39.5399L220.545 59.5109L234.676 37.4593L244.112 36.6338L224.066 66.7194L222.019 84.4373L214.049 85.1345L216.168 66.7679ZM276.357 73.1304L286.303 72.2602C288.598 72.0594 290.562 71.5021 292.196 70.5883C293.868 69.6282 295.268 68.4992 296.396 67.2012C297.521 65.8608 298.421 64.3901 299.094 62.7893C299.81 61.1848 300.339 59.6395 300.68 58.1535C301.06 56.6212 301.279 55.21 301.338 53.92C301.435 52.5838 301.45 51.5332 301.383 50.7681C301.034 46.7727 299.893 43.7673 297.96 41.7521C296.028 39.7368 293.468 38.8687 290.28 39.1476L280.334 40.0177L276.357 73.1304ZM273.135 34.0947L289.839 32.6332C295.704 32.1201 300.285 33.3254 303.582 36.2492C306.875 39.1305 308.801 43.7589 309.358 50.1346C309.477 51.4947 309.462 53.0379 309.314 54.7641C309.161 56.4478 308.864 58.187 308.421 59.9818C307.975 61.734 307.376 63.4567 306.625 65.15C305.87 66.8007 304.928 68.2751 303.799 69.5731C302.555 71.0097 301.337 72.2726 300.148 73.3617C298.954 74.4084 297.599 75.3193 296.082 76.0945C294.565 76.8696 292.8 77.4952 290.786 77.9712C288.814 78.4435 286.404 78.8043 283.557 79.0534L267.554 80.4535L273.135 34.0947ZM336.169 28.5798L344.585 27.8436L356.474 72.674L348.376 73.3824L345.473 61.4942L327.366 63.0783L321.407 75.7419L312.864 76.4893L336.169 28.5798ZM339.614 36.3733L339.486 36.3845L330.216 56.7258L344.115 55.5098L339.614 36.3733ZM369.04 25.704L377.775 24.9398L394.711 57.7005L394.838 57.6893L398.814 23.0991L406.784 22.4019L401.331 68.7495L392.596 69.5137L375.613 36.9499L375.486 36.9611L371.556 71.3544L363.587 72.0517L369.04 25.704Z" fill="white"/>
<path d="M26.2541 55.6939L26.1669 54.6977L25.356 54.7687L25.2609 55.5771L26.2541 55.6939ZM34.2236 54.9967L35.2167 55.1141L35.3611 53.8933L34.1365 54.0005L34.2236 54.9967ZM29.5706 94.3359L28.5775 94.2184L28.4331 95.4392L29.6577 95.3321L29.5706 94.3359ZM52.5229 92.3278L53.5164 92.4413L53.6553 91.2249L52.4357 91.3316L52.5229 92.3278ZM51.7227 99.3363L51.8098 100.332L52.6235 100.261L52.7162 99.4497L51.7227 99.3363ZM20.8008 102.042L19.8076 101.925L19.6641 103.145L20.8879 103.038L20.8008 102.042ZM26.3412 56.6901L34.3108 55.9929L34.1365 54.0005L26.1669 54.6977L26.3412 56.6901ZM33.2306 54.8792L28.5775 94.2184L30.5636 94.4534L35.2167 55.1141L33.2306 54.8792ZM29.6577 95.3321L52.61 93.324L52.4357 91.3316L29.4834 93.3397L29.6577 95.3321ZM51.5293 92.2144L50.7291 99.2228L52.7162 99.4497L53.5164 92.4413L51.5293 92.2144ZM51.6355 98.3401L20.7136 101.045L20.8879 103.038L51.8098 100.332L51.6355 98.3401ZM21.7939 102.158L27.2472 55.8108L25.2609 55.5771L19.8076 101.925L21.7939 102.158ZM79.8234 51.0072L79.7363 50.011L79.172 50.0604L78.9242 50.5698L79.8234 51.0072ZM88.2393 50.2709L89.2059 50.0146L88.9902 49.2014L88.1521 49.2747L88.2393 50.2709ZM100.128 95.1014L100.215 96.0975L101.399 95.994L101.094 94.845L100.128 95.1014ZM92.0307 95.8098L91.0592 96.047L91.2629 96.8808L92.1179 96.806L92.0307 95.8098ZM89.1275 83.9215L90.099 83.6843L89.8954 82.8505L89.0404 82.9254L89.1275 83.9215ZM71.0207 85.5057L70.9335 84.5095L70.3607 84.5596L70.1159 85.0799L71.0207 85.5057ZM65.0617 98.1692L65.1489 99.1654L65.7217 99.1153L65.9665 98.595L65.0617 98.1692ZM56.5183 98.9167L55.6191 98.4793L54.8469 100.067L56.6055 99.9129L56.5183 98.9167ZM83.2678 58.8007L84.2412 58.5717L84.043 57.729L83.1806 57.8045L83.2678 58.8007ZM83.1403 58.8118L83.0531 57.8156L82.4722 57.8665L82.2303 58.3971L83.1403 58.8118ZM73.8699 79.1532L72.9599 78.7385L72.2488 80.2988L73.957 80.1494L73.8699 79.1532ZM87.7688 77.9372L87.8559 78.9334L89.0067 78.8327L88.7422 77.7082L87.7688 77.9372ZM79.9106 52.0034L88.3265 51.2671L88.1521 49.2747L79.7363 50.011L79.9106 52.0034ZM87.2727 50.5272L99.1612 95.3577L101.094 94.845L89.2059 50.0146L87.2727 50.5272ZM100.041 94.1052L91.9435 94.8136L92.1179 96.806L100.215 96.0975L100.041 94.1052ZM93.0022 95.5725L90.099 83.6843L88.1561 84.1588L91.0592 96.047L93.0022 95.5725ZM89.0404 82.9254L70.9335 84.5095L71.1078 86.5019L89.2147 84.9177L89.0404 82.9254ZM70.1159 85.0799L64.1569 97.7435L65.9665 98.595L71.9255 85.9315L70.1159 85.0799ZM64.9746 97.173L56.4312 97.9205L56.6055 99.9129L65.1489 99.1654L64.9746 97.173ZM57.4176 99.3541L80.7227 51.4446L78.9242 50.5698L55.6191 98.4793L57.4176 99.3541ZM83.1806 57.8045L83.0531 57.8156L83.2274 59.808L83.355 59.7969L83.1806 57.8045ZM82.2303 58.3971L72.9599 78.7385L74.7798 79.5679L84.0502 59.2265L82.2303 58.3971ZM73.957 80.1494L87.8559 78.9334L87.6816 76.941L73.7827 78.157L73.957 80.1494ZM88.7422 77.7082L84.2412 58.5717L82.2944 59.0296L86.7953 78.1662L88.7422 77.7082ZM112.694 48.1314L112.607 47.1352L111.796 47.2061L111.701 48.0145L112.694 48.1314ZM121.429 47.3672L122.317 46.908L122.01 46.3126L121.342 46.371L121.429 47.3672ZM138.365 80.1278L137.476 80.587L137.784 81.1824L138.452 81.124L138.365 80.1278ZM138.492 80.1166L138.579 81.1128L139.393 81.0417L139.486 80.2309L138.492 80.1166ZM142.469 45.5265L142.382 44.5303L141.568 44.6014L141.475 45.4122L142.469 45.5265ZM150.438 44.8292L151.431 44.9461L151.575 43.7259L150.351 43.833L150.438 44.8292ZM144.985 91.1769L145.072 92.1731L145.883 92.1021L145.978 91.2937L144.985 91.1769ZM136.25 91.941L135.364 92.4035L135.672 92.9954L136.337 92.9372L136.25 91.941ZM119.268 59.3773L120.154 58.9149L119.845 58.3229L119.18 58.3811L119.268 59.3773ZM119.14 59.3884L119.053 58.3922L118.239 58.4634L118.146 59.2749L119.14 59.3884ZM115.211 93.7818L115.298 94.778L116.111 94.7068L116.204 93.8953L115.211 93.7818ZM107.241 94.479L106.248 94.3622L106.104 95.5823L107.328 95.4752L107.241 94.479ZM112.782 49.1276L121.516 48.3634L121.342 46.371L112.607 47.1352L112.782 49.1276ZM120.541 47.8264L137.476 80.587L139.253 79.6686L122.317 46.908L120.541 47.8264ZM138.452 81.124L138.579 81.1128L138.405 79.1205L138.278 79.1316L138.452 81.124ZM139.486 80.2309L143.462 45.6407L141.475 45.4122L137.499 80.0024L139.486 80.2309ZM142.556 46.5226L150.525 45.8254L150.351 43.833L142.382 44.5303L142.556 46.5226ZM149.445 44.7124L143.992 91.06L145.978 91.2937L151.431 44.9461L149.445 44.7124ZM144.898 90.1807L136.163 90.9448L136.337 92.9372L145.072 92.1731L144.898 90.1807ZM137.137 91.4786L120.154 58.9149L118.381 59.8397L135.364 92.4035L137.137 91.4786ZM119.18 58.3811L119.053 58.3922L119.227 60.3846L119.355 60.3735L119.18 58.3811ZM118.146 59.2749L114.217 93.6683L116.204 93.8953L120.134 59.5019L118.146 59.2749ZM115.123 92.7856L107.154 93.4828L107.328 95.4752L115.298 94.778L115.123 92.7856ZM108.234 94.5959L113.688 48.2482L111.701 48.0145L106.248 94.3622L108.234 94.5959ZM161.894 43.827L161.807 42.8308L160.996 42.9017L160.901 43.7101L161.894 43.827ZM169.864 43.1297L170.857 43.2461L171 42.0265L169.776 42.1335L169.864 43.1297ZM167.399 64.1605L166.406 64.0441L166.343 64.5799L166.756 64.9266L167.399 64.1605ZM167.538 64.2769L166.895 65.0429L167.62 65.6513L168.267 64.9608L167.538 64.2769ZM188.927 41.4619L188.84 40.4657L188.459 40.499L188.197 40.778L188.927 41.4619ZM199.574 40.5304L200.29 41.2288L202.173 39.2992L199.487 39.5342L199.574 40.5304ZM179.351 61.2518L178.635 60.5533L178.076 61.127L178.514 61.7983L179.351 61.2518ZM195.97 86.7163L196.057 87.7125L197.719 87.567L196.807 86.1697L195.97 86.7163ZM186.916 87.5083L186.075 88.0485L186.401 88.5572L187.003 88.5045L186.916 87.5083ZM173.602 66.7658L174.443 66.2257L173.765 65.1695L172.887 66.0662L173.602 66.7658ZM166.171 74.3544L165.456 73.6547L165.217 73.8991L165.178 74.2387L166.171 74.3544ZM164.41 89.4774L164.497 90.4736L165.309 90.4025L165.404 89.593L164.41 89.4774ZM156.441 90.1746L155.448 90.0578L155.304 91.2779L156.528 91.1708L156.441 90.1746ZM161.981 44.8232L169.951 44.1259L169.776 42.1335L161.807 42.8308L161.981 44.8232ZM168.87 43.0133L166.406 64.0441L168.392 64.2769L170.857 43.2461L168.87 43.0133ZM166.756 64.9266L166.895 65.0429L168.181 63.5108L168.042 63.3945L166.756 64.9266ZM168.267 64.9608L189.656 42.1458L188.197 40.778L166.808 63.5929L168.267 64.9608ZM189.014 42.4581L199.661 41.5266L199.487 39.5342L188.84 40.4657L189.014 42.4581ZM198.858 39.8319L178.635 60.5533L180.067 61.9502L200.29 41.2288L198.858 39.8319ZM178.514 61.7983L195.132 87.2628L196.807 86.1697L180.189 60.7053L178.514 61.7983ZM195.883 85.7201L186.829 86.5122L187.003 88.5045L196.057 87.7125L195.883 85.7201ZM187.758 86.9682L174.443 66.2257L172.76 67.306L186.075 88.0485L187.758 86.9682ZM172.887 66.0662L165.456 73.6547L166.885 75.054L174.316 67.4655L172.887 66.0662ZM165.178 74.2387L163.417 89.3617L165.404 89.593L167.164 74.47L165.178 74.2387ZM164.323 88.4812L156.354 89.1784L156.528 91.1708L164.497 90.4736L164.323 88.4812ZM157.434 90.2915L162.887 43.9438L160.901 43.7101L155.448 90.0578L157.434 90.2915ZM216.168 66.7679L217.162 66.8826L217.197 66.5808L217.058 66.3106L216.168 66.7679ZM202.543 40.2706L202.456 39.2744L200.973 39.4041L201.654 40.7279L202.543 40.2706ZM210.895 39.5399L211.796 39.1049L211.496 38.4836L210.808 38.5437L210.895 39.5399ZM220.545 59.5109L219.644 59.946L220.422 61.5556L221.387 60.0505L220.545 59.5109ZM234.676 37.4593L234.589 36.4631L234.1 36.506L233.834 36.9198L234.676 37.4593ZM244.112 36.6338L244.945 37.1883L246.099 35.4562L244.025 35.6376L244.112 36.6338ZM224.066 66.7194L223.234 66.1649L223.101 66.3653L223.073 66.6046L224.066 66.7194ZM222.019 84.4373L222.106 85.4335L222.918 85.3624L223.012 84.5521L222.019 84.4373ZM214.049 85.1345L213.056 85.0199L212.915 86.2376L214.136 86.1307L214.049 85.1345ZM217.058 66.3106L203.432 39.8133L201.654 40.7279L215.279 67.2252L217.058 66.3106ZM202.63 41.2668L210.982 40.5361L210.808 38.5437L202.456 39.2744L202.63 41.2668ZM209.995 39.9749L219.644 59.946L221.445 59.0759L211.796 39.1049L209.995 39.9749ZM221.387 60.0505L235.518 37.9989L233.834 36.9198L219.703 58.9713L221.387 60.0505ZM234.764 38.4555L244.2 37.63L244.025 35.6376L234.589 36.4631L234.764 38.4555ZM243.28 36.0793L223.234 66.1649L224.898 67.2739L244.945 37.1883L243.28 36.0793ZM223.073 66.6046L221.025 84.3225L223.012 84.5521L225.06 66.8342L223.073 66.6046ZM221.932 83.4411L213.962 84.1383L214.136 86.1307L222.106 85.4335L221.932 83.4411ZM215.043 85.2492L217.162 66.8826L215.175 66.6533L213.056 85.0199L215.043 85.2492ZM276.357 73.1304L275.364 73.0111L275.217 74.2339L276.444 74.1266L276.357 73.1304ZM292.196 70.5883L292.684 71.461L292.694 71.4555L292.196 70.5883ZM296.396 67.2012L297.151 67.8574L297.157 67.8507L297.163 67.844L296.396 67.2012ZM299.094 62.7893L298.181 62.3817L298.177 62.3915L298.173 62.4014L299.094 62.7893ZM300.68 58.1535L299.71 57.9128L299.708 57.9213L299.706 57.9297L300.68 58.1535ZM301.338 53.92L300.34 53.8475L300.339 53.8611L300.339 53.8748L301.338 53.92ZM297.96 41.7521L297.239 42.4442L297.239 42.4442L297.96 41.7521ZM280.334 40.0177L280.247 39.0215L279.438 39.0923L279.341 39.8985L280.334 40.0177ZM273.135 34.0947L273.047 33.0985L272.239 33.1692L272.142 33.9751L273.135 34.0947ZM303.582 36.2492L302.919 36.9974L302.924 37.0018L303.582 36.2492ZM309.314 54.7641L310.31 54.8543L310.31 54.85L309.314 54.7641ZM308.421 59.9818L309.39 60.2286L309.392 60.2212L308.421 59.9818ZM306.625 65.15L307.534 65.566L307.539 65.5556L306.625 65.15ZM303.799 69.5731L303.045 68.9169L303.044 68.9182L303.799 69.5731ZM300.148 73.3617L300.807 74.1135L300.815 74.1065L300.823 74.0993L300.148 73.3617ZM296.082 76.0945L296.537 76.9849L296.537 76.9849L296.082 76.0945ZM290.786 77.9712L290.556 76.998L290.553 76.9987L290.786 77.9712ZM267.554 80.4535L266.561 80.334L266.414 81.557L267.641 81.4497L267.554 80.4535ZM276.444 74.1266L286.39 73.2564L286.216 71.264L276.27 72.1342L276.444 74.1266ZM286.39 73.2564C288.795 73.046 290.902 72.4579 292.684 71.4609L291.707 69.7156C290.223 70.5463 288.402 71.0727 286.216 71.264L286.39 73.2564ZM292.694 71.4555C294.451 70.4465 295.941 69.249 297.151 67.8574L295.642 66.5451C294.595 67.7494 293.285 68.8099 291.698 69.721L292.694 71.4555ZM297.163 67.844C298.351 66.4275 299.303 64.871 300.016 63.1772L298.173 62.4014C297.538 63.9093 296.691 65.2941 295.63 66.5585L297.163 67.844ZM300.007 63.1969C300.746 61.542 301.297 59.9351 301.655 58.3772L299.706 57.9297C299.381 59.344 298.875 60.8276 298.181 62.3817L300.007 63.1969ZM301.651 58.3941C302.043 56.8114 302.275 55.3338 302.337 53.9653L300.339 53.8748C300.284 55.0862 300.077 56.431 299.71 57.9128L301.651 58.3941ZM302.335 53.9926C302.434 52.6361 302.453 51.5242 302.379 50.6809L300.387 50.8552C300.447 51.5422 300.436 52.5315 300.34 53.8475L302.335 53.9926ZM302.379 50.6809C302.018 46.5551 300.828 43.2982 298.682 41.06L297.239 42.4442C298.957 44.2365 300.049 46.9903 300.387 50.8552L302.379 50.6809ZM298.682 41.06C296.508 38.7925 293.633 37.8504 290.193 38.1514L290.367 40.1438C293.303 39.8869 295.548 40.6812 297.239 42.4442L298.682 41.06ZM290.193 38.1514L280.247 39.0215L280.421 41.0139L290.367 40.1438L290.193 38.1514ZM279.341 39.8985L275.364 73.0111L277.35 73.2496L281.327 40.137L279.341 39.8985ZM273.222 35.0909L289.926 33.6294L289.752 31.637L273.047 33.0985L273.222 35.0909ZM289.926 33.6294C295.614 33.1318 299.89 34.3111 302.919 36.9973L304.246 35.501C300.681 32.3397 295.795 31.1083 289.752 31.637L289.926 33.6294ZM302.924 37.0018C305.949 39.6485 307.817 43.9852 308.362 50.2218L310.355 50.0474C309.785 43.5327 307.802 38.6124 304.241 35.4966L302.924 37.0018ZM308.362 50.2218C308.475 51.5114 308.462 52.9951 308.317 54.6782L310.31 54.85C310.462 53.0807 310.48 51.4781 310.355 50.0474L308.362 50.2218ZM308.318 54.6739C308.17 56.3029 307.882 57.9921 307.45 59.7423L309.392 60.2212C309.846 58.3819 310.152 56.5927 310.31 54.8543L308.318 54.6739ZM307.452 59.7349C307.02 61.4315 306.44 63.1012 305.711 64.7444L307.539 65.5556C308.312 63.8123 308.93 62.0365 309.39 60.2286L307.452 59.7349ZM305.715 64.7341C304.998 66.3026 304.107 67.6951 303.045 68.9169L304.554 70.2292C305.749 68.8551 306.741 67.2989 307.534 65.5659L305.715 64.7341ZM303.044 68.9182C301.82 70.3307 300.629 71.5651 299.472 72.6242L300.823 74.0993C302.045 72.9801 303.289 71.6887 304.555 70.2279L303.044 68.9182ZM299.488 72.61C298.361 73.5983 297.076 74.4637 295.627 75.204L296.537 76.9849C298.123 76.1749 299.547 75.2185 300.807 74.1135L299.488 72.61ZM295.627 75.204C294.195 75.9358 292.508 76.5367 290.556 76.998L291.016 78.9444C293.092 78.4537 294.936 77.8034 296.537 76.9849L295.627 75.204ZM290.553 76.9987C288.644 77.456 286.286 77.8108 283.469 78.0572L283.644 80.0496C286.522 79.7978 288.984 79.4311 291.019 78.9437L290.553 76.9987ZM283.469 78.0572L267.467 79.4573L267.641 81.4497L283.644 80.0496L283.469 78.0572ZM268.547 80.573L274.127 34.2142L272.142 33.9751L266.561 80.334L268.547 80.573ZM336.169 28.5798L336.082 27.5837L335.518 27.633L335.27 28.1424L336.169 28.5798ZM344.585 27.8436L345.552 27.5872L345.336 26.774L344.498 26.8474L344.585 27.8436ZM356.474 72.674L356.561 73.6702L357.745 73.5666L357.44 72.4177L356.474 72.674ZM348.376 73.3824L347.405 73.6196L347.609 74.4534L348.464 74.3786L348.376 73.3824ZM345.473 61.4942L346.445 61.257L346.241 60.4232L345.386 60.498L345.473 61.4942ZM327.366 63.0783L327.279 62.0821L326.706 62.1323L326.462 62.6526L327.366 63.0783ZM321.407 75.7419L321.495 76.7381L322.067 76.688L322.312 76.1677L321.407 75.7419ZM312.864 76.4893L311.965 76.0519L311.193 77.6394L312.951 77.4855L312.864 76.4893ZM339.614 36.3733L340.587 36.1444L340.389 35.3017L339.526 35.3771L339.614 36.3733ZM339.486 36.3845L339.399 35.3883L338.818 35.4391L338.576 35.9698L339.486 36.3845ZM330.216 56.7258L329.306 56.3111L328.595 57.8715L330.303 57.722L330.216 56.7258ZM344.115 55.5098L344.202 56.506L345.352 56.4054L345.088 55.2809L344.115 55.5098ZM336.256 29.576L344.672 28.8398L344.498 26.8474L336.082 27.5837L336.256 29.576ZM343.618 28.0999L355.507 72.9303L357.44 72.4177L345.552 27.5872L343.618 28.0999ZM356.386 71.6778L348.289 72.3862L348.464 74.3786L356.561 73.6702L356.386 71.6778ZM349.348 73.1452L346.445 61.257L344.502 61.7314L347.405 73.6196L349.348 73.1452ZM345.386 60.498L327.279 62.0821L327.454 64.0745L345.56 62.4904L345.386 60.498ZM326.462 62.6526L320.503 75.3161L322.312 76.1677L328.271 63.5041L326.462 62.6526ZM321.32 74.7457L312.777 75.4931L312.951 77.4855L321.495 76.7381L321.32 74.7457ZM313.763 76.9268L337.068 29.0173L335.27 28.1424L311.965 76.0519L313.763 76.9268ZM339.526 35.3771L339.399 35.3883L339.573 37.3807L339.701 37.3695L339.526 35.3771ZM338.576 35.9698L329.306 56.3111L331.126 57.1405L340.396 36.7992L338.576 35.9698ZM330.303 57.722L344.202 56.506L344.027 54.5137L330.129 55.7296L330.303 57.722ZM345.088 55.2809L340.587 36.1444L338.64 36.6023L343.141 55.7388L345.088 55.2809ZM369.04 25.704L368.953 24.7078L368.142 24.7788L368.047 25.5872L369.04 25.704ZM377.775 24.9398L378.663 24.4806L378.355 23.8852L377.688 23.9436L377.775 24.9398ZM394.711 57.7005L393.822 58.1597L394.13 58.7551L394.798 58.6966L394.711 57.7005ZM394.838 57.6893L394.925 58.6855L395.738 58.6144L395.832 57.8035L394.838 57.6893ZM398.814 23.0991L398.727 22.1029L397.914 22.174L397.821 22.9849L398.814 23.0991ZM406.784 22.4019L407.777 22.5187L407.921 21.2986L406.697 21.4057L406.784 22.4019ZM401.331 68.7495L401.418 69.7457L402.229 69.6748L402.324 68.8664L401.331 68.7495ZM392.596 69.5137L391.709 69.9761L392.018 70.5681L392.683 70.5099L392.596 69.5137ZM375.613 36.9499L376.5 36.4875L376.191 35.8955L375.526 35.9537L375.613 36.9499ZM375.486 36.9611L375.399 35.9649L374.585 36.0361L374.492 36.8476L375.486 36.9611ZM371.556 71.3544L371.644 72.3506L372.457 72.2794L372.55 71.4679L371.556 71.3544ZM363.587 72.0517L362.594 71.9348L362.45 73.1549L363.674 73.0479L363.587 72.0517ZM369.127 26.7002L377.862 25.936L377.688 23.9436L368.953 24.7078L369.127 26.7002ZM376.886 25.3991L393.822 58.1597L395.599 57.2412L378.663 24.4806L376.886 25.3991ZM394.798 58.6966L394.925 58.6855L394.751 56.6931L394.623 56.7043L394.798 58.6966ZM395.832 57.8035L399.808 23.2133L397.821 22.9849L393.845 57.5751L395.832 57.8035ZM398.902 24.0953L406.871 23.398L406.697 21.4057L398.727 22.1029L398.902 24.0953ZM405.791 22.285L400.338 68.6327L402.324 68.8664L407.777 22.5187L405.791 22.285ZM401.244 67.7533L392.509 68.5175L392.683 70.5099L401.418 69.7457L401.244 67.7533ZM393.483 69.0513L376.5 36.4875L374.727 37.4123L391.709 69.9761L393.483 69.0513ZM375.526 35.9537L375.399 35.9649L375.573 37.9573L375.7 37.9461L375.526 35.9537ZM374.492 36.8476L370.563 71.2409L372.55 71.4679L376.479 37.0746L374.492 36.8476ZM371.469 70.3582L363.5 71.0555L363.674 73.0479L371.644 72.3506L371.469 70.3582ZM364.58 72.1685L370.033 25.8209L368.047 25.5872L362.594 71.9348L364.58 72.1685Z" fill="white"/>
<path d="M162.022 156.372L175.156 155.223C177.791 154.993 180.119 154.425 182.138 153.52C184.2 152.612 185.985 151.471 187.492 150.097C188.996 148.68 190.249 147.093 191.252 145.335C192.297 143.573 193.101 141.747 193.663 139.856C194.268 137.961 194.659 136.064 194.836 134.164C195.051 132.218 195.08 130.352 194.924 128.567C194.697 125.974 194.241 123.701 193.557 121.748C192.872 119.795 191.898 118.21 190.635 116.993C189.368 115.733 187.77 114.845 185.841 114.329C183.911 113.812 181.586 113.673 178.866 113.911L167.071 114.943L162.022 156.372ZM164.563 112.721L179.291 111.432C182.352 111.165 184.98 111.342 187.176 111.963C189.371 112.585 191.197 113.624 192.652 115.082C194.15 116.535 195.297 118.384 196.093 120.627C196.927 122.824 197.473 125.389 197.729 128.322C198.016 131.594 197.769 134.892 196.989 138.216C196.209 141.539 194.891 144.588 193.035 147.363C191.179 150.138 188.813 152.465 185.937 154.344C183.056 156.181 179.64 157.272 175.687 157.618L158.919 159.085L164.563 112.721ZM211.333 108.629L241.044 106.03L240.682 108.503L213.841 110.851L211.61 129.42L236.603 127.233L236.369 129.695L211.312 131.887L208.856 152.275L236.526 149.854L236.228 152.322L205.753 154.988L211.333 108.629ZM245.039 105.68L247.844 105.435L258.276 147.566L258.404 147.555L279.786 102.64L282.592 102.395L259.924 150.248L256.609 150.538L245.039 105.68Z" fill="#272C34"/>
<rect x="133" y="142.743" width="20" height="20" rx="10" transform="rotate(-5 133 142.743)" fill="#D271E3"/>
<defs>
<filter id="filter0_d" x="134.695" y="86.4145" width="173.928" height="96.6595" filterUnits="userSpaceOnUse" color-interpolation-filters="sRGB">
<feFlood flood-opacity="0" result="BackgroundImageFix"/>
<feColorMatrix in="SourceAlpha" type="matrix" values="0 0 0 0 0 0 0 0 0 0 0 0 0 0 0 0 0 0 127 0"/>
<feOffset dx="4" dy="4"/>
<feGaussianBlur stdDeviation="2"/>
<feColorMatrix type="matrix" values="0 0 0 0 0 0 0 0 0 0 0 0 0 0 0 0 0 0 0.35 0"/>
<feBlend mode="normal" in2="BackgroundImageFix" result="effect1_dropShadow"/>
<feBlend mode="normal" in="SourceGraphic" in2="effect1_dropShadow" result="shape"/>
</filter>
</defs>
</svg>
