<svg width="536" height="297" viewBox="0 0 536 297" fill="none" xmlns="http://www.w3.org/2000/svg">
<rect x="66" y="164" width="399" height="80" fill="url(#paint0_linear)"/>
<rect width="4.93308" height="5.13384" rx="2.46654" transform="matrix(0.995897 -0.0904982 0.0839349 0.996471 72 66.4476)" fill="#FFBE46" fill-opacity="0.2"/>
<rect width="4.93309" height="5.13385" rx="2.46654" transform="matrix(0.995876 -0.0907295 0.0837206 0.996489 81.863 66.4476)" fill="#FFBE46" fill-opacity="0.2"/>
<rect width="4.93309" height="5.13385" rx="2.46654" transform="matrix(0.995876 -0.0907295 0.0837206 0.996489 91.726 66.4476)" fill="#FFBE46" fill-opacity="0.2"/>
<rect width="4.93309" height="5.13385" rx="2.46654" transform="matrix(0.995876 -0.0907295 0.0837206 0.996489 101.589 66.4476)" fill="#FFBE46" fill-opacity="0.2"/>
<rect width="4.93309" height="5.13385" rx="2.46654" transform="matrix(0.995876 -0.0907295 0.0837206 0.996489 111.452 66.4476)" fill="#FFBE46" fill-opacity="0.2"/>
<rect width="4.93309" height="5.13385" rx="2.46654" transform="matrix(0.995876 -0.0907295 0.0837206 0.996489 121.315 66.4476)" fill="#FFBE46" fill-opacity="0.2"/>
<rect width="4.93309" height="5.13385" rx="2.46654" transform="matrix(0.995876 -0.0907295 0.0837206 0.996489 131.178 66.4476)" fill="#FFBE46" fill-opacity="0.2"/>
<rect width="4.93309" height="5.13385" rx="2.46654" transform="matrix(0.995876 -0.0907295 0.0837206 0.996489 141.041 66.4476)" fill="#FFBE46" fill-opacity="0.2"/>
<rect width="4.93309" height="5.13385" rx="2.46654" transform="matrix(0.995876 -0.0907295 0.0837206 0.996489 150.904 66.4476)" fill="#FFBE46" fill-opacity="0.2"/>
<rect width="4.93309" height="5.13385" rx="2.46654" transform="matrix(0.995876 -0.0907295 0.0837206 0.996489 160.767 66.4476)" fill="#FFBE46" fill-opacity="0.2"/>
<rect width="4.93309" height="5.13385" rx="2.46654" transform="matrix(0.995876 -0.0907295 0.0837206 0.996489 170.63 66.4476)" fill="#FFBE46" fill-opacity="0.2"/>
<rect width="4.93309" height="5.13385" rx="2.46654" transform="matrix(0.995876 -0.0907295 0.0837206 0.996489 180.493 66.4476)" fill="#FFBE46" fill-opacity="0.2"/>
<rect width="4.93309" height="5.13385" rx="2.46654" transform="matrix(0.995876 -0.0907295 0.0837206 0.996489 190.356 66.4476)" fill="#FFBE46" fill-opacity="0.2"/>
<rect width="4.93309" height="5.13385" rx="2.46654" transform="matrix(0.995876 -0.0907295 0.0837206 0.996489 200.219 66.4476)" fill="#FFBE46" fill-opacity="0.2"/>
<rect width="4.93309" height="5.13385" rx="2.46654" transform="matrix(0.995876 -0.0907295 0.0837206 0.996489 210.082 66.4476)" fill="#FFBE46" fill-opacity="0.2"/>
<rect width="4.93309" height="5.13385" rx="2.46654" transform="matrix(0.995876 -0.0907295 0.0837206 0.996489 219.945 66.4476)" fill="#FFBE46" fill-opacity="0.2"/>
<rect width="4.93309" height="5.13385" rx="2.46654" transform="matrix(0.995876 -0.0907295 0.0837206 0.996489 229.808 66.4476)" fill="#FFBE46" fill-opacity="0.2"/>
<rect width="4.93309" height="5.13385" rx="2.46654" transform="matrix(0.995876 -0.0907295 0.0837206 0.996489 239.671 66.4476)" fill="#FFBE46" fill-opacity="0.2"/>
<rect width="4.93309" height="5.13385" rx="2.46654" transform="matrix(0.995876 -0.0907295 0.0837206 0.996489 249.534 66.4476)" fill="#FFBE46" fill-opacity="0.2"/>
<rect width="4.93309" height="5.13385" rx="2.46654" transform="matrix(0.995876 -0.0907295 0.0837206 0.996489 259.397 66.4476)" fill="#FFBE46" fill-opacity="0.2"/>
<rect width="4.93309" height="5.13385" rx="2.46654" transform="matrix(0.995876 -0.0907295 0.0837206 0.996489 269.26 66.4476)" fill="#FFBE46" fill-opacity="0.2"/>
<rect width="4.93309" height="5.13385" rx="2.46654" transform="matrix(0.995876 -0.0907295 0.0837206 0.996489 279.123 66.4476)" fill="#FFBE46" fill-opacity="0.2"/>
<rect width="4.93309" height="5.13385" rx="2.46654" transform="matrix(0.995876 -0.0907295 0.0837206 0.996489 288.986 66.4476)" fill="#FFBE46" fill-opacity="0.2"/>
<rect width="4.93309" height="5.13385" rx="2.46654" transform="matrix(0.995876 -0.0907295 0.0837206 0.996489 298.849 66.4476)" fill="#FFBE46" fill-opacity="0.2"/>
<rect width="4.93309" height="5.13385" rx="2.46654" transform="matrix(0.995876 -0.0907295 0.0837206 0.996489 308.712 66.4476)" fill="#FFBE46" fill-opacity="0.2"/>
<rect width="4.93309" height="5.13385" rx="2.46654" transform="matrix(0.995876 -0.0907295 0.0837206 0.996489 318.575 66.4476)" fill="#FFBE46" fill-opacity="0.2"/>
<rect width="4.93309" height="5.13385" rx="2.46654" transform="matrix(0.995876 -0.0907295 0.0837206 0.996489 328.438 66.4476)" fill="#FFBE46" fill-opacity="0.2"/>
<rect width="4.93309" height="5.13385" rx="2.46654" transform="matrix(0.995876 -0.0907295 0.0837206 0.996489 338.301 66.4476)" fill="#FFBE46" fill-opacity="0.2"/>
<rect width="4.93309" height="5.13385" rx="2.46654" transform="matrix(0.995876 -0.0907295 0.0837206 0.996489 348.164 66.4476)" fill="#FFBE46" fill-opacity="0.2"/>
<rect width="4.93309" height="5.13385" rx="2.46654" transform="matrix(0.995876 -0.0907295 0.0837206 0.996489 358.027 66.4476)" fill="#FFBE46" fill-opacity="0.2"/>
<rect width="4.93309" height="5.13385" rx="2.46654" transform="matrix(0.995876 -0.0907295 0.0837206 0.996489 367.89 66.4476)" fill="#FFBE46" fill-opacity="0.2"/>
<rect width="4.93309" height="5.13385" rx="2.46654" transform="matrix(0.995876 -0.0907295 0.0837206 0.996489 377.753 66.4476)" fill="#FFBE46" fill-opacity="0.2"/>
<rect width="4.93309" height="5.13385" rx="2.46654" transform="matrix(0.995876 -0.0907295 0.0837206 0.996489 387.616 66.4476)" fill="#FFBE46" fill-opacity="0.2"/>
<rect width="4.93309" height="5.13385" rx="2.46654" transform="matrix(0.995876 -0.0907295 0.0837206 0.996489 397.479 66.4476)" fill="#FFBE46" fill-opacity="0.2"/>
<rect width="4.93309" height="5.13385" rx="2.46654" transform="matrix(0.995876 -0.0907295 0.0837206 0.996489 407.342 66.4476)" fill="#FFBE46" fill-opacity="0.2"/>
<rect width="4.93309" height="5.13385" rx="2.46654" transform="matrix(0.995876 -0.0907295 0.0837206 0.996489 417.205 66.4476)" fill="#FFBE46" fill-opacity="0.2"/>
<rect width="4.93309" height="5.13385" rx="2.46654" transform="matrix(0.995876 -0.0907295 0.0837206 0.996489 427.068 66.4476)" fill="#FFBE46" fill-opacity="0.2"/>
<rect width="4.93309" height="5.13385" rx="2.46654" transform="matrix(0.995876 -0.0907295 0.0837206 0.996489 436.931 66.4476)" fill="#FFBE46" fill-opacity="0.2"/>
<rect width="4.93309" height="5.13385" rx="2.46654" transform="matrix(0.995876 -0.0907295 0.0837206 0.996489 446.794 66.4476)" fill="#FFBE46" fill-opacity="0.2"/>
<rect width="4.93309" height="5.13385" rx="2.46654" transform="matrix(0.995876 -0.0907295 0.0837206 0.996489 456.657 66.4476)" fill="#FFBE46" fill-opacity="0.2"/>
<rect width="4.93308" height="5.13384" rx="2.46654" transform="matrix(0.995897 -0.0904982 0.0839349 0.996471 72 76.7183)" fill="#FFBE46" fill-opacity="0.3"/>
<rect width="4.93309" height="5.13385" rx="2.46654" transform="matrix(0.995876 -0.0907295 0.0837206 0.996489 81.863 76.7183)" fill="#FFBE46" fill-opacity="0.3"/>
<rect width="4.93309" height="5.13385" rx="2.46654" transform="matrix(0.995876 -0.0907295 0.0837206 0.996489 91.726 76.7183)" fill="#FFBE46" fill-opacity="0.3"/>
<rect width="4.93309" height="5.13385" rx="2.46654" transform="matrix(0.995876 -0.0907295 0.0837206 0.996489 101.589 76.7183)" fill="#FFBE46" fill-opacity="0.3"/>
<rect width="4.93309" height="5.13385" rx="2.46654" transform="matrix(0.995876 -0.0907295 0.0837206 0.996489 111.452 76.7183)" fill="#FFBE46" fill-opacity="0.3"/>
<rect width="4.93309" height="5.13385" rx="2.46654" transform="matrix(0.995876 -0.0907295 0.0837206 0.996489 121.315 76.7183)" fill="#FFBE46" fill-opacity="0.3"/>
<rect width="4.93309" height="5.13385" rx="2.46654" transform="matrix(0.995876 -0.0907295 0.0837206 0.996489 131.178 76.7183)" fill="#FFBE46" fill-opacity="0.3"/>
<rect width="4.93309" height="5.13385" rx="2.46654" transform="matrix(0.995876 -0.0907295 0.0837206 0.996489 141.041 76.7183)" fill="#FFBE46" fill-opacity="0.3"/>
<rect width="4.93309" height="5.13385" rx="2.46654" transform="matrix(0.995876 -0.0907295 0.0837206 0.996489 150.904 76.7183)" fill="#FFBE46" fill-opacity="0.3"/>
<rect width="4.93309" height="5.13385" rx="2.46654" transform="matrix(0.995876 -0.0907295 0.0837206 0.996489 160.767 76.7183)" fill="#FFBE46" fill-opacity="0.3"/>
<rect width="4.93309" height="5.13385" rx="2.46654" transform="matrix(0.995876 -0.0907295 0.0837206 0.996489 170.63 76.7183)" fill="#FFBE46" fill-opacity="0.3"/>
<rect width="4.93309" height="5.13385" rx="2.46654" transform="matrix(0.995876 -0.0907295 0.0837206 0.996489 180.493 76.7183)" fill="#FFBE46" fill-opacity="0.3"/>
<rect width="4.93309" height="5.13385" rx="2.46654" transform="matrix(0.995876 -0.0907295 0.0837206 0.996489 190.356 76.7183)" fill="#FFBE46" fill-opacity="0.3"/>
<rect width="4.93309" height="5.13385" rx="2.46654" transform="matrix(0.995876 -0.0907295 0.0837206 0.996489 200.219 76.7183)" fill="#FFBE46" fill-opacity="0.3"/>
<rect width="4.93309" height="5.13385" rx="2.46654" transform="matrix(0.995876 -0.0907295 0.0837206 0.996489 210.082 76.7183)" fill="#FFBE46" fill-opacity="0.3"/>
<rect width="4.93309" height="5.13385" rx="2.46654" transform="matrix(0.995876 -0.0907295 0.0837206 0.996489 219.945 76.7183)" fill="#FFBE46" fill-opacity="0.3"/>
<rect width="4.93309" height="5.13385" rx="2.46654" transform="matrix(0.995876 -0.0907295 0.0837206 0.996489 229.808 76.7183)" fill="#FFBE46" fill-opacity="0.3"/>
<rect width="4.93309" height="5.13385" rx="2.46654" transform="matrix(0.995876 -0.0907295 0.0837206 0.996489 239.671 76.7183)" fill="#FFBE46" fill-opacity="0.3"/>
<rect width="4.93309" height="5.13385" rx="2.46654" transform="matrix(0.995876 -0.0907295 0.0837206 0.996489 249.534 76.7183)" fill="#FFBE46" fill-opacity="0.3"/>
<rect width="4.93309" height="5.13385" rx="2.46654" transform="matrix(0.995876 -0.0907295 0.0837206 0.996489 259.397 76.7183)" fill="#FFBE46" fill-opacity="0.3"/>
<rect width="4.93309" height="5.13385" rx="2.46654" transform="matrix(0.995876 -0.0907295 0.0837206 0.996489 269.26 76.7183)" fill="#FFBE46" fill-opacity="0.3"/>
<rect width="4.93309" height="5.13385" rx="2.46654" transform="matrix(0.995876 -0.0907295 0.0837206 0.996489 279.123 76.7183)" fill="#FFBE46" fill-opacity="0.3"/>
<rect width="4.93309" height="5.13385" rx="2.46654" transform="matrix(0.995876 -0.0907295 0.0837206 0.996489 288.986 76.7183)" fill="#FFBE46" fill-opacity="0.3"/>
<rect width="4.93309" height="5.13385" rx="2.46654" transform="matrix(0.995876 -0.0907295 0.0837206 0.996489 298.849 76.7183)" fill="#FFBE46" fill-opacity="0.3"/>
<rect width="4.93309" height="5.13385" rx="2.46654" transform="matrix(0.995876 -0.0907295 0.0837206 0.996489 308.712 76.7183)" fill="#FFBE46" fill-opacity="0.3"/>
<rect width="4.93309" height="5.13385" rx="2.46654" transform="matrix(0.995876 -0.0907295 0.0837206 0.996489 318.575 76.7183)" fill="#FFBE46" fill-opacity="0.3"/>
<rect width="4.93309" height="5.13385" rx="2.46654" transform="matrix(0.995876 -0.0907295 0.0837206 0.996489 328.438 76.7183)" fill="#FFBE46" fill-opacity="0.3"/>
<rect width="4.93309" height="5.13385" rx="2.46654" transform="matrix(0.995876 -0.0907295 0.0837206 0.996489 338.301 76.7183)" fill="#FFBE46" fill-opacity="0.3"/>
<rect width="4.93309" height="5.13385" rx="2.46654" transform="matrix(0.995876 -0.0907295 0.0837206 0.996489 348.164 76.7183)" fill="#FFBE46" fill-opacity="0.3"/>
<rect width="4.93309" height="5.13385" rx="2.46654" transform="matrix(0.995876 -0.0907295 0.0837206 0.996489 358.027 76.7183)" fill="#FFBE46" fill-opacity="0.3"/>
<rect width="4.93309" height="5.13385" rx="2.46654" transform="matrix(0.995876 -0.0907295 0.0837206 0.996489 367.89 76.7183)" fill="#FFBE46" fill-opacity="0.3"/>
<rect width="4.93309" height="5.13385" rx="2.46654" transform="matrix(0.995876 -0.0907295 0.0837206 0.996489 377.753 76.7183)" fill="#FFBE46" fill-opacity="0.3"/>
<rect width="4.93309" height="5.13385" rx="2.46654" transform="matrix(0.995876 -0.0907295 0.0837206 0.996489 387.616 76.7183)" fill="#FFBE46" fill-opacity="0.3"/>
<rect width="4.93309" height="5.13385" rx="2.46654" transform="matrix(0.995876 -0.0907295 0.0837206 0.996489 397.479 76.7183)" fill="#FFBE46" fill-opacity="0.3"/>
<rect width="4.93309" height="5.13385" rx="2.46654" transform="matrix(0.995876 -0.0907295 0.0837206 0.996489 407.342 76.7183)" fill="#FFBE46" fill-opacity="0.3"/>
<rect width="4.93309" height="5.13385" rx="2.46654" transform="matrix(0.995876 -0.0907295 0.0837206 0.996489 417.205 76.7183)" fill="#FFBE46" fill-opacity="0.3"/>
<rect width="4.93309" height="5.13385" rx="2.46654" transform="matrix(0.995876 -0.0907295 0.0837206 0.996489 427.068 76.7183)" fill="#FFBE46" fill-opacity="0.3"/>
<rect width="4.93309" height="5.13385" rx="2.46654" transform="matrix(0.995876 -0.0907295 0.0837206 0.996489 436.931 76.7183)" fill="#FFBE46" fill-opacity="0.3"/>
<rect width="4.93309" height="5.13385" rx="2.46654" transform="matrix(0.995876 -0.0907295 0.0837206 0.996489 446.794 76.7183)" fill="#FFBE46" fill-opacity="0.3"/>
<rect width="4.93309" height="5.13385" rx="2.46654" transform="matrix(0.995876 -0.0907295 0.0837206 0.996489 456.657 76.7183)" fill="#FFBE46" fill-opacity="0.3"/>
<rect width="4.93308" height="5.13384" rx="2.46654" transform="matrix(0.995897 -0.0904982 0.0839349 0.996471 72 86.989)" fill="#FFBE46" fill-opacity="0.4"/>
<rect width="4.93309" height="5.13385" rx="2.46654" transform="matrix(0.995876 -0.0907295 0.0837206 0.996489 81.863 86.989)" fill="#FFBE46" fill-opacity="0.4"/>
<rect width="4.93309" height="5.13385" rx="2.46654" transform="matrix(0.995876 -0.0907295 0.0837206 0.996489 91.726 86.989)" fill="#FFBE46" fill-opacity="0.4"/>
<rect width="4.93309" height="5.13385" rx="2.46654" transform="matrix(0.995876 -0.0907295 0.0837206 0.996489 101.589 86.989)" fill="#FFBE46" fill-opacity="0.4"/>
<rect width="4.93309" height="5.13385" rx="2.46654" transform="matrix(0.995876 -0.0907295 0.0837206 0.996489 111.452 86.989)" fill="#FFBE46" fill-opacity="0.4"/>
<rect width="4.93309" height="5.13385" rx="2.46654" transform="matrix(0.995876 -0.0907295 0.0837206 0.996489 121.315 86.989)" fill="#FFBE46" fill-opacity="0.4"/>
<rect width="4.93309" height="5.13385" rx="2.46654" transform="matrix(0.995876 -0.0907295 0.0837206 0.996489 131.178 86.989)" fill="#FFBE46" fill-opacity="0.4"/>
<rect width="4.93309" height="5.13385" rx="2.46654" transform="matrix(0.995876 -0.0907295 0.0837206 0.996489 141.041 86.989)" fill="#FFBE46" fill-opacity="0.4"/>
<rect width="4.93309" height="5.13385" rx="2.46654" transform="matrix(0.995876 -0.0907295 0.0837206 0.996489 150.904 86.989)" fill="#FFBE46" fill-opacity="0.4"/>
<rect width="4.93309" height="5.13385" rx="2.46654" transform="matrix(0.995876 -0.0907295 0.0837206 0.996489 160.767 86.989)" fill="#FFBE46" fill-opacity="0.4"/>
<rect width="4.93309" height="5.13385" rx="2.46654" transform="matrix(0.995876 -0.0907295 0.0837206 0.996489 170.63 86.989)" fill="#FFBE46" fill-opacity="0.4"/>
<rect width="4.93309" height="5.13385" rx="2.46654" transform="matrix(0.995876 -0.0907295 0.0837206 0.996489 180.493 86.989)" fill="#FFBE46" fill-opacity="0.4"/>
<rect width="4.93309" height="5.13385" rx="2.46654" transform="matrix(0.995876 -0.0907295 0.0837206 0.996489 190.356 86.989)" fill="#FFBE46" fill-opacity="0.4"/>
<rect width="4.93309" height="5.13385" rx="2.46654" transform="matrix(0.995876 -0.0907295 0.0837206 0.996489 200.219 86.989)" fill="#FFBE46" fill-opacity="0.4"/>
<rect width="4.93309" height="5.13385" rx="2.46654" transform="matrix(0.995876 -0.0907295 0.0837206 0.996489 210.082 86.989)" fill="#FFBE46" fill-opacity="0.4"/>
<rect width="4.93309" height="5.13385" rx="2.46654" transform="matrix(0.995876 -0.0907295 0.0837206 0.996489 219.945 86.989)" fill="#FFBE46" fill-opacity="0.4"/>
<rect width="4.93309" height="5.13385" rx="2.46654" transform="matrix(0.995876 -0.0907295 0.0837206 0.996489 229.808 86.989)" fill="#FFBE46" fill-opacity="0.4"/>
<rect width="4.93309" height="5.13385" rx="2.46654" transform="matrix(0.995876 -0.0907295 0.0837206 0.996489 239.671 86.989)" fill="#FFBE46" fill-opacity="0.4"/>
<rect width="4.93309" height="5.13385" rx="2.46654" transform="matrix(0.995876 -0.0907295 0.0837206 0.996489 249.534 86.989)" fill="#FFBE46" fill-opacity="0.4"/>
<rect width="4.93309" height="5.13385" rx="2.46654" transform="matrix(0.995876 -0.0907295 0.0837206 0.996489 259.397 86.989)" fill="#FFBE46" fill-opacity="0.4"/>
<rect width="4.93309" height="5.13385" rx="2.46654" transform="matrix(0.995876 -0.0907295 0.0837206 0.996489 269.26 86.989)" fill="#FFBE46" fill-opacity="0.4"/>
<rect width="4.93309" height="5.13385" rx="2.46654" transform="matrix(0.995876 -0.0907295 0.0837206 0.996489 279.123 86.989)" fill="#FFBE46" fill-opacity="0.4"/>
<rect width="4.93309" height="5.13385" rx="2.46654" transform="matrix(0.995876 -0.0907295 0.0837206 0.996489 288.986 86.989)" fill="#FFBE46" fill-opacity="0.4"/>
<rect width="4.93309" height="5.13385" rx="2.46654" transform="matrix(0.995876 -0.0907295 0.0837206 0.996489 298.849 86.989)" fill="#FFBE46" fill-opacity="0.4"/>
<rect width="4.93309" height="5.13385" rx="2.46654" transform="matrix(0.995876 -0.0907295 0.0837206 0.996489 308.712 86.989)" fill="#FFBE46" fill-opacity="0.4"/>
<rect width="4.93309" height="5.13385" rx="2.46654" transform="matrix(0.995876 -0.0907295 0.0837206 0.996489 318.575 86.989)" fill="#FFBE46" fill-opacity="0.4"/>
<rect width="4.93309" height="5.13385" rx="2.46654" transform="matrix(0.995876 -0.0907295 0.0837206 0.996489 328.438 86.989)" fill="#FFBE46" fill-opacity="0.4"/>
<rect width="4.93309" height="5.13385" rx="2.46654" transform="matrix(0.995876 -0.0907295 0.0837206 0.996489 338.301 86.989)" fill="#FFBE46" fill-opacity="0.4"/>
<rect width="4.93309" height="5.13385" rx="2.46654" transform="matrix(0.995876 -0.0907295 0.0837206 0.996489 348.164 86.989)" fill="#FFBE46" fill-opacity="0.4"/>
<rect width="4.93309" height="5.13385" rx="2.46654" transform="matrix(0.995876 -0.0907295 0.0837206 0.996489 358.027 86.989)" fill="#FFBE46" fill-opacity="0.4"/>
<rect width="4.93309" height="5.13385" rx="2.46654" transform="matrix(0.995876 -0.0907295 0.0837206 0.996489 367.89 86.989)" fill="#FFBE46" fill-opacity="0.4"/>
<rect width="4.93309" height="5.13385" rx="2.46654" transform="matrix(0.995876 -0.0907295 0.0837206 0.996489 377.753 86.989)" fill="#FFBE46" fill-opacity="0.4"/>
<rect width="4.93309" height="5.13385" rx="2.46654" transform="matrix(0.995876 -0.0907295 0.0837206 0.996489 387.616 86.989)" fill="#FFBE46" fill-opacity="0.4"/>
<rect width="4.93309" height="5.13385" rx="2.46654" transform="matrix(0.995876 -0.0907295 0.0837206 0.996489 397.479 86.989)" fill="#FFBE46" fill-opacity="0.4"/>
<rect width="4.93309" height="5.13385" rx="2.46654" transform="matrix(0.995876 -0.0907295 0.0837206 0.996489 407.342 86.989)" fill="#FFBE46" fill-opacity="0.4"/>
<rect width="4.93309" height="5.13385" rx="2.46654" transform="matrix(0.995876 -0.0907295 0.0837206 0.996489 417.205 86.989)" fill="#FFBE46" fill-opacity="0.4"/>
<rect width="4.93309" height="5.13385" rx="2.46654" transform="matrix(0.995876 -0.0907295 0.0837206 0.996489 427.068 86.989)" fill="#FFBE46" fill-opacity="0.4"/>
<rect width="4.93309" height="5.13385" rx="2.46654" transform="matrix(0.995876 -0.0907295 0.0837206 0.996489 436.931 86.989)" fill="#FFBE46" fill-opacity="0.4"/>
<rect width="4.93309" height="5.13385" rx="2.46654" transform="matrix(0.995876 -0.0907295 0.0837206 0.996489 446.794 86.989)" fill="#FFBE46" fill-opacity="0.4"/>
<rect width="4.93309" height="5.13385" rx="2.46654" transform="matrix(0.995876 -0.0907295 0.0837206 0.996489 456.657 86.989)" fill="#FFBE46" fill-opacity="0.4"/>
<rect width="4.93308" height="5.13384" rx="2.46654" transform="matrix(0.995897 -0.0904982 0.0839349 0.996471 72 97.2598)" fill="#FFBE46" fill-opacity="0.5"/>
<rect width="4.93309" height="5.13385" rx="2.46654" transform="matrix(0.995876 -0.0907295 0.0837206 0.996489 81.863 97.2598)" fill="#FFBE46" fill-opacity="0.5"/>
<rect width="4.93309" height="5.13385" rx="2.46654" transform="matrix(0.995876 -0.0907295 0.0837206 0.996489 91.726 97.2598)" fill="#FFBE46" fill-opacity="0.5"/>
<rect width="4.93309" height="5.13385" rx="2.46654" transform="matrix(0.995876 -0.0907295 0.0837206 0.996489 101.589 97.2598)" fill="#FFBE46" fill-opacity="0.5"/>
<rect width="4.93309" height="5.13385" rx="2.46654" transform="matrix(0.995876 -0.0907295 0.0837206 0.996489 111.452 97.2598)" fill="#FFBE46" fill-opacity="0.5"/>
<rect width="4.93309" height="5.13385" rx="2.46654" transform="matrix(0.995876 -0.0907295 0.0837206 0.996489 121.315 97.2598)" fill="#FFBE46" fill-opacity="0.5"/>
<rect width="4.93309" height="5.13385" rx="2.46654" transform="matrix(0.995876 -0.0907295 0.0837206 0.996489 131.178 97.2598)" fill="#FFBE46" fill-opacity="0.5"/>
<rect width="4.93309" height="5.13385" rx="2.46654" transform="matrix(0.995876 -0.0907295 0.0837206 0.996489 141.041 97.2598)" fill="#FFBE46" fill-opacity="0.5"/>
<rect width="4.93309" height="5.13385" rx="2.46654" transform="matrix(0.995876 -0.0907295 0.0837206 0.996489 150.904 97.2598)" fill="#FFBE46" fill-opacity="0.5"/>
<rect width="4.93309" height="5.13385" rx="2.46654" transform="matrix(0.995876 -0.0907295 0.0837206 0.996489 160.767 97.2598)" fill="#FFBE46" fill-opacity="0.5"/>
<rect width="4.93309" height="5.13385" rx="2.46654" transform="matrix(0.995876 -0.0907295 0.0837206 0.996489 170.63 97.2598)" fill="#FFBE46" fill-opacity="0.5"/>
<rect width="4.93309" height="5.13385" rx="2.46654" transform="matrix(0.995876 -0.0907295 0.0837206 0.996489 180.493 97.2598)" fill="#FFBE46" fill-opacity="0.5"/>
<rect width="4.93309" height="5.13385" rx="2.46654" transform="matrix(0.995876 -0.0907295 0.0837206 0.996489 190.356 97.2598)" fill="#FFBE46" fill-opacity="0.5"/>
<rect width="4.93309" height="5.13385" rx="2.46654" transform="matrix(0.995876 -0.0907295 0.0837206 0.996489 200.219 97.2598)" fill="#FFBE46" fill-opacity="0.5"/>
<rect width="4.93309" height="5.13385" rx="2.46654" transform="matrix(0.995876 -0.0907295 0.0837206 0.996489 210.082 97.2598)" fill="#FFBE46" fill-opacity="0.5"/>
<rect width="4.93309" height="5.13385" rx="2.46654" transform="matrix(0.995876 -0.0907295 0.0837206 0.996489 219.945 97.2598)" fill="#FFBE46" fill-opacity="0.5"/>
<rect width="4.93309" height="5.13385" rx="2.46654" transform="matrix(0.995876 -0.0907295 0.0837206 0.996489 229.808 97.2598)" fill="#FFBE46" fill-opacity="0.5"/>
<rect width="4.93309" height="5.13385" rx="2.46654" transform="matrix(0.995876 -0.0907295 0.0837206 0.996489 239.671 97.2598)" fill="#FFBE46" fill-opacity="0.5"/>
<rect width="4.93309" height="5.13385" rx="2.46654" transform="matrix(0.995876 -0.0907295 0.0837206 0.996489 249.534 97.2598)" fill="#FFBE46" fill-opacity="0.5"/>
<rect width="4.93309" height="5.13385" rx="2.46654" transform="matrix(0.995876 -0.0907295 0.0837206 0.996489 259.397 97.2598)" fill="#FFBE46" fill-opacity="0.5"/>
<rect width="4.93309" height="5.13385" rx="2.46654" transform="matrix(0.995876 -0.0907295 0.0837206 0.996489 269.26 97.2598)" fill="#FFBE46" fill-opacity="0.5"/>
<rect width="4.93309" height="5.13385" rx="2.46654" transform="matrix(0.995876 -0.0907295 0.0837206 0.996489 279.123 97.2598)" fill="#FFBE46" fill-opacity="0.5"/>
<rect width="4.93309" height="5.13385" rx="2.46654" transform="matrix(0.995876 -0.0907295 0.0837206 0.996489 288.986 97.2598)" fill="#FFBE46" fill-opacity="0.5"/>
<rect width="4.93309" height="5.13385" rx="2.46654" transform="matrix(0.995876 -0.0907295 0.0837206 0.996489 298.849 97.2598)" fill="#FFBE46" fill-opacity="0.5"/>
<rect width="4.93309" height="5.13385" rx="2.46654" transform="matrix(0.995876 -0.0907295 0.0837206 0.996489 308.712 97.2598)" fill="#FFBE46" fill-opacity="0.5"/>
<rect width="4.93309" height="5.13385" rx="2.46654" transform="matrix(0.995876 -0.0907295 0.0837206 0.996489 318.575 97.2598)" fill="#FFBE46" fill-opacity="0.5"/>
<rect width="4.93309" height="5.13385" rx="2.46654" transform="matrix(0.995876 -0.0907295 0.0837206 0.996489 328.438 97.2598)" fill="#FFBE46" fill-opacity="0.5"/>
<rect width="4.93309" height="5.13385" rx="2.46654" transform="matrix(0.995876 -0.0907295 0.0837206 0.996489 338.301 97.2598)" fill="#FFBE46" fill-opacity="0.5"/>
<rect width="4.93309" height="5.13385" rx="2.46654" transform="matrix(0.995876 -0.0907295 0.0837206 0.996489 348.164 97.2598)" fill="#FFBE46" fill-opacity="0.5"/>
<rect width="4.93309" height="5.13385" rx="2.46654" transform="matrix(0.995876 -0.0907295 0.0837206 0.996489 358.027 97.2598)" fill="#FFBE46" fill-opacity="0.5"/>
<rect width="4.93309" height="5.13385" rx="2.46654" transform="matrix(0.995876 -0.0907295 0.0837206 0.996489 367.89 97.2598)" fill="#FFBE46" fill-opacity="0.5"/>
<rect width="4.93309" height="5.13385" rx="2.46654" transform="matrix(0.995876 -0.0907295 0.0837206 0.996489 377.753 97.2598)" fill="#FFBE46" fill-opacity="0.5"/>
<rect width="4.93309" height="5.13385" rx="2.46654" transform="matrix(0.995876 -0.0907295 0.0837206 0.996489 387.616 97.2598)" fill="#FFBE46" fill-opacity="0.5"/>
<rect width="4.93309" height="5.13385" rx="2.46654" transform="matrix(0.995876 -0.0907295 0.0837206 0.996489 397.479 97.2598)" fill="#FFBE46" fill-opacity="0.5"/>
<rect width="4.93309" height="5.13385" rx="2.46654" transform="matrix(0.995876 -0.0907295 0.0837206 0.996489 407.342 97.2598)" fill="#FFBE46" fill-opacity="0.5"/>
<rect width="4.93309" height="5.13385" rx="2.46654" transform="matrix(0.995876 -0.0907295 0.0837206 0.996489 417.205 97.2598)" fill="#FFBE46" fill-opacity="0.5"/>
<rect width="4.93309" height="5.13385" rx="2.46654" transform="matrix(0.995876 -0.0907295 0.0837206 0.996489 427.068 97.2598)" fill="#FFBE46" fill-opacity="0.5"/>
<rect width="4.93309" height="5.13385" rx="2.46654" transform="matrix(0.995876 -0.0907295 0.0837206 0.996489 436.931 97.2598)" fill="#FFBE46" fill-opacity="0.5"/>
<rect width="4.93309" height="5.13385" rx="2.46654" transform="matrix(0.995876 -0.0907295 0.0837206 0.996489 446.794 97.2598)" fill="#FFBE46" fill-opacity="0.5"/>
<rect width="4.93309" height="5.13385" rx="2.46654" transform="matrix(0.995876 -0.0907295 0.0837206 0.996489 456.657 97.2598)" fill="#FFBE46" fill-opacity="0.5"/>
<rect width="4.93308" height="5.13384" rx="2.46654" transform="matrix(0.995897 -0.0904982 0.0839349 0.996471 72 107.531)" fill="#FFBE46" fill-opacity="0.6"/>
<rect width="4.93309" height="5.13385" rx="2.46654" transform="matrix(0.995876 -0.0907295 0.0837206 0.996489 81.863 107.531)" fill="#FFBE46" fill-opacity="0.6"/>
<rect width="4.93309" height="5.13385" rx="2.46654" transform="matrix(0.995876 -0.0907295 0.0837206 0.996489 91.726 107.531)" fill="#FFBE46" fill-opacity="0.6"/>
<rect width="4.93309" height="5.13385" rx="2.46654" transform="matrix(0.995876 -0.0907295 0.0837206 0.996489 101.589 107.531)" fill="#FFBE46" fill-opacity="0.6"/>
<rect width="4.93309" height="5.13385" rx="2.46654" transform="matrix(0.995876 -0.0907295 0.0837206 0.996489 111.452 107.531)" fill="#FFBE46" fill-opacity="0.6"/>
<rect width="4.93309" height="5.13385" rx="2.46654" transform="matrix(0.995876 -0.0907295 0.0837206 0.996489 121.315 107.531)" fill="#FFBE46" fill-opacity="0.6"/>
<rect width="4.93309" height="5.13385" rx="2.46654" transform="matrix(0.995876 -0.0907295 0.0837206 0.996489 131.178 107.531)" fill="#FFBE46" fill-opacity="0.6"/>
<rect width="4.93309" height="5.13385" rx="2.46654" transform="matrix(0.995876 -0.0907295 0.0837206 0.996489 141.041 107.531)" fill="#FFBE46" fill-opacity="0.6"/>
<rect width="4.93309" height="5.13385" rx="2.46654" transform="matrix(0.995876 -0.0907295 0.0837206 0.996489 150.904 107.531)" fill="#FFBE46" fill-opacity="0.6"/>
<rect width="4.93309" height="5.13385" rx="2.46654" transform="matrix(0.995876 -0.0907295 0.0837206 0.996489 160.767 107.531)" fill="#FFBE46" fill-opacity="0.6"/>
<rect width="4.93309" height="5.13385" rx="2.46654" transform="matrix(0.995876 -0.0907295 0.0837206 0.996489 170.63 107.531)" fill="#FFBE46" fill-opacity="0.6"/>
<rect width="4.93309" height="5.13385" rx="2.46654" transform="matrix(0.995876 -0.0907295 0.0837206 0.996489 180.493 107.531)" fill="#FFBE46" fill-opacity="0.6"/>
<rect width="4.93309" height="5.13385" rx="2.46654" transform="matrix(0.995876 -0.0907295 0.0837206 0.996489 190.356 107.531)" fill="#FFBE46" fill-opacity="0.6"/>
<rect width="4.93309" height="5.13385" rx="2.46654" transform="matrix(0.995876 -0.0907295 0.0837206 0.996489 200.219 107.531)" fill="#FFBE46" fill-opacity="0.6"/>
<rect width="4.93309" height="5.13385" rx="2.46654" transform="matrix(0.995876 -0.0907295 0.0837206 0.996489 210.082 107.531)" fill="#FFBE46" fill-opacity="0.6"/>
<rect width="4.93309" height="5.13385" rx="2.46654" transform="matrix(0.995876 -0.0907295 0.0837206 0.996489 219.945 107.531)" fill="#FFBE46" fill-opacity="0.6"/>
<rect width="4.93309" height="5.13385" rx="2.46654" transform="matrix(0.995876 -0.0907295 0.0837206 0.996489 229.808 107.531)" fill="#FFBE46" fill-opacity="0.6"/>
<rect width="4.93309" height="5.13385" rx="2.46654" transform="matrix(0.995876 -0.0907295 0.0837206 0.996489 239.671 107.531)" fill="#FFBE46" fill-opacity="0.6"/>
<rect width="4.93309" height="5.13385" rx="2.46654" transform="matrix(0.995876 -0.0907295 0.0837206 0.996489 249.534 107.531)" fill="#FFBE46" fill-opacity="0.6"/>
<rect width="4.93309" height="5.13385" rx="2.46654" transform="matrix(0.995876 -0.0907295 0.0837206 0.996489 259.397 107.531)" fill="#FFBE46" fill-opacity="0.6"/>
<rect width="4.93309" height="5.13385" rx="2.46654" transform="matrix(0.995876 -0.0907295 0.0837206 0.996489 269.26 107.531)" fill="#FFBE46" fill-opacity="0.6"/>
<rect width="4.93309" height="5.13385" rx="2.46654" transform="matrix(0.995876 -0.0907295 0.0837206 0.996489 279.123 107.531)" fill="#FFBE46" fill-opacity="0.6"/>
<rect width="4.93309" height="5.13385" rx="2.46654" transform="matrix(0.995876 -0.0907295 0.0837206 0.996489 288.986 107.531)" fill="#FFBE46" fill-opacity="0.6"/>
<rect width="4.93309" height="5.13385" rx="2.46654" transform="matrix(0.995876 -0.0907295 0.0837206 0.996489 298.849 107.531)" fill="#FFBE46" fill-opacity="0.6"/>
<rect width="4.93309" height="5.13385" rx="2.46654" transform="matrix(0.995876 -0.0907295 0.0837206 0.996489 308.712 107.531)" fill="#FFBE46" fill-opacity="0.6"/>
<rect width="4.93309" height="5.13385" rx="2.46654" transform="matrix(0.995876 -0.0907295 0.0837206 0.996489 318.575 107.531)" fill="#FFBE46" fill-opacity="0.6"/>
<rect width="4.93309" height="5.13385" rx="2.46654" transform="matrix(0.995876 -0.0907295 0.0837206 0.996489 328.438 107.531)" fill="#FFBE46" fill-opacity="0.6"/>
<rect width="4.93309" height="5.13385" rx="2.46654" transform="matrix(0.995876 -0.0907295 0.0837206 0.996489 338.301 107.531)" fill="#FFBE46" fill-opacity="0.6"/>
<rect width="4.93309" height="5.13385" rx="2.46654" transform="matrix(0.995876 -0.0907295 0.0837206 0.996489 348.164 107.531)" fill="#FFBE46" fill-opacity="0.6"/>
<rect width="4.93309" height="5.13385" rx="2.46654" transform="matrix(0.995876 -0.0907295 0.0837206 0.996489 358.027 107.531)" fill="#FFBE46" fill-opacity="0.6"/>
<rect width="4.93309" height="5.13385" rx="2.46654" transform="matrix(0.995876 -0.0907295 0.0837206 0.996489 367.89 107.531)" fill="#FFBE46" fill-opacity="0.6"/>
<rect width="4.93309" height="5.13385" rx="2.46654" transform="matrix(0.995876 -0.0907295 0.0837206 0.996489 377.753 107.531)" fill="#FFBE46" fill-opacity="0.6"/>
<rect width="4.93309" height="5.13385" rx="2.46654" transform="matrix(0.995876 -0.0907295 0.0837206 0.996489 387.616 107.531)" fill="#FFBE46" fill-opacity="0.6"/>
<rect width="4.93309" height="5.13385" rx="2.46654" transform="matrix(0.995876 -0.0907295 0.0837206 0.996489 397.479 107.531)" fill="#FFBE46" fill-opacity="0.6"/>
<rect width="4.93309" height="5.13385" rx="2.46654" transform="matrix(0.995876 -0.0907295 0.0837206 0.996489 407.342 107.531)" fill="#FFBE46" fill-opacity="0.6"/>
<rect width="4.93309" height="5.13385" rx="2.46654" transform="matrix(0.995876 -0.0907295 0.0837206 0.996489 417.205 107.531)" fill="#FFBE46" fill-opacity="0.6"/>
<rect width="4.93309" height="5.13385" rx="2.46654" transform="matrix(0.995876 -0.0907295 0.0837206 0.996489 427.068 107.531)" fill="#FFBE46" fill-opacity="0.6"/>
<rect width="4.93309" height="5.13385" rx="2.46654" transform="matrix(0.995876 -0.0907295 0.0837206 0.996489 436.931 107.531)" fill="#FFBE46" fill-opacity="0.6"/>
<rect width="4.93309" height="5.13385" rx="2.46654" transform="matrix(0.995876 -0.0907295 0.0837206 0.996489 446.794 107.531)" fill="#FFBE46" fill-opacity="0.6"/>
<rect width="4.93309" height="5.13385" rx="2.46654" transform="matrix(0.995876 -0.0907295 0.0837206 0.996489 456.657 107.531)" fill="#FFBE46" fill-opacity="0.6"/>
<rect width="4.93308" height="5.13384" rx="2.46654" transform="matrix(0.995897 -0.0904982 0.0839349 0.996471 72 117.801)" fill="#FFBE46" fill-opacity="0.7"/>
<rect width="4.93309" height="5.13385" rx="2.46654" transform="matrix(0.995876 -0.0907295 0.0837206 0.996489 81.863 117.801)" fill="#FFBE46" fill-opacity="0.7"/>
<rect width="4.93309" height="5.13385" rx="2.46654" transform="matrix(0.995876 -0.0907295 0.0837206 0.996489 91.726 117.801)" fill="#FFBE46" fill-opacity="0.7"/>
<rect width="4.93309" height="5.13385" rx="2.46654" transform="matrix(0.995876 -0.0907295 0.0837206 0.996489 101.589 117.801)" fill="#FFBE46" fill-opacity="0.7"/>
<rect width="4.93309" height="5.13385" rx="2.46654" transform="matrix(0.995876 -0.0907295 0.0837206 0.996489 111.452 117.801)" fill="#FFBE46" fill-opacity="0.7"/>
<rect width="4.93309" height="5.13385" rx="2.46654" transform="matrix(0.995876 -0.0907295 0.0837206 0.996489 121.315 117.801)" fill="#FFBE46" fill-opacity="0.7"/>
<rect width="4.93309" height="5.13385" rx="2.46654" transform="matrix(0.995876 -0.0907295 0.0837206 0.996489 131.178 117.801)" fill="#FFBE46" fill-opacity="0.7"/>
<rect width="4.93309" height="5.13385" rx="2.46654" transform="matrix(0.995876 -0.0907295 0.0837206 0.996489 141.041 117.801)" fill="#FFBE46" fill-opacity="0.7"/>
<rect width="4.93309" height="5.13385" rx="2.46654" transform="matrix(0.995876 -0.0907295 0.0837206 0.996489 150.904 117.801)" fill="#FFBE46" fill-opacity="0.7"/>
<rect width="4.93309" height="5.13385" rx="2.46654" transform="matrix(0.995876 -0.0907295 0.0837206 0.996489 160.767 117.801)" fill="#FFBE46" fill-opacity="0.7"/>
<rect width="4.93309" height="5.13385" rx="2.46654" transform="matrix(0.995876 -0.0907295 0.0837206 0.996489 170.63 117.801)" fill="#FFBE46" fill-opacity="0.7"/>
<rect width="4.93309" height="5.13385" rx="2.46654" transform="matrix(0.995876 -0.0907295 0.0837206 0.996489 180.493 117.801)" fill="#FFBE46" fill-opacity="0.7"/>
<rect width="4.93309" height="5.13385" rx="2.46654" transform="matrix(0.995876 -0.0907295 0.0837206 0.996489 190.356 117.801)" fill="#FFBE46" fill-opacity="0.7"/>
<rect width="4.93309" height="5.13385" rx="2.46654" transform="matrix(0.995876 -0.0907295 0.0837206 0.996489 200.219 117.801)" fill="#FFBE46" fill-opacity="0.7"/>
<rect width="4.93309" height="5.13385" rx="2.46654" transform="matrix(0.995876 -0.0907295 0.0837206 0.996489 210.082 117.801)" fill="#FFBE46" fill-opacity="0.7"/>
<rect width="4.93309" height="5.13385" rx="2.46654" transform="matrix(0.995876 -0.0907295 0.0837206 0.996489 219.945 117.801)" fill="#FFBE46" fill-opacity="0.7"/>
<rect width="4.93309" height="5.13385" rx="2.46654" transform="matrix(0.995876 -0.0907295 0.0837206 0.996489 229.808 117.801)" fill="#FFBE46" fill-opacity="0.7"/>
<rect width="4.93309" height="5.13385" rx="2.46654" transform="matrix(0.995876 -0.0907295 0.0837206 0.996489 239.671 117.801)" fill="#FFBE46" fill-opacity="0.7"/>
<rect width="4.93309" height="5.13385" rx="2.46654" transform="matrix(0.995876 -0.0907295 0.0837206 0.996489 249.534 117.801)" fill="#FFBE46" fill-opacity="0.7"/>
<rect width="4.93309" height="5.13385" rx="2.46654" transform="matrix(0.995876 -0.0907295 0.0837206 0.996489 259.397 117.801)" fill="#FFBE46" fill-opacity="0.7"/>
<rect width="4.93309" height="5.13385" rx="2.46654" transform="matrix(0.995876 -0.0907295 0.0837206 0.996489 269.26 117.801)" fill="#FFBE46" fill-opacity="0.7"/>
<rect width="4.93309" height="5.13385" rx="2.46654" transform="matrix(0.995876 -0.0907295 0.0837206 0.996489 279.123 117.801)" fill="#FFBE46" fill-opacity="0.7"/>
<rect width="4.93309" height="5.13385" rx="2.46654" transform="matrix(0.995876 -0.0907295 0.0837206 0.996489 288.986 117.801)" fill="#FFBE46" fill-opacity="0.7"/>
<rect width="4.93309" height="5.13385" rx="2.46654" transform="matrix(0.995876 -0.0907295 0.0837206 0.996489 298.849 117.801)" fill="#FFBE46" fill-opacity="0.7"/>
<rect width="4.93309" height="5.13385" rx="2.46654" transform="matrix(0.995876 -0.0907295 0.0837206 0.996489 308.712 117.801)" fill="#FFBE46" fill-opacity="0.7"/>
<rect width="4.93309" height="5.13385" rx="2.46654" transform="matrix(0.995876 -0.0907295 0.0837206 0.996489 318.575 117.801)" fill="#FFBE46" fill-opacity="0.7"/>
<rect width="4.93309" height="5.13385" rx="2.46654" transform="matrix(0.995876 -0.0907295 0.0837206 0.996489 328.438 117.801)" fill="#FFBE46" fill-opacity="0.7"/>
<rect width="4.93309" height="5.13385" rx="2.46654" transform="matrix(0.995876 -0.0907295 0.0837206 0.996489 338.301 117.801)" fill="#FFBE46" fill-opacity="0.7"/>
<rect width="4.93309" height="5.13385" rx="2.46654" transform="matrix(0.995876 -0.0907295 0.0837206 0.996489 348.164 117.801)" fill="#FFBE46" fill-opacity="0.7"/>
<rect width="4.93309" height="5.13385" rx="2.46654" transform="matrix(0.995876 -0.0907295 0.0837206 0.996489 358.027 117.801)" fill="#FFBE46" fill-opacity="0.7"/>
<rect width="4.93309" height="5.13385" rx="2.46654" transform="matrix(0.995876 -0.0907295 0.0837206 0.996489 367.89 117.801)" fill="#FFBE46" fill-opacity="0.7"/>
<rect width="4.93309" height="5.13385" rx="2.46654" transform="matrix(0.995876 -0.0907295 0.0837206 0.996489 377.753 117.801)" fill="#FFBE46" fill-opacity="0.7"/>
<rect width="4.93309" height="5.13385" rx="2.46654" transform="matrix(0.995876 -0.0907295 0.0837206 0.996489 387.616 117.801)" fill="#FFBE46" fill-opacity="0.7"/>
<rect width="4.93309" height="5.13385" rx="2.46654" transform="matrix(0.995876 -0.0907295 0.0837206 0.996489 397.479 117.801)" fill="#FFBE46" fill-opacity="0.7"/>
<rect width="4.93309" height="5.13385" rx="2.46654" transform="matrix(0.995876 -0.0907295 0.0837206 0.996489 407.342 117.801)" fill="#FFBE46" fill-opacity="0.7"/>
<rect width="4.93309" height="5.13385" rx="2.46654" transform="matrix(0.995876 -0.0907295 0.0837206 0.996489 417.205 117.801)" fill="#FFBE46" fill-opacity="0.7"/>
<rect width="4.93309" height="5.13385" rx="2.46654" transform="matrix(0.995876 -0.0907295 0.0837206 0.996489 427.068 117.801)" fill="#FFBE46" fill-opacity="0.7"/>
<rect width="4.93309" height="5.13385" rx="2.46654" transform="matrix(0.995876 -0.0907295 0.0837206 0.996489 436.931 117.801)" fill="#FFBE46" fill-opacity="0.7"/>
<rect width="4.93309" height="5.13385" rx="2.46654" transform="matrix(0.995876 -0.0907295 0.0837206 0.996489 446.794 117.801)" fill="#FFBE46" fill-opacity="0.7"/>
<rect width="4.93309" height="5.13385" rx="2.46654" transform="matrix(0.995876 -0.0907295 0.0837206 0.996489 456.657 117.801)" fill="#FFBE46" fill-opacity="0.7"/>
<rect width="4.93308" height="5.13384" rx="2.46654" transform="matrix(0.995897 -0.0904982 0.0839349 0.996471 72 128.072)" fill="#FFBE46" fill-opacity="0.8"/>
<rect width="4.93309" height="5.13385" rx="2.46654" transform="matrix(0.995876 -0.0907295 0.0837206 0.996489 81.863 128.072)" fill="#FFBE46" fill-opacity="0.8"/>
<rect width="4.93309" height="5.13385" rx="2.46654" transform="matrix(0.995876 -0.0907295 0.0837206 0.996489 91.726 128.072)" fill="#FFBE46" fill-opacity="0.8"/>
<rect width="4.93309" height="5.13385" rx="2.46654" transform="matrix(0.995876 -0.0907295 0.0837206 0.996489 101.589 128.072)" fill="#FFBE46" fill-opacity="0.8"/>
<rect width="4.93309" height="5.13385" rx="2.46654" transform="matrix(0.995876 -0.0907295 0.0837206 0.996489 111.452 128.072)" fill="#FFBE46" fill-opacity="0.8"/>
<rect width="4.93309" height="5.13385" rx="2.46654" transform="matrix(0.995876 -0.0907295 0.0837206 0.996489 121.315 128.072)" fill="#FFBE46" fill-opacity="0.8"/>
<rect width="4.93309" height="5.13385" rx="2.46654" transform="matrix(0.995876 -0.0907295 0.0837206 0.996489 131.178 128.072)" fill="#FFBE46" fill-opacity="0.8"/>
<rect width="4.93309" height="5.13385" rx="2.46654" transform="matrix(0.995876 -0.0907295 0.0837206 0.996489 141.041 128.072)" fill="#FFBE46" fill-opacity="0.8"/>
<rect width="4.93309" height="5.13385" rx="2.46654" transform="matrix(0.995876 -0.0907295 0.0837206 0.996489 150.904 128.072)" fill="#FFBE46" fill-opacity="0.8"/>
<rect width="4.93309" height="5.13385" rx="2.46654" transform="matrix(0.995876 -0.0907295 0.0837206 0.996489 160.767 128.072)" fill="#FFBE46" fill-opacity="0.8"/>
<rect width="4.93309" height="5.13385" rx="2.46654" transform="matrix(0.995876 -0.0907295 0.0837206 0.996489 170.63 128.072)" fill="#FFBE46" fill-opacity="0.8"/>
<rect width="4.93309" height="5.13385" rx="2.46654" transform="matrix(0.995876 -0.0907295 0.0837206 0.996489 180.493 128.072)" fill="#FFBE46" fill-opacity="0.8"/>
<rect width="4.93309" height="5.13385" rx="2.46654" transform="matrix(0.995876 -0.0907295 0.0837206 0.996489 190.356 128.072)" fill="#FFBE46" fill-opacity="0.8"/>
<rect width="4.93309" height="5.13385" rx="2.46654" transform="matrix(0.995876 -0.0907295 0.0837206 0.996489 200.219 128.072)" fill="#FFBE46" fill-opacity="0.8"/>
<rect width="4.93309" height="5.13385" rx="2.46654" transform="matrix(0.995876 -0.0907295 0.0837206 0.996489 210.082 128.072)" fill="#FFBE46" fill-opacity="0.8"/>
<rect width="4.93309" height="5.13385" rx="2.46654" transform="matrix(0.995876 -0.0907295 0.0837206 0.996489 219.945 128.072)" fill="#FFBE46" fill-opacity="0.8"/>
<rect width="4.93309" height="5.13385" rx="2.46654" transform="matrix(0.995876 -0.0907295 0.0837206 0.996489 229.808 128.072)" fill="#FFBE46" fill-opacity="0.8"/>
<rect width="4.93309" height="5.13385" rx="2.46654" transform="matrix(0.995876 -0.0907295 0.0837206 0.996489 239.671 128.072)" fill="#FFBE46" fill-opacity="0.8"/>
<rect width="4.93309" height="5.13385" rx="2.46654" transform="matrix(0.995876 -0.0907295 0.0837206 0.996489 249.534 128.072)" fill="#FFBE46" fill-opacity="0.8"/>
<rect width="4.93309" height="5.13385" rx="2.46654" transform="matrix(0.995876 -0.0907295 0.0837206 0.996489 259.397 128.072)" fill="#FFBE46" fill-opacity="0.8"/>
<rect width="4.93309" height="5.13385" rx="2.46654" transform="matrix(0.995876 -0.0907295 0.0837206 0.996489 269.26 128.072)" fill="#FFBE46" fill-opacity="0.8"/>
<rect width="4.93309" height="5.13385" rx="2.46654" transform="matrix(0.995876 -0.0907295 0.0837206 0.996489 279.123 128.072)" fill="#FFBE46" fill-opacity="0.8"/>
<rect width="4.93309" height="5.13385" rx="2.46654" transform="matrix(0.995876 -0.0907295 0.0837206 0.996489 288.986 128.072)" fill="#FFBE46" fill-opacity="0.8"/>
<rect width="4.93309" height="5.13385" rx="2.46654" transform="matrix(0.995876 -0.0907295 0.0837206 0.996489 298.849 128.072)" fill="#FFBE46" fill-opacity="0.8"/>
<rect width="4.93309" height="5.13385" rx="2.46654" transform="matrix(0.995876 -0.0907295 0.0837206 0.996489 308.712 128.072)" fill="#FFBE46" fill-opacity="0.8"/>
<rect width="4.93309" height="5.13385" rx="2.46654" transform="matrix(0.995876 -0.0907295 0.0837206 0.996489 318.575 128.072)" fill="#FFBE46" fill-opacity="0.8"/>
<rect width="4.93309" height="5.13385" rx="2.46654" transform="matrix(0.995876 -0.0907295 0.0837206 0.996489 328.438 128.072)" fill="#FFBE46" fill-opacity="0.8"/>
<rect width="4.93309" height="5.13385" rx="2.46654" transform="matrix(0.995876 -0.0907295 0.0837206 0.996489 338.301 128.072)" fill="#FFBE46" fill-opacity="0.8"/>
<rect width="4.93309" height="5.13385" rx="2.46654" transform="matrix(0.995876 -0.0907295 0.0837206 0.996489 348.164 128.072)" fill="#FFBE46" fill-opacity="0.8"/>
<rect width="4.93309" height="5.13385" rx="2.46654" transform="matrix(0.995876 -0.0907295 0.0837206 0.996489 358.027 128.072)" fill="#FFBE46" fill-opacity="0.8"/>
<rect width="4.93309" height="5.13385" rx="2.46654" transform="matrix(0.995876 -0.0907295 0.0837206 0.996489 367.89 128.072)" fill="#FFBE46" fill-opacity="0.8"/>
<rect width="4.93309" height="5.13385" rx="2.46654" transform="matrix(0.995876 -0.0907295 0.0837206 0.996489 377.753 128.072)" fill="#FFBE46" fill-opacity="0.8"/>
<rect width="4.93309" height="5.13385" rx="2.46654" transform="matrix(0.995876 -0.0907295 0.0837206 0.996489 387.616 128.072)" fill="#FFBE46" fill-opacity="0.8"/>
<rect width="4.93309" height="5.13385" rx="2.46654" transform="matrix(0.995876 -0.0907295 0.0837206 0.996489 397.479 128.072)" fill="#FFBE46" fill-opacity="0.8"/>
<rect width="4.93309" height="5.13385" rx="2.46654" transform="matrix(0.995876 -0.0907295 0.0837206 0.996489 407.342 128.072)" fill="#FFBE46" fill-opacity="0.8"/>
<rect width="4.93309" height="5.13385" rx="2.46654" transform="matrix(0.995876 -0.0907295 0.0837206 0.996489 417.205 128.072)" fill="#FFBE46" fill-opacity="0.8"/>
<rect width="4.93309" height="5.13385" rx="2.46654" transform="matrix(0.995876 -0.0907295 0.0837206 0.996489 427.068 128.072)" fill="#FFBE46" fill-opacity="0.8"/>
<rect width="4.93309" height="5.13385" rx="2.46654" transform="matrix(0.995876 -0.0907295 0.0837206 0.996489 436.931 128.072)" fill="#FFBE46" fill-opacity="0.8"/>
<rect width="4.93309" height="5.13385" rx="2.46654" transform="matrix(0.995876 -0.0907295 0.0837206 0.996489 446.794 128.072)" fill="#FFBE46" fill-opacity="0.8"/>
<rect width="4.93309" height="5.13385" rx="2.46654" transform="matrix(0.995876 -0.0907295 0.0837206 0.996489 456.657 128.072)" fill="#FFBE46" fill-opacity="0.8"/>
<rect width="4.93308" height="5.13384" rx="2.46654" transform="matrix(0.995897 -0.0904982 0.0839349 0.996471 72 138.343)" fill="#FFBE46"/>
<rect width="4.93309" height="5.13385" rx="2.46654" transform="matrix(0.995876 -0.0907295 0.0837206 0.996489 81.863 138.343)" fill="#FFBE46"/>
<rect width="4.93309" height="5.13385" rx="2.46654" transform="matrix(0.995876 -0.0907295 0.0837206 0.996489 91.726 138.343)" fill="#FFBE46"/>
<rect width="4.93309" height="5.13385" rx="2.46654" transform="matrix(0.995876 -0.0907295 0.0837206 0.996489 101.589 138.343)" fill="#FFBE46"/>
<rect width="4.93309" height="5.13385" rx="2.46654" transform="matrix(0.995876 -0.0907295 0.0837206 0.996489 111.452 138.343)" fill="#FFBE46"/>
<rect width="4.93309" height="5.13385" rx="2.46654" transform="matrix(0.995876 -0.0907295 0.0837206 0.996489 121.315 138.343)" fill="#FFBE46"/>
<rect width="4.93309" height="5.13385" rx="2.46654" transform="matrix(0.995876 -0.0907295 0.0837206 0.996489 131.178 138.343)" fill="#FFBE46"/>
<rect width="4.93309" height="5.13385" rx="2.46654" transform="matrix(0.995876 -0.0907295 0.0837206 0.996489 141.041 138.343)" fill="#FFBE46"/>
<rect width="4.93309" height="5.13385" rx="2.46654" transform="matrix(0.995876 -0.0907295 0.0837206 0.996489 150.904 138.343)" fill="#FFBE46"/>
<rect width="4.93309" height="5.13385" rx="2.46654" transform="matrix(0.995876 -0.0907295 0.0837206 0.996489 160.767 138.343)" fill="#FFBE46"/>
<rect width="4.93309" height="5.13385" rx="2.46654" transform="matrix(0.995876 -0.0907295 0.0837206 0.996489 170.63 138.343)" fill="#FFBE46"/>
<rect width="4.93309" height="5.13385" rx="2.46654" transform="matrix(0.995876 -0.0907295 0.0837206 0.996489 180.493 138.343)" fill="#FFBE46"/>
<rect width="4.93309" height="5.13385" rx="2.46654" transform="matrix(0.995876 -0.0907295 0.0837206 0.996489 190.356 138.343)" fill="#FFBE46"/>
<rect width="4.93309" height="5.13385" rx="2.46654" transform="matrix(0.995876 -0.0907295 0.0837206 0.996489 200.219 138.343)" fill="#FFBE46"/>
<rect width="4.93309" height="5.13385" rx="2.46654" transform="matrix(0.995876 -0.0907295 0.0837206 0.996489 210.082 138.343)" fill="#FFBE46"/>
<rect width="4.93309" height="5.13385" rx="2.46654" transform="matrix(0.995876 -0.0907295 0.0837206 0.996489 219.945 138.343)" fill="#FFBE46"/>
<rect width="4.93309" height="5.13385" rx="2.46654" transform="matrix(0.995876 -0.0907295 0.0837206 0.996489 229.808 138.343)" fill="#FFBE46"/>
<rect width="4.93309" height="5.13385" rx="2.46654" transform="matrix(0.995876 -0.0907295 0.0837206 0.996489 239.671 138.343)" fill="#FFBE46"/>
<rect width="4.93309" height="5.13385" rx="2.46654" transform="matrix(0.995876 -0.0907295 0.0837206 0.996489 249.534 138.343)" fill="#FFBE46"/>
<rect width="4.93309" height="5.13385" rx="2.46654" transform="matrix(0.995876 -0.0907295 0.0837206 0.996489 259.397 138.343)" fill="#FFBE46"/>
<rect width="4.93309" height="5.13385" rx="2.46654" transform="matrix(0.995876 -0.0907295 0.0837206 0.996489 269.26 138.343)" fill="#FFBE46"/>
<rect width="4.93309" height="5.13385" rx="2.46654" transform="matrix(0.995876 -0.0907295 0.0837206 0.996489 279.123 138.343)" fill="#FFBE46"/>
<rect width="4.93309" height="5.13385" rx="2.46654" transform="matrix(0.995876 -0.0907295 0.0837206 0.996489 288.986 138.343)" fill="#FFBE46"/>
<rect width="4.93309" height="5.13385" rx="2.46654" transform="matrix(0.995876 -0.0907295 0.0837206 0.996489 298.849 138.343)" fill="#FFBE46"/>
<rect width="4.93309" height="5.13385" rx="2.46654" transform="matrix(0.995876 -0.0907295 0.0837206 0.996489 308.712 138.343)" fill="#FFBE46"/>
<rect width="4.93309" height="5.13385" rx="2.46654" transform="matrix(0.995876 -0.0907295 0.0837206 0.996489 318.575 138.343)" fill="#FFBE46"/>
<rect width="4.93309" height="5.13385" rx="2.46654" transform="matrix(0.995876 -0.0907295 0.0837206 0.996489 328.438 138.343)" fill="#FFBE46"/>
<rect width="4.93309" height="5.13385" rx="2.46654" transform="matrix(0.995876 -0.0907295 0.0837206 0.996489 338.301 138.343)" fill="#FFBE46"/>
<rect width="4.93309" height="5.13385" rx="2.46654" transform="matrix(0.995876 -0.0907295 0.0837206 0.996489 348.164 138.343)" fill="#FFBE46"/>
<rect width="4.93309" height="5.13385" rx="2.46654" transform="matrix(0.995876 -0.0907295 0.0837206 0.996489 358.027 138.343)" fill="#FFBE46"/>
<rect width="4.93309" height="5.13385" rx="2.46654" transform="matrix(0.995876 -0.0907295 0.0837206 0.996489 367.89 138.343)" fill="#FFBE46"/>
<rect width="4.93309" height="5.13385" rx="2.46654" transform="matrix(0.995876 -0.0907295 0.0837206 0.996489 377.753 138.343)" fill="#FFBE46"/>
<rect width="4.93309" height="5.13385" rx="2.46654" transform="matrix(0.995876 -0.0907295 0.0837206 0.996489 387.616 138.343)" fill="#FFBE46"/>
<rect width="4.93309" height="5.13385" rx="2.46654" transform="matrix(0.995876 -0.0907295 0.0837206 0.996489 397.479 138.343)" fill="#FFBE46"/>
<rect width="4.93309" height="5.13385" rx="2.46654" transform="matrix(0.995876 -0.0907295 0.0837206 0.996489 407.342 138.343)" fill="#FFBE46"/>
<rect width="4.93309" height="5.13385" rx="2.46654" transform="matrix(0.995876 -0.0907295 0.0837206 0.996489 417.205 138.343)" fill="#FFBE46"/>
<rect width="4.93309" height="5.13385" rx="2.46654" transform="matrix(0.995876 -0.0907295 0.0837206 0.996489 427.068 138.343)" fill="#FFBE46"/>
<rect width="4.93309" height="5.13385" rx="2.46654" transform="matrix(0.995876 -0.0907295 0.0837206 0.996489 436.931 138.343)" fill="#FFBE46"/>
<rect width="4.93309" height="5.13385" rx="2.46654" transform="matrix(0.995876 -0.0907295 0.0837206 0.996489 446.794 138.343)" fill="#FFBE46"/>
<rect width="4.93309" height="5.13385" rx="2.46654" transform="matrix(0.995876 -0.0907295 0.0837206 0.996489 456.657 138.343)" fill="#FFBE46"/>
<rect width="4.93308" height="5.13384" rx="2.46654" transform="matrix(0.995897 -0.0904982 0.0839349 0.996471 72 148.613)" fill="#FFBE46"/>
<rect width="4.93309" height="5.13385" rx="2.46654" transform="matrix(0.995876 -0.0907295 0.0837206 0.996489 81.863 148.613)" fill="#FFBE46"/>
<rect width="4.93309" height="5.13385" rx="2.46654" transform="matrix(0.995876 -0.0907295 0.0837206 0.996489 91.726 148.613)" fill="#FFBE46"/>
<rect width="4.93309" height="5.13385" rx="2.46654" transform="matrix(0.995876 -0.0907295 0.0837206 0.996489 101.589 148.613)" fill="#FFBE46"/>
<rect width="4.93309" height="5.13385" rx="2.46654" transform="matrix(0.995876 -0.0907295 0.0837206 0.996489 111.452 148.613)" fill="#FFBE46"/>
<rect width="4.93309" height="5.13385" rx="2.46654" transform="matrix(0.995876 -0.0907295 0.0837206 0.996489 121.315 148.613)" fill="#FFBE46"/>
<rect width="4.93309" height="5.13385" rx="2.46654" transform="matrix(0.995876 -0.0907295 0.0837206 0.996489 131.178 148.613)" fill="#FFBE46"/>
<rect width="4.93309" height="5.13385" rx="2.46654" transform="matrix(0.995876 -0.0907295 0.0837206 0.996489 141.041 148.613)" fill="#FFBE46"/>
<rect width="4.93309" height="5.13385" rx="2.46654" transform="matrix(0.995876 -0.0907295 0.0837206 0.996489 150.904 148.613)" fill="#FFBE46"/>
<rect width="4.93309" height="5.13385" rx="2.46654" transform="matrix(0.995876 -0.0907295 0.0837206 0.996489 160.767 148.613)" fill="#FFBE46"/>
<rect width="4.93309" height="5.13385" rx="2.46654" transform="matrix(0.995876 -0.0907295 0.0837206 0.996489 170.63 148.613)" fill="#FFBE46"/>
<rect width="4.93309" height="5.13385" rx="2.46654" transform="matrix(0.995876 -0.0907295 0.0837206 0.996489 180.493 148.613)" fill="#FFBE46"/>
<rect width="4.93309" height="5.13385" rx="2.46654" transform="matrix(0.995876 -0.0907295 0.0837206 0.996489 190.356 148.613)" fill="#FFBE46"/>
<rect width="4.93309" height="5.13385" rx="2.46654" transform="matrix(0.995876 -0.0907295 0.0837206 0.996489 200.219 148.613)" fill="#FFBE46"/>
<rect width="4.93309" height="5.13385" rx="2.46654" transform="matrix(0.995876 -0.0907295 0.0837206 0.996489 210.082 148.613)" fill="#FFBE46"/>
<rect width="4.93309" height="5.13385" rx="2.46654" transform="matrix(0.995876 -0.0907295 0.0837206 0.996489 219.945 148.613)" fill="#FFBE46"/>
<rect width="4.93309" height="5.13385" rx="2.46654" transform="matrix(0.995876 -0.0907295 0.0837206 0.996489 229.808 148.613)" fill="#FFBE46"/>
<rect width="4.93309" height="5.13385" rx="2.46654" transform="matrix(0.995876 -0.0907295 0.0837206 0.996489 239.671 148.613)" fill="#FFBE46"/>
<rect width="4.93309" height="5.13385" rx="2.46654" transform="matrix(0.995876 -0.0907295 0.0837206 0.996489 249.534 148.613)" fill="#FFBE46"/>
<rect width="4.93309" height="5.13385" rx="2.46654" transform="matrix(0.995876 -0.0907295 0.0837206 0.996489 259.397 148.613)" fill="#FFBE46"/>
<rect width="4.93309" height="5.13385" rx="2.46654" transform="matrix(0.995876 -0.0907295 0.0837206 0.996489 269.26 148.613)" fill="#FFBE46"/>
<rect width="4.93309" height="5.13385" rx="2.46654" transform="matrix(0.995876 -0.0907295 0.0837206 0.996489 279.123 148.613)" fill="#FFBE46"/>
<rect width="4.93309" height="5.13385" rx="2.46654" transform="matrix(0.995876 -0.0907295 0.0837206 0.996489 288.986 148.613)" fill="#FFBE46"/>
<rect width="4.93309" height="5.13385" rx="2.46654" transform="matrix(0.995876 -0.0907295 0.0837206 0.996489 298.849 148.613)" fill="#FFBE46"/>
<rect width="4.93309" height="5.13385" rx="2.46654" transform="matrix(0.995876 -0.0907295 0.0837206 0.996489 308.712 148.613)" fill="#FFBE46"/>
<rect width="4.93309" height="5.13385" rx="2.46654" transform="matrix(0.995876 -0.0907295 0.0837206 0.996489 318.575 148.613)" fill="#FFBE46"/>
<rect width="4.93309" height="5.13385" rx="2.46654" transform="matrix(0.995876 -0.0907295 0.0837206 0.996489 328.438 148.613)" fill="#FFBE46"/>
<rect width="4.93309" height="5.13385" rx="2.46654" transform="matrix(0.995876 -0.0907295 0.0837206 0.996489 338.301 148.613)" fill="#FFBE46"/>
<rect width="4.93309" height="5.13385" rx="2.46654" transform="matrix(0.995876 -0.0907295 0.0837206 0.996489 348.164 148.613)" fill="#FFBE46"/>
<rect width="4.93309" height="5.13385" rx="2.46654" transform="matrix(0.995876 -0.0907295 0.0837206 0.996489 358.027 148.613)" fill="#FFBE46"/>
<rect width="4.93309" height="5.13385" rx="2.46654" transform="matrix(0.995876 -0.0907295 0.0837206 0.996489 367.89 148.613)" fill="#FFBE46"/>
<rect width="4.93309" height="5.13385" rx="2.46654" transform="matrix(0.995876 -0.0907295 0.0837206 0.996489 377.753 148.613)" fill="#FFBE46"/>
<rect width="4.93309" height="5.13385" rx="2.46654" transform="matrix(0.995876 -0.0907295 0.0837206 0.996489 387.616 148.613)" fill="#FFBE46"/>
<rect width="4.93309" height="5.13385" rx="2.46654" transform="matrix(0.995876 -0.0907295 0.0837206 0.996489 397.479 148.613)" fill="#FFBE46"/>
<rect width="4.93309" height="5.13385" rx="2.46654" transform="matrix(0.995876 -0.0907295 0.0837206 0.996489 407.342 148.613)" fill="#FFBE46"/>
<rect width="4.93309" height="5.13385" rx="2.46654" transform="matrix(0.995876 -0.0907295 0.0837206 0.996489 417.205 148.613)" fill="#FFBE46"/>
<rect width="4.93309" height="5.13385" rx="2.46654" transform="matrix(0.995876 -0.0907295 0.0837206 0.996489 427.068 148.613)" fill="#FFBE46"/>
<rect width="4.93309" height="5.13385" rx="2.46654" transform="matrix(0.995876 -0.0907295 0.0837206 0.996489 436.931 148.613)" fill="#FFBE46"/>
<rect width="4.93309" height="5.13385" rx="2.46654" transform="matrix(0.995876 -0.0907295 0.0837206 0.996489 446.794 148.613)" fill="#FFBE46"/>
<rect width="4.93309" height="5.13385" rx="2.46654" transform="matrix(0.995876 -0.0907295 0.0837206 0.996489 456.657 148.613)" fill="#FFBE46"/>
<rect width="4.93308" height="5.13384" rx="2.46654" transform="matrix(0.995897 -0.0904982 0.0839349 0.996471 72 158.884)" fill="#FFBE46"/>
<rect width="4.93309" height="5.13385" rx="2.46654" transform="matrix(0.995876 -0.0907295 0.0837206 0.996489 81.863 158.884)" fill="#FFBE46"/>
<rect width="4.93309" height="5.13385" rx="2.46654" transform="matrix(0.995876 -0.0907295 0.0837206 0.996489 91.726 158.884)" fill="#FFBE46"/>
<rect width="4.93309" height="5.13385" rx="2.46654" transform="matrix(0.995876 -0.0907295 0.0837206 0.996489 101.589 158.884)" fill="#FFBE46"/>
<rect width="4.93309" height="5.13385" rx="2.46654" transform="matrix(0.995876 -0.0907295 0.0837206 0.996489 111.452 158.884)" fill="#FFBE46"/>
<rect width="4.93309" height="5.13385" rx="2.46654" transform="matrix(0.995876 -0.0907295 0.0837206 0.996489 121.315 158.884)" fill="#FFBE46"/>
<rect width="4.93309" height="5.13385" rx="2.46654" transform="matrix(0.995876 -0.0907295 0.0837206 0.996489 131.178 158.884)" fill="#FFBE46"/>
<rect width="4.93309" height="5.13385" rx="2.46654" transform="matrix(0.995876 -0.0907295 0.0837206 0.996489 141.041 158.884)" fill="#FFBE46"/>
<rect width="4.93309" height="5.13385" rx="2.46654" transform="matrix(0.995876 -0.0907295 0.0837206 0.996489 150.904 158.884)" fill="#FFBE46"/>
<rect width="4.93309" height="5.13385" rx="2.46654" transform="matrix(0.995876 -0.0907295 0.0837206 0.996489 160.767 158.884)" fill="#FFBE46"/>
<rect width="4.93309" height="5.13385" rx="2.46654" transform="matrix(0.995876 -0.0907295 0.0837206 0.996489 170.63 158.884)" fill="#FFBE46"/>
<rect width="4.93309" height="5.13385" rx="2.46654" transform="matrix(0.995876 -0.0907295 0.0837206 0.996489 180.493 158.884)" fill="#FFBE46"/>
<rect width="4.93309" height="5.13385" rx="2.46654" transform="matrix(0.995876 -0.0907295 0.0837206 0.996489 190.356 158.884)" fill="#FFBE46"/>
<rect width="4.93309" height="5.13385" rx="2.46654" transform="matrix(0.995876 -0.0907295 0.0837206 0.996489 200.219 158.884)" fill="#FFBE46"/>
<rect width="4.93309" height="5.13385" rx="2.46654" transform="matrix(0.995876 -0.0907295 0.0837206 0.996489 210.082 158.884)" fill="#FFBE46"/>
<rect width="4.93309" height="5.13385" rx="2.46654" transform="matrix(0.995876 -0.0907295 0.0837206 0.996489 219.945 158.884)" fill="#FFBE46"/>
<rect width="4.93309" height="5.13385" rx="2.46654" transform="matrix(0.995876 -0.0907295 0.0837206 0.996489 229.808 158.884)" fill="#FFBE46"/>
<rect width="4.93309" height="5.13385" rx="2.46654" transform="matrix(0.995876 -0.0907295 0.0837206 0.996489 239.671 158.884)" fill="#FFBE46"/>
<rect width="4.93309" height="5.13385" rx="2.46654" transform="matrix(0.995876 -0.0907295 0.0837206 0.996489 249.534 158.884)" fill="#FFBE46"/>
<rect width="4.93309" height="5.13385" rx="2.46654" transform="matrix(0.995876 -0.0907295 0.0837206 0.996489 259.397 158.884)" fill="#FFBE46"/>
<rect width="4.93309" height="5.13385" rx="2.46654" transform="matrix(0.995876 -0.0907295 0.0837206 0.996489 269.26 158.884)" fill="#FFBE46"/>
<rect width="4.93309" height="5.13385" rx="2.46654" transform="matrix(0.995876 -0.0907295 0.0837206 0.996489 279.123 158.884)" fill="#FFBE46"/>
<rect width="4.93309" height="5.13385" rx="2.46654" transform="matrix(0.995876 -0.0907295 0.0837206 0.996489 288.986 158.884)" fill="#FFBE46"/>
<rect width="4.93309" height="5.13385" rx="2.46654" transform="matrix(0.995876 -0.0907295 0.0837206 0.996489 298.849 158.884)" fill="#FFBE46"/>
<rect width="4.93309" height="5.13385" rx="2.46654" transform="matrix(0.995876 -0.0907295 0.0837206 0.996489 308.712 158.884)" fill="#FFBE46"/>
<rect width="4.93309" height="5.13385" rx="2.46654" transform="matrix(0.995876 -0.0907295 0.0837206 0.996489 318.575 158.884)" fill="#FFBE46"/>
<rect width="4.93309" height="5.13385" rx="2.46654" transform="matrix(0.995876 -0.0907295 0.0837206 0.996489 328.438 158.884)" fill="#FFBE46"/>
<rect width="4.93309" height="5.13385" rx="2.46654" transform="matrix(0.995876 -0.0907295 0.0837206 0.996489 338.301 158.884)" fill="#FFBE46"/>
<rect width="4.93309" height="5.13385" rx="2.46654" transform="matrix(0.995876 -0.0907295 0.0837206 0.996489 348.164 158.884)" fill="#FFBE46"/>
<rect width="4.93309" height="5.13385" rx="2.46654" transform="matrix(0.995876 -0.0907295 0.0837206 0.996489 358.027 158.884)" fill="#FFBE46"/>
<rect width="4.93309" height="5.13385" rx="2.46654" transform="matrix(0.995876 -0.0907295 0.0837206 0.996489 367.89 158.884)" fill="#FFBE46"/>
<rect width="4.93309" height="5.13385" rx="2.46654" transform="matrix(0.995876 -0.0907295 0.0837206 0.996489 377.753 158.884)" fill="#FFBE46"/>
<rect width="4.93309" height="5.13385" rx="2.46654" transform="matrix(0.995876 -0.0907295 0.0837206 0.996489 387.616 158.884)" fill="#FFBE46"/>
<rect width="4.93309" height="5.13385" rx="2.46654" transform="matrix(0.995876 -0.0907295 0.0837206 0.996489 397.479 158.884)" fill="#FFBE46"/>
<rect width="4.93309" height="5.13385" rx="2.46654" transform="matrix(0.995876 -0.0907295 0.0837206 0.996489 407.342 158.884)" fill="#FFBE46"/>
<rect width="4.93309" height="5.13385" rx="2.46654" transform="matrix(0.995876 -0.0907295 0.0837206 0.996489 417.205 158.884)" fill="#FFBE46"/>
<rect width="4.93309" height="5.13385" rx="2.46654" transform="matrix(0.995876 -0.0907295 0.0837206 0.996489 427.068 158.884)" fill="#FFBE46"/>
<rect width="4.93309" height="5.13385" rx="2.46654" transform="matrix(0.995876 -0.0907295 0.0837206 0.996489 436.931 158.884)" fill="#FFBE46"/>
<rect width="4.93309" height="5.13385" rx="2.46654" transform="matrix(0.995876 -0.0907295 0.0837206 0.996489 446.794 158.884)" fill="#FFBE46"/>
<rect width="4.93309" height="5.13385" rx="2.46654" transform="matrix(0.995876 -0.0907295 0.0837206 0.996489 456.657 158.884)" fill="#FFBE46"/>
<path d="M121.826 63.7305H69.8242V242.93H121.826V264.414H45.4102V42.2461H121.826V63.7305ZM489.043 42.2461V264.414H412.627V242.93H463.164V63.7305H412.627V42.2461H489.043Z" fill="url(#paint1_linear)"/>
<path d="M61.0407 116.902L471.455 81.6139L470.828 166.375L60.4082 202.282L61.0407 116.902Z" fill="#272C34"/>
<g filter="url(#filter0_d)">
<path d="M193.924 181.15L347.086 167.414L347.372 242.676L194.208 255.804L193.924 181.15Z" fill="white"/>
<path d="M195.701 254.17L195.429 182.521L345.592 169.054L345.866 241.299L195.701 254.17Z" stroke="#272C34" stroke-width="3"/>
</g>
<path d="M79.2541 136.694L87.2236 135.997L82.5706 175.336L105.523 173.328L104.723 180.336L73.8008 183.042L79.2541 136.694ZM132.823 132.007L141.239 131.271L153.128 176.101L145.031 176.81L142.128 164.922L124.021 166.506L118.062 179.169L109.518 179.917L132.823 132.007ZM136.268 139.801L136.14 139.812L126.87 160.153L140.769 158.937L136.268 139.801ZM165.694 129.131L174.429 128.367L191.365 161.128L191.492 161.117L195.469 126.526L203.438 125.829L197.985 172.177L189.25 172.941L172.268 140.377L172.14 140.388L168.211 174.782L160.241 175.479L165.694 129.131ZM214.894 124.827L222.864 124.13L220.399 145.161L220.538 145.277L241.927 122.462L252.574 121.53L232.351 142.252L248.97 167.716L239.916 168.508L226.602 147.766L219.171 155.354L217.41 170.477L209.441 171.175L214.894 124.827ZM269.168 147.768L255.543 121.271L263.895 120.54L273.545 140.511L287.676 118.459L297.112 117.634L277.066 147.719L275.019 165.437L267.049 166.135L269.168 147.768ZM329.357 154.13L339.303 153.26C341.598 153.059 343.562 152.502 345.196 151.588C346.868 150.628 348.268 149.499 349.396 148.201C350.521 146.861 351.421 145.39 352.094 143.789C352.81 142.185 353.339 140.64 353.68 139.153C354.06 137.621 354.279 136.21 354.338 134.92C354.435 133.584 354.45 132.533 354.383 131.768C354.034 127.773 352.893 124.767 350.96 122.752C349.028 120.737 346.468 119.869 343.28 120.148L333.334 121.018L329.357 154.13ZM326.135 115.095L342.839 113.633C348.704 113.12 353.285 114.325 356.582 117.249C359.875 120.13 361.801 124.759 362.358 131.135C362.477 132.495 362.462 134.038 362.314 135.764C362.161 137.448 361.864 139.187 361.421 140.982C360.975 142.734 360.376 144.457 359.625 146.15C358.87 147.801 357.928 149.275 356.799 150.573C355.555 152.01 354.337 153.273 353.148 154.362C351.954 155.408 350.599 156.319 349.082 157.094C347.565 157.87 345.8 158.495 343.786 158.971C341.814 159.444 339.404 159.804 336.557 160.053L320.554 161.453L326.135 115.095ZM389.169 109.58L397.585 108.844L409.474 153.674L401.376 154.382L398.473 142.494L380.366 144.078L374.407 156.742L365.864 157.489L389.169 109.58ZM392.614 117.373L392.486 117.384L383.216 137.726L397.115 136.51L392.614 117.373ZM422.04 106.704L430.775 105.94L447.711 138.7L447.838 138.689L451.814 104.099L459.784 103.402L454.331 149.75L445.596 150.514L428.613 117.95L428.486 117.961L424.556 152.354L416.587 153.052L422.04 106.704Z" fill="white"/>
<path d="M79.2541 136.694L79.1669 135.698L78.356 135.769L78.2609 136.577L79.2541 136.694ZM87.2236 135.997L88.2167 136.114L88.3611 134.893L87.1365 135L87.2236 135.997ZM82.5706 175.336L81.5775 175.218L81.4331 176.439L82.6577 176.332L82.5706 175.336ZM105.523 173.328L106.516 173.441L106.655 172.225L105.436 172.332L105.523 173.328ZM104.723 180.336L104.81 181.332L105.624 181.261L105.716 180.45L104.723 180.336ZM73.8008 183.042L72.8076 182.925L72.6641 184.145L73.8879 184.038L73.8008 183.042ZM79.3412 137.69L87.3108 136.993L87.1365 135L79.1669 135.698L79.3412 137.69ZM86.2306 135.879L81.5775 175.218L83.5636 175.453L88.2167 136.114L86.2306 135.879ZM82.6577 176.332L105.61 174.324L105.436 172.332L82.4834 174.34L82.6577 176.332ZM104.529 173.214L103.729 180.223L105.716 180.45L106.516 173.441L104.529 173.214ZM104.636 179.34L73.7136 182.045L73.8879 184.038L104.81 181.332L104.636 179.34ZM74.7939 183.158L80.2472 136.811L78.2609 136.577L72.8076 182.925L74.7939 183.158ZM132.823 132.007L132.736 131.011L132.172 131.06L131.924 131.57L132.823 132.007ZM141.239 131.271L142.206 131.015L141.99 130.201L141.152 130.275L141.239 131.271ZM153.128 176.101L153.215 177.098L154.399 176.994L154.094 175.845L153.128 176.101ZM145.031 176.81L144.059 177.047L144.263 177.881L145.118 177.806L145.031 176.81ZM142.128 164.922L143.099 164.684L142.895 163.851L142.04 163.925L142.128 164.922ZM124.021 166.506L123.934 165.509L123.361 165.56L123.116 166.08L124.021 166.506ZM118.062 179.169L118.149 180.165L118.722 180.115L118.967 179.595L118.062 179.169ZM109.518 179.917L108.619 179.479L107.847 181.067L109.606 180.913L109.518 179.917ZM136.268 139.801L137.241 139.572L137.043 138.729L136.181 138.804L136.268 139.801ZM136.14 139.812L136.053 138.816L135.472 138.866L135.23 139.397L136.14 139.812ZM126.87 160.153L125.96 159.738L125.249 161.299L126.957 161.149L126.87 160.153ZM140.769 158.937L140.856 159.933L142.007 159.833L141.742 158.708L140.769 158.937ZM132.911 133.003L141.326 132.267L141.152 130.275L132.736 131.011L132.911 133.003ZM140.273 131.527L152.161 176.358L154.094 175.845L142.206 131.015L140.273 131.527ZM153.041 175.105L144.944 175.814L145.118 177.806L153.215 177.098L153.041 175.105ZM146.002 176.573L143.099 164.684L141.156 165.159L144.059 177.047L146.002 176.573ZM142.04 163.925L123.934 165.509L124.108 167.502L142.215 165.918L142.04 163.925ZM123.116 166.08L117.157 178.743L118.967 179.595L124.926 166.931L123.116 166.08ZM117.975 178.173L109.431 178.92L109.606 180.913L118.149 180.165L117.975 178.173ZM110.418 180.354L133.723 132.445L131.924 131.57L108.619 179.479L110.418 180.354ZM136.181 138.804L136.053 138.816L136.227 140.808L136.355 140.797L136.181 138.804ZM135.23 139.397L125.96 159.738L127.78 160.568L137.05 140.227L135.23 139.397ZM126.957 161.149L140.856 159.933L140.682 157.941L126.783 159.157L126.957 161.149ZM141.742 158.708L137.241 139.572L135.294 140.03L139.795 159.166L141.742 158.708ZM165.694 129.131L165.607 128.135L164.796 128.206L164.701 129.015L165.694 129.131ZM174.429 128.367L175.317 127.908L175.01 127.313L174.342 127.371L174.429 128.367ZM191.365 161.128L190.476 161.587L190.784 162.182L191.452 162.124L191.365 161.128ZM191.492 161.117L191.579 162.113L192.393 162.042L192.486 161.231L191.492 161.117ZM195.469 126.526L195.382 125.53L194.568 125.601L194.475 126.412L195.469 126.526ZM203.438 125.829L204.431 125.946L204.575 124.726L203.351 124.833L203.438 125.829ZM197.985 172.177L198.072 173.173L198.883 173.102L198.978 172.294L197.985 172.177ZM189.25 172.941L188.364 173.403L188.672 173.995L189.337 173.937L189.25 172.941ZM172.268 140.377L173.154 139.915L172.845 139.323L172.18 139.381L172.268 140.377ZM172.14 140.388L172.053 139.392L171.239 139.463L171.146 140.275L172.14 140.388ZM168.211 174.782L168.298 175.778L169.111 175.707L169.204 174.895L168.211 174.782ZM160.241 175.479L159.248 175.362L159.104 176.582L160.328 176.475L160.241 175.479ZM165.782 130.128L174.516 129.363L174.342 127.371L165.607 128.135L165.782 130.128ZM173.541 128.826L190.476 161.587L192.253 160.669L175.317 127.908L173.541 128.826ZM191.452 162.124L191.579 162.113L191.405 160.12L191.278 160.132L191.452 162.124ZM192.486 161.231L196.462 126.641L194.475 126.412L190.499 161.002L192.486 161.231ZM195.556 127.523L203.525 126.825L203.351 124.833L195.382 125.53L195.556 127.523ZM202.445 125.712L196.992 172.06L198.978 172.294L204.431 125.946L202.445 125.712ZM197.898 171.181L189.163 171.945L189.337 173.937L198.072 173.173L197.898 171.181ZM190.137 172.479L173.154 139.915L171.381 140.84L188.364 173.403L190.137 172.479ZM172.18 139.381L172.053 139.392L172.227 141.385L172.355 141.373L172.18 139.381ZM171.146 140.275L167.217 174.668L169.204 174.895L173.134 140.502L171.146 140.275ZM168.123 173.786L160.154 174.483L160.328 176.475L168.298 175.778L168.123 173.786ZM161.234 175.596L166.688 129.248L164.701 129.015L159.248 175.362L161.234 175.596ZM214.894 124.827L214.807 123.831L213.996 123.902L213.901 124.71L214.894 124.827ZM222.864 124.13L223.857 124.246L224 123.026L222.776 123.134L222.864 124.13ZM220.399 145.161L219.406 145.044L219.343 145.58L219.756 145.927L220.399 145.161ZM220.538 145.277L219.895 146.043L220.62 146.651L221.267 145.961L220.538 145.277ZM241.927 122.462L241.84 121.466L241.459 121.499L241.197 121.778L241.927 122.462ZM252.574 121.53L253.29 122.229L255.173 120.299L252.487 120.534L252.574 121.53ZM232.351 142.252L231.635 141.553L231.076 142.127L231.514 142.798L232.351 142.252ZM248.97 167.716L249.057 168.712L250.719 168.567L249.807 167.17L248.97 167.716ZM239.916 168.508L239.075 169.049L239.401 169.557L240.003 169.505L239.916 168.508ZM226.602 147.766L227.443 147.226L226.765 146.169L225.887 147.066L226.602 147.766ZM219.171 155.354L218.456 154.655L218.217 154.899L218.178 155.239L219.171 155.354ZM217.41 170.477L217.497 171.474L218.309 171.403L218.404 170.593L217.41 170.477ZM209.441 171.175L208.448 171.058L208.304 172.278L209.528 172.171L209.441 171.175ZM214.981 125.823L222.951 125.126L222.776 123.134L214.807 123.831L214.981 125.823ZM221.87 124.013L219.406 145.044L221.392 145.277L223.857 124.246L221.87 124.013ZM219.756 145.927L219.895 146.043L221.181 144.511L221.042 144.394L219.756 145.927ZM221.267 145.961L242.656 123.146L241.197 121.778L219.808 144.593L221.267 145.961ZM242.014 123.458L252.661 122.527L252.487 120.534L241.84 121.466L242.014 123.458ZM251.858 120.832L231.635 141.553L233.067 142.95L253.29 122.229L251.858 120.832ZM231.514 142.798L248.132 168.263L249.807 167.17L233.189 141.705L231.514 142.798ZM248.883 166.72L239.829 167.512L240.003 169.505L249.057 168.712L248.883 166.72ZM240.758 167.968L227.443 147.226L225.76 148.306L239.075 169.049L240.758 167.968ZM225.887 147.066L218.456 154.655L219.885 156.054L227.316 148.465L225.887 147.066ZM218.178 155.239L216.417 170.362L218.404 170.593L220.164 155.47L218.178 155.239ZM217.323 169.481L209.354 170.178L209.528 172.171L217.497 171.474L217.323 169.481ZM210.434 171.291L215.887 124.944L213.901 124.71L208.448 171.058L210.434 171.291ZM269.168 147.768L270.162 147.883L270.197 147.581L270.058 147.311L269.168 147.768ZM255.543 121.271L255.456 120.274L253.973 120.404L254.654 121.728L255.543 121.271ZM263.895 120.54L264.796 120.105L264.496 119.484L263.808 119.544L263.895 120.54ZM273.545 140.511L272.644 140.946L273.422 142.556L274.387 141.05L273.545 140.511ZM287.676 118.459L287.589 117.463L287.1 117.506L286.834 117.92L287.676 118.459ZM297.112 117.634L297.945 118.188L299.099 116.456L297.025 116.638L297.112 117.634ZM277.066 147.719L276.234 147.165L276.101 147.365L276.073 147.605L277.066 147.719ZM275.019 165.437L275.106 166.433L275.918 166.362L276.012 165.552L275.019 165.437ZM267.049 166.135L266.056 166.02L265.915 167.238L267.136 167.131L267.049 166.135ZM270.058 147.311L256.432 120.813L254.654 121.728L268.279 148.225L270.058 147.311ZM255.63 122.267L263.982 121.536L263.808 119.544L255.456 120.274L255.63 122.267ZM262.995 120.975L272.644 140.946L274.445 140.076L264.796 120.105L262.995 120.975ZM274.387 141.05L288.518 118.999L286.834 117.92L272.703 139.971L274.387 141.05ZM287.764 119.456L297.2 118.63L297.025 116.638L287.589 117.463L287.764 119.456ZM296.28 117.079L276.234 147.165L277.898 148.274L297.945 118.188L296.28 117.079ZM276.073 147.605L274.025 165.322L276.012 165.552L278.06 147.834L276.073 147.605ZM274.932 164.441L266.962 165.138L267.136 167.131L275.106 166.433L274.932 164.441ZM268.043 166.249L270.162 147.883L268.175 147.653L266.056 166.02L268.043 166.249ZM329.357 154.13L328.364 154.011L328.217 155.234L329.444 155.127L329.357 154.13ZM345.196 151.588L345.684 152.461L345.694 152.455L345.196 151.588ZM349.396 148.201L350.151 148.857L350.157 148.851L350.163 148.844L349.396 148.201ZM352.094 143.789L351.181 143.382L351.177 143.392L351.173 143.401L352.094 143.789ZM353.68 139.153L352.71 138.913L352.708 138.921L352.706 138.93L353.68 139.153ZM354.338 134.92L353.34 134.847L353.339 134.861L353.339 134.875L354.338 134.92ZM350.96 122.752L350.239 123.444L350.239 123.444L350.96 122.752ZM333.334 121.018L333.247 120.022L332.438 120.092L332.341 120.898L333.334 121.018ZM326.135 115.095L326.047 114.098L325.239 114.169L325.142 114.975L326.135 115.095ZM356.582 117.249L355.919 117.997L355.924 118.002L356.582 117.249ZM362.314 135.764L363.31 135.854L363.31 135.85L362.314 135.764ZM361.421 140.982L362.39 141.229L362.392 141.221L361.421 140.982ZM359.625 146.15L360.534 146.566L360.539 146.556L359.625 146.15ZM356.799 150.573L356.045 149.917L356.044 149.918L356.799 150.573ZM353.148 154.362L353.807 155.114L353.815 155.107L353.823 155.099L353.148 154.362ZM349.082 157.094L349.537 157.985L349.537 157.985L349.082 157.094ZM343.786 158.971L343.556 157.998L343.553 157.999L343.786 158.971ZM320.554 161.453L319.561 161.334L319.414 162.557L320.641 162.45L320.554 161.453ZM329.444 155.127L339.39 154.256L339.216 152.264L329.27 153.134L329.444 155.127ZM339.39 154.256C341.795 154.046 343.902 153.458 345.684 152.461L344.707 150.716C343.223 151.546 341.402 152.073 339.216 152.264L339.39 154.256ZM345.694 152.455C347.451 151.447 348.941 150.249 350.151 148.857L348.642 147.545C347.595 148.749 346.285 149.81 344.698 150.721L345.694 152.455ZM350.163 148.844C351.351 147.427 352.303 145.871 353.016 144.177L351.173 143.401C350.538 144.909 349.691 146.294 348.63 147.558L350.163 148.844ZM353.007 144.197C353.746 142.542 354.297 140.935 354.655 139.377L352.706 138.93C352.381 140.344 351.875 141.828 351.181 143.382L353.007 144.197ZM354.651 139.394C355.043 137.811 355.275 136.334 355.337 134.965L353.339 134.875C353.284 136.086 353.077 137.431 352.71 138.913L354.651 139.394ZM355.335 134.993C355.434 133.636 355.453 132.524 355.379 131.681L353.387 131.855C353.447 132.542 353.436 133.532 353.34 134.847L355.335 134.993ZM355.379 131.681C355.018 127.555 353.828 124.298 351.682 122.06L350.239 123.444C351.957 125.236 353.049 127.99 353.387 131.855L355.379 131.681ZM351.682 122.06C349.508 119.792 346.633 118.85 343.193 119.151L343.367 121.144C346.303 120.887 348.548 121.681 350.239 123.444L351.682 122.06ZM343.193 119.151L333.247 120.022L333.421 122.014L343.367 121.144L343.193 119.151ZM332.341 120.898L328.364 154.011L330.35 154.25L334.327 121.137L332.341 120.898ZM326.222 116.091L342.926 114.629L342.752 112.637L326.047 114.098L326.222 116.091ZM342.926 114.629C348.614 114.132 352.89 115.311 355.919 117.997L357.246 116.501C353.681 113.34 348.795 112.108 342.752 112.637L342.926 114.629ZM355.924 118.002C358.949 120.649 360.817 124.985 361.362 131.222L363.355 131.047C362.785 124.533 360.802 119.612 357.241 116.497L355.924 118.002ZM361.362 131.222C361.475 132.511 361.462 133.995 361.317 135.678L363.31 135.85C363.462 134.081 363.48 132.478 363.355 131.047L361.362 131.222ZM361.318 135.674C361.17 137.303 360.882 138.992 360.45 140.742L362.392 141.221C362.846 139.382 363.152 137.593 363.31 135.854L361.318 135.674ZM360.452 140.735C360.02 142.431 359.44 144.101 358.711 145.744L360.539 146.556C361.312 144.812 361.93 143.036 362.39 141.229L360.452 140.735ZM358.715 145.734C357.998 147.303 357.107 148.695 356.045 149.917L357.554 151.229C358.749 149.855 359.741 148.299 360.534 146.566L358.715 145.734ZM356.044 149.918C354.82 151.331 353.629 152.565 352.472 153.624L353.823 155.099C355.045 153.98 356.289 152.689 357.555 151.228L356.044 149.918ZM352.488 153.61C351.361 154.598 350.076 155.464 348.627 156.204L349.537 157.985C351.123 157.175 352.547 156.219 353.807 155.114L352.488 153.61ZM348.627 156.204C347.195 156.936 345.508 157.537 343.556 157.998L344.016 159.944C346.092 159.454 347.936 158.803 349.537 157.985L348.627 156.204ZM343.553 157.999C341.644 158.456 339.286 158.811 336.469 159.057L336.644 161.05C339.522 160.798 341.984 160.431 344.019 159.944L343.553 157.999ZM336.469 159.057L320.467 160.457L320.641 162.45L336.644 161.05L336.469 159.057ZM321.547 161.573L327.127 115.214L325.142 114.975L319.561 161.334L321.547 161.573ZM389.169 109.58L389.082 108.584L388.518 108.633L388.27 109.142L389.169 109.58ZM397.585 108.844L398.552 108.587L398.336 107.774L397.498 107.847L397.585 108.844ZM409.474 153.674L409.561 154.67L410.745 154.567L410.44 153.418L409.474 153.674ZM401.376 154.382L400.405 154.62L400.609 155.453L401.464 155.379L401.376 154.382ZM398.473 142.494L399.445 142.257L399.241 141.423L398.386 141.498L398.473 142.494ZM380.366 144.078L380.279 143.082L379.706 143.132L379.462 143.653L380.366 144.078ZM374.407 156.742L374.495 157.738L375.067 157.688L375.312 157.168L374.407 156.742ZM365.864 157.489L364.965 157.052L364.193 158.639L365.951 158.486L365.864 157.489ZM392.614 117.373L393.587 117.144L393.389 116.302L392.526 116.377L392.614 117.373ZM392.486 117.384L392.399 116.388L391.818 116.439L391.576 116.97L392.486 117.384ZM383.216 137.726L382.306 137.311L381.595 138.871L383.303 138.722L383.216 137.726ZM397.115 136.51L397.202 137.506L398.352 137.405L398.088 136.281L397.115 136.51ZM389.256 110.576L397.672 109.84L397.498 107.847L389.082 108.584L389.256 110.576ZM396.618 109.1L408.507 153.93L410.44 153.418L398.552 108.587L396.618 109.1ZM409.386 152.678L401.289 153.386L401.464 155.379L409.561 154.67L409.386 152.678ZM402.348 154.145L399.445 142.257L397.502 142.731L400.405 154.62L402.348 154.145ZM398.386 141.498L380.279 143.082L380.454 145.075L398.56 143.49L398.386 141.498ZM379.462 143.653L373.503 156.316L375.312 157.168L381.271 144.504L379.462 143.653ZM374.32 155.746L365.777 156.493L365.951 158.486L374.495 157.738L374.32 155.746ZM366.763 157.927L390.068 110.017L388.27 109.142L364.965 157.052L366.763 157.927ZM392.526 116.377L392.399 116.388L392.573 118.381L392.701 118.37L392.526 116.377ZM391.576 116.97L382.306 137.311L384.126 138.141L393.396 117.799L391.576 116.97ZM383.303 138.722L397.202 137.506L397.027 135.514L383.129 136.73L383.303 138.722ZM398.088 136.281L393.587 117.144L391.64 117.602L396.141 136.739L398.088 136.281ZM422.04 106.704L421.953 105.708L421.142 105.779L421.047 106.587L422.04 106.704ZM430.775 105.94L431.663 105.481L431.355 104.885L430.688 104.944L430.775 105.94ZM447.711 138.7L446.822 139.16L447.13 139.755L447.798 139.697L447.711 138.7ZM447.838 138.689L447.925 139.685L448.738 139.614L448.832 138.804L447.838 138.689ZM451.814 104.099L451.727 103.103L450.914 103.174L450.821 103.985L451.814 104.099ZM459.784 103.402L460.777 103.519L460.921 102.299L459.697 102.406L459.784 103.402ZM454.331 149.75L454.418 150.746L455.229 150.675L455.324 149.866L454.331 149.75ZM445.596 150.514L444.709 150.976L445.018 151.568L445.683 151.51L445.596 150.514ZM428.613 117.95L429.5 117.488L429.191 116.896L428.526 116.954L428.613 117.95ZM428.486 117.961L428.399 116.965L427.585 117.036L427.492 117.848L428.486 117.961ZM424.556 152.354L424.644 153.351L425.457 153.279L425.55 152.468L424.556 152.354ZM416.587 153.052L415.594 152.935L415.45 154.155L416.674 154.048L416.587 153.052ZM422.127 107.7L430.862 106.936L430.688 104.944L421.953 105.708L422.127 107.7ZM429.886 106.399L446.822 139.16L448.599 138.241L431.663 105.481L429.886 106.399ZM447.798 139.697L447.925 139.685L447.751 137.693L447.623 137.704L447.798 139.697ZM448.832 138.804L452.808 104.213L450.821 103.985L446.845 138.575L448.832 138.804ZM451.902 105.095L459.871 104.398L459.697 102.406L451.727 103.103L451.902 105.095ZM458.791 103.285L453.338 149.633L455.324 149.866L460.777 103.519L458.791 103.285ZM454.244 148.753L445.509 149.517L445.683 151.51L454.418 150.746L454.244 148.753ZM446.483 150.051L429.5 117.488L427.727 118.412L444.709 150.976L446.483 150.051ZM428.526 116.954L428.399 116.965L428.573 118.957L428.7 118.946L428.526 116.954ZM427.492 117.848L423.563 152.241L425.55 152.468L429.479 118.075L427.492 117.848ZM424.469 151.358L416.5 152.055L416.674 154.048L424.644 153.351L424.469 151.358ZM417.58 153.169L423.033 106.821L421.047 106.587L415.594 152.935L417.58 153.169Z" fill="white"/>
<path d="M215.022 237.372L228.156 236.223C230.791 235.993 233.119 235.425 235.138 234.52C237.2 233.612 238.985 232.471 240.492 231.097C241.996 229.68 243.249 228.093 244.252 226.335C245.297 224.573 246.101 222.747 246.663 220.856C247.268 218.961 247.659 217.064 247.836 215.164C248.051 213.218 248.08 211.352 247.924 209.567C247.697 206.974 247.241 204.701 246.557 202.748C245.872 200.795 244.898 199.21 243.635 197.993C242.368 196.733 240.77 195.845 238.841 195.329C236.911 194.812 234.586 194.673 231.866 194.911L220.071 195.943L215.022 237.372ZM217.563 193.721L232.291 192.432C235.352 192.165 237.98 192.342 240.176 192.963C242.371 193.585 244.197 194.624 245.652 196.082C247.15 197.535 248.297 199.384 249.093 201.627C249.927 203.824 250.473 206.389 250.729 209.322C251.016 212.594 250.769 215.892 249.989 219.216C249.209 222.539 247.891 225.588 246.035 228.363C244.179 231.138 241.813 233.465 238.937 235.344C236.056 237.181 232.64 238.272 228.687 238.618L211.919 240.085L217.563 193.721ZM264.333 189.629L294.044 187.03L293.682 189.503L266.841 191.851L264.61 210.42L289.603 208.233L289.369 210.695L264.312 212.887L261.856 233.275L289.526 230.854L289.228 233.322L258.753 235.988L264.333 189.629ZM298.039 186.68L300.844 186.435L311.276 228.566L311.404 228.555L332.786 183.64L335.592 183.395L312.924 231.248L309.609 231.538L298.039 186.68Z" fill="#272C34"/>
<rect x="186" y="223.743" width="20" height="20" rx="10" transform="rotate(-5 186 223.743)" fill="#D271E3"/>
<defs>
<filter id="filter0_d" x="187.695" y="167.414" width="173.928" height="96.6595" filterUnits="userSpaceOnUse" color-interpolation-filters="sRGB">
<feFlood flood-opacity="0" result="BackgroundImageFix"/>
<feColorMatrix in="SourceAlpha" type="matrix" values="0 0 0 0 0 0 0 0 0 0 0 0 0 0 0 0 0 0 127 0"/>
<feOffset dx="4" dy="4"/>
<feGaussianBlur stdDeviation="2"/>
<feColorMatrix type="matrix" values="0 0 0 0 0 0 0 0 0 0 0 0 0 0 0 0 0 0 0.35 0"/>
<feBlend mode="normal" in2="BackgroundImageFix" result="effect1_dropShadow"/>
<feBlend mode="normal" in="SourceGraphic" in2="effect1_dropShadow" result="shape"/>
</filter>
<linearGradient id="paint0_linear" x1="265.5" y1="164" x2="265.5" y2="244" gradientUnits="userSpaceOnUse">
<stop stop-color="#B2CCD6"/>
<stop offset="1" stop-color="#B0CBDC" stop-opacity="0"/>
</linearGradient>
<linearGradient id="paint1_linear" x1="268" y1="0" x2="268" y2="297" gradientUnits="userSpaceOnUse">
<stop offset="0.046875" stop-color="#D271E3"/>
<stop offset="0.802083" stop-color="#82AAFF"/>
<stop offset="1" stop-color="#82AAFF"/>
</linearGradient>
</defs>
</svg>
