<svg width="583" height="360" viewBox="0 0 583 360" fill="none" xmlns="http://www.w3.org/2000/svg">
<rect x="78" y="194" width="399" height="100" fill="url(#paint0_linear)"/>
<rect width="4.90799" height="5.13366" rx="2.454" transform="matrix(0.995854 -0.0909609 0.0835075 0.996507 84 79.4476)" fill="#FFBE46" fill-opacity="0.2"/>
<rect width="4.908" height="5.13366" rx="2.454" transform="matrix(0.995833 -0.0911933 0.0832943 0.996525 93.8124 79.4476)" fill="#FFBE46" fill-opacity="0.2"/>
<rect width="4.908" height="5.13366" rx="2.454" transform="matrix(0.995833 -0.0911933 0.0832943 0.996525 103.625 79.4476)" fill="#FFBE46" fill-opacity="0.2"/>
<rect width="4.908" height="5.13366" rx="2.454" transform="matrix(0.995833 -0.0911933 0.0832943 0.996525 113.437 79.4476)" fill="#FFBE46" fill-opacity="0.2"/>
<rect width="4.908" height="5.13366" rx="2.454" transform="matrix(0.995833 -0.0911933 0.0832943 0.996525 123.25 79.4476)" fill="#FFBE46" fill-opacity="0.2"/>
<rect width="4.908" height="5.13366" rx="2.454" transform="matrix(0.995833 -0.0911933 0.0832943 0.996525 133.062 79.4476)" fill="#FFBE46" fill-opacity="0.2"/>
<rect width="4.908" height="5.13366" rx="2.454" transform="matrix(0.995833 -0.0911933 0.0832943 0.996525 142.875 79.4476)" fill="#FFBE46" fill-opacity="0.2"/>
<rect width="4.908" height="5.13366" rx="2.454" transform="matrix(0.995833 -0.0911933 0.0832943 0.996525 152.687 79.4476)" fill="#FFBE46" fill-opacity="0.2"/>
<rect width="4.908" height="5.13366" rx="2.454" transform="matrix(0.995833 -0.0911933 0.0832943 0.996525 162.499 79.4476)" fill="#FFBE46" fill-opacity="0.2"/>
<rect width="4.908" height="5.13366" rx="2.454" transform="matrix(0.995833 -0.0911933 0.0832943 0.996525 172.312 79.4476)" fill="#FFBE46" fill-opacity="0.2"/>
<rect width="4.908" height="5.13366" rx="2.454" transform="matrix(0.995833 -0.0911933 0.0832943 0.996525 182.124 79.4476)" fill="#FFBE46" fill-opacity="0.2"/>
<rect width="4.908" height="5.13366" rx="2.454" transform="matrix(0.995833 -0.0911933 0.0832943 0.996525 191.937 79.4476)" fill="#FFBE46" fill-opacity="0.2"/>
<rect width="4.908" height="5.13366" rx="2.454" transform="matrix(0.995833 -0.0911933 0.0832943 0.996525 201.749 79.4476)" fill="#FFBE46" fill-opacity="0.2"/>
<rect width="4.908" height="5.13366" rx="2.454" transform="matrix(0.995833 -0.0911933 0.0832943 0.996525 211.562 79.4476)" fill="#FFBE46" fill-opacity="0.2"/>
<rect width="4.908" height="5.13366" rx="2.454" transform="matrix(0.995833 -0.0911933 0.0832943 0.996525 221.374 79.4476)" fill="#FFBE46" fill-opacity="0.2"/>
<rect width="4.908" height="5.13366" rx="2.454" transform="matrix(0.995833 -0.0911933 0.0832943 0.996525 231.186 79.4476)" fill="#FFBE46" fill-opacity="0.2"/>
<rect width="4.908" height="5.13366" rx="2.454" transform="matrix(0.995833 -0.0911933 0.0832943 0.996525 240.999 79.4476)" fill="#FFBE46" fill-opacity="0.2"/>
<rect width="4.908" height="5.13366" rx="2.454" transform="matrix(0.995833 -0.0911933 0.0832943 0.996525 250.811 79.4476)" fill="#FFBE46" fill-opacity="0.2"/>
<rect width="4.908" height="5.13366" rx="2.454" transform="matrix(0.995833 -0.0911933 0.0832943 0.996525 260.624 79.4476)" fill="#FFBE46" fill-opacity="0.2"/>
<rect width="4.908" height="5.13366" rx="2.454" transform="matrix(0.995833 -0.0911933 0.0832943 0.996525 270.436 79.4476)" fill="#FFBE46" fill-opacity="0.2"/>
<rect width="4.908" height="5.13366" rx="2.454" transform="matrix(0.995833 -0.0911933 0.0832943 0.996525 280.249 79.4476)" fill="#FFBE46" fill-opacity="0.2"/>
<rect width="4.908" height="5.13366" rx="2.454" transform="matrix(0.995833 -0.0911933 0.0832943 0.996525 290.061 79.4476)" fill="#FFBE46" fill-opacity="0.2"/>
<rect width="4.908" height="5.13366" rx="2.454" transform="matrix(0.995833 -0.0911933 0.0832943 0.996525 299.873 79.4476)" fill="#FFBE46" fill-opacity="0.2"/>
<rect width="4.908" height="5.13366" rx="2.454" transform="matrix(0.995833 -0.0911933 0.0832943 0.996525 309.686 79.4476)" fill="#FFBE46" fill-opacity="0.2"/>
<rect width="4.908" height="5.13366" rx="2.454" transform="matrix(0.995833 -0.0911933 0.0832943 0.996525 319.498 79.4476)" fill="#FFBE46" fill-opacity="0.2"/>
<rect width="4.908" height="5.13366" rx="2.454" transform="matrix(0.995833 -0.0911933 0.0832943 0.996525 329.311 79.4476)" fill="#FFBE46" fill-opacity="0.2"/>
<rect width="4.908" height="5.13366" rx="2.454" transform="matrix(0.995833 -0.0911933 0.0832943 0.996525 339.123 79.4476)" fill="#FFBE46" fill-opacity="0.2"/>
<rect width="4.908" height="5.13366" rx="2.454" transform="matrix(0.995833 -0.0911933 0.0832943 0.996525 348.936 79.4476)" fill="#FFBE46" fill-opacity="0.2"/>
<rect width="4.908" height="5.13366" rx="2.454" transform="matrix(0.995833 -0.0911933 0.0832943 0.996525 358.748 79.4476)" fill="#FFBE46" fill-opacity="0.2"/>
<rect width="4.908" height="5.13366" rx="2.454" transform="matrix(0.995833 -0.0911933 0.0832943 0.996525 368.561 79.4476)" fill="#FFBE46" fill-opacity="0.2"/>
<rect width="4.908" height="5.13366" rx="2.454" transform="matrix(0.995833 -0.0911933 0.0832943 0.996525 378.373 79.4476)" fill="#FFBE46" fill-opacity="0.2"/>
<rect width="4.908" height="5.13366" rx="2.454" transform="matrix(0.995833 -0.0911933 0.0832943 0.996525 388.185 79.4476)" fill="#FFBE46" fill-opacity="0.2"/>
<rect width="4.908" height="5.13366" rx="2.454" transform="matrix(0.995833 -0.0911933 0.0832943 0.996525 397.998 79.4476)" fill="#FFBE46" fill-opacity="0.2"/>
<rect width="4.908" height="5.13366" rx="2.454" transform="matrix(0.995833 -0.0911933 0.0832943 0.996525 407.81 79.4476)" fill="#FFBE46" fill-opacity="0.2"/>
<rect width="4.908" height="5.13366" rx="2.454" transform="matrix(0.995833 -0.0911933 0.0832943 0.996525 417.623 79.4476)" fill="#FFBE46" fill-opacity="0.2"/>
<rect width="4.908" height="5.13366" rx="2.454" transform="matrix(0.995833 -0.0911933 0.0832943 0.996525 427.435 79.4476)" fill="#FFBE46" fill-opacity="0.2"/>
<rect width="4.908" height="5.13366" rx="2.454" transform="matrix(0.995833 -0.0911933 0.0832943 0.996525 437.248 79.4476)" fill="#FFBE46" fill-opacity="0.2"/>
<rect width="4.908" height="5.13366" rx="2.454" transform="matrix(0.995833 -0.0911933 0.0832943 0.996525 447.06 79.4476)" fill="#FFBE46" fill-opacity="0.2"/>
<rect width="4.908" height="5.13366" rx="2.454" transform="matrix(0.995833 -0.0911933 0.0832943 0.996525 456.872 79.4476)" fill="#FFBE46" fill-opacity="0.2"/>
<rect width="4.908" height="5.13366" rx="2.454" transform="matrix(0.995833 -0.0911933 0.0832943 0.996525 466.685 79.4476)" fill="#FFBE46" fill-opacity="0.2"/>
<rect width="4.90799" height="5.13366" rx="2.454" transform="matrix(0.995854 -0.0909609 0.0835075 0.996507 84 89.7183)" fill="#FFBE46" fill-opacity="0.3"/>
<rect width="4.908" height="5.13366" rx="2.454" transform="matrix(0.995833 -0.0911933 0.0832943 0.996525 93.8124 89.7183)" fill="#FFBE46" fill-opacity="0.3"/>
<rect width="4.908" height="5.13366" rx="2.454" transform="matrix(0.995833 -0.0911933 0.0832943 0.996525 103.625 89.7183)" fill="#FFBE46" fill-opacity="0.3"/>
<rect width="4.908" height="5.13366" rx="2.454" transform="matrix(0.995833 -0.0911933 0.0832943 0.996525 113.437 89.7183)" fill="#FFBE46" fill-opacity="0.3"/>
<rect width="4.908" height="5.13366" rx="2.454" transform="matrix(0.995833 -0.0911933 0.0832943 0.996525 123.25 89.7183)" fill="#FFBE46" fill-opacity="0.3"/>
<rect width="4.908" height="5.13366" rx="2.454" transform="matrix(0.995833 -0.0911933 0.0832943 0.996525 133.062 89.7183)" fill="#FFBE46" fill-opacity="0.3"/>
<rect width="4.908" height="5.13366" rx="2.454" transform="matrix(0.995833 -0.0911933 0.0832943 0.996525 142.875 89.7183)" fill="#FFBE46" fill-opacity="0.3"/>
<rect width="4.908" height="5.13366" rx="2.454" transform="matrix(0.995833 -0.0911933 0.0832943 0.996525 152.687 89.7183)" fill="#FFBE46" fill-opacity="0.3"/>
<rect width="4.908" height="5.13366" rx="2.454" transform="matrix(0.995833 -0.0911933 0.0832943 0.996525 162.499 89.7183)" fill="#FFBE46" fill-opacity="0.3"/>
<rect width="4.908" height="5.13366" rx="2.454" transform="matrix(0.995833 -0.0911933 0.0832943 0.996525 172.312 89.7183)" fill="#FFBE46" fill-opacity="0.3"/>
<rect width="4.908" height="5.13366" rx="2.454" transform="matrix(0.995833 -0.0911933 0.0832943 0.996525 182.124 89.7183)" fill="#FFBE46" fill-opacity="0.3"/>
<rect width="4.908" height="5.13366" rx="2.454" transform="matrix(0.995833 -0.0911933 0.0832943 0.996525 191.937 89.7183)" fill="#FFBE46" fill-opacity="0.3"/>
<rect width="4.908" height="5.13366" rx="2.454" transform="matrix(0.995833 -0.0911933 0.0832943 0.996525 201.749 89.7183)" fill="#FFBE46" fill-opacity="0.3"/>
<rect width="4.908" height="5.13366" rx="2.454" transform="matrix(0.995833 -0.0911933 0.0832943 0.996525 211.562 89.7183)" fill="#FFBE46" fill-opacity="0.3"/>
<rect width="4.908" height="5.13366" rx="2.454" transform="matrix(0.995833 -0.0911933 0.0832943 0.996525 221.374 89.7183)" fill="#FFBE46" fill-opacity="0.3"/>
<rect width="4.908" height="5.13366" rx="2.454" transform="matrix(0.995833 -0.0911933 0.0832943 0.996525 231.186 89.7183)" fill="#FFBE46" fill-opacity="0.3"/>
<rect width="4.908" height="5.13366" rx="2.454" transform="matrix(0.995833 -0.0911933 0.0832943 0.996525 240.999 89.7183)" fill="#FFBE46" fill-opacity="0.3"/>
<rect width="4.908" height="5.13366" rx="2.454" transform="matrix(0.995833 -0.0911933 0.0832943 0.996525 250.811 89.7183)" fill="#FFBE46" fill-opacity="0.3"/>
<rect width="4.908" height="5.13366" rx="2.454" transform="matrix(0.995833 -0.0911933 0.0832943 0.996525 260.624 89.7183)" fill="#FFBE46" fill-opacity="0.3"/>
<rect width="4.908" height="5.13366" rx="2.454" transform="matrix(0.995833 -0.0911933 0.0832943 0.996525 270.436 89.7183)" fill="#FFBE46" fill-opacity="0.3"/>
<rect width="4.908" height="5.13366" rx="2.454" transform="matrix(0.995833 -0.0911933 0.0832943 0.996525 280.249 89.7183)" fill="#FFBE46" fill-opacity="0.3"/>
<rect width="4.908" height="5.13366" rx="2.454" transform="matrix(0.995833 -0.0911933 0.0832943 0.996525 290.061 89.7183)" fill="#FFBE46" fill-opacity="0.3"/>
<rect width="4.908" height="5.13366" rx="2.454" transform="matrix(0.995833 -0.0911933 0.0832943 0.996525 299.873 89.7183)" fill="#FFBE46" fill-opacity="0.3"/>
<rect width="4.908" height="5.13366" rx="2.454" transform="matrix(0.995833 -0.0911933 0.0832943 0.996525 309.686 89.7183)" fill="#FFBE46" fill-opacity="0.3"/>
<rect width="4.908" height="5.13366" rx="2.454" transform="matrix(0.995833 -0.0911933 0.0832943 0.996525 319.498 89.7183)" fill="#FFBE46" fill-opacity="0.3"/>
<rect width="4.908" height="5.13366" rx="2.454" transform="matrix(0.995833 -0.0911933 0.0832943 0.996525 329.311 89.7183)" fill="#FFBE46" fill-opacity="0.3"/>
<rect width="4.908" height="5.13366" rx="2.454" transform="matrix(0.995833 -0.0911933 0.0832943 0.996525 339.123 89.7183)" fill="#FFBE46" fill-opacity="0.3"/>
<rect width="4.908" height="5.13366" rx="2.454" transform="matrix(0.995833 -0.0911933 0.0832943 0.996525 348.936 89.7183)" fill="#FFBE46" fill-opacity="0.3"/>
<rect width="4.908" height="5.13366" rx="2.454" transform="matrix(0.995833 -0.0911933 0.0832943 0.996525 358.748 89.7183)" fill="#FFBE46" fill-opacity="0.3"/>
<rect width="4.908" height="5.13366" rx="2.454" transform="matrix(0.995833 -0.0911933 0.0832943 0.996525 368.561 89.7183)" fill="#FFBE46" fill-opacity="0.3"/>
<rect width="4.908" height="5.13366" rx="2.454" transform="matrix(0.995833 -0.0911933 0.0832943 0.996525 378.373 89.7183)" fill="#FFBE46" fill-opacity="0.3"/>
<rect width="4.908" height="5.13366" rx="2.454" transform="matrix(0.995833 -0.0911933 0.0832943 0.996525 388.185 89.7183)" fill="#FFBE46" fill-opacity="0.3"/>
<rect width="4.908" height="5.13366" rx="2.454" transform="matrix(0.995833 -0.0911933 0.0832943 0.996525 397.998 89.7183)" fill="#FFBE46" fill-opacity="0.3"/>
<rect width="4.908" height="5.13366" rx="2.454" transform="matrix(0.995833 -0.0911933 0.0832943 0.996525 407.81 89.7183)" fill="#FFBE46" fill-opacity="0.3"/>
<rect width="4.908" height="5.13366" rx="2.454" transform="matrix(0.995833 -0.0911933 0.0832943 0.996525 417.623 89.7183)" fill="#FFBE46" fill-opacity="0.3"/>
<rect width="4.908" height="5.13366" rx="2.454" transform="matrix(0.995833 -0.0911933 0.0832943 0.996525 427.435 89.7183)" fill="#FFBE46" fill-opacity="0.3"/>
<rect width="4.908" height="5.13366" rx="2.454" transform="matrix(0.995833 -0.0911933 0.0832943 0.996525 437.248 89.7183)" fill="#FFBE46" fill-opacity="0.3"/>
<rect width="4.908" height="5.13366" rx="2.454" transform="matrix(0.995833 -0.0911933 0.0832943 0.996525 447.06 89.7183)" fill="#FFBE46" fill-opacity="0.3"/>
<rect width="4.908" height="5.13366" rx="2.454" transform="matrix(0.995833 -0.0911933 0.0832943 0.996525 456.872 89.7183)" fill="#FFBE46" fill-opacity="0.3"/>
<rect width="4.908" height="5.13366" rx="2.454" transform="matrix(0.995833 -0.0911933 0.0832943 0.996525 466.685 89.7183)" fill="#FFBE46" fill-opacity="0.3"/>
<rect width="4.90799" height="5.13366" rx="2.454" transform="matrix(0.995854 -0.0909609 0.0835075 0.996507 84 99.989)" fill="#FFBE46" fill-opacity="0.4"/>
<rect width="4.908" height="5.13366" rx="2.454" transform="matrix(0.995833 -0.0911933 0.0832943 0.996525 93.8124 99.989)" fill="#FFBE46" fill-opacity="0.4"/>
<rect width="4.908" height="5.13366" rx="2.454" transform="matrix(0.995833 -0.0911933 0.0832943 0.996525 103.625 99.989)" fill="#FFBE46" fill-opacity="0.4"/>
<rect width="4.908" height="5.13366" rx="2.454" transform="matrix(0.995833 -0.0911933 0.0832943 0.996525 113.437 99.989)" fill="#FFBE46" fill-opacity="0.4"/>
<rect width="4.908" height="5.13366" rx="2.454" transform="matrix(0.995833 -0.0911933 0.0832943 0.996525 123.25 99.989)" fill="#FFBE46" fill-opacity="0.4"/>
<rect width="4.908" height="5.13366" rx="2.454" transform="matrix(0.995833 -0.0911933 0.0832943 0.996525 133.062 99.989)" fill="#FFBE46" fill-opacity="0.4"/>
<rect width="4.908" height="5.13366" rx="2.454" transform="matrix(0.995833 -0.0911933 0.0832943 0.996525 142.875 99.989)" fill="#FFBE46" fill-opacity="0.4"/>
<rect width="4.908" height="5.13366" rx="2.454" transform="matrix(0.995833 -0.0911933 0.0832943 0.996525 152.687 99.989)" fill="#FFBE46" fill-opacity="0.4"/>
<rect width="4.908" height="5.13366" rx="2.454" transform="matrix(0.995833 -0.0911933 0.0832943 0.996525 162.499 99.989)" fill="#FFBE46" fill-opacity="0.4"/>
<rect width="4.908" height="5.13366" rx="2.454" transform="matrix(0.995833 -0.0911933 0.0832943 0.996525 172.312 99.989)" fill="#FFBE46" fill-opacity="0.4"/>
<rect width="4.908" height="5.13366" rx="2.454" transform="matrix(0.995833 -0.0911933 0.0832943 0.996525 182.124 99.989)" fill="#FFBE46" fill-opacity="0.4"/>
<rect width="4.908" height="5.13366" rx="2.454" transform="matrix(0.995833 -0.0911933 0.0832943 0.996525 191.937 99.989)" fill="#FFBE46" fill-opacity="0.4"/>
<rect width="4.908" height="5.13366" rx="2.454" transform="matrix(0.995833 -0.0911933 0.0832943 0.996525 201.749 99.989)" fill="#FFBE46" fill-opacity="0.4"/>
<rect width="4.908" height="5.13366" rx="2.454" transform="matrix(0.995833 -0.0911933 0.0832943 0.996525 211.562 99.989)" fill="#FFBE46" fill-opacity="0.4"/>
<rect width="4.908" height="5.13366" rx="2.454" transform="matrix(0.995833 -0.0911933 0.0832943 0.996525 221.374 99.989)" fill="#FFBE46" fill-opacity="0.4"/>
<rect width="4.908" height="5.13366" rx="2.454" transform="matrix(0.995833 -0.0911933 0.0832943 0.996525 231.186 99.989)" fill="#FFBE46" fill-opacity="0.4"/>
<rect width="4.908" height="5.13366" rx="2.454" transform="matrix(0.995833 -0.0911933 0.0832943 0.996525 240.999 99.989)" fill="#FFBE46" fill-opacity="0.4"/>
<rect width="4.908" height="5.13366" rx="2.454" transform="matrix(0.995833 -0.0911933 0.0832943 0.996525 250.811 99.989)" fill="#FFBE46" fill-opacity="0.4"/>
<rect width="4.908" height="5.13366" rx="2.454" transform="matrix(0.995833 -0.0911933 0.0832943 0.996525 260.624 99.989)" fill="#FFBE46" fill-opacity="0.4"/>
<rect width="4.908" height="5.13366" rx="2.454" transform="matrix(0.995833 -0.0911933 0.0832943 0.996525 270.436 99.989)" fill="#FFBE46" fill-opacity="0.4"/>
<rect width="4.908" height="5.13366" rx="2.454" transform="matrix(0.995833 -0.0911933 0.0832943 0.996525 280.249 99.989)" fill="#FFBE46" fill-opacity="0.4"/>
<rect width="4.908" height="5.13366" rx="2.454" transform="matrix(0.995833 -0.0911933 0.0832943 0.996525 290.061 99.989)" fill="#FFBE46" fill-opacity="0.4"/>
<rect width="4.908" height="5.13366" rx="2.454" transform="matrix(0.995833 -0.0911933 0.0832943 0.996525 299.873 99.989)" fill="#FFBE46" fill-opacity="0.4"/>
<rect width="4.908" height="5.13366" rx="2.454" transform="matrix(0.995833 -0.0911933 0.0832943 0.996525 309.686 99.989)" fill="#FFBE46" fill-opacity="0.4"/>
<rect width="4.908" height="5.13366" rx="2.454" transform="matrix(0.995833 -0.0911933 0.0832943 0.996525 319.498 99.989)" fill="#FFBE46" fill-opacity="0.4"/>
<rect width="4.908" height="5.13366" rx="2.454" transform="matrix(0.995833 -0.0911933 0.0832943 0.996525 329.311 99.989)" fill="#FFBE46" fill-opacity="0.4"/>
<rect width="4.908" height="5.13366" rx="2.454" transform="matrix(0.995833 -0.0911933 0.0832943 0.996525 339.123 99.989)" fill="#FFBE46" fill-opacity="0.4"/>
<rect width="4.908" height="5.13366" rx="2.454" transform="matrix(0.995833 -0.0911933 0.0832943 0.996525 348.936 99.989)" fill="#FFBE46" fill-opacity="0.4"/>
<rect width="4.908" height="5.13366" rx="2.454" transform="matrix(0.995833 -0.0911933 0.0832943 0.996525 358.748 99.989)" fill="#FFBE46" fill-opacity="0.4"/>
<rect width="4.908" height="5.13366" rx="2.454" transform="matrix(0.995833 -0.0911933 0.0832943 0.996525 368.561 99.989)" fill="#FFBE46" fill-opacity="0.4"/>
<rect width="4.908" height="5.13366" rx="2.454" transform="matrix(0.995833 -0.0911933 0.0832943 0.996525 378.373 99.989)" fill="#FFBE46" fill-opacity="0.4"/>
<rect width="4.908" height="5.13366" rx="2.454" transform="matrix(0.995833 -0.0911933 0.0832943 0.996525 388.185 99.989)" fill="#FFBE46" fill-opacity="0.4"/>
<rect width="4.908" height="5.13366" rx="2.454" transform="matrix(0.995833 -0.0911933 0.0832943 0.996525 397.998 99.989)" fill="#FFBE46" fill-opacity="0.4"/>
<rect width="4.908" height="5.13366" rx="2.454" transform="matrix(0.995833 -0.0911933 0.0832943 0.996525 407.81 99.989)" fill="#FFBE46" fill-opacity="0.4"/>
<rect width="4.908" height="5.13366" rx="2.454" transform="matrix(0.995833 -0.0911933 0.0832943 0.996525 417.623 99.989)" fill="#FFBE46" fill-opacity="0.4"/>
<rect width="4.908" height="5.13366" rx="2.454" transform="matrix(0.995833 -0.0911933 0.0832943 0.996525 427.435 99.989)" fill="#FFBE46" fill-opacity="0.4"/>
<rect width="4.908" height="5.13366" rx="2.454" transform="matrix(0.995833 -0.0911933 0.0832943 0.996525 437.248 99.989)" fill="#FFBE46" fill-opacity="0.4"/>
<rect width="4.908" height="5.13366" rx="2.454" transform="matrix(0.995833 -0.0911933 0.0832943 0.996525 447.06 99.989)" fill="#FFBE46" fill-opacity="0.4"/>
<rect width="4.908" height="5.13366" rx="2.454" transform="matrix(0.995833 -0.0911933 0.0832943 0.996525 456.872 99.989)" fill="#FFBE46" fill-opacity="0.4"/>
<rect width="4.908" height="5.13366" rx="2.454" transform="matrix(0.995833 -0.0911933 0.0832943 0.996525 466.685 99.989)" fill="#FFBE46" fill-opacity="0.4"/>
<rect width="4.90799" height="5.13366" rx="2.454" transform="matrix(0.995854 -0.0909609 0.0835075 0.996507 84 110.26)" fill="#FFBE46" fill-opacity="0.5"/>
<rect width="4.908" height="5.13366" rx="2.454" transform="matrix(0.995833 -0.0911933 0.0832943 0.996525 93.8124 110.26)" fill="#FFBE46" fill-opacity="0.5"/>
<rect width="4.908" height="5.13366" rx="2.454" transform="matrix(0.995833 -0.0911933 0.0832943 0.996525 103.625 110.26)" fill="#FFBE46" fill-opacity="0.5"/>
<rect width="4.908" height="5.13366" rx="2.454" transform="matrix(0.995833 -0.0911933 0.0832943 0.996525 113.437 110.26)" fill="#FFBE46" fill-opacity="0.5"/>
<rect width="4.908" height="5.13366" rx="2.454" transform="matrix(0.995833 -0.0911933 0.0832943 0.996525 123.25 110.26)" fill="#FFBE46" fill-opacity="0.5"/>
<rect width="4.908" height="5.13366" rx="2.454" transform="matrix(0.995833 -0.0911933 0.0832943 0.996525 133.062 110.26)" fill="#FFBE46" fill-opacity="0.5"/>
<rect width="4.908" height="5.13366" rx="2.454" transform="matrix(0.995833 -0.0911933 0.0832943 0.996525 142.875 110.26)" fill="#FFBE46" fill-opacity="0.5"/>
<rect width="4.908" height="5.13366" rx="2.454" transform="matrix(0.995833 -0.0911933 0.0832943 0.996525 152.687 110.26)" fill="#FFBE46" fill-opacity="0.5"/>
<rect width="4.908" height="5.13366" rx="2.454" transform="matrix(0.995833 -0.0911933 0.0832943 0.996525 162.499 110.26)" fill="#FFBE46" fill-opacity="0.5"/>
<rect width="4.908" height="5.13366" rx="2.454" transform="matrix(0.995833 -0.0911933 0.0832943 0.996525 172.312 110.26)" fill="#FFBE46" fill-opacity="0.5"/>
<rect width="4.908" height="5.13366" rx="2.454" transform="matrix(0.995833 -0.0911933 0.0832943 0.996525 182.124 110.26)" fill="#FFBE46" fill-opacity="0.5"/>
<rect width="4.908" height="5.13366" rx="2.454" transform="matrix(0.995833 -0.0911933 0.0832943 0.996525 191.937 110.26)" fill="#FFBE46" fill-opacity="0.5"/>
<rect width="4.908" height="5.13366" rx="2.454" transform="matrix(0.995833 -0.0911933 0.0832943 0.996525 201.749 110.26)" fill="#FFBE46" fill-opacity="0.5"/>
<rect width="4.908" height="5.13366" rx="2.454" transform="matrix(0.995833 -0.0911933 0.0832943 0.996525 211.562 110.26)" fill="#FFBE46" fill-opacity="0.5"/>
<rect width="4.908" height="5.13366" rx="2.454" transform="matrix(0.995833 -0.0911933 0.0832943 0.996525 221.374 110.26)" fill="#FFBE46" fill-opacity="0.5"/>
<rect width="4.908" height="5.13366" rx="2.454" transform="matrix(0.995833 -0.0911933 0.0832943 0.996525 231.186 110.26)" fill="#FFBE46" fill-opacity="0.5"/>
<rect width="4.908" height="5.13366" rx="2.454" transform="matrix(0.995833 -0.0911933 0.0832943 0.996525 240.999 110.26)" fill="#FFBE46" fill-opacity="0.5"/>
<rect width="4.908" height="5.13366" rx="2.454" transform="matrix(0.995833 -0.0911933 0.0832943 0.996525 250.811 110.26)" fill="#FFBE46" fill-opacity="0.5"/>
<rect width="4.908" height="5.13366" rx="2.454" transform="matrix(0.995833 -0.0911933 0.0832943 0.996525 260.624 110.26)" fill="#FFBE46" fill-opacity="0.5"/>
<rect width="4.908" height="5.13366" rx="2.454" transform="matrix(0.995833 -0.0911933 0.0832943 0.996525 270.436 110.26)" fill="#FFBE46" fill-opacity="0.5"/>
<rect width="4.908" height="5.13366" rx="2.454" transform="matrix(0.995833 -0.0911933 0.0832943 0.996525 280.249 110.26)" fill="#FFBE46" fill-opacity="0.5"/>
<rect width="4.908" height="5.13366" rx="2.454" transform="matrix(0.995833 -0.0911933 0.0832943 0.996525 290.061 110.26)" fill="#FFBE46" fill-opacity="0.5"/>
<rect width="4.908" height="5.13366" rx="2.454" transform="matrix(0.995833 -0.0911933 0.0832943 0.996525 299.873 110.26)" fill="#FFBE46" fill-opacity="0.5"/>
<rect width="4.908" height="5.13366" rx="2.454" transform="matrix(0.995833 -0.0911933 0.0832943 0.996525 309.686 110.26)" fill="#FFBE46" fill-opacity="0.5"/>
<rect width="4.908" height="5.13366" rx="2.454" transform="matrix(0.995833 -0.0911933 0.0832943 0.996525 319.498 110.26)" fill="#FFBE46" fill-opacity="0.5"/>
<rect width="4.908" height="5.13366" rx="2.454" transform="matrix(0.995833 -0.0911933 0.0832943 0.996525 329.311 110.26)" fill="#FFBE46" fill-opacity="0.5"/>
<rect width="4.908" height="5.13366" rx="2.454" transform="matrix(0.995833 -0.0911933 0.0832943 0.996525 339.123 110.26)" fill="#FFBE46" fill-opacity="0.5"/>
<rect width="4.908" height="5.13366" rx="2.454" transform="matrix(0.995833 -0.0911933 0.0832943 0.996525 348.936 110.26)" fill="#FFBE46" fill-opacity="0.5"/>
<rect width="4.908" height="5.13366" rx="2.454" transform="matrix(0.995833 -0.0911933 0.0832943 0.996525 358.748 110.26)" fill="#FFBE46" fill-opacity="0.5"/>
<rect width="4.908" height="5.13366" rx="2.454" transform="matrix(0.995833 -0.0911933 0.0832943 0.996525 368.561 110.26)" fill="#FFBE46" fill-opacity="0.5"/>
<rect width="4.908" height="5.13366" rx="2.454" transform="matrix(0.995833 -0.0911933 0.0832943 0.996525 378.373 110.26)" fill="#FFBE46" fill-opacity="0.5"/>
<rect width="4.908" height="5.13366" rx="2.454" transform="matrix(0.995833 -0.0911933 0.0832943 0.996525 388.185 110.26)" fill="#FFBE46" fill-opacity="0.5"/>
<rect width="4.908" height="5.13366" rx="2.454" transform="matrix(0.995833 -0.0911933 0.0832943 0.996525 397.998 110.26)" fill="#FFBE46" fill-opacity="0.5"/>
<rect width="4.908" height="5.13366" rx="2.454" transform="matrix(0.995833 -0.0911933 0.0832943 0.996525 407.81 110.26)" fill="#FFBE46" fill-opacity="0.5"/>
<rect width="4.908" height="5.13366" rx="2.454" transform="matrix(0.995833 -0.0911933 0.0832943 0.996525 417.623 110.26)" fill="#FFBE46" fill-opacity="0.5"/>
<rect width="4.908" height="5.13366" rx="2.454" transform="matrix(0.995833 -0.0911933 0.0832943 0.996525 427.435 110.26)" fill="#FFBE46" fill-opacity="0.5"/>
<rect width="4.908" height="5.13366" rx="2.454" transform="matrix(0.995833 -0.0911933 0.0832943 0.996525 437.248 110.26)" fill="#FFBE46" fill-opacity="0.5"/>
<rect width="4.908" height="5.13366" rx="2.454" transform="matrix(0.995833 -0.0911933 0.0832943 0.996525 447.06 110.26)" fill="#FFBE46" fill-opacity="0.5"/>
<rect width="4.908" height="5.13366" rx="2.454" transform="matrix(0.995833 -0.0911933 0.0832943 0.996525 456.872 110.26)" fill="#FFBE46" fill-opacity="0.5"/>
<rect width="4.908" height="5.13366" rx="2.454" transform="matrix(0.995833 -0.0911933 0.0832943 0.996525 466.685 110.26)" fill="#FFBE46" fill-opacity="0.5"/>
<rect width="4.90799" height="5.13366" rx="2.454" transform="matrix(0.995854 -0.0909609 0.0835075 0.996507 84 120.531)" fill="#FFBE46" fill-opacity="0.6"/>
<rect width="4.908" height="5.13366" rx="2.454" transform="matrix(0.995833 -0.0911933 0.0832943 0.996525 93.8124 120.531)" fill="#FFBE46" fill-opacity="0.6"/>
<rect width="4.908" height="5.13366" rx="2.454" transform="matrix(0.995833 -0.0911933 0.0832943 0.996525 103.625 120.531)" fill="#FFBE46" fill-opacity="0.6"/>
<rect width="4.908" height="5.13366" rx="2.454" transform="matrix(0.995833 -0.0911933 0.0832943 0.996525 113.437 120.531)" fill="#FFBE46" fill-opacity="0.6"/>
<rect width="4.908" height="5.13366" rx="2.454" transform="matrix(0.995833 -0.0911933 0.0832943 0.996525 123.25 120.531)" fill="#FFBE46" fill-opacity="0.6"/>
<rect width="4.908" height="5.13366" rx="2.454" transform="matrix(0.995833 -0.0911933 0.0832943 0.996525 133.062 120.531)" fill="#FFBE46" fill-opacity="0.6"/>
<rect width="4.908" height="5.13366" rx="2.454" transform="matrix(0.995833 -0.0911933 0.0832943 0.996525 142.875 120.531)" fill="#FFBE46" fill-opacity="0.6"/>
<rect width="4.908" height="5.13366" rx="2.454" transform="matrix(0.995833 -0.0911933 0.0832943 0.996525 152.687 120.531)" fill="#FFBE46" fill-opacity="0.6"/>
<rect width="4.908" height="5.13366" rx="2.454" transform="matrix(0.995833 -0.0911933 0.0832943 0.996525 162.499 120.531)" fill="#FFBE46" fill-opacity="0.6"/>
<rect width="4.908" height="5.13366" rx="2.454" transform="matrix(0.995833 -0.0911933 0.0832943 0.996525 172.312 120.531)" fill="#FFBE46" fill-opacity="0.6"/>
<rect width="4.908" height="5.13366" rx="2.454" transform="matrix(0.995833 -0.0911933 0.0832943 0.996525 182.124 120.531)" fill="#FFBE46" fill-opacity="0.6"/>
<rect width="4.908" height="5.13366" rx="2.454" transform="matrix(0.995833 -0.0911933 0.0832943 0.996525 191.937 120.531)" fill="#FFBE46" fill-opacity="0.6"/>
<rect width="4.908" height="5.13366" rx="2.454" transform="matrix(0.995833 -0.0911933 0.0832943 0.996525 201.749 120.531)" fill="#FFBE46" fill-opacity="0.6"/>
<rect width="4.908" height="5.13366" rx="2.454" transform="matrix(0.995833 -0.0911933 0.0832943 0.996525 211.562 120.531)" fill="#FFBE46" fill-opacity="0.6"/>
<rect width="4.908" height="5.13366" rx="2.454" transform="matrix(0.995833 -0.0911933 0.0832943 0.996525 221.374 120.531)" fill="#FFBE46" fill-opacity="0.6"/>
<rect width="4.908" height="5.13366" rx="2.454" transform="matrix(0.995833 -0.0911933 0.0832943 0.996525 231.186 120.531)" fill="#FFBE46" fill-opacity="0.6"/>
<rect width="4.908" height="5.13366" rx="2.454" transform="matrix(0.995833 -0.0911933 0.0832943 0.996525 240.999 120.531)" fill="#FFBE46" fill-opacity="0.6"/>
<rect width="4.908" height="5.13366" rx="2.454" transform="matrix(0.995833 -0.0911933 0.0832943 0.996525 250.811 120.531)" fill="#FFBE46" fill-opacity="0.6"/>
<rect width="4.908" height="5.13366" rx="2.454" transform="matrix(0.995833 -0.0911933 0.0832943 0.996525 260.624 120.531)" fill="#FFBE46" fill-opacity="0.6"/>
<rect width="4.908" height="5.13366" rx="2.454" transform="matrix(0.995833 -0.0911933 0.0832943 0.996525 270.436 120.531)" fill="#FFBE46" fill-opacity="0.6"/>
<rect width="4.908" height="5.13366" rx="2.454" transform="matrix(0.995833 -0.0911933 0.0832943 0.996525 280.249 120.531)" fill="#FFBE46" fill-opacity="0.6"/>
<rect width="4.908" height="5.13366" rx="2.454" transform="matrix(0.995833 -0.0911933 0.0832943 0.996525 290.061 120.531)" fill="#FFBE46" fill-opacity="0.6"/>
<rect width="4.908" height="5.13366" rx="2.454" transform="matrix(0.995833 -0.0911933 0.0832943 0.996525 299.873 120.531)" fill="#FFBE46" fill-opacity="0.6"/>
<rect width="4.908" height="5.13366" rx="2.454" transform="matrix(0.995833 -0.0911933 0.0832943 0.996525 309.686 120.531)" fill="#FFBE46" fill-opacity="0.6"/>
<rect width="4.908" height="5.13366" rx="2.454" transform="matrix(0.995833 -0.0911933 0.0832943 0.996525 319.498 120.531)" fill="#FFBE46" fill-opacity="0.6"/>
<rect width="4.908" height="5.13366" rx="2.454" transform="matrix(0.995833 -0.0911933 0.0832943 0.996525 329.311 120.531)" fill="#FFBE46" fill-opacity="0.6"/>
<rect width="4.908" height="5.13366" rx="2.454" transform="matrix(0.995833 -0.0911933 0.0832943 0.996525 339.123 120.531)" fill="#FFBE46" fill-opacity="0.6"/>
<rect width="4.908" height="5.13366" rx="2.454" transform="matrix(0.995833 -0.0911933 0.0832943 0.996525 348.936 120.531)" fill="#FFBE46" fill-opacity="0.6"/>
<rect width="4.908" height="5.13366" rx="2.454" transform="matrix(0.995833 -0.0911933 0.0832943 0.996525 358.748 120.531)" fill="#FFBE46" fill-opacity="0.6"/>
<rect width="4.908" height="5.13366" rx="2.454" transform="matrix(0.995833 -0.0911933 0.0832943 0.996525 368.561 120.531)" fill="#FFBE46" fill-opacity="0.6"/>
<rect width="4.908" height="5.13366" rx="2.454" transform="matrix(0.995833 -0.0911933 0.0832943 0.996525 378.373 120.531)" fill="#FFBE46" fill-opacity="0.6"/>
<rect width="4.908" height="5.13366" rx="2.454" transform="matrix(0.995833 -0.0911933 0.0832943 0.996525 388.185 120.531)" fill="#FFBE46" fill-opacity="0.6"/>
<rect width="4.908" height="5.13366" rx="2.454" transform="matrix(0.995833 -0.0911933 0.0832943 0.996525 397.998 120.531)" fill="#FFBE46" fill-opacity="0.6"/>
<rect width="4.908" height="5.13366" rx="2.454" transform="matrix(0.995833 -0.0911933 0.0832943 0.996525 407.81 120.531)" fill="#FFBE46" fill-opacity="0.6"/>
<rect width="4.908" height="5.13366" rx="2.454" transform="matrix(0.995833 -0.0911933 0.0832943 0.996525 417.623 120.531)" fill="#FFBE46" fill-opacity="0.6"/>
<rect width="4.908" height="5.13366" rx="2.454" transform="matrix(0.995833 -0.0911933 0.0832943 0.996525 427.435 120.531)" fill="#FFBE46" fill-opacity="0.6"/>
<rect width="4.908" height="5.13366" rx="2.454" transform="matrix(0.995833 -0.0911933 0.0832943 0.996525 437.248 120.531)" fill="#FFBE46" fill-opacity="0.6"/>
<rect width="4.908" height="5.13366" rx="2.454" transform="matrix(0.995833 -0.0911933 0.0832943 0.996525 447.06 120.531)" fill="#FFBE46" fill-opacity="0.6"/>
<rect width="4.908" height="5.13366" rx="2.454" transform="matrix(0.995833 -0.0911933 0.0832943 0.996525 456.872 120.531)" fill="#FFBE46" fill-opacity="0.6"/>
<rect width="4.908" height="5.13366" rx="2.454" transform="matrix(0.995833 -0.0911933 0.0832943 0.996525 466.685 120.531)" fill="#FFBE46" fill-opacity="0.6"/>
<rect width="4.90799" height="5.13366" rx="2.454" transform="matrix(0.995854 -0.0909609 0.0835075 0.996507 84 130.801)" fill="#FFBE46" fill-opacity="0.7"/>
<rect width="4.908" height="5.13366" rx="2.454" transform="matrix(0.995833 -0.0911933 0.0832943 0.996525 93.8124 130.801)" fill="#FFBE46" fill-opacity="0.7"/>
<rect width="4.908" height="5.13366" rx="2.454" transform="matrix(0.995833 -0.0911933 0.0832943 0.996525 103.625 130.801)" fill="#FFBE46" fill-opacity="0.7"/>
<rect width="4.908" height="5.13366" rx="2.454" transform="matrix(0.995833 -0.0911933 0.0832943 0.996525 113.437 130.801)" fill="#FFBE46" fill-opacity="0.7"/>
<rect width="4.908" height="5.13366" rx="2.454" transform="matrix(0.995833 -0.0911933 0.0832943 0.996525 123.25 130.801)" fill="#FFBE46" fill-opacity="0.7"/>
<rect width="4.908" height="5.13366" rx="2.454" transform="matrix(0.995833 -0.0911933 0.0832943 0.996525 133.062 130.801)" fill="#FFBE46" fill-opacity="0.7"/>
<rect width="4.908" height="5.13366" rx="2.454" transform="matrix(0.995833 -0.0911933 0.0832943 0.996525 142.875 130.801)" fill="#FFBE46" fill-opacity="0.7"/>
<rect width="4.908" height="5.13366" rx="2.454" transform="matrix(0.995833 -0.0911933 0.0832943 0.996525 152.687 130.801)" fill="#FFBE46" fill-opacity="0.7"/>
<rect width="4.908" height="5.13366" rx="2.454" transform="matrix(0.995833 -0.0911933 0.0832943 0.996525 162.499 130.801)" fill="#FFBE46" fill-opacity="0.7"/>
<rect width="4.908" height="5.13366" rx="2.454" transform="matrix(0.995833 -0.0911933 0.0832943 0.996525 172.312 130.801)" fill="#FFBE46" fill-opacity="0.7"/>
<rect width="4.908" height="5.13366" rx="2.454" transform="matrix(0.995833 -0.0911933 0.0832943 0.996525 182.124 130.801)" fill="#FFBE46" fill-opacity="0.7"/>
<rect width="4.908" height="5.13366" rx="2.454" transform="matrix(0.995833 -0.0911933 0.0832943 0.996525 191.937 130.801)" fill="#FFBE46" fill-opacity="0.7"/>
<rect width="4.908" height="5.13366" rx="2.454" transform="matrix(0.995833 -0.0911933 0.0832943 0.996525 201.749 130.801)" fill="#FFBE46" fill-opacity="0.7"/>
<rect width="4.908" height="5.13366" rx="2.454" transform="matrix(0.995833 -0.0911933 0.0832943 0.996525 211.562 130.801)" fill="#FFBE46" fill-opacity="0.7"/>
<rect width="4.908" height="5.13366" rx="2.454" transform="matrix(0.995833 -0.0911933 0.0832943 0.996525 221.374 130.801)" fill="#FFBE46" fill-opacity="0.7"/>
<rect width="4.908" height="5.13366" rx="2.454" transform="matrix(0.995833 -0.0911933 0.0832943 0.996525 231.186 130.801)" fill="#FFBE46" fill-opacity="0.7"/>
<rect width="4.908" height="5.13366" rx="2.454" transform="matrix(0.995833 -0.0911933 0.0832943 0.996525 240.999 130.801)" fill="#FFBE46" fill-opacity="0.7"/>
<rect width="4.908" height="5.13366" rx="2.454" transform="matrix(0.995833 -0.0911933 0.0832943 0.996525 250.811 130.801)" fill="#FFBE46" fill-opacity="0.7"/>
<rect width="4.908" height="5.13366" rx="2.454" transform="matrix(0.995833 -0.0911933 0.0832943 0.996525 260.624 130.801)" fill="#FFBE46" fill-opacity="0.7"/>
<rect width="4.908" height="5.13366" rx="2.454" transform="matrix(0.995833 -0.0911933 0.0832943 0.996525 270.436 130.801)" fill="#FFBE46" fill-opacity="0.7"/>
<rect width="4.908" height="5.13366" rx="2.454" transform="matrix(0.995833 -0.0911933 0.0832943 0.996525 280.249 130.801)" fill="#FFBE46" fill-opacity="0.7"/>
<rect width="4.908" height="5.13366" rx="2.454" transform="matrix(0.995833 -0.0911933 0.0832943 0.996525 290.061 130.801)" fill="#FFBE46" fill-opacity="0.7"/>
<rect width="4.908" height="5.13366" rx="2.454" transform="matrix(0.995833 -0.0911933 0.0832943 0.996525 299.873 130.801)" fill="#FFBE46" fill-opacity="0.7"/>
<rect width="4.908" height="5.13366" rx="2.454" transform="matrix(0.995833 -0.0911933 0.0832943 0.996525 309.686 130.801)" fill="#FFBE46" fill-opacity="0.7"/>
<rect width="4.908" height="5.13366" rx="2.454" transform="matrix(0.995833 -0.0911933 0.0832943 0.996525 319.498 130.801)" fill="#FFBE46" fill-opacity="0.7"/>
<rect width="4.908" height="5.13366" rx="2.454" transform="matrix(0.995833 -0.0911933 0.0832943 0.996525 329.311 130.801)" fill="#FFBE46" fill-opacity="0.7"/>
<rect width="4.908" height="5.13366" rx="2.454" transform="matrix(0.995833 -0.0911933 0.0832943 0.996525 339.123 130.801)" fill="#FFBE46" fill-opacity="0.7"/>
<rect width="4.908" height="5.13366" rx="2.454" transform="matrix(0.995833 -0.0911933 0.0832943 0.996525 348.936 130.801)" fill="#FFBE46" fill-opacity="0.7"/>
<rect width="4.908" height="5.13366" rx="2.454" transform="matrix(0.995833 -0.0911933 0.0832943 0.996525 358.748 130.801)" fill="#FFBE46" fill-opacity="0.7"/>
<rect width="4.908" height="5.13366" rx="2.454" transform="matrix(0.995833 -0.0911933 0.0832943 0.996525 368.561 130.801)" fill="#FFBE46" fill-opacity="0.7"/>
<rect width="4.908" height="5.13366" rx="2.454" transform="matrix(0.995833 -0.0911933 0.0832943 0.996525 378.373 130.801)" fill="#FFBE46" fill-opacity="0.7"/>
<rect width="4.908" height="5.13366" rx="2.454" transform="matrix(0.995833 -0.0911933 0.0832943 0.996525 388.185 130.801)" fill="#FFBE46" fill-opacity="0.7"/>
<rect width="4.908" height="5.13366" rx="2.454" transform="matrix(0.995833 -0.0911933 0.0832943 0.996525 397.998 130.801)" fill="#FFBE46" fill-opacity="0.7"/>
<rect width="4.908" height="5.13366" rx="2.454" transform="matrix(0.995833 -0.0911933 0.0832943 0.996525 407.81 130.801)" fill="#FFBE46" fill-opacity="0.7"/>
<rect width="4.908" height="5.13366" rx="2.454" transform="matrix(0.995833 -0.0911933 0.0832943 0.996525 417.623 130.801)" fill="#FFBE46" fill-opacity="0.7"/>
<rect width="4.908" height="5.13366" rx="2.454" transform="matrix(0.995833 -0.0911933 0.0832943 0.996525 427.435 130.801)" fill="#FFBE46" fill-opacity="0.7"/>
<rect width="4.908" height="5.13366" rx="2.454" transform="matrix(0.995833 -0.0911933 0.0832943 0.996525 437.248 130.801)" fill="#FFBE46" fill-opacity="0.7"/>
<rect width="4.908" height="5.13366" rx="2.454" transform="matrix(0.995833 -0.0911933 0.0832943 0.996525 447.06 130.801)" fill="#FFBE46" fill-opacity="0.7"/>
<rect width="4.908" height="5.13366" rx="2.454" transform="matrix(0.995833 -0.0911933 0.0832943 0.996525 456.872 130.801)" fill="#FFBE46" fill-opacity="0.7"/>
<rect width="4.908" height="5.13366" rx="2.454" transform="matrix(0.995833 -0.0911933 0.0832943 0.996525 466.685 130.801)" fill="#FFBE46" fill-opacity="0.7"/>
<rect width="4.90799" height="5.13366" rx="2.454" transform="matrix(0.995854 -0.0909609 0.0835075 0.996507 84 141.072)" fill="#FFBE46" fill-opacity="0.8"/>
<rect width="4.908" height="5.13366" rx="2.454" transform="matrix(0.995833 -0.0911933 0.0832943 0.996525 93.8124 141.072)" fill="#FFBE46" fill-opacity="0.8"/>
<rect width="4.908" height="5.13366" rx="2.454" transform="matrix(0.995833 -0.0911933 0.0832943 0.996525 103.625 141.072)" fill="#FFBE46" fill-opacity="0.8"/>
<rect width="4.908" height="5.13366" rx="2.454" transform="matrix(0.995833 -0.0911933 0.0832943 0.996525 113.437 141.072)" fill="#FFBE46" fill-opacity="0.8"/>
<rect width="4.908" height="5.13366" rx="2.454" transform="matrix(0.995833 -0.0911933 0.0832943 0.996525 123.25 141.072)" fill="#FFBE46" fill-opacity="0.8"/>
<rect width="4.908" height="5.13366" rx="2.454" transform="matrix(0.995833 -0.0911933 0.0832943 0.996525 133.062 141.072)" fill="#FFBE46" fill-opacity="0.8"/>
<rect width="4.908" height="5.13366" rx="2.454" transform="matrix(0.995833 -0.0911933 0.0832943 0.996525 142.875 141.072)" fill="#FFBE46" fill-opacity="0.8"/>
<rect width="4.908" height="5.13366" rx="2.454" transform="matrix(0.995833 -0.0911933 0.0832943 0.996525 152.687 141.072)" fill="#FFBE46" fill-opacity="0.8"/>
<rect width="4.908" height="5.13366" rx="2.454" transform="matrix(0.995833 -0.0911933 0.0832943 0.996525 162.499 141.072)" fill="#FFBE46" fill-opacity="0.8"/>
<rect width="4.908" height="5.13366" rx="2.454" transform="matrix(0.995833 -0.0911933 0.0832943 0.996525 172.312 141.072)" fill="#FFBE46" fill-opacity="0.8"/>
<rect width="4.908" height="5.13366" rx="2.454" transform="matrix(0.995833 -0.0911933 0.0832943 0.996525 182.124 141.072)" fill="#FFBE46" fill-opacity="0.8"/>
<rect width="4.908" height="5.13366" rx="2.454" transform="matrix(0.995833 -0.0911933 0.0832943 0.996525 191.937 141.072)" fill="#FFBE46" fill-opacity="0.8"/>
<rect width="4.908" height="5.13366" rx="2.454" transform="matrix(0.995833 -0.0911933 0.0832943 0.996525 201.749 141.072)" fill="#FFBE46" fill-opacity="0.8"/>
<rect width="4.908" height="5.13366" rx="2.454" transform="matrix(0.995833 -0.0911933 0.0832943 0.996525 211.562 141.072)" fill="#FFBE46" fill-opacity="0.8"/>
<rect width="4.908" height="5.13366" rx="2.454" transform="matrix(0.995833 -0.0911933 0.0832943 0.996525 221.374 141.072)" fill="#FFBE46" fill-opacity="0.8"/>
<rect width="4.908" height="5.13366" rx="2.454" transform="matrix(0.995833 -0.0911933 0.0832943 0.996525 231.186 141.072)" fill="#FFBE46" fill-opacity="0.8"/>
<rect width="4.908" height="5.13366" rx="2.454" transform="matrix(0.995833 -0.0911933 0.0832943 0.996525 240.999 141.072)" fill="#FFBE46" fill-opacity="0.8"/>
<rect width="4.908" height="5.13366" rx="2.454" transform="matrix(0.995833 -0.0911933 0.0832943 0.996525 250.811 141.072)" fill="#FFBE46" fill-opacity="0.8"/>
<rect width="4.908" height="5.13366" rx="2.454" transform="matrix(0.995833 -0.0911933 0.0832943 0.996525 260.624 141.072)" fill="#FFBE46" fill-opacity="0.8"/>
<rect width="4.908" height="5.13366" rx="2.454" transform="matrix(0.995833 -0.0911933 0.0832943 0.996525 270.436 141.072)" fill="#FFBE46" fill-opacity="0.8"/>
<rect width="4.908" height="5.13366" rx="2.454" transform="matrix(0.995833 -0.0911933 0.0832943 0.996525 280.249 141.072)" fill="#FFBE46" fill-opacity="0.8"/>
<rect width="4.908" height="5.13366" rx="2.454" transform="matrix(0.995833 -0.0911933 0.0832943 0.996525 290.061 141.072)" fill="#FFBE46" fill-opacity="0.8"/>
<rect width="4.908" height="5.13366" rx="2.454" transform="matrix(0.995833 -0.0911933 0.0832943 0.996525 299.873 141.072)" fill="#FFBE46" fill-opacity="0.8"/>
<rect width="4.908" height="5.13366" rx="2.454" transform="matrix(0.995833 -0.0911933 0.0832943 0.996525 309.686 141.072)" fill="#FFBE46" fill-opacity="0.8"/>
<rect width="4.908" height="5.13366" rx="2.454" transform="matrix(0.995833 -0.0911933 0.0832943 0.996525 319.498 141.072)" fill="#FFBE46" fill-opacity="0.8"/>
<rect width="4.908" height="5.13366" rx="2.454" transform="matrix(0.995833 -0.0911933 0.0832943 0.996525 329.311 141.072)" fill="#FFBE46" fill-opacity="0.8"/>
<rect width="4.908" height="5.13366" rx="2.454" transform="matrix(0.995833 -0.0911933 0.0832943 0.996525 339.123 141.072)" fill="#FFBE46" fill-opacity="0.8"/>
<rect width="4.908" height="5.13366" rx="2.454" transform="matrix(0.995833 -0.0911933 0.0832943 0.996525 348.936 141.072)" fill="#FFBE46" fill-opacity="0.8"/>
<rect width="4.908" height="5.13366" rx="2.454" transform="matrix(0.995833 -0.0911933 0.0832943 0.996525 358.748 141.072)" fill="#FFBE46" fill-opacity="0.8"/>
<rect width="4.908" height="5.13366" rx="2.454" transform="matrix(0.995833 -0.0911933 0.0832943 0.996525 368.561 141.072)" fill="#FFBE46" fill-opacity="0.8"/>
<rect width="4.908" height="5.13366" rx="2.454" transform="matrix(0.995833 -0.0911933 0.0832943 0.996525 378.373 141.072)" fill="#FFBE46" fill-opacity="0.8"/>
<rect width="4.908" height="5.13366" rx="2.454" transform="matrix(0.995833 -0.0911933 0.0832943 0.996525 388.185 141.072)" fill="#FFBE46" fill-opacity="0.8"/>
<rect width="4.908" height="5.13366" rx="2.454" transform="matrix(0.995833 -0.0911933 0.0832943 0.996525 397.998 141.072)" fill="#FFBE46" fill-opacity="0.8"/>
<rect width="4.908" height="5.13366" rx="2.454" transform="matrix(0.995833 -0.0911933 0.0832943 0.996525 407.81 141.072)" fill="#FFBE46" fill-opacity="0.8"/>
<rect width="4.908" height="5.13366" rx="2.454" transform="matrix(0.995833 -0.0911933 0.0832943 0.996525 417.623 141.072)" fill="#FFBE46" fill-opacity="0.8"/>
<rect width="4.908" height="5.13366" rx="2.454" transform="matrix(0.995833 -0.0911933 0.0832943 0.996525 427.435 141.072)" fill="#FFBE46" fill-opacity="0.8"/>
<rect width="4.908" height="5.13366" rx="2.454" transform="matrix(0.995833 -0.0911933 0.0832943 0.996525 437.248 141.072)" fill="#FFBE46" fill-opacity="0.8"/>
<rect width="4.908" height="5.13366" rx="2.454" transform="matrix(0.995833 -0.0911933 0.0832943 0.996525 447.06 141.072)" fill="#FFBE46" fill-opacity="0.8"/>
<rect width="4.908" height="5.13366" rx="2.454" transform="matrix(0.995833 -0.0911933 0.0832943 0.996525 456.872 141.072)" fill="#FFBE46" fill-opacity="0.8"/>
<rect width="4.908" height="5.13366" rx="2.454" transform="matrix(0.995833 -0.0911933 0.0832943 0.996525 466.685 141.072)" fill="#FFBE46" fill-opacity="0.8"/>
<rect width="4.90799" height="5.13366" rx="2.454" transform="matrix(0.995854 -0.0909609 0.0835075 0.996507 84 151.343)" fill="#FFBE46"/>
<rect width="4.908" height="5.13366" rx="2.454" transform="matrix(0.995833 -0.0911933 0.0832943 0.996525 93.8124 151.343)" fill="#FFBE46"/>
<rect width="4.908" height="5.13366" rx="2.454" transform="matrix(0.995833 -0.0911933 0.0832943 0.996525 103.625 151.343)" fill="#FFBE46"/>
<rect width="4.908" height="5.13366" rx="2.454" transform="matrix(0.995833 -0.0911933 0.0832943 0.996525 113.437 151.343)" fill="#FFBE46"/>
<rect width="4.908" height="5.13366" rx="2.454" transform="matrix(0.995833 -0.0911933 0.0832943 0.996525 123.25 151.343)" fill="#FFBE46"/>
<rect width="4.908" height="5.13366" rx="2.454" transform="matrix(0.995833 -0.0911933 0.0832943 0.996525 133.062 151.343)" fill="#FFBE46"/>
<rect width="4.908" height="5.13366" rx="2.454" transform="matrix(0.995833 -0.0911933 0.0832943 0.996525 142.875 151.343)" fill="#FFBE46"/>
<rect width="4.908" height="5.13366" rx="2.454" transform="matrix(0.995833 -0.0911933 0.0832943 0.996525 152.687 151.343)" fill="#FFBE46"/>
<rect width="4.908" height="5.13366" rx="2.454" transform="matrix(0.995833 -0.0911933 0.0832943 0.996525 162.499 151.343)" fill="#FFBE46"/>
<rect width="4.908" height="5.13366" rx="2.454" transform="matrix(0.995833 -0.0911933 0.0832943 0.996525 172.312 151.343)" fill="#FFBE46"/>
<rect width="4.908" height="5.13366" rx="2.454" transform="matrix(0.995833 -0.0911933 0.0832943 0.996525 182.124 151.343)" fill="#FFBE46"/>
<rect width="4.908" height="5.13366" rx="2.454" transform="matrix(0.995833 -0.0911933 0.0832943 0.996525 191.937 151.343)" fill="#FFBE46"/>
<rect width="4.908" height="5.13366" rx="2.454" transform="matrix(0.995833 -0.0911933 0.0832943 0.996525 201.749 151.343)" fill="#FFBE46"/>
<rect width="4.908" height="5.13366" rx="2.454" transform="matrix(0.995833 -0.0911933 0.0832943 0.996525 211.562 151.343)" fill="#FFBE46"/>
<rect width="4.908" height="5.13366" rx="2.454" transform="matrix(0.995833 -0.0911933 0.0832943 0.996525 221.374 151.343)" fill="#FFBE46"/>
<rect width="4.908" height="5.13366" rx="2.454" transform="matrix(0.995833 -0.0911933 0.0832943 0.996525 231.186 151.343)" fill="#FFBE46"/>
<rect width="4.908" height="5.13366" rx="2.454" transform="matrix(0.995833 -0.0911933 0.0832943 0.996525 240.999 151.343)" fill="#FFBE46"/>
<rect width="4.908" height="5.13366" rx="2.454" transform="matrix(0.995833 -0.0911933 0.0832943 0.996525 250.811 151.343)" fill="#FFBE46"/>
<rect width="4.908" height="5.13366" rx="2.454" transform="matrix(0.995833 -0.0911933 0.0832943 0.996525 260.624 151.343)" fill="#FFBE46"/>
<rect width="4.908" height="5.13366" rx="2.454" transform="matrix(0.995833 -0.0911933 0.0832943 0.996525 270.436 151.343)" fill="#FFBE46"/>
<rect width="4.908" height="5.13366" rx="2.454" transform="matrix(0.995833 -0.0911933 0.0832943 0.996525 280.249 151.343)" fill="#FFBE46"/>
<rect width="4.908" height="5.13366" rx="2.454" transform="matrix(0.995833 -0.0911933 0.0832943 0.996525 290.061 151.343)" fill="#FFBE46"/>
<rect width="4.908" height="5.13366" rx="2.454" transform="matrix(0.995833 -0.0911933 0.0832943 0.996525 299.873 151.343)" fill="#FFBE46"/>
<rect width="4.908" height="5.13366" rx="2.454" transform="matrix(0.995833 -0.0911933 0.0832943 0.996525 309.686 151.343)" fill="#FFBE46"/>
<rect width="4.908" height="5.13366" rx="2.454" transform="matrix(0.995833 -0.0911933 0.0832943 0.996525 319.498 151.343)" fill="#FFBE46"/>
<rect width="4.908" height="5.13366" rx="2.454" transform="matrix(0.995833 -0.0911933 0.0832943 0.996525 329.311 151.343)" fill="#FFBE46"/>
<rect width="4.908" height="5.13366" rx="2.454" transform="matrix(0.995833 -0.0911933 0.0832943 0.996525 339.123 151.343)" fill="#FFBE46"/>
<rect width="4.908" height="5.13366" rx="2.454" transform="matrix(0.995833 -0.0911933 0.0832943 0.996525 348.936 151.343)" fill="#FFBE46"/>
<rect width="4.908" height="5.13366" rx="2.454" transform="matrix(0.995833 -0.0911933 0.0832943 0.996525 358.748 151.343)" fill="#FFBE46"/>
<rect width="4.908" height="5.13366" rx="2.454" transform="matrix(0.995833 -0.0911933 0.0832943 0.996525 368.561 151.343)" fill="#FFBE46"/>
<rect width="4.908" height="5.13366" rx="2.454" transform="matrix(0.995833 -0.0911933 0.0832943 0.996525 378.373 151.343)" fill="#FFBE46"/>
<rect width="4.908" height="5.13366" rx="2.454" transform="matrix(0.995833 -0.0911933 0.0832943 0.996525 388.185 151.343)" fill="#FFBE46"/>
<rect width="4.908" height="5.13366" rx="2.454" transform="matrix(0.995833 -0.0911933 0.0832943 0.996525 397.998 151.343)" fill="#FFBE46"/>
<rect width="4.908" height="5.13366" rx="2.454" transform="matrix(0.995833 -0.0911933 0.0832943 0.996525 407.81 151.343)" fill="#FFBE46"/>
<rect width="4.908" height="5.13366" rx="2.454" transform="matrix(0.995833 -0.0911933 0.0832943 0.996525 417.623 151.343)" fill="#FFBE46"/>
<rect width="4.908" height="5.13366" rx="2.454" transform="matrix(0.995833 -0.0911933 0.0832943 0.996525 427.435 151.343)" fill="#FFBE46"/>
<rect width="4.908" height="5.13366" rx="2.454" transform="matrix(0.995833 -0.0911933 0.0832943 0.996525 437.248 151.343)" fill="#FFBE46"/>
<rect width="4.908" height="5.13366" rx="2.454" transform="matrix(0.995833 -0.0911933 0.0832943 0.996525 447.06 151.343)" fill="#FFBE46"/>
<rect width="4.908" height="5.13366" rx="2.454" transform="matrix(0.995833 -0.0911933 0.0832943 0.996525 456.872 151.343)" fill="#FFBE46"/>
<rect width="4.908" height="5.13366" rx="2.454" transform="matrix(0.995833 -0.0911933 0.0832943 0.996525 466.685 151.343)" fill="#FFBE46"/>
<rect width="4.90799" height="5.13366" rx="2.454" transform="matrix(0.995854 -0.0909609 0.0835075 0.996507 84 161.613)" fill="#FFBE46"/>
<rect width="4.908" height="5.13366" rx="2.454" transform="matrix(0.995833 -0.0911933 0.0832943 0.996525 93.8124 161.613)" fill="#FFBE46"/>
<rect width="4.908" height="5.13366" rx="2.454" transform="matrix(0.995833 -0.0911933 0.0832943 0.996525 103.625 161.613)" fill="#FFBE46"/>
<rect width="4.908" height="5.13366" rx="2.454" transform="matrix(0.995833 -0.0911933 0.0832943 0.996525 113.437 161.613)" fill="#FFBE46"/>
<rect width="4.908" height="5.13366" rx="2.454" transform="matrix(0.995833 -0.0911933 0.0832943 0.996525 123.25 161.613)" fill="#FFBE46"/>
<rect width="4.908" height="5.13366" rx="2.454" transform="matrix(0.995833 -0.0911933 0.0832943 0.996525 133.062 161.613)" fill="#FFBE46"/>
<rect width="4.908" height="5.13366" rx="2.454" transform="matrix(0.995833 -0.0911933 0.0832943 0.996525 142.875 161.613)" fill="#FFBE46"/>
<rect width="4.908" height="5.13366" rx="2.454" transform="matrix(0.995833 -0.0911933 0.0832943 0.996525 152.687 161.613)" fill="#FFBE46"/>
<rect width="4.908" height="5.13366" rx="2.454" transform="matrix(0.995833 -0.0911933 0.0832943 0.996525 162.499 161.613)" fill="#FFBE46"/>
<rect width="4.908" height="5.13366" rx="2.454" transform="matrix(0.995833 -0.0911933 0.0832943 0.996525 172.312 161.613)" fill="#FFBE46"/>
<rect width="4.908" height="5.13366" rx="2.454" transform="matrix(0.995833 -0.0911933 0.0832943 0.996525 182.124 161.613)" fill="#FFBE46"/>
<rect width="4.908" height="5.13366" rx="2.454" transform="matrix(0.995833 -0.0911933 0.0832943 0.996525 191.937 161.613)" fill="#FFBE46"/>
<rect width="4.908" height="5.13366" rx="2.454" transform="matrix(0.995833 -0.0911933 0.0832943 0.996525 201.749 161.613)" fill="#FFBE46"/>
<rect width="4.908" height="5.13366" rx="2.454" transform="matrix(0.995833 -0.0911933 0.0832943 0.996525 211.562 161.613)" fill="#FFBE46"/>
<rect width="4.908" height="5.13366" rx="2.454" transform="matrix(0.995833 -0.0911933 0.0832943 0.996525 221.374 161.613)" fill="#FFBE46"/>
<rect width="4.908" height="5.13366" rx="2.454" transform="matrix(0.995833 -0.0911933 0.0832943 0.996525 231.186 161.613)" fill="#FFBE46"/>
<rect width="4.908" height="5.13366" rx="2.454" transform="matrix(0.995833 -0.0911933 0.0832943 0.996525 240.999 161.613)" fill="#FFBE46"/>
<rect width="4.908" height="5.13366" rx="2.454" transform="matrix(0.995833 -0.0911933 0.0832943 0.996525 250.811 161.613)" fill="#FFBE46"/>
<rect width="4.908" height="5.13366" rx="2.454" transform="matrix(0.995833 -0.0911933 0.0832943 0.996525 260.624 161.613)" fill="#FFBE46"/>
<rect width="4.908" height="5.13366" rx="2.454" transform="matrix(0.995833 -0.0911933 0.0832943 0.996525 270.436 161.613)" fill="#FFBE46"/>
<rect width="4.908" height="5.13366" rx="2.454" transform="matrix(0.995833 -0.0911933 0.0832943 0.996525 280.249 161.613)" fill="#FFBE46"/>
<rect width="4.908" height="5.13366" rx="2.454" transform="matrix(0.995833 -0.0911933 0.0832943 0.996525 290.061 161.613)" fill="#FFBE46"/>
<rect width="4.908" height="5.13366" rx="2.454" transform="matrix(0.995833 -0.0911933 0.0832943 0.996525 299.873 161.613)" fill="#FFBE46"/>
<rect width="4.908" height="5.13366" rx="2.454" transform="matrix(0.995833 -0.0911933 0.0832943 0.996525 309.686 161.613)" fill="#FFBE46"/>
<rect width="4.908" height="5.13366" rx="2.454" transform="matrix(0.995833 -0.0911933 0.0832943 0.996525 319.498 161.613)" fill="#FFBE46"/>
<rect width="4.908" height="5.13366" rx="2.454" transform="matrix(0.995833 -0.0911933 0.0832943 0.996525 329.311 161.613)" fill="#FFBE46"/>
<rect width="4.908" height="5.13366" rx="2.454" transform="matrix(0.995833 -0.0911933 0.0832943 0.996525 339.123 161.613)" fill="#FFBE46"/>
<rect width="4.908" height="5.13366" rx="2.454" transform="matrix(0.995833 -0.0911933 0.0832943 0.996525 348.936 161.613)" fill="#FFBE46"/>
<rect width="4.908" height="5.13366" rx="2.454" transform="matrix(0.995833 -0.0911933 0.0832943 0.996525 358.748 161.613)" fill="#FFBE46"/>
<rect width="4.908" height="5.13366" rx="2.454" transform="matrix(0.995833 -0.0911933 0.0832943 0.996525 368.561 161.613)" fill="#FFBE46"/>
<rect width="4.908" height="5.13366" rx="2.454" transform="matrix(0.995833 -0.0911933 0.0832943 0.996525 378.373 161.613)" fill="#FFBE46"/>
<rect width="4.908" height="5.13366" rx="2.454" transform="matrix(0.995833 -0.0911933 0.0832943 0.996525 388.185 161.613)" fill="#FFBE46"/>
<rect width="4.908" height="5.13366" rx="2.454" transform="matrix(0.995833 -0.0911933 0.0832943 0.996525 397.998 161.613)" fill="#FFBE46"/>
<rect width="4.908" height="5.13366" rx="2.454" transform="matrix(0.995833 -0.0911933 0.0832943 0.996525 407.81 161.613)" fill="#FFBE46"/>
<rect width="4.908" height="5.13366" rx="2.454" transform="matrix(0.995833 -0.0911933 0.0832943 0.996525 417.623 161.613)" fill="#FFBE46"/>
<rect width="4.908" height="5.13366" rx="2.454" transform="matrix(0.995833 -0.0911933 0.0832943 0.996525 427.435 161.613)" fill="#FFBE46"/>
<rect width="4.908" height="5.13366" rx="2.454" transform="matrix(0.995833 -0.0911933 0.0832943 0.996525 437.248 161.613)" fill="#FFBE46"/>
<rect width="4.908" height="5.13366" rx="2.454" transform="matrix(0.995833 -0.0911933 0.0832943 0.996525 447.06 161.613)" fill="#FFBE46"/>
<rect width="4.908" height="5.13366" rx="2.454" transform="matrix(0.995833 -0.0911933 0.0832943 0.996525 456.872 161.613)" fill="#FFBE46"/>
<rect width="4.908" height="5.13366" rx="2.454" transform="matrix(0.995833 -0.0911933 0.0832943 0.996525 466.685 161.613)" fill="#FFBE46"/>
<rect width="4.90799" height="5.13366" rx="2.454" transform="matrix(0.995854 -0.0909609 0.0835075 0.996507 84 171.884)" fill="#FFBE46"/>
<rect width="4.908" height="5.13366" rx="2.454" transform="matrix(0.995833 -0.0911933 0.0832943 0.996525 93.8124 171.884)" fill="#FFBE46"/>
<rect width="4.908" height="5.13366" rx="2.454" transform="matrix(0.995833 -0.0911933 0.0832943 0.996525 103.625 171.884)" fill="#FFBE46"/>
<rect width="4.908" height="5.13366" rx="2.454" transform="matrix(0.995833 -0.0911933 0.0832943 0.996525 113.437 171.884)" fill="#FFBE46"/>
<rect width="4.908" height="5.13366" rx="2.454" transform="matrix(0.995833 -0.0911933 0.0832943 0.996525 123.25 171.884)" fill="#FFBE46"/>
<rect width="4.908" height="5.13366" rx="2.454" transform="matrix(0.995833 -0.0911933 0.0832943 0.996525 133.062 171.884)" fill="#FFBE46"/>
<rect width="4.908" height="5.13366" rx="2.454" transform="matrix(0.995833 -0.0911933 0.0832943 0.996525 142.875 171.884)" fill="#FFBE46"/>
<rect width="4.908" height="5.13366" rx="2.454" transform="matrix(0.995833 -0.0911933 0.0832943 0.996525 152.687 171.884)" fill="#FFBE46"/>
<rect width="4.908" height="5.13366" rx="2.454" transform="matrix(0.995833 -0.0911933 0.0832943 0.996525 162.499 171.884)" fill="#FFBE46"/>
<rect width="4.908" height="5.13366" rx="2.454" transform="matrix(0.995833 -0.0911933 0.0832943 0.996525 172.312 171.884)" fill="#FFBE46"/>
<rect width="4.908" height="5.13366" rx="2.454" transform="matrix(0.995833 -0.0911933 0.0832943 0.996525 182.124 171.884)" fill="#FFBE46"/>
<rect width="4.908" height="5.13366" rx="2.454" transform="matrix(0.995833 -0.0911933 0.0832943 0.996525 191.937 171.884)" fill="#FFBE46"/>
<rect width="4.908" height="5.13366" rx="2.454" transform="matrix(0.995833 -0.0911933 0.0832943 0.996525 201.749 171.884)" fill="#FFBE46"/>
<rect width="4.908" height="5.13366" rx="2.454" transform="matrix(0.995833 -0.0911933 0.0832943 0.996525 211.562 171.884)" fill="#FFBE46"/>
<rect width="4.908" height="5.13366" rx="2.454" transform="matrix(0.995833 -0.0911933 0.0832943 0.996525 221.374 171.884)" fill="#FFBE46"/>
<rect width="4.908" height="5.13366" rx="2.454" transform="matrix(0.995833 -0.0911933 0.0832943 0.996525 231.186 171.884)" fill="#FFBE46"/>
<rect width="4.908" height="5.13366" rx="2.454" transform="matrix(0.995833 -0.0911933 0.0832943 0.996525 240.999 171.884)" fill="#FFBE46"/>
<rect width="4.908" height="5.13366" rx="2.454" transform="matrix(0.995833 -0.0911933 0.0832943 0.996525 250.811 171.884)" fill="#FFBE46"/>
<rect width="4.908" height="5.13366" rx="2.454" transform="matrix(0.995833 -0.0911933 0.0832943 0.996525 260.624 171.884)" fill="#FFBE46"/>
<rect width="4.908" height="5.13366" rx="2.454" transform="matrix(0.995833 -0.0911933 0.0832943 0.996525 270.436 171.884)" fill="#FFBE46"/>
<rect width="4.908" height="5.13366" rx="2.454" transform="matrix(0.995833 -0.0911933 0.0832943 0.996525 280.249 171.884)" fill="#FFBE46"/>
<rect width="4.908" height="5.13366" rx="2.454" transform="matrix(0.995833 -0.0911933 0.0832943 0.996525 290.061 171.884)" fill="#FFBE46"/>
<rect width="4.908" height="5.13366" rx="2.454" transform="matrix(0.995833 -0.0911933 0.0832943 0.996525 299.873 171.884)" fill="#FFBE46"/>
<rect width="4.908" height="5.13366" rx="2.454" transform="matrix(0.995833 -0.0911933 0.0832943 0.996525 309.686 171.884)" fill="#FFBE46"/>
<rect width="4.908" height="5.13366" rx="2.454" transform="matrix(0.995833 -0.0911933 0.0832943 0.996525 319.498 171.884)" fill="#FFBE46"/>
<rect width="4.908" height="5.13366" rx="2.454" transform="matrix(0.995833 -0.0911933 0.0832943 0.996525 329.311 171.884)" fill="#FFBE46"/>
<rect width="4.908" height="5.13366" rx="2.454" transform="matrix(0.995833 -0.0911933 0.0832943 0.996525 339.123 171.884)" fill="#FFBE46"/>
<rect width="4.908" height="5.13366" rx="2.454" transform="matrix(0.995833 -0.0911933 0.0832943 0.996525 348.936 171.884)" fill="#FFBE46"/>
<rect width="4.908" height="5.13366" rx="2.454" transform="matrix(0.995833 -0.0911933 0.0832943 0.996525 358.748 171.884)" fill="#FFBE46"/>
<rect width="4.908" height="5.13366" rx="2.454" transform="matrix(0.995833 -0.0911933 0.0832943 0.996525 368.561 171.884)" fill="#FFBE46"/>
<rect width="4.908" height="5.13366" rx="2.454" transform="matrix(0.995833 -0.0911933 0.0832943 0.996525 378.373 171.884)" fill="#FFBE46"/>
<rect width="4.908" height="5.13366" rx="2.454" transform="matrix(0.995833 -0.0911933 0.0832943 0.996525 388.185 171.884)" fill="#FFBE46"/>
<rect width="4.908" height="5.13366" rx="2.454" transform="matrix(0.995833 -0.0911933 0.0832943 0.996525 397.998 171.884)" fill="#FFBE46"/>
<rect width="4.908" height="5.13366" rx="2.454" transform="matrix(0.995833 -0.0911933 0.0832943 0.996525 407.81 171.884)" fill="#FFBE46"/>
<rect width="4.908" height="5.13366" rx="2.454" transform="matrix(0.995833 -0.0911933 0.0832943 0.996525 417.623 171.884)" fill="#FFBE46"/>
<rect width="4.908" height="5.13366" rx="2.454" transform="matrix(0.995833 -0.0911933 0.0832943 0.996525 427.435 171.884)" fill="#FFBE46"/>
<rect width="4.908" height="5.13366" rx="2.454" transform="matrix(0.995833 -0.0911933 0.0832943 0.996525 437.248 171.884)" fill="#FFBE46"/>
<rect width="4.908" height="5.13366" rx="2.454" transform="matrix(0.995833 -0.0911933 0.0832943 0.996525 447.06 171.884)" fill="#FFBE46"/>
<rect width="4.908" height="5.13366" rx="2.454" transform="matrix(0.995833 -0.0911933 0.0832943 0.996525 456.872 171.884)" fill="#FFBE46"/>
<rect width="4.908" height="5.13366" rx="2.454" transform="matrix(0.995833 -0.0911933 0.0832943 0.996525 466.685 171.884)" fill="#FFBE46"/>
<path d="M146.191 78.4766H83.7891V293.516H146.191V319.297H54.4922V52.6953H146.191V78.4766ZM502.852 52.6953V319.297H411.152V293.516H471.797V78.4766H411.152V52.6953H502.852Z" fill="url(#paint1_linear)"/>
<path d="M73.0407 146.902L483.455 111.614L482.828 196.375L72.4082 232.282L73.0407 146.902Z" fill="#272C34"/>
<g filter="url(#filter0_d)">
<path d="M205.924 211.15L359.086 197.414L359.372 272.676L206.208 285.804L205.924 211.15Z" fill="white"/>
<path d="M207.701 284.17L207.429 212.521L357.592 199.054L357.866 271.299L207.701 284.17Z" stroke="#272C34" stroke-width="3"/>
</g>
<path d="M91.2541 166.694L99.2236 165.997L94.5706 205.336L117.523 203.328L116.723 210.336L85.8008 213.042L91.2541 166.694ZM144.823 162.007L153.239 161.271L165.128 206.101L157.031 206.81L154.128 194.922L136.021 196.506L130.062 209.169L121.518 209.917L144.823 162.007ZM148.268 169.801L148.14 169.812L138.87 190.153L152.769 188.937L148.268 169.801ZM177.694 159.131L186.429 158.367L203.365 191.128L203.492 191.117L207.469 156.526L215.438 155.829L209.985 202.177L201.25 202.941L184.268 170.377L184.14 170.388L180.211 204.782L172.241 205.479L177.694 159.131ZM226.894 154.827L234.864 154.13L232.399 175.161L232.538 175.277L253.927 152.462L264.574 151.53L244.351 172.252L260.97 197.716L251.916 198.508L238.602 177.766L231.171 185.354L229.41 200.477L221.441 201.175L226.894 154.827ZM281.168 177.768L267.543 151.271L275.895 150.54L285.545 170.511L299.676 148.459L309.112 147.634L289.066 177.719L287.019 195.437L279.049 196.135L281.168 177.768ZM341.357 184.13L351.303 183.26C353.598 183.059 355.562 182.502 357.196 181.588C358.868 180.628 360.268 179.499 361.396 178.201C362.521 176.861 363.421 175.39 364.094 173.789C364.81 172.185 365.339 170.64 365.68 169.153C366.06 167.621 366.279 166.21 366.338 164.92C366.435 163.584 366.45 162.533 366.383 161.768C366.034 157.773 364.893 154.767 362.96 152.752C361.028 150.737 358.468 149.869 355.28 150.148L345.334 151.018L341.357 184.13ZM338.135 145.095L354.839 143.633C360.704 143.12 365.285 144.325 368.582 147.249C371.875 150.13 373.801 154.759 374.358 161.135C374.477 162.495 374.462 164.038 374.314 165.764C374.161 167.448 373.864 169.187 373.421 170.982C372.975 172.734 372.376 174.457 371.625 176.15C370.87 177.801 369.928 179.275 368.799 180.573C367.555 182.01 366.337 183.273 365.148 184.362C363.954 185.408 362.599 186.319 361.082 187.094C359.565 187.87 357.8 188.495 355.786 188.971C353.814 189.444 351.404 189.804 348.557 190.053L332.554 191.453L338.135 145.095ZM401.169 139.58L409.585 138.844L421.474 183.674L413.376 184.382L410.473 172.494L392.366 174.078L386.407 186.742L377.864 187.489L401.169 139.58ZM404.614 147.373L404.486 147.384L395.216 167.726L409.115 166.51L404.614 147.373ZM434.04 136.704L442.775 135.94L459.711 168.7L459.838 168.689L463.814 134.099L471.784 133.402L466.331 179.75L457.596 180.514L440.613 147.95L440.486 147.961L436.556 182.354L428.587 183.052L434.04 136.704Z" fill="white"/>
<path d="M91.2541 166.694L91.1669 165.698L90.356 165.769L90.2609 166.577L91.2541 166.694ZM99.2236 165.997L100.217 166.114L100.361 164.893L99.1365 165L99.2236 165.997ZM94.5706 205.336L93.5775 205.218L93.4331 206.439L94.6577 206.332L94.5706 205.336ZM117.523 203.328L118.516 203.441L118.655 202.225L117.436 202.332L117.523 203.328ZM116.723 210.336L116.81 211.332L117.624 211.261L117.716 210.45L116.723 210.336ZM85.8008 213.042L84.8076 212.925L84.6641 214.145L85.8879 214.038L85.8008 213.042ZM91.3412 167.69L99.3108 166.993L99.1365 165L91.1669 165.698L91.3412 167.69ZM98.2306 165.879L93.5775 205.218L95.5636 205.453L100.217 166.114L98.2306 165.879ZM94.6577 206.332L117.61 204.324L117.436 202.332L94.4834 204.34L94.6577 206.332ZM116.529 203.214L115.729 210.223L117.716 210.45L118.516 203.441L116.529 203.214ZM116.636 209.34L85.7136 212.045L85.8879 214.038L116.81 211.332L116.636 209.34ZM86.7939 213.158L92.2472 166.811L90.2609 166.577L84.8076 212.925L86.7939 213.158ZM144.823 162.007L144.736 161.011L144.172 161.06L143.924 161.57L144.823 162.007ZM153.239 161.271L154.206 161.015L153.99 160.201L153.152 160.275L153.239 161.271ZM165.128 206.101L165.215 207.098L166.399 206.994L166.094 205.845L165.128 206.101ZM157.031 206.81L156.059 207.047L156.263 207.881L157.118 207.806L157.031 206.81ZM154.128 194.922L155.099 194.684L154.895 193.851L154.04 193.925L154.128 194.922ZM136.021 196.506L135.934 195.509L135.361 195.56L135.116 196.08L136.021 196.506ZM130.062 209.169L130.149 210.165L130.722 210.115L130.967 209.595L130.062 209.169ZM121.518 209.917L120.619 209.479L119.847 211.067L121.606 210.913L121.518 209.917ZM148.268 169.801L149.241 169.572L149.043 168.729L148.181 168.804L148.268 169.801ZM148.14 169.812L148.053 168.816L147.472 168.866L147.23 169.397L148.14 169.812ZM138.87 190.153L137.96 189.738L137.249 191.299L138.957 191.149L138.87 190.153ZM152.769 188.937L152.856 189.933L154.007 189.833L153.742 188.708L152.769 188.937ZM144.911 163.003L153.326 162.267L153.152 160.275L144.736 161.011L144.911 163.003ZM152.273 161.527L164.161 206.358L166.094 205.845L154.206 161.015L152.273 161.527ZM165.041 205.105L156.944 205.814L157.118 207.806L165.215 207.098L165.041 205.105ZM158.002 206.573L155.099 194.684L153.156 195.159L156.059 207.047L158.002 206.573ZM154.04 193.925L135.934 195.509L136.108 197.502L154.215 195.918L154.04 193.925ZM135.116 196.08L129.157 208.743L130.967 209.595L136.926 196.931L135.116 196.08ZM129.975 208.173L121.431 208.92L121.606 210.913L130.149 210.165L129.975 208.173ZM122.418 210.354L145.723 162.445L143.924 161.57L120.619 209.479L122.418 210.354ZM148.181 168.804L148.053 168.816L148.227 170.808L148.355 170.797L148.181 168.804ZM147.23 169.397L137.96 189.738L139.78 190.568L149.05 170.227L147.23 169.397ZM138.957 191.149L152.856 189.933L152.682 187.941L138.783 189.157L138.957 191.149ZM153.742 188.708L149.241 169.572L147.294 170.03L151.795 189.166L153.742 188.708ZM177.694 159.131L177.607 158.135L176.796 158.206L176.701 159.015L177.694 159.131ZM186.429 158.367L187.317 157.908L187.01 157.313L186.342 157.371L186.429 158.367ZM203.365 191.128L202.476 191.587L202.784 192.182L203.452 192.124L203.365 191.128ZM203.492 191.117L203.579 192.113L204.393 192.042L204.486 191.231L203.492 191.117ZM207.469 156.526L207.382 155.53L206.568 155.601L206.475 156.412L207.469 156.526ZM215.438 155.829L216.431 155.946L216.575 154.726L215.351 154.833L215.438 155.829ZM209.985 202.177L210.072 203.173L210.883 203.102L210.978 202.294L209.985 202.177ZM201.25 202.941L200.364 203.403L200.672 203.995L201.337 203.937L201.25 202.941ZM184.268 170.377L185.154 169.915L184.845 169.323L184.18 169.381L184.268 170.377ZM184.14 170.388L184.053 169.392L183.239 169.463L183.146 170.275L184.14 170.388ZM180.211 204.782L180.298 205.778L181.111 205.707L181.204 204.895L180.211 204.782ZM172.241 205.479L171.248 205.362L171.104 206.582L172.328 206.475L172.241 205.479ZM177.782 160.128L186.516 159.363L186.342 157.371L177.607 158.135L177.782 160.128ZM185.541 158.826L202.476 191.587L204.253 190.669L187.317 157.908L185.541 158.826ZM203.452 192.124L203.579 192.113L203.405 190.12L203.278 190.132L203.452 192.124ZM204.486 191.231L208.462 156.641L206.475 156.412L202.499 191.002L204.486 191.231ZM207.556 157.523L215.525 156.825L215.351 154.833L207.382 155.53L207.556 157.523ZM214.445 155.712L208.992 202.06L210.978 202.294L216.431 155.946L214.445 155.712ZM209.898 201.181L201.163 201.945L201.337 203.937L210.072 203.173L209.898 201.181ZM202.137 202.479L185.154 169.915L183.381 170.84L200.364 203.403L202.137 202.479ZM184.18 169.381L184.053 169.392L184.227 171.385L184.355 171.373L184.18 169.381ZM183.146 170.275L179.217 204.668L181.204 204.895L185.134 170.502L183.146 170.275ZM180.123 203.786L172.154 204.483L172.328 206.475L180.298 205.778L180.123 203.786ZM173.234 205.596L178.688 159.248L176.701 159.015L171.248 205.362L173.234 205.596ZM226.894 154.827L226.807 153.831L225.996 153.902L225.901 154.71L226.894 154.827ZM234.864 154.13L235.857 154.246L236 153.026L234.776 153.134L234.864 154.13ZM232.399 175.161L231.406 175.044L231.343 175.58L231.756 175.927L232.399 175.161ZM232.538 175.277L231.895 176.043L232.62 176.651L233.267 175.961L232.538 175.277ZM253.927 152.462L253.84 151.466L253.459 151.499L253.197 151.778L253.927 152.462ZM264.574 151.53L265.29 152.229L267.173 150.299L264.487 150.534L264.574 151.53ZM244.351 172.252L243.635 171.553L243.076 172.127L243.514 172.798L244.351 172.252ZM260.97 197.716L261.057 198.712L262.719 198.567L261.807 197.17L260.97 197.716ZM251.916 198.508L251.075 199.049L251.401 199.557L252.003 199.505L251.916 198.508ZM238.602 177.766L239.443 177.226L238.765 176.169L237.887 177.066L238.602 177.766ZM231.171 185.354L230.456 184.655L230.217 184.899L230.178 185.239L231.171 185.354ZM229.41 200.477L229.497 201.474L230.309 201.403L230.404 200.593L229.41 200.477ZM221.441 201.175L220.448 201.058L220.304 202.278L221.528 202.171L221.441 201.175ZM226.981 155.823L234.951 155.126L234.776 153.134L226.807 153.831L226.981 155.823ZM233.87 154.013L231.406 175.044L233.392 175.277L235.857 154.246L233.87 154.013ZM231.756 175.927L231.895 176.043L233.181 174.511L233.042 174.394L231.756 175.927ZM233.267 175.961L254.656 153.146L253.197 151.778L231.808 174.593L233.267 175.961ZM254.014 153.458L264.661 152.527L264.487 150.534L253.84 151.466L254.014 153.458ZM263.858 150.832L243.635 171.553L245.067 172.95L265.29 152.229L263.858 150.832ZM243.514 172.798L260.132 198.263L261.807 197.17L245.189 171.705L243.514 172.798ZM260.883 196.72L251.829 197.512L252.003 199.505L261.057 198.712L260.883 196.72ZM252.758 197.968L239.443 177.226L237.76 178.306L251.075 199.049L252.758 197.968ZM237.887 177.066L230.456 184.655L231.885 186.054L239.316 178.465L237.887 177.066ZM230.178 185.239L228.417 200.362L230.404 200.593L232.164 185.47L230.178 185.239ZM229.323 199.481L221.354 200.178L221.528 202.171L229.497 201.474L229.323 199.481ZM222.434 201.291L227.887 154.944L225.901 154.71L220.448 201.058L222.434 201.291ZM281.168 177.768L282.162 177.883L282.197 177.581L282.058 177.311L281.168 177.768ZM267.543 151.271L267.456 150.274L265.973 150.404L266.654 151.728L267.543 151.271ZM275.895 150.54L276.796 150.105L276.496 149.484L275.808 149.544L275.895 150.54ZM285.545 170.511L284.644 170.946L285.422 172.556L286.387 171.05L285.545 170.511ZM299.676 148.459L299.589 147.463L299.1 147.506L298.834 147.92L299.676 148.459ZM309.112 147.634L309.945 148.188L311.099 146.456L309.025 146.638L309.112 147.634ZM289.066 177.719L288.234 177.165L288.101 177.365L288.073 177.605L289.066 177.719ZM287.019 195.437L287.106 196.433L287.918 196.362L288.012 195.552L287.019 195.437ZM279.049 196.135L278.056 196.02L277.915 197.238L279.136 197.131L279.049 196.135ZM282.058 177.311L268.432 150.813L266.654 151.728L280.279 178.225L282.058 177.311ZM267.63 152.267L275.982 151.536L275.808 149.544L267.456 150.274L267.63 152.267ZM274.995 150.975L284.644 170.946L286.445 170.076L276.796 150.105L274.995 150.975ZM286.387 171.05L300.518 148.999L298.834 147.92L284.703 169.971L286.387 171.05ZM299.764 149.456L309.2 148.63L309.025 146.638L299.589 147.463L299.764 149.456ZM308.28 147.079L288.234 177.165L289.898 178.274L309.945 148.188L308.28 147.079ZM288.073 177.605L286.025 195.322L288.012 195.552L290.06 177.834L288.073 177.605ZM286.932 194.441L278.962 195.138L279.136 197.131L287.106 196.433L286.932 194.441ZM280.043 196.249L282.162 177.883L280.175 177.653L278.056 196.02L280.043 196.249ZM341.357 184.13L340.364 184.011L340.217 185.234L341.444 185.127L341.357 184.13ZM357.196 181.588L357.684 182.461L357.694 182.455L357.196 181.588ZM361.396 178.201L362.151 178.857L362.157 178.851L362.163 178.844L361.396 178.201ZM364.094 173.789L363.181 173.382L363.177 173.392L363.173 173.401L364.094 173.789ZM365.68 169.153L364.71 168.913L364.708 168.921L364.706 168.93L365.68 169.153ZM366.338 164.92L365.34 164.847L365.339 164.861L365.339 164.875L366.338 164.92ZM362.96 152.752L362.239 153.444L362.239 153.444L362.96 152.752ZM345.334 151.018L345.247 150.022L344.438 150.092L344.341 150.898L345.334 151.018ZM338.135 145.095L338.047 144.098L337.239 144.169L337.142 144.975L338.135 145.095ZM368.582 147.249L367.919 147.997L367.924 148.002L368.582 147.249ZM374.314 165.764L375.31 165.854L375.31 165.85L374.314 165.764ZM373.421 170.982L374.39 171.229L374.392 171.221L373.421 170.982ZM371.625 176.15L372.534 176.566L372.539 176.556L371.625 176.15ZM368.799 180.573L368.045 179.917L368.044 179.918L368.799 180.573ZM365.148 184.362L365.807 185.114L365.815 185.107L365.823 185.099L365.148 184.362ZM361.082 187.094L361.537 187.985L361.537 187.985L361.082 187.094ZM355.786 188.971L355.556 187.998L355.553 187.999L355.786 188.971ZM332.554 191.453L331.561 191.334L331.414 192.557L332.641 192.45L332.554 191.453ZM341.444 185.127L351.39 184.256L351.216 182.264L341.27 183.134L341.444 185.127ZM351.39 184.256C353.795 184.046 355.902 183.458 357.684 182.461L356.707 180.716C355.223 181.546 353.402 182.073 351.216 182.264L351.39 184.256ZM357.694 182.455C359.451 181.447 360.941 180.249 362.151 178.857L360.642 177.545C359.595 178.749 358.285 179.81 356.698 180.721L357.694 182.455ZM362.163 178.844C363.351 177.427 364.303 175.871 365.016 174.177L363.173 173.401C362.538 174.909 361.691 176.294 360.63 177.558L362.163 178.844ZM365.007 174.197C365.746 172.542 366.297 170.935 366.655 169.377L364.706 168.93C364.381 170.344 363.875 171.828 363.181 173.382L365.007 174.197ZM366.651 169.394C367.043 167.811 367.275 166.334 367.337 164.965L365.339 164.875C365.284 166.086 365.077 167.431 364.71 168.913L366.651 169.394ZM367.335 164.993C367.434 163.636 367.453 162.524 367.379 161.681L365.387 161.855C365.447 162.542 365.436 163.532 365.34 164.847L367.335 164.993ZM367.379 161.681C367.018 157.555 365.828 154.298 363.682 152.06L362.239 153.444C363.957 155.236 365.049 157.99 365.387 161.855L367.379 161.681ZM363.682 152.06C361.508 149.792 358.633 148.85 355.193 149.151L355.367 151.144C358.303 150.887 360.548 151.681 362.239 153.444L363.682 152.06ZM355.193 149.151L345.247 150.022L345.421 152.014L355.367 151.144L355.193 149.151ZM344.341 150.898L340.364 184.011L342.35 184.25L346.327 151.137L344.341 150.898ZM338.222 146.091L354.926 144.629L354.752 142.637L338.047 144.098L338.222 146.091ZM354.926 144.629C360.614 144.132 364.89 145.311 367.919 147.997L369.246 146.501C365.681 143.34 360.795 142.108 354.752 142.637L354.926 144.629ZM367.924 148.002C370.949 150.649 372.817 154.985 373.362 161.222L375.355 161.047C374.785 154.533 372.802 149.612 369.241 146.497L367.924 148.002ZM373.362 161.222C373.475 162.511 373.462 163.995 373.317 165.678L375.31 165.85C375.462 164.081 375.48 162.478 375.355 161.047L373.362 161.222ZM373.318 165.674C373.17 167.303 372.882 168.992 372.45 170.742L374.392 171.221C374.846 169.382 375.152 167.593 375.31 165.854L373.318 165.674ZM372.452 170.735C372.02 172.431 371.44 174.101 370.711 175.744L372.539 176.556C373.312 174.812 373.93 173.036 374.39 171.229L372.452 170.735ZM370.715 175.734C369.998 177.303 369.107 178.695 368.045 179.917L369.554 181.229C370.749 179.855 371.741 178.299 372.534 176.566L370.715 175.734ZM368.044 179.918C366.82 181.331 365.629 182.565 364.472 183.624L365.823 185.099C367.045 183.98 368.289 182.689 369.555 181.228L368.044 179.918ZM364.488 183.61C363.361 184.598 362.076 185.464 360.627 186.204L361.537 187.985C363.123 187.175 364.547 186.219 365.807 185.114L364.488 183.61ZM360.627 186.204C359.195 186.936 357.508 187.537 355.556 187.998L356.016 189.944C358.092 189.454 359.936 188.803 361.537 187.985L360.627 186.204ZM355.553 187.999C353.644 188.456 351.286 188.811 348.469 189.057L348.644 191.05C351.522 190.798 353.984 190.431 356.019 189.944L355.553 187.999ZM348.469 189.057L332.467 190.457L332.641 192.45L348.644 191.05L348.469 189.057ZM333.547 191.573L339.127 145.214L337.142 144.975L331.561 191.334L333.547 191.573ZM401.169 139.58L401.082 138.584L400.518 138.633L400.27 139.142L401.169 139.58ZM409.585 138.844L410.552 138.587L410.336 137.774L409.498 137.847L409.585 138.844ZM421.474 183.674L421.561 184.67L422.745 184.567L422.44 183.418L421.474 183.674ZM413.376 184.382L412.405 184.62L412.609 185.453L413.464 185.379L413.376 184.382ZM410.473 172.494L411.445 172.257L411.241 171.423L410.386 171.498L410.473 172.494ZM392.366 174.078L392.279 173.082L391.706 173.132L391.462 173.653L392.366 174.078ZM386.407 186.742L386.495 187.738L387.067 187.688L387.312 187.168L386.407 186.742ZM377.864 187.489L376.965 187.052L376.193 188.639L377.951 188.486L377.864 187.489ZM404.614 147.373L405.587 147.144L405.389 146.302L404.526 146.377L404.614 147.373ZM404.486 147.384L404.399 146.388L403.818 146.439L403.576 146.97L404.486 147.384ZM395.216 167.726L394.306 167.311L393.595 168.871L395.303 168.722L395.216 167.726ZM409.115 166.51L409.202 167.506L410.352 167.405L410.088 166.281L409.115 166.51ZM401.256 140.576L409.672 139.84L409.498 137.847L401.082 138.584L401.256 140.576ZM408.618 139.1L420.507 183.93L422.44 183.418L410.552 138.587L408.618 139.1ZM421.386 182.678L413.289 183.386L413.464 185.379L421.561 184.67L421.386 182.678ZM414.348 184.145L411.445 172.257L409.502 172.731L412.405 184.62L414.348 184.145ZM410.386 171.498L392.279 173.082L392.454 175.075L410.56 173.49L410.386 171.498ZM391.462 173.653L385.503 186.316L387.312 187.168L393.271 174.504L391.462 173.653ZM386.32 185.746L377.777 186.493L377.951 188.486L386.495 187.738L386.32 185.746ZM378.763 187.927L402.068 140.017L400.27 139.142L376.965 187.052L378.763 187.927ZM404.526 146.377L404.399 146.388L404.573 148.381L404.701 148.37L404.526 146.377ZM403.576 146.97L394.306 167.311L396.126 168.141L405.396 147.799L403.576 146.97ZM395.303 168.722L409.202 167.506L409.027 165.514L395.129 166.73L395.303 168.722ZM410.088 166.281L405.587 147.144L403.64 147.602L408.141 166.739L410.088 166.281ZM434.04 136.704L433.953 135.708L433.142 135.779L433.047 136.587L434.04 136.704ZM442.775 135.94L443.663 135.481L443.355 134.885L442.688 134.944L442.775 135.94ZM459.711 168.7L458.822 169.16L459.13 169.755L459.798 169.697L459.711 168.7ZM459.838 168.689L459.925 169.685L460.738 169.614L460.832 168.804L459.838 168.689ZM463.814 134.099L463.727 133.103L462.914 133.174L462.821 133.985L463.814 134.099ZM471.784 133.402L472.777 133.519L472.921 132.299L471.697 132.406L471.784 133.402ZM466.331 179.75L466.418 180.746L467.229 180.675L467.324 179.866L466.331 179.75ZM457.596 180.514L456.709 180.976L457.018 181.568L457.683 181.51L457.596 180.514ZM440.613 147.95L441.5 147.488L441.191 146.896L440.526 146.954L440.613 147.95ZM440.486 147.961L440.399 146.965L439.585 147.036L439.492 147.848L440.486 147.961ZM436.556 182.354L436.644 183.351L437.457 183.279L437.55 182.468L436.556 182.354ZM428.587 183.052L427.594 182.935L427.45 184.155L428.674 184.048L428.587 183.052ZM434.127 137.7L442.862 136.936L442.688 134.944L433.953 135.708L434.127 137.7ZM441.886 136.399L458.822 169.16L460.599 168.241L443.663 135.481L441.886 136.399ZM459.798 169.697L459.925 169.685L459.751 167.693L459.623 167.704L459.798 169.697ZM460.832 168.804L464.808 134.213L462.821 133.985L458.845 168.575L460.832 168.804ZM463.902 135.095L471.871 134.398L471.697 132.406L463.727 133.103L463.902 135.095ZM470.791 133.285L465.338 179.633L467.324 179.866L472.777 133.519L470.791 133.285ZM466.244 178.753L457.509 179.517L457.683 181.51L466.418 180.746L466.244 178.753ZM458.483 180.051L441.5 147.488L439.727 148.412L456.709 180.976L458.483 180.051ZM440.526 146.954L440.399 146.965L440.573 148.957L440.7 148.946L440.526 146.954ZM439.492 147.848L435.563 182.241L437.55 182.468L441.479 148.075L439.492 147.848ZM436.469 181.358L428.5 182.055L428.674 184.048L436.644 183.351L436.469 181.358ZM429.58 183.169L435.033 136.821L433.047 136.587L427.594 182.935L429.58 183.169Z" fill="white"/>
<path d="M227.022 267.372L240.156 266.223C242.791 265.993 245.119 265.425 247.138 264.52C249.2 263.612 250.985 262.471 252.492 261.097C253.996 259.68 255.249 258.093 256.252 256.335C257.297 254.573 258.101 252.747 258.663 250.856C259.268 248.961 259.659 247.064 259.836 245.164C260.051 243.218 260.08 241.352 259.924 239.567C259.697 236.974 259.241 234.701 258.557 232.748C257.872 230.795 256.898 229.21 255.635 227.993C254.368 226.733 252.77 225.845 250.841 225.329C248.911 224.812 246.586 224.673 243.866 224.911L232.071 225.943L227.022 267.372ZM229.563 223.721L244.291 222.432C247.352 222.165 249.98 222.342 252.176 222.963C254.371 223.585 256.197 224.624 257.652 226.082C259.15 227.535 260.297 229.384 261.093 231.627C261.927 233.824 262.473 236.389 262.729 239.322C263.016 242.594 262.769 245.892 261.989 249.216C261.209 252.539 259.891 255.588 258.035 258.363C256.179 261.138 253.813 263.465 250.937 265.344C248.056 267.181 244.64 268.272 240.687 268.618L223.919 270.085L229.563 223.721ZM276.333 219.629L306.044 217.03L305.682 219.503L278.841 221.851L276.61 240.42L301.603 238.233L301.369 240.695L276.312 242.887L273.856 263.275L301.526 260.854L301.228 263.322L270.753 265.988L276.333 219.629ZM310.039 216.68L312.844 216.435L323.276 258.566L323.404 258.555L344.786 213.64L347.592 213.395L324.924 261.248L321.609 261.538L310.039 216.68Z" fill="#272C34"/>
<rect x="198" y="253.743" width="20" height="20" rx="10" transform="rotate(-5 198 253.743)" fill="#D271E3"/>
<defs>
<filter id="filter0_d" x="199.695" y="197.414" width="173.928" height="96.6595" filterUnits="userSpaceOnUse" color-interpolation-filters="sRGB">
<feFlood flood-opacity="0" result="BackgroundImageFix"/>
<feColorMatrix in="SourceAlpha" type="matrix" values="0 0 0 0 0 0 0 0 0 0 0 0 0 0 0 0 0 0 127 0"/>
<feOffset dx="4" dy="4"/>
<feGaussianBlur stdDeviation="2"/>
<feColorMatrix type="matrix" values="0 0 0 0 0 0 0 0 0 0 0 0 0 0 0 0 0 0 0.35 0"/>
<feBlend mode="normal" in2="BackgroundImageFix" result="effect1_dropShadow"/>
<feBlend mode="normal" in="SourceGraphic" in2="effect1_dropShadow" result="shape"/>
</filter>
<linearGradient id="paint0_linear" x1="277.5" y1="194" x2="277.5" y2="294" gradientUnits="userSpaceOnUse">
<stop stop-color="#B2CCD6"/>
<stop offset="1" stop-color="#B0CBDC" stop-opacity="0"/>
</linearGradient>
<linearGradient id="paint1_linear" x1="291.5" y1="0" x2="291.5" y2="360" gradientUnits="userSpaceOnUse">
<stop offset="0.046875" stop-color="#D271E3"/>
<stop offset="0.802083" stop-color="#82AAFF"/>
<stop offset="1" stop-color="#82AAFF"/>
</linearGradient>
</defs>
</svg>
